<svg width="36" height="35" viewBox="0 0 36 35" fill="none" xmlns="http://www.w3.org/2000/svg">
<g id="Group">
<path id="Vector" d="M4.97658 12.0874C4.74312 11.0357 4.77897 9.94218 5.0808 8.9081C5.38263 7.87401 5.94068 6.93287 6.7032 6.17195C7.46572 5.41103 8.40802 4.85495 9.44274 4.55528C10.4775 4.25562 11.5711 4.22206 12.6222 4.45772C13.2008 3.55288 13.9978 2.80824 14.9398 2.29245C15.8819 1.77665 16.9386 1.50629 18.0126 1.50629C19.0866 1.50629 20.1433 1.77665 21.0853 2.29245C22.0273 2.80824 22.8244 3.55288 23.4029 4.45772C24.4557 4.22103 25.5512 4.25444 26.5875 4.55483C27.6239 4.85523 28.5675 5.41285 29.3304 6.17584C30.0934 6.93883 30.6511 7.88239 30.9515 8.91875C31.2518 9.95512 31.2853 11.0506 31.0486 12.1034C31.9534 12.6819 32.698 13.479 33.2138 14.421C33.7296 15.363 34 16.4197 34 17.4937C34 18.5677 33.7296 19.6244 33.2138 20.5664C32.698 21.5085 31.9534 22.3055 31.0486 22.8841C31.2842 23.9352 31.2507 25.0288 30.951 26.0635C30.6513 27.0983 30.0953 28.0406 29.3343 28.8031C28.5734 29.5656 27.6323 30.1237 26.5982 30.4255C25.5641 30.7273 24.4705 30.7632 23.4189 30.5297C22.8411 31.438 22.0435 32.1858 21.0998 32.7039C20.1562 33.2221 19.0971 33.4937 18.0206 33.4937C16.9441 33.4937 15.8849 33.2221 14.9413 32.7039C13.9977 32.1858 13.2 31.438 12.6222 30.5297C11.5711 30.7654 10.4775 30.7318 9.44274 30.4321C8.40802 30.1325 7.46572 29.5764 6.7032 28.8155C5.94068 28.0546 5.38263 27.1134 5.0808 26.0793C4.77897 25.0452 4.74312 23.9517 4.97658 22.9001C4.06479 22.323 3.31375 21.5248 2.79333 20.5795C2.27291 19.6343 2 18.5728 2 17.4937C2 16.4147 2.27291 15.3532 2.79333 14.4079C3.31375 13.4627 4.06479 12.6644 4.97658 12.0874Z" stroke="#1B2ACB" stroke-width="2.5" stroke-linecap="round" stroke-linejoin="round"/>
<path id="Vector_2" d="M13.2153 17.4935L16.4143 20.6925L22.8124 14.2945" stroke="#1B2ACB" stroke-width="2.5" stroke-linecap="round" stroke-linejoin="round"/>
</g>
</svg>
