<svg width="76" height="76" viewBox="0 0 76 76" fill="none" xmlns="http://www.w3.org/2000/svg">
<rect width="76" height="76" rx="11.4" fill="#1B29CB"/>
<circle cx="37.9999" cy="38" r="25.65" stroke="white" stroke-width="1.9"/>
<circle cx="38.0002" cy="38" r="21.85" stroke="white" stroke-width="1.9"/>
<circle cx="38.0001" cy="38" r="29.45" stroke="white" stroke-width="1.9"/>
<path d="M25.7944 40.578C25.8678 40.9818 26.033 41.2938 26.29 41.5141C26.5561 41.7252 26.9095 41.8307 27.35 41.8307C27.919 41.8307 28.3319 41.5967 28.5889 41.1286C28.8459 40.6514 28.9744 39.853 28.9744 38.7333C28.7633 39.027 28.465 39.2564 28.0796 39.4216C27.7033 39.5868 27.2949 39.6694 26.8544 39.6694C26.267 39.6694 25.7348 39.5501 25.2575 39.3115C24.7895 39.0637 24.4178 38.7012 24.1425 38.224C23.8672 37.7376 23.7295 37.1502 23.7295 36.4619C23.7295 35.4433 24.0324 34.6356 24.6381 34.0391C25.2438 33.4334 26.0697 33.1306 27.1159 33.1306C28.4191 33.1306 29.3369 33.5481 29.8692 34.3833C30.4106 35.2184 30.6814 36.4757 30.6814 38.1552C30.6814 39.3482 30.5758 40.3256 30.3647 41.0873C30.1628 41.8491 29.8095 42.4272 29.3047 42.8219C28.8092 43.2165 28.13 43.4138 27.2674 43.4138C26.5883 43.4138 26.0101 43.2853 25.5329 43.0283C25.0556 42.7622 24.6885 42.418 24.4316 41.9959C24.1838 41.5646 24.0415 41.0919 24.0048 40.578H25.7944ZM27.2536 38.1001C27.7308 38.1001 28.1071 37.9533 28.3824 37.6596C28.6577 37.3659 28.7954 36.9713 28.7954 36.4757C28.7954 35.9342 28.6486 35.5167 28.3549 35.223C28.0704 34.9201 27.6804 34.7687 27.1848 34.7687C26.6892 34.7687 26.2946 34.9247 26.0009 35.2368C25.7164 35.5396 25.5742 35.9434 25.5742 36.4482C25.5742 36.9346 25.7118 37.3338 25.9871 37.6458C26.2716 37.9487 26.6938 38.1001 27.2536 38.1001ZM32.1815 38.2515C32.1815 36.6638 32.466 35.4203 33.035 34.5209C33.6132 33.6215 34.5676 33.1719 35.8984 33.1719C37.2291 33.1719 38.1789 33.6215 38.7479 34.5209C39.3261 35.4203 39.6152 36.6638 39.6152 38.2515C39.6152 39.8484 39.3261 41.1011 38.7479 42.0097C38.1789 42.9182 37.2291 43.3725 35.8984 43.3725C34.5676 43.3725 33.6132 42.9182 33.035 42.0097C32.466 41.1011 32.1815 39.8484 32.1815 38.2515ZM37.7155 38.2515C37.7155 37.5724 37.6696 37.0034 37.5778 36.5445C37.4952 36.0765 37.3208 35.6956 37.0547 35.402C36.7977 35.1083 36.4123 34.9614 35.8984 34.9614C35.3844 34.9614 34.9944 35.1083 34.7282 35.402C34.4713 35.6956 34.2969 36.0765 34.2051 36.5445C34.1225 37.0034 34.0812 37.5724 34.0812 38.2515C34.0812 38.949 34.1225 39.5364 34.2051 40.0136C34.2877 40.4816 34.4621 40.8625 34.7282 41.1562C34.9944 41.4407 35.3844 41.5829 35.8984 41.5829C36.4123 41.5829 36.8023 41.4407 37.0685 41.1562C37.3346 40.8625 37.509 40.4816 37.5916 40.0136C37.6742 39.5364 37.7155 38.949 37.7155 38.2515ZM40.8608 35.8287C40.8608 35.1312 41.0627 34.5852 41.4665 34.1905C41.8795 33.7959 42.4072 33.5986 43.0496 33.5986C43.692 33.5986 44.2151 33.7959 44.6189 34.1905C45.0319 34.5852 45.2384 35.1312 45.2384 35.8287C45.2384 36.5354 45.0319 37.086 44.6189 37.4806C44.2151 37.8753 43.692 38.0726 43.0496 38.0726C42.4072 38.0726 41.8795 37.8753 41.4665 37.4806C41.0627 37.086 40.8608 36.5354 40.8608 35.8287ZM49.6986 33.7638L44.2885 43.4H42.4164L47.8126 33.7638H49.6986ZM43.0358 34.755C42.5311 34.755 42.2787 35.1129 42.2787 35.8287C42.2787 36.5537 42.5311 36.9162 43.0358 36.9162C43.2836 36.9162 43.4763 36.829 43.614 36.6547C43.7517 36.4711 43.8205 36.1958 43.8205 35.8287C43.8205 35.1129 43.5589 34.755 43.0358 34.755ZM46.9041 41.3214C46.9041 40.6147 47.106 40.0686 47.5098 39.6832C47.9228 39.2886 48.4505 39.0913 49.0929 39.0913C49.7353 39.0913 50.2538 39.2886 50.6484 39.6832C51.0523 40.0686 51.2542 40.6147 51.2542 41.3214C51.2542 42.028 51.0523 42.5787 50.6484 42.9733C50.2538 43.3679 49.7353 43.5652 49.0929 43.5652C48.4413 43.5652 47.9136 43.3679 47.5098 42.9733C47.106 42.5787 46.9041 42.028 46.9041 41.3214ZM49.0791 40.2476C48.556 40.2476 48.2945 40.6055 48.2945 41.3214C48.2945 42.0464 48.556 42.4089 49.0791 42.4089C49.5931 42.4089 49.85 42.0464 49.85 41.3214C49.85 40.6055 49.5931 40.2476 49.0791 40.2476Z" fill="white"/>
</svg>
