<svg width="210" height="198" viewBox="0 0 210 198" fill="none" xmlns="http://www.w3.org/2000/svg">
<rect x="0.598762" y="0.598762" width="208.369" height="196.394" rx="17.3641" fill="#F8F9FF"/>
<rect x="0.598762" y="0.598762" width="208.369" height="196.394" rx="17.3641" stroke="#E3E3E3" stroke-width="1.19752"/>
<path d="M70.2049 161.665C67.0352 161.665 64.3227 160.494 62.0674 158.151C59.8121 155.808 58.6826 152.987 58.6787 149.69V89.8141C58.6787 86.5209 59.8083 83.7027 62.0674 81.3596C64.3265 79.0164 67.039 77.8428 70.2049 77.8388H75.968V65.8636C75.968 57.5807 78.7784 50.5214 84.3993 44.6854C90.0203 38.8495 96.8149 35.9295 104.783 35.9255C112.752 35.9215 119.548 38.8415 125.173 44.6854C130.798 50.5293 133.606 57.5887 133.599 65.8636V77.8388H139.362C142.532 77.8388 145.246 79.0124 147.505 81.3596C149.764 83.7067 150.892 86.5249 150.888 89.8141V149.69C150.888 152.983 149.76 155.804 147.505 158.151C145.25 160.498 142.535 161.669 139.362 161.665H70.2049ZM104.783 131.727C107.953 131.727 110.667 130.556 112.927 128.213C115.186 125.87 116.313 123.049 116.31 119.752C116.306 116.455 115.178 113.637 112.927 111.298C110.675 108.958 107.961 107.785 104.783 107.777C101.606 107.769 98.8935 108.943 96.6459 111.298C94.3983 113.653 93.2687 116.471 93.2572 119.752C93.2457 123.033 94.3752 125.854 96.6459 128.213C98.9165 130.572 101.629 131.743 104.783 131.727ZM87.4941 77.8388H122.073V65.8636C122.073 60.8739 120.392 56.6327 117.03 53.1399C113.668 49.6472 109.586 47.9008 104.783 47.9008C99.9808 47.9008 95.8986 49.6472 92.5368 53.1399C89.175 56.6327 87.4941 60.8739 87.4941 65.8636V77.8388Z" fill="#E3E7FF" fill-opacity="0.5"/>
<path d="M17.3628 16.7641C80.2328 13.1716 119.751 174.239 193.399 166.454" stroke="#EEF0FF" stroke-width="1.19752"/>
<circle cx="192.801" cy="166.456" r="1.19752" fill="#EEF0FF"/>
<circle cx="17.9622" cy="16.7654" r="1.19752" fill="#EEF0FF"/>
<path d="M122.594 61.5131L124.64 56.7283L129.173 54.5683C129.4 54.4596 129.591 54.2845 129.726 54.0639C129.86 53.8433 129.932 53.5865 129.932 53.3243C129.932 53.062 129.86 52.8052 129.726 52.5847C129.591 52.3641 129.4 52.189 129.173 52.0802L124.64 49.9202L122.594 45.1081C122.491 44.8695 122.325 44.6671 122.116 44.5252C121.907 44.3833 121.663 44.3079 121.415 44.3079C121.166 44.3079 120.923 44.3833 120.714 44.5252C120.505 44.6671 120.339 44.8695 120.236 45.1081L118.19 49.8929L113.63 52.0529C113.404 52.1616 113.213 52.3367 113.078 52.5573C112.944 52.7779 112.872 53.0346 112.872 53.2969C112.872 53.5592 112.944 53.8159 113.078 54.0365C113.213 54.2571 113.404 54.4322 113.63 54.541L118.164 56.7009L120.21 61.5131C120.677 62.5794 122.127 62.5794 122.594 61.5131ZM101.973 65.6143L97.8542 56.0447C96.9475 53.9121 94.0461 53.9121 93.1394 56.0447L89.0205 65.6143L79.9537 69.9616C77.9331 70.9459 77.9331 73.9808 79.9537 74.9377L89.0205 79.285L93.1394 88.8546C94.072 90.9872 96.9475 90.9872 97.8542 88.8546L101.973 79.285L111.04 74.9377C113.06 73.9534 113.06 70.9185 111.04 69.9616L101.973 65.6143ZM120.21 83.3863L118.164 88.171L113.63 90.331C113.404 90.4398 113.213 90.6149 113.078 90.8354C112.944 91.056 112.872 91.3128 112.872 91.5751C112.872 91.8373 112.944 92.0941 113.078 92.3147C113.213 92.5352 113.404 92.7104 113.63 92.8191L118.164 94.9791L120.21 99.7912C120.313 100.03 120.479 100.232 120.688 100.374C120.897 100.516 121.14 100.591 121.389 100.591C121.638 100.591 121.881 100.516 122.09 100.374C122.299 100.232 122.465 100.03 122.568 99.7912L124.614 95.0064L129.173 92.8464C129.4 92.7377 129.591 92.5626 129.726 92.342C129.86 92.1214 129.932 91.8647 129.932 91.6024C129.932 91.3401 129.86 91.0834 129.726 90.8628C129.591 90.6422 129.4 90.4671 129.173 90.3584L124.64 88.1984L122.594 83.3863C122.487 83.1473 122.319 82.9451 122.108 82.8035C121.897 82.6619 121.652 82.5867 121.402 82.5867C121.152 82.5867 120.907 82.6619 120.696 82.8035C120.485 82.9451 120.316 83.1473 120.21 83.3863Z" fill="url(#paint0_angular_441_16646)"/>
<path d="M38.3785 144.357H35.3098L42.205 125.196H45.5449L52.44 144.357H49.3714L43.9545 128.677H43.8048L38.3785 144.357ZM38.8931 136.853H48.8475V139.286H38.8931V136.853ZM64.0855 138.397V129.986H66.8922V144.357H64.1416V141.868H63.9919C63.6614 142.635 63.1312 143.275 62.4015 143.786C61.678 144.291 60.7767 144.544 59.6977 144.544C58.7746 144.544 57.9575 144.341 57.2465 143.936C56.5417 143.524 55.9866 142.916 55.5812 142.111C55.182 141.307 54.9824 140.312 54.9824 139.127V129.986H57.7798V138.79C57.7798 139.769 58.0511 140.549 58.5937 141.129C59.1363 141.709 59.8411 141.999 60.7081 141.999C61.232 141.999 61.7528 141.868 62.2705 141.606C62.7944 141.344 63.2279 140.948 63.5709 140.418C63.9202 139.888 64.0917 139.214 64.0855 138.397ZM77.3588 129.986V132.232H69.5094V129.986H77.3588ZM71.6144 126.544H74.4118V140.137C74.4118 140.68 74.4929 141.088 74.655 141.363C74.8172 141.631 75.0261 141.815 75.2819 141.915C75.5438 142.008 75.8276 142.055 76.1332 142.055C76.3578 142.055 76.5542 142.04 76.7226 142.008C76.891 141.977 77.022 141.952 77.1156 141.934L77.6208 144.244C77.4586 144.307 77.2278 144.369 76.9285 144.432C76.6291 144.5 76.2548 144.538 75.8058 144.544C75.0698 144.556 74.3837 144.425 73.7475 144.151C73.1113 143.876 72.5968 143.452 72.2038 142.878C71.8109 142.305 71.6144 141.584 71.6144 140.717V126.544ZM86.3519 144.647C85.0047 144.647 83.829 144.338 82.8249 143.721C81.8207 143.103 81.041 142.239 80.4859 141.129C79.9308 140.019 79.6533 138.721 79.6533 137.237C79.6533 135.746 79.9308 134.443 80.4859 133.326C81.041 132.21 81.8207 131.343 82.8249 130.726C83.829 130.108 85.0047 129.799 86.3519 129.799C87.6991 129.799 88.8748 130.108 89.879 130.726C90.8832 131.343 91.6628 132.21 92.2179 133.326C92.773 134.443 93.0506 135.746 93.0506 137.237C93.0506 138.721 92.773 140.019 92.2179 141.129C91.6628 142.239 90.8832 143.103 89.879 143.721C88.8748 144.338 87.6991 144.647 86.3519 144.647ZM86.3613 142.298C87.2345 142.298 87.958 142.068 88.5318 141.606C89.1056 141.145 89.5297 140.53 89.8042 139.763C90.0848 138.996 90.2252 138.151 90.2252 137.228C90.2252 136.311 90.0848 135.469 89.8042 134.702C89.5297 133.928 89.1056 133.308 88.5318 132.84C87.958 132.372 87.2345 132.138 86.3613 132.138C85.4819 132.138 84.7521 132.372 84.1721 132.84C83.5983 133.308 83.171 133.928 82.8903 134.702C82.6159 135.469 82.4787 136.311 82.4787 137.228C82.4787 138.151 82.6159 138.996 82.8903 139.763C83.171 140.53 83.5983 141.145 84.1721 141.606C84.7521 142.068 85.4819 142.298 86.3613 142.298ZM104.988 144.357H101.92L108.815 125.196H112.155L119.05 144.357H115.981L110.564 128.677H110.415L104.988 144.357ZM105.503 136.853H115.457V139.286H105.503V136.853ZM121.592 149.746V129.986H124.324V132.316H124.558C124.72 132.017 124.954 131.67 125.26 131.277C125.565 130.885 125.989 130.542 126.532 130.248C127.075 129.949 127.792 129.799 128.684 129.799C129.844 129.799 130.879 130.092 131.79 130.679C132.701 131.265 133.415 132.11 133.932 133.214C134.456 134.318 134.718 135.647 134.718 137.2C134.718 138.753 134.459 140.084 133.942 141.194C133.424 142.298 132.713 143.15 131.809 143.749C130.904 144.341 129.872 144.637 128.712 144.637C127.839 144.637 127.125 144.491 126.57 144.198C126.021 143.904 125.59 143.561 125.278 143.169C124.967 142.776 124.726 142.426 124.558 142.121H124.39V149.746H121.592ZM124.334 137.172C124.334 138.182 124.48 139.068 124.773 139.829C125.066 140.589 125.491 141.185 126.046 141.615C126.601 142.04 127.281 142.252 128.085 142.252C128.921 142.252 129.619 142.03 130.181 141.587C130.742 141.138 131.166 140.53 131.453 139.763C131.746 138.996 131.893 138.132 131.893 137.172C131.893 136.224 131.749 135.372 131.463 134.617C131.182 133.863 130.758 133.267 130.19 132.831C129.629 132.394 128.927 132.176 128.085 132.176C127.274 132.176 126.588 132.385 126.027 132.802C125.472 133.22 125.051 133.804 124.764 134.552C124.477 135.3 124.334 136.174 124.334 137.172ZM137.852 149.746V129.986H140.584V132.316H140.818C140.98 132.017 141.214 131.67 141.52 131.277C141.825 130.885 142.25 130.542 142.792 130.248C143.335 129.949 144.052 129.799 144.944 129.799C146.104 129.799 147.139 130.092 148.05 130.679C148.961 131.265 149.675 132.11 150.193 133.214C150.716 134.318 150.978 135.647 150.978 137.2C150.978 138.753 150.72 140.084 150.202 141.194C149.684 142.298 148.973 143.15 148.069 143.749C147.164 144.341 146.132 144.637 144.972 144.637C144.099 144.637 143.385 144.491 142.83 144.198C142.281 143.904 141.85 143.561 141.539 143.169C141.227 142.776 140.987 142.426 140.818 142.121H140.65V149.746H137.852ZM140.594 137.172C140.594 138.182 140.74 139.068 141.033 139.829C141.327 140.589 141.751 141.185 142.306 141.615C142.861 142.04 143.541 142.252 144.345 142.252C145.181 142.252 145.88 142.03 146.441 141.587C147.002 141.138 147.426 140.53 147.713 139.763C148.006 138.996 148.153 138.132 148.153 137.172C148.153 136.224 148.01 135.372 147.723 134.617C147.442 133.863 147.018 133.267 146.45 132.831C145.889 132.394 145.187 132.176 144.345 132.176C143.534 132.176 142.848 132.385 142.287 132.802C141.732 133.22 141.311 133.804 141.024 134.552C140.737 135.3 140.594 136.174 140.594 137.172ZM156.91 125.196V144.357H154.113V125.196H156.91ZM162.441 149.746C162.024 149.746 161.643 149.711 161.3 149.643C160.957 149.58 160.701 149.512 160.533 149.437L161.206 147.145C161.718 147.282 162.173 147.341 162.572 147.322C162.972 147.304 163.324 147.154 163.63 146.873C163.941 146.593 164.216 146.134 164.453 145.498L164.799 144.544L159.541 129.986H162.535L166.174 141.138H166.324L169.963 129.986H172.967L167.044 146.275C166.77 147.023 166.421 147.656 165.997 148.174C165.572 148.698 165.067 149.091 164.481 149.353C163.895 149.615 163.215 149.746 162.441 149.746Z" fill="#1B2ACB"/>
<defs>
<radialGradient id="paint0_angular_441_16646" cx="0" cy="0" r="1" gradientUnits="userSpaceOnUse" gradientTransform="translate(72.7097 41.4109) rotate(52.5289) scale(119.411 50.2076)">
<stop offset="0.0331602" stop-color="#0012DB"/>
<stop offset="0.779789" stop-color="white"/>
<stop offset="0.867979" stop-color="#1B2DCB"/>
</radialGradient>
</defs>
</svg>
