<svg width="80" height="80" viewBox="0 0 80 80" fill="none" xmlns="http://www.w3.org/2000/svg">
<g id="Group 1171276094">
<g id="Group 1171276080">
<circle id="Ellipse 142" cx="40" cy="40" r="40" fill="#687CE5"/>
<path id="Intersect" fill-rule="evenodd" clip-rule="evenodd" d="M1.23828 49.9113C31.3067 13.3984 78.2696 37.4 36.4018 79.8403C19.3402 78.3188 5.3613 66.0847 1.23828 49.9113Z" fill="#1D2AA9" fill-opacity="0.29"/>
</g>
<path id="Vector" d="M33.6247 46.9289C34.0904 47.2578 34.6468 47.4337 35.2169 47.4323C35.787 47.4308 36.3425 47.2522 36.8066 46.921C37.277 46.5774 37.6337 46.1016 37.8293 45.5518L39.0106 41.9228C39.3137 41.0132 39.8241 40.1865 40.5016 39.5081C41.179 38.8297 42.0048 38.318 42.9139 38.0136L46.5899 36.8242C47.1334 36.6274 47.6014 36.265 47.9281 35.7881C48.2547 35.3111 48.4235 34.7437 48.4107 34.1658C48.3978 33.5878 48.204 33.0284 47.8565 32.5665C47.509 32.1045 47.0253 31.7633 46.4736 31.5908L42.8399 30.4067C41.9299 30.1039 41.1028 29.5935 40.424 28.916C39.7452 28.2384 39.2333 27.4123 38.9287 26.5028L37.7342 22.8341C37.5418 22.2937 37.1858 21.8266 36.7157 21.4979C36.2456 21.1691 35.6847 20.9952 35.1111 21.0001C34.5375 21.005 33.9798 21.1887 33.5154 21.5254C33.051 21.8622 32.7031 22.3353 32.5201 22.8791L31.3124 26.5794C31.0092 27.4645 30.5092 28.2693 29.85 28.9332C29.1909 29.597 28.3897 30.1026 27.5069 30.412L23.8335 31.5935C23.2933 31.7862 22.8266 32.1425 22.498 32.6126C22.1695 33.0828 21.9954 33.6437 22.0001 34.2173C22.0047 34.7909 22.1878 35.3488 22.524 35.8136C22.8601 36.2784 23.3326 36.627 23.8758 36.811L27.5069 37.9872C28.4215 38.2907 29.252 38.8047 29.9318 39.4878C30.6116 40.1709 31.1215 41.004 31.4207 41.9202L32.6152 45.5968C32.8055 46.136 33.1596 46.6011 33.6247 46.9289ZM33.8494 27.3301L35.2421 23.6905L36.4049 27.3301C36.837 28.6334 37.568 29.8174 38.5395 30.7876C39.5109 31.7579 40.6958 32.4873 41.9995 32.9177L45.7151 34.3185L42.0629 35.5C40.7604 35.9337 39.5769 36.6653 38.6066 37.6367C37.6364 38.608 36.906 39.7923 36.4736 41.0955L35.0914 44.7377L33.9049 41.0929C33.4785 39.7902 32.7546 38.6047 31.7907 37.6304C30.8147 36.6587 29.6284 35.9243 28.3235 35.4841L24.6818 34.1044L28.3446 32.915C29.6306 32.4695 30.797 31.7343 31.7537 30.7662C32.703 29.794 33.4195 28.6192 33.8494 27.3301ZM49.843 57.6124C50.1134 57.8025 50.4242 57.9271 50.751 57.9763C51.0777 58.0255 51.4115 57.9979 51.7258 57.8959C52.0401 57.7938 52.3263 57.6201 52.5619 57.3883C52.7974 57.1565 52.9758 56.8731 53.083 56.5604L53.7384 54.5464C53.8803 54.129 54.1153 53.7494 54.4255 53.4363C54.7373 53.1191 55.1179 52.8865 55.5354 52.7491L57.5756 52.083C57.9966 51.9377 58.361 51.6631 58.6167 51.2984C58.8724 50.9337 59.0065 50.4976 58.9998 50.0522C58.993 49.6068 58.8458 49.1749 58.5792 48.8182C58.3125 48.4614 57.94 48.198 57.5148 48.0654L55.4958 47.4047C55.0784 47.2648 54.6989 47.0303 54.3872 46.7194C54.0754 46.4085 53.8398 46.0297 53.6987 45.6126L53.0328 43.5695C52.8898 43.1492 52.6182 42.7847 52.2565 42.5275C51.8947 42.2702 51.4613 42.1334 51.0174 42.1363C50.5736 42.1393 50.142 42.2818 49.7837 42.5438C49.4254 42.8057 49.1586 43.1738 49.0212 43.5959L48.3684 45.61C48.2335 46.0243 48.0047 46.4019 47.6999 46.7132C47.395 47.0245 47.0224 47.2611 46.611 47.4047L44.5682 48.0707C44.1479 48.2132 43.783 48.4844 43.5254 48.8458C43.2677 49.2072 43.1303 49.6406 43.1327 50.0845C43.135 50.5284 43.277 50.9602 43.5384 51.3189C43.7998 51.6776 44.1675 51.9449 44.5893 52.083L46.6057 52.7358C47.0286 52.8786 47.4091 53.1138 47.7209 53.4257C48.0354 53.7402 48.268 54.1208 48.4028 54.5411L49.0714 56.5869C49.2161 57.0004 49.4858 57.3588 49.843 57.6124ZM47.4302 50.2302L46.9572 50.0769L47.4435 49.9077C48.2429 49.6267 48.9678 49.1672 49.5631 48.564C50.1584 47.9608 50.6084 47.2299 50.879 46.4267L51.0323 45.9562L51.1908 46.4346C51.4606 47.2447 51.9154 47.9808 52.519 48.5845C53.1227 49.1883 53.8587 49.6431 54.6686 49.913L55.1839 50.0795L54.7083 50.2381C53.8967 50.5086 53.1595 50.9649 52.5552 51.5706C51.951 52.1763 51.4965 52.9147 51.2278 53.727L51.0719 54.2054L50.9186 53.7297C50.6502 52.915 50.1949 52.1745 49.5892 51.5673C48.9835 50.9601 48.2441 50.5031 47.4302 50.2328" fill="white"/>
</g>
</svg>
