<svg width="80" height="80" viewBox="0 0 80 80" fill="none" xmlns="http://www.w3.org/2000/svg">
<g id="Group 1171276093">
<g id="Group 1171276079">
<circle id="Ellipse 142" cx="40" cy="40" r="40" fill="#5865DE"/>
<path id="Intersect" fill-rule="evenodd" clip-rule="evenodd" d="M1.23828 49.9113C31.3067 13.3984 78.2696 37.4 36.4018 79.8403C19.3402 78.3188 5.3613 66.0847 1.23828 49.9113Z" fill="#1D2AA9" fill-opacity="0.3"/>
</g>
<g id="Group 1171276092">
<path id="Vector" d="M40 56.8C44.4556 56.8 48.7288 55.03 51.8794 51.8794C55.03 48.7288 56.8 44.4556 56.8 40C56.8 35.5444 55.03 31.2712 51.8794 28.1206C48.7288 24.97 44.4556 23.2 40 23.2C35.5444 23.2 31.2712 24.97 28.1206 28.1206C24.97 31.2712 23.2 35.5444 23.2 40C23.2 44.4556 24.97 48.7288 28.1206 51.8794C31.2712 55.03 35.5444 56.8 40 56.8ZM40 19C42.7578 19 45.4885 19.5432 48.0364 20.5985C50.5842 21.6539 52.8992 23.2007 54.8492 25.1508C56.7993 27.1008 58.3461 29.4158 59.4015 31.9636C60.4568 34.5115 61 37.2422 61 40C61 45.5695 58.7875 50.911 54.8492 54.8492C50.911 58.7875 45.5695 61 40 61C28.387 61 19 51.55 19 40C19 34.4305 21.2125 29.089 25.1508 25.1508C29.089 21.2125 34.4305 19 40 19ZM41.05 29.5V40.525L50.5 46.132L48.925 48.715L37.9 42.1V29.5H41.05Z" fill="white"/>
</g>
</g>
</svg>
