<svg width="219" height="492" viewBox="0 0 219 492" fill="none" xmlns="http://www.w3.org/2000/svg">
<path fill-rule="evenodd" clip-rule="evenodd" d="M-5.82671 209.66C-3.09468 209 -0.241364 208.649 2.69376 208.649C7.03951 208.649 11.2059 209.417 15.0649 210.824V144.625C15.0649 142.613 15.8825 140.689 17.3299 139.292L77.0267 81.7047C80.197 78.6464 80.0145 73.514 76.635 70.6885L72.3689 67.1218C69.4778 64.7048 65.2331 64.8429 62.5052 67.4428L27.5852 100.725C22.869 105.22 15.0649 101.877 15.0649 95.3618V66.1155C15.0649 64.0519 15.9255 62.0818 17.4396 60.6796L43.3744 36.6619C46.4548 33.8092 46.5516 28.9693 43.5876 25.9957L40.5073 22.9053C37.8981 20.2876 33.7587 19.9933 30.8054 22.2155L26.9282 25.1329C22.0455 28.8068 15.0649 25.3233 15.0649 19.2128V7.4088C15.0649 3.31703 11.7478 0 7.65605 0H1.58211C-2.50967 0 -5.82671 3.31703 -5.82671 7.4088V17.6971C-5.82671 24.068 -13.3353 27.4679 -18.1232 23.2649L-20.9963 20.7427C-24.1309 17.9911 -28.9181 18.3681 -31.5832 21.5767L-35.2901 26.0394C-37.8055 29.0677 -37.5134 33.5344 -34.625 36.2092L-8.20145 60.6796C-6.68738 62.0818 -5.82671 64.0519 -5.82671 66.1155V95.3319C-5.82671 101.851 -13.64 105.192 -18.3537 100.689L-55.4224 65.2701C-58.3367 62.4855 -62.9424 62.5417 -65.788 65.3965L-70.9181 70.5433C-73.8788 73.5137 -73.7859 78.3473 -70.7131 81.2017L-8.1931 139.279C-6.68408 140.681 -5.82671 142.648 -5.82671 144.707V209.66ZM-32.8296 238.246L-81.8679 207.502C-83.5719 206.433 -85.6369 206.104 -87.5888 206.589L-168.09 226.578C-172.365 227.64 -176.617 224.759 -177.216 220.395L-177.971 214.886C-178.484 211.152 -176.112 207.629 -172.46 206.699L-125.713 194.791C-119.399 193.183 -118.086 184.795 -123.606 181.334L-148.386 165.8C-150.134 164.703 -152.26 164.386 -154.253 164.924L-188.378 174.14C-192.431 175.235 -196.583 172.746 -197.528 168.655L-198.51 164.404C-199.342 160.803 -197.393 157.139 -193.941 155.817L-189.41 154.082C-183.704 151.896 -182.947 144.132 -188.124 140.886L-198.125 134.616C-201.592 132.442 -202.641 127.87 -200.467 124.403L-197.241 119.257C-195.067 115.79 -190.495 114.742 -187.028 116.915L-178.311 122.38C-172.914 125.764 -166.045 121.208 -167.062 114.919L-167.673 111.145C-168.34 107.028 -165.477 103.172 -161.343 102.618L-155.593 101.848C-151.691 101.326 -148.062 103.946 -147.33 107.814L-140.633 143.199C-140.249 145.227 -139.037 147.003 -137.288 148.099L-112.535 163.618C-107.011 167.081 -100.03 162.236 -101.342 155.85L-111.661 105.629C-112.472 101.681 -109.978 97.8087 -106.048 96.9142L-98.9619 95.3015C-94.8725 94.3708 -90.8266 97.017 -90.0403 101.137L-74.0428 184.957C-73.6566 186.98 -72.4458 188.751 -70.7007 189.845L-23.2202 219.612C-28.0951 224.635 -31.5226 231.07 -32.8296 238.246ZM-32.0885 254.492L-84.0417 280.413C-85.8847 281.333 -88.0272 281.443 -89.9553 280.719L-169.836 250.705C-173.762 249.229 -178.128 251.304 -179.464 255.28L-181.779 262.168C-183.064 265.989 -181.058 270.135 -177.265 271.5L-129.023 288.856C-122.888 291.063 -122.389 299.546 -128.223 302.457L-154.366 315.501C-156.213 316.422 -158.36 316.531 -160.29 315.803L-193.984 303.083C-197.667 301.693 -201.794 303.426 -203.38 307.029L-205.719 312.338C-207.4 316.155 -205.6 320.607 -201.739 322.184L-198.199 323.628C-192.3 326.036 -191.99 334.273 -197.691 337.117L-206.897 341.71C-210.559 343.537 -212.046 347.986 -210.219 351.648L-207.507 357.083C-205.68 360.744 -201.231 362.231 -197.57 360.404L-187.008 355.134C-181.54 352.406 -175.306 357.097 -176.414 363.107L-177.294 367.879C-177.963 371.513 -175.852 375.086 -172.345 376.252L-168.204 377.629C-164.22 378.953 -159.933 376.706 -158.755 372.676L-148.843 338.746C-148.264 336.766 -146.886 335.116 -145.039 334.195L-118.869 321.137C-113.039 318.229 -106.564 323.72 -108.481 329.946L-122.671 376.052C-123.78 379.654 -122.008 383.513 -118.555 385.021L-113.459 387.246C-109.422 389.009 -104.748 386.881 -103.427 382.679L-78.5486 303.551C-77.9454 301.633 -76.5882 300.042 -74.7886 299.144L-20.7805 272.197C-26.1391 267.608 -30.1378 261.477 -32.0885 254.492ZM-5.82671 279.857V347.086C-5.82671 349.145 -6.68408 351.112 -8.1931 352.514L-70.7131 410.591C-73.7859 413.446 -73.8788 418.279 -70.9181 421.25L-65.788 426.397C-62.9424 429.251 -58.3367 429.308 -55.4224 426.523L-18.3537 391.104C-13.64 386.601 -5.82671 389.942 -5.82671 396.461V425.678C-5.82671 427.741 -6.68738 429.711 -8.20145 431.113L-34.625 455.584C-37.5134 458.259 -37.8055 462.725 -35.2901 465.754L-31.5832 470.216C-28.9181 473.425 -24.1309 473.802 -20.9963 471.05L-18.1232 468.528C-13.3353 464.325 -5.82671 467.725 -5.82671 474.096V484.384C-5.82671 488.476 -2.50967 491.793 1.58211 491.793H7.65605C11.7478 491.793 15.0649 488.476 15.0649 484.384V472.58C15.0649 466.47 22.0455 462.986 26.9282 466.66L30.8054 469.578C33.7587 471.8 37.8981 471.505 40.5073 468.888L43.5876 465.797C46.5516 462.824 46.4548 457.984 43.3744 455.131L17.4396 431.113C15.9255 429.711 15.0649 427.741 15.0649 425.678V396.431C15.0649 389.916 22.869 386.573 27.5852 391.068L62.5052 424.35C65.2331 426.95 69.4778 427.088 72.3689 424.671L76.635 421.105C80.0145 418.279 80.197 413.147 77.0267 410.088L17.3299 352.501C15.8825 351.104 15.0649 349.18 15.0649 347.168V278.693C11.2059 280.1 7.03951 280.868 2.69376 280.868C-0.241364 280.868 -3.09468 280.517 -5.82671 279.857ZM24.0303 273.893L76.0044 306.477C77.7083 307.545 78.9048 309.26 79.319 311.228L96.4012 392.396C97.3084 396.707 101.754 399.279 105.943 397.916L111.231 396.196C114.814 395.03 116.952 391.361 116.198 387.669L106.548 340.403C105.245 334.02 112.223 329.184 117.743 332.644L142.522 348.179C144.27 349.275 145.482 351.051 145.866 353.079L152.44 387.81C153.22 391.935 157.27 394.588 161.363 393.656L165.618 392.688C169.222 391.868 171.67 388.517 171.356 384.834L170.943 380C170.424 373.911 177.084 369.847 182.261 373.093L192.262 379.363C195.729 381.536 200.301 380.488 202.474 377.021L205.701 371.875C207.874 368.408 206.826 363.836 203.359 361.662L194.642 356.197C189.244 352.813 190.352 344.646 196.456 342.821L200.119 341.727C204.116 340.533 206.339 336.276 205.036 332.314L203.224 326.803C201.995 323.063 198.055 320.938 194.255 321.964L159.486 331.354C157.494 331.892 155.368 331.575 153.619 330.479L128.865 314.96C123.341 311.496 124.661 303.102 130.981 301.5L180.68 288.907C184.587 287.917 186.986 283.985 186.078 280.058L184.443 272.977C183.499 268.891 179.354 266.402 175.303 267.489L92.8874 289.611C90.8982 290.145 88.7764 289.826 87.0314 288.732L36.6271 257.132C34.1612 263.893 29.7324 269.71 24.0303 273.893ZM38.7345 242.518C38.2828 235.139 35.6151 228.359 31.3885 222.836L82.5368 197.316C84.3798 196.396 85.7568 194.751 86.3374 192.775L110.393 110.903C111.576 106.879 115.859 104.638 119.839 105.961L126.735 108.253C130.56 109.525 132.666 113.621 131.476 117.472L116.332 166.454C114.407 172.683 120.884 178.183 126.718 175.272L152.861 162.228C154.708 161.307 156.086 159.657 156.665 157.676L166.764 123.107C167.868 119.329 171.735 117.073 175.567 117.972L181.216 119.296C185.277 120.249 187.751 124.364 186.689 128.397L185.714 132.094C184.091 138.255 190.486 143.456 196.186 140.611L205.392 136.018C209.054 134.191 213.503 135.679 215.329 139.34L218.041 144.775C219.868 148.436 218.381 152.885 214.719 154.712L204.157 159.982C198.689 162.71 198.689 170.512 204.156 173.241L208.498 175.407C211.805 177.058 213.389 180.893 212.212 184.397L210.822 188.533C209.484 192.512 205.11 194.587 201.183 193.104L168.113 180.62C166.182 179.891 164.035 180.001 162.188 180.922L136.019 193.979C130.189 196.888 130.682 205.364 136.809 207.577L182.181 223.965C185.725 225.245 187.743 228.981 186.871 232.647L185.585 238.057C184.565 242.342 180.054 244.797 175.902 243.326L97.7204 215.619C95.8248 214.947 93.7375 215.075 91.9379 215.973L38.7345 242.518Z" fill="#555555" fill-opacity="0.04"/>
</svg>
