<svg width="143" height="27" viewBox="0 0 143 27" fill="none" xmlns="http://www.w3.org/2000/svg">
<path fill-rule="evenodd" clip-rule="evenodd" d="M10.6411 10.5726C10.7753 10.5398 10.9156 10.5225 11.0599 10.5225C11.2705 10.5225 11.4725 10.5595 11.6597 10.6273V7.42418C11.6597 7.31018 11.7061 7.20107 11.7881 7.12192L14.6338 4.3768C14.8135 4.20343 14.8031 3.91249 14.6116 3.75233L14.494 3.65401C14.3301 3.517 14.0895 3.52483 13.9348 3.6722L12.3695 5.16416C12.1021 5.41897 11.6597 5.22947 11.6597 4.86014V3.59697C11.6597 3.47999 11.7085 3.36831 11.7943 3.28882L12.9953 2.17662C13.1699 2.01491 13.1754 1.74055 13.0074 1.57199L12.9363 1.50067C12.7884 1.35228 12.5538 1.3356 12.3864 1.46157L12.3322 1.5023C12.0554 1.71057 11.6597 1.5131 11.6597 1.16671V0.767638C11.6597 0.535689 11.4717 0.347656 11.2397 0.347656H11.0611C10.8291 0.347656 10.6411 0.535689 10.6411 0.767638V1.08332C10.6411 1.44348 10.2166 1.63569 9.94594 1.39808C9.76874 1.24252 9.4981 1.26384 9.34744 1.44522L9.24009 1.57447C9.0975 1.74613 9.11406 1.99933 9.27779 2.15096L10.5065 3.28882C10.5923 3.36831 10.6411 3.47999 10.6411 3.59697V4.85845C10.6411 5.22802 10.1982 5.41742 9.93098 5.1621L8.2645 3.56982C8.0993 3.41197 7.83822 3.41515 7.67691 3.57698L7.51034 3.74409C7.3425 3.91248 7.34777 4.18648 7.52196 4.34829L10.507 7.12117C10.5925 7.20063 10.6411 7.31212 10.6411 7.42887V10.5726ZM9.32762 11.9668L6.95467 10.4792C6.85808 10.4186 6.74102 10.3999 6.63038 10.4274L2.79299 11.3802C2.55065 11.4404 2.30964 11.2771 2.2757 11.0297L2.25486 10.8779C2.22583 10.6662 2.36027 10.4665 2.56728 10.4138L4.66285 9.88001C5.02074 9.78885 5.09517 9.31337 4.78226 9.11719L3.71202 8.44622C3.61291 8.38408 3.49237 8.3661 3.37944 8.3966L1.79918 8.82336C1.56941 8.88541 1.33405 8.74433 1.28048 8.51244L1.25781 8.41433C1.21065 8.21019 1.32116 8.00252 1.51681 7.92759L1.58008 7.90336C1.90356 7.77948 1.94644 7.33932 1.65296 7.15532L1.31484 6.94335C1.11832 6.82014 1.05889 6.56095 1.18209 6.36443L1.27699 6.21305C1.4002 6.01653 1.65939 5.9571 1.85591 6.0803L2.12337 6.24798C2.42853 6.4393 2.81685 6.18174 2.75931 5.8262C2.72164 5.59344 2.88345 5.37546 3.11716 5.34416L3.28369 5.32185C3.50487 5.29223 3.7106 5.44075 3.7521 5.66002L4.06352 7.30544C4.08527 7.42038 4.15398 7.52104 4.25309 7.58318L5.3219 8.25325C5.63502 8.44956 6.03075 8.1749 5.95637 7.81289L5.49248 5.55516C5.44649 5.33135 5.58787 5.11183 5.81067 5.06112L6.04073 5.00876C6.27255 4.956 6.5019 5.10601 6.54647 5.33954L7.31027 9.3415C7.33215 9.45618 7.4008 9.55658 7.49972 9.6186L9.7955 11.0579C9.55799 11.303 9.39108 11.6169 9.32762 11.9668ZM9.36317 12.7547L6.84965 14.0088C6.74517 14.0609 6.62372 14.0672 6.51442 14.0261L2.70056 12.5931C2.47801 12.5095 2.23048 12.6271 2.15474 12.8525L2.07957 13.0761C2.00678 13.2927 2.1205 13.5277 2.33549 13.6051L4.50429 14.3854C4.85204 14.5105 4.88031 14.9914 4.54961 15.1564L3.42083 15.7196C3.31615 15.7718 3.19444 15.778 3.085 15.7367L1.51828 15.1452C1.3095 15.0664 1.07554 15.1647 0.985597 15.3689L0.917876 15.5226C0.822836 15.7384 0.924587 15.9901 1.1429 16.0792C1.47635 16.2154 1.49388 16.681 1.1716 16.8418L0.889127 16.9827C0.681577 17.0863 0.597272 17.3385 0.700827 17.546L0.780592 17.7059C0.884146 17.9134 1.13635 17.9978 1.3439 17.8942L1.70099 17.716C2.01094 17.5614 2.3643 17.8273 2.30152 18.168L2.28924 18.2346C2.25126 18.4406 2.37095 18.6431 2.56976 18.7092L2.66531 18.741C2.89116 18.8161 3.1342 18.6887 3.20094 18.4603L3.65997 16.8891C3.69278 16.7768 3.77092 16.6833 3.8756 16.631L5.0059 16.0671C5.33637 15.9022 5.70344 16.2135 5.5948 16.5664L4.95866 18.6332C4.89582 18.8374 4.99624 19.0562 5.19201 19.1417L5.33248 19.203C5.56133 19.3029 5.82628 19.1823 5.90118 18.9441L7.08708 15.1722C7.12127 15.0634 7.19821 14.9733 7.30022 14.9224L9.91287 13.6188C9.65208 13.3947 9.45768 13.0954 9.36317 12.7547ZM10.6398 13.9933V17.2474C10.6398 17.3642 10.5912 17.4757 10.5057 17.5551L7.52068 20.328C7.3465 20.4898 7.34123 20.7638 7.50906 20.9322L7.67563 21.0993C7.83694 21.2612 8.09802 21.2643 8.26323 21.1065L9.9297 19.5142C10.1969 19.2589 10.6398 19.4483 10.6398 19.8179V21.0793C10.6398 21.1963 10.591 21.308 10.5052 21.3875L9.27651 22.5254C9.11278 22.677 9.09622 22.9302 9.23881 23.1018L9.34616 23.2311C9.49683 23.4125 9.76746 23.4338 9.94467 23.2782C10.2153 23.0406 10.6398 23.2328 10.6398 23.593V23.9087C10.6398 24.1406 10.8279 24.3287 11.0598 24.3287H11.2385C11.4704 24.3287 11.6584 24.1406 11.6584 23.9087V23.5096C11.6584 23.1632 12.0542 22.9657 12.3309 23.174L12.3851 23.2147C12.5525 23.3407 12.7871 23.324 12.935 23.1756L13.0061 23.1043C13.1741 22.9358 13.1687 22.6614 12.994 22.4997L11.7931 21.3875C11.7072 21.308 11.6584 21.1963 11.6584 21.0793V19.8162C11.6584 19.4468 12.1008 19.2573 12.3682 19.5122L13.9336 21.0041C14.0882 21.1515 14.3288 21.1593 14.4927 21.0223L14.6103 20.924C14.8019 20.7638 14.8122 20.4729 14.6325 20.2995L11.7868 17.5544C11.7048 17.4752 11.6584 17.3661 11.6584 17.2521V13.9393C11.4716 14.0069 11.27 14.0437 11.0599 14.0437C10.9151 14.0437 10.7744 14.0262 10.6398 13.9933ZM12.1022 13.7021L14.6111 15.2751C14.7077 15.3356 14.7755 15.4328 14.799 15.5444L15.6133 19.4136C15.6647 19.6579 15.9167 19.8037 16.1542 19.7264L16.2999 19.679C16.5031 19.613 16.6242 19.4049 16.5815 19.1956L16.1489 17.0769C16.075 16.715 16.4706 16.4408 16.7835 16.637L17.8537 17.308C17.9529 17.3701 18.0216 17.4708 18.0433 17.5857L18.3477 19.194C18.392 19.4279 18.6215 19.5783 18.8536 19.5254L18.9517 19.5031C19.156 19.4566 19.2948 19.2667 19.277 19.0579L19.2713 18.9904C19.2418 18.6453 19.6193 18.4149 19.9128 18.5989L20.2509 18.8109C20.4474 18.9341 20.7066 18.8746 20.8298 18.6781L20.9247 18.5267C21.0479 18.3302 20.9885 18.071 20.792 17.9478L20.5245 17.7801C20.2194 17.5888 20.282 17.1271 20.6271 17.024C20.853 16.9565 20.9787 16.7158 20.9051 16.4918L20.8526 16.3322C20.7829 16.1202 20.5596 15.9998 20.3441 16.058L18.7274 16.4946C18.6145 16.5251 18.4939 16.5071 18.3948 16.4449L17.326 15.7749C17.0129 15.5786 17.0877 15.1027 17.4459 15.0119L19.6802 14.4458C19.9017 14.3896 20.0377 14.1667 19.9863 13.9441L19.9331 13.7142C19.8796 13.4826 19.6447 13.3415 19.4151 13.4031L15.4801 14.4593C15.3674 14.4896 15.2471 14.4715 15.1482 14.4095L12.7152 12.8842C12.5954 13.214 12.3799 13.4978 12.1022 13.7021ZM12.817 12.1718C12.7946 11.8121 12.6642 11.4817 12.4578 11.2126L14.9285 9.97995C15.0329 9.92782 15.111 9.83456 15.1439 9.72254L16.2924 5.81358C16.3595 5.58548 16.6023 5.45844 16.8279 5.53344L17.0518 5.60788C17.2686 5.67997 17.388 5.91217 17.3205 6.13046L16.6397 8.33252C16.5306 8.6856 16.8978 8.99737 17.2285 8.83237L18.3573 8.26918C18.4619 8.21695 18.5401 8.12344 18.5729 8.01115L19.0425 6.40371C19.1051 6.1895 19.3243 6.06164 19.5415 6.11259L19.7051 6.15095C19.9347 6.20479 20.0746 6.43744 20.0145 6.66545C19.9227 7.01373 20.2842 7.30775 20.6065 7.14695L20.889 7.00601C21.0965 6.90246 21.3487 6.98676 21.4523 7.19431L21.532 7.35418C21.6356 7.56173 21.5513 7.81393 21.3437 7.91749L20.9867 8.09565C20.6767 8.2503 20.6767 8.69255 20.9866 8.84723L21.0472 8.87749C21.2347 8.97105 21.3245 9.18847 21.2578 9.38706L21.2257 9.48251C21.1499 9.70811 20.9019 9.82569 20.6793 9.74163L19.1479 9.16354C19.0384 9.12222 18.9167 9.12843 18.812 9.18065L17.6817 9.7446C17.3513 9.90949 17.3792 10.3899 17.7266 10.5154L19.7605 11.25C19.9614 11.3226 20.0758 11.5344 20.0264 11.7422L19.9909 11.8914C19.9331 12.1343 19.6774 12.2734 19.442 12.19L15.7152 10.8693C15.6078 10.8312 15.4894 10.8384 15.3874 10.8893L12.817 12.1718Z" fill="#002163"/>
<path d="M36.904 6.97059C37.0805 6.97059 37.1688 7.05884 37.1688 7.23535V7.76487C37.1688 7.94137 37.0805 8.02962 36.904 8.02962H36.7981C36.351 8.02962 36.0391 8.19436 35.8626 8.52384C35.6861 8.85332 35.5979 9.24751 35.5979 9.70643V16.3607C35.5979 16.8667 35.5332 17.3609 35.4037 17.8433C35.2861 18.3258 35.0801 18.767 34.786 19.1671C34.5035 19.5554 34.1093 19.8673 33.6034 20.1026C33.1092 20.3262 32.4796 20.438 31.7148 20.438C31.1029 20.438 30.5851 20.3438 30.1615 20.1555C29.7497 19.9555 29.4143 19.7143 29.1554 19.4319C28.9083 19.1495 28.7259 18.8788 28.6083 18.6199C28.4906 18.3611 28.4318 18.1669 28.4318 18.0375C28.4318 17.861 28.5259 17.7198 28.7142 17.6139L30.3557 16.7313C30.4616 16.6725 30.5439 16.6431 30.6028 16.6431C30.7204 16.6431 30.7793 16.7196 30.7793 16.8725C30.7793 16.9667 30.7675 17.0667 30.744 17.1726C30.7322 17.2785 30.7263 17.4315 30.7263 17.6315C30.7263 17.8433 30.7499 18.0787 30.7969 18.3375C30.844 18.5846 30.9381 18.8023 31.0793 18.9906C31.2205 19.1671 31.4324 19.2554 31.7148 19.2554C32.0678 19.2554 32.3325 19.1318 32.509 18.8847C32.6973 18.6258 32.7914 18.314 32.7914 17.9492V9.70643C32.7914 9.23574 32.7032 8.84155 32.5267 8.52384C32.3502 8.19436 32.0384 8.02962 31.5912 8.02962H31.4677C31.2911 8.02962 31.2029 7.94137 31.2029 7.76487V7.23535C31.2029 7.05884 31.2911 6.97059 31.4677 6.97059H36.904ZM44.0587 6.75879C44.9883 6.75879 45.859 6.94118 46.671 7.30595C47.4947 7.67073 48.2124 8.17671 48.8243 8.8239C49.448 9.45932 49.9304 10.1948 50.2717 11.0302C50.6247 11.8657 50.8012 12.7541 50.8012 13.6954C50.8012 14.6368 50.6306 15.5193 50.2893 16.343C49.9481 17.155 49.4715 17.8669 48.8596 18.4787C48.2595 19.0906 47.5653 19.5731 46.7769 19.9261C45.9885 20.2673 45.1471 20.438 44.2528 20.438C43.3233 20.438 42.4466 20.2556 41.6229 19.8908C40.811 19.526 40.0991 19.0259 39.4872 18.3905C38.8753 17.7433 38.3929 17.002 38.0399 16.1665C37.6986 15.3311 37.528 14.4485 37.528 13.5189C37.528 12.6011 37.6927 11.7362 38.0222 10.9243C38.3517 10.1124 38.8106 9.3946 39.3989 8.77095C39.9991 8.13553 40.6933 7.64131 41.4817 7.2883C42.2701 6.93529 43.1291 6.75879 44.0587 6.75879ZM43.8645 8.31203C42.6878 8.31203 41.7759 8.70623 41.1287 9.49462C40.4815 10.2712 40.1579 11.3009 40.1579 12.5835C40.1579 13.0894 40.2109 13.6307 40.3168 14.2073C40.4227 14.7839 40.5815 15.3487 40.7933 15.9018C41.0169 16.443 41.2993 16.9373 41.6406 17.3844C41.9818 17.8316 42.3819 18.1905 42.8408 18.4611C43.2997 18.7317 43.8292 18.8671 44.4294 18.8671C45.2295 18.8671 45.9061 18.6905 46.4592 18.3375C47.024 17.9728 47.4476 17.4727 47.73 16.8372C48.0242 16.1901 48.1713 15.4487 48.1713 14.6133C48.1713 14.1544 48.1183 13.6425 48.0124 13.0777C47.9183 12.5129 47.7594 11.9539 47.5358 11.4009C47.324 10.8361 47.0475 10.3242 46.7063 9.86528C46.3768 9.3946 45.9767 9.01805 45.506 8.73565C45.0354 8.45324 44.4882 8.31203 43.8645 8.31203ZM57.2809 6.97059C58.1046 6.97059 58.84 7.1118 59.4872 7.39421C60.1461 7.67661 60.6698 8.05904 61.0581 8.54149C61.4464 9.02394 61.6406 9.56522 61.6406 10.1653C61.6406 10.6713 61.4876 11.1361 61.1816 11.5597C60.8757 11.9833 60.4344 12.3422 59.8579 12.6364C60.7757 12.8953 61.4935 13.3542 62.0112 14.0132C62.529 14.6603 62.7878 15.4252 62.7878 16.3077C62.7878 17.0726 62.5878 17.7492 62.1877 18.3375C61.7876 18.9259 61.2346 19.3848 60.5286 19.7143C59.8226 20.0438 59.0047 20.2085 58.0751 20.2085H51.5974C51.4209 20.2085 51.3326 20.1202 51.3326 19.9437V19.4142C51.3326 19.2377 51.4209 19.1495 51.5974 19.1495C52.4682 19.1495 52.9035 18.5905 52.9035 17.4727V9.70643C52.9035 8.58856 52.4682 8.02962 51.5974 8.02962C51.4209 8.02962 51.3326 7.94137 51.3326 7.76487V7.23535C51.3326 7.05884 51.4209 6.97059 51.5974 6.97059H57.2809ZM56.7161 12.3011C57.4456 12.3011 58.0045 12.1128 58.3929 11.7362C58.7929 11.3597 58.993 10.8361 58.993 10.1653C58.993 9.49462 58.7988 8.97099 58.4105 8.59444C58.0222 8.2179 57.4809 8.02962 56.7867 8.02962H55.71V12.3011H56.7161ZM57.3162 19.1495C58.2105 19.1495 58.9047 18.9024 59.3989 18.4081C59.8932 17.9022 60.1403 17.202 60.1403 16.3077C60.1403 14.4721 59.0047 13.5542 56.7337 13.5542H55.71V17.4727C55.71 18.0139 55.81 18.4317 56.01 18.7259C56.2101 19.0083 56.4984 19.1495 56.8749 19.1495H57.3162ZM78.8278 10.9773C78.7925 10.989 78.7572 11.0067 78.7219 11.0302C78.6866 11.042 78.6513 11.0479 78.616 11.0479C78.5218 11.0479 78.4218 10.9773 78.3159 10.8361C77.5628 9.8947 76.8215 9.21809 76.0919 8.80625C75.3624 8.3944 74.6093 8.18848 73.8327 8.18848C73.362 8.18848 72.956 8.31203 72.6148 8.55914C72.2853 8.80625 72.1206 9.19456 72.1206 9.72408C72.1206 10.1595 72.2559 10.5184 72.5265 10.8008C72.7972 11.0832 73.1443 11.3185 73.5679 11.5068C74.0033 11.6833 74.4446 11.8363 74.8917 11.9657C75.5624 12.154 76.2214 12.3658 76.8686 12.6011C77.5275 12.8365 78.1217 13.1189 78.6513 13.4483C79.1808 13.766 79.6044 14.1602 79.9221 14.6309C80.2398 15.0898 80.3987 15.6488 80.3987 16.3077C80.3987 17.1079 80.1927 17.8198 79.7809 18.4434C79.3808 19.0671 78.7984 19.5554 78.0335 19.9084C77.2686 20.2614 76.3449 20.438 75.2624 20.438C74.7328 20.438 74.2327 20.3674 73.7621 20.2261C73.3031 20.0967 72.856 19.9261 72.4206 19.7143C72.3265 19.6672 72.2382 19.6437 72.1559 19.6437C72.05 19.6437 71.997 19.7025 71.997 19.8202C71.997 19.8555 72.0088 19.9202 72.0323 20.0143C72.0676 20.0967 72.0853 20.1673 72.0853 20.2261C72.0853 20.3556 71.9852 20.4203 71.7852 20.4203H70.9027C70.6909 20.4203 70.5438 20.3379 70.4614 20.1732L68.3257 16.1665C68.2786 16.0724 68.2551 16.0018 68.2551 15.9547C68.2551 15.8253 68.3198 15.7253 68.4493 15.6547L69.2259 15.2134C69.2612 15.1899 69.2965 15.1722 69.3318 15.1604C69.3671 15.1487 69.4024 15.1428 69.4377 15.1428C69.5554 15.1428 69.6554 15.2134 69.7377 15.3546C70.5379 16.5666 71.4204 17.4668 72.3853 18.0551C73.362 18.6435 74.3563 18.9377 75.3683 18.9377C76.1331 18.9377 76.7215 18.767 77.1333 18.4258C77.5452 18.0728 77.7511 17.6315 77.7511 17.102C77.7511 16.5843 77.6216 16.1783 77.3628 15.8841C77.1039 15.5899 76.7038 15.3428 76.1625 15.1428C75.6213 14.9428 74.927 14.7192 74.0798 14.4721C73.5032 14.3073 72.9325 14.1073 72.3677 13.872C71.8029 13.6366 71.291 13.3542 70.8321 13.0247C70.3732 12.6835 70.0025 12.2834 69.7201 11.8245C69.4494 11.3538 69.3141 10.8008 69.3141 10.1653C69.3141 9.38872 69.5083 8.74741 69.8966 8.24143C70.2967 7.73545 70.8321 7.36479 71.5028 7.12945C72.1735 6.88234 72.9325 6.75879 73.7797 6.75879C74.4387 6.75879 74.9976 6.84116 75.4565 7.00589C75.9154 7.17063 76.2684 7.3236 76.5155 7.46481C76.7156 7.58248 76.8509 7.64131 76.9215 7.64131C76.9803 7.64131 77.0098 7.60601 77.0098 7.53541C77.0098 7.47657 76.9921 7.3942 76.9568 7.2883C76.9333 7.1824 76.9215 7.07061 76.9215 6.95294C76.9215 6.77644 77.0274 6.68818 77.2392 6.68818H77.8746C78.0864 6.68818 78.2335 6.7882 78.3159 6.98824L79.5514 10.1477C79.575 10.1948 79.5926 10.2418 79.6044 10.2889C79.6162 10.3242 79.622 10.3595 79.622 10.3948C79.622 10.5007 79.5573 10.589 79.4279 10.6596L78.8278 10.9773ZM85.2371 17.4727C85.2371 17.9433 85.3254 18.3434 85.5019 18.6729C85.6784 18.9906 85.9843 19.1495 86.4197 19.1495H86.5256C86.7021 19.1495 86.7904 19.2377 86.7904 19.4142V19.9437C86.7904 20.1202 86.7021 20.2085 86.5256 20.2085H81.1069C80.9304 20.2085 80.8421 20.1202 80.8421 19.9437V19.4142C80.8421 19.2377 80.9304 19.1495 81.1069 19.1495H81.2304C81.6776 19.1495 81.9835 18.9906 82.1483 18.6729C82.3248 18.3434 82.413 17.9433 82.413 17.4727V9.70643C82.413 9.22398 82.3189 8.8239 82.1306 8.50619C81.9541 8.18848 81.6246 8.02962 81.1422 8.02962H81.1245C80.948 8.02962 80.8598 7.94137 80.8598 7.76487V7.23535C80.8598 7.05884 80.948 6.97059 81.1245 6.97059H87.6023C88.5554 6.97059 89.385 7.15886 90.091 7.53541C90.797 7.90019 91.3442 8.38264 91.7325 8.98275C92.1208 9.5711 92.315 10.2006 92.315 10.8714C92.315 11.6245 92.1326 12.3069 91.7678 12.9188C91.403 13.5189 90.8029 13.9955 89.9675 14.3485C89.132 14.7015 87.9965 14.878 86.5609 14.878H85.2371V17.4727ZM86.2608 13.6248C87.4376 13.6248 88.2965 13.413 88.8378 12.9894C89.3909 12.554 89.6674 11.848 89.6674 10.8714C89.6674 10.0594 89.4144 9.38283 88.9084 8.84155C88.4024 8.30027 87.7082 8.02962 86.8257 8.02962H85.1312V13.6248H86.2608ZM105.902 19.1495C106.079 19.1495 106.167 19.2377 106.167 19.4142V19.9437C106.167 20.1202 106.079 20.2085 105.902 20.2085H100.484C100.307 20.2085 100.219 20.1202 100.219 19.9437V19.4142C100.219 19.2377 100.307 19.1495 100.484 19.1495H100.59C100.884 19.1495 101.102 19.0671 101.243 18.9024C101.384 18.7259 101.455 18.5199 101.455 18.2846C101.455 18.0139 101.378 17.7433 101.225 17.4727L99.6189 14.4721C99.2658 14.5074 98.8834 14.525 98.4716 14.525H97.1478V17.4727C97.1478 17.9433 97.236 18.3434 97.4125 18.6729C97.589 18.9906 97.895 19.1495 98.3304 19.1495H98.4363C98.6128 19.1495 98.701 19.2377 98.701 19.4142V19.9437C98.701 20.1202 98.6128 20.2085 98.4363 20.2085H93.0176C92.8411 20.2085 92.7528 20.1202 92.7528 19.9437V19.4142C92.7528 19.2377 92.8411 19.1495 93.0176 19.1495H93.1411C93.5883 19.1495 93.8942 18.9906 94.0589 18.6729C94.2354 18.3434 94.3237 17.9433 94.3237 17.4727V9.70643C94.3237 9.22398 94.2296 8.8239 94.0413 8.50619C93.8648 8.18848 93.5294 8.02962 93.0352 8.02962C92.8587 8.02962 92.7704 7.94137 92.7704 7.76487V7.23535C92.7704 7.05884 92.8587 6.97059 93.0352 6.97059H99.513C100.466 6.97059 101.296 7.14121 102.002 7.48246C102.708 7.8237 103.255 8.27673 103.643 8.84155C104.031 9.40637 104.226 10.0241 104.226 10.6949C104.226 11.295 104.067 11.8774 103.749 12.4423C103.431 13.0071 102.89 13.4719 102.125 13.8367L104.049 17.4727C104.284 17.908 104.526 18.2964 104.773 18.6376C105.032 18.9788 105.379 19.1495 105.814 19.1495H105.902ZM98.1715 13.2718C99.3482 13.2718 100.207 13.0424 100.748 12.5835C101.302 12.1245 101.578 11.495 101.578 10.6949C101.578 9.88293 101.325 9.23574 100.819 8.7533C100.313 8.27085 99.6189 8.02962 98.7363 8.02962H97.1478V13.2718H98.1715ZM111.319 17.4727C111.319 17.9433 111.407 18.3434 111.583 18.6729C111.76 18.9906 112.066 19.1495 112.501 19.1495H112.607C112.784 19.1495 112.872 19.2377 112.872 19.4142V19.9437C112.872 20.1202 112.784 20.2085 112.607 20.2085H107.188C107.012 20.2085 106.924 20.1202 106.924 19.9437V19.4142C106.924 19.2377 107.012 19.1495 107.188 19.1495H107.312C107.759 19.1495 108.065 18.9906 108.23 18.6729C108.406 18.3434 108.494 17.9433 108.494 17.4727V9.70643C108.494 9.23574 108.406 8.84155 108.23 8.52384C108.065 8.19436 107.759 8.02962 107.312 8.02962H107.188C107.012 8.02962 106.924 7.94137 106.924 7.76487V7.23535C106.924 7.05884 107.012 6.97059 107.188 6.97059H112.607C112.784 6.97059 112.872 7.05884 112.872 7.23535V7.76487C112.872 7.94137 112.784 8.02962 112.607 8.02962H112.501C112.066 8.02962 111.76 8.19436 111.583 8.52384C111.407 8.84155 111.319 9.23574 111.319 9.70643V17.4727ZM128.607 6.97059C128.783 6.97059 128.871 7.05884 128.871 7.23535V7.76487C128.871 7.94137 128.783 8.02962 128.607 8.02962C128.171 8.02962 127.848 8.18848 127.636 8.50619C127.424 8.8239 127.318 9.22398 127.318 9.70643V19.9437C127.318 20.1202 127.23 20.2085 127.053 20.2085H125.835C125.718 20.2085 125.612 20.1555 125.518 20.0496L117.169 10.4477V17.4727C117.169 17.9433 117.275 18.3434 117.487 18.6729C117.71 18.9906 118.04 19.1495 118.475 19.1495C118.652 19.1495 118.74 19.2377 118.74 19.4142V19.9437C118.74 20.1202 118.652 20.2085 118.475 20.2085H114.115C113.939 20.2085 113.851 20.1202 113.851 19.9437V19.4142C113.851 19.2377 113.939 19.1495 114.115 19.1495C114.551 19.1495 114.874 18.9906 115.086 18.6729C115.298 18.3434 115.404 17.9433 115.404 17.4727V8.47089C115.227 8.31792 115.051 8.20613 114.874 8.13553C114.71 8.06493 114.516 8.02962 114.292 8.02962C114.115 8.02962 114.027 7.94137 114.027 7.76487V7.23535C114.027 7.05884 114.115 6.97059 114.292 6.97059H117.346C117.475 6.97059 117.581 7.02354 117.663 7.12945L125.553 16.1312V9.70643C125.553 9.22398 125.441 8.8239 125.218 8.50619C125.006 8.18848 124.682 8.02962 124.247 8.02962C124.07 8.02962 123.982 7.94137 123.982 7.76487V7.23535C123.982 7.05884 124.07 6.97059 124.247 6.97059H128.607ZM132.108 12.9541C132.108 13.6013 132.179 14.2661 132.32 14.9486C132.461 15.6194 132.685 16.243 132.991 16.8196C133.297 17.3962 133.691 17.861 134.174 18.214C134.656 18.5552 135.238 18.7259 135.921 18.7259C136.18 18.7259 136.462 18.6964 136.768 18.6376C137.086 18.567 137.356 18.4552 137.58 18.3022C137.815 18.1375 137.933 17.9198 137.933 17.6492V16.7313C137.933 16.0606 137.839 15.5841 137.651 15.3016C137.462 15.0192 137.221 14.8486 136.927 14.7898C136.645 14.7309 136.35 14.7015 136.044 14.7015H135.921C135.744 14.7015 135.656 14.6133 135.656 14.4368V13.9073C135.656 13.7307 135.744 13.6425 135.921 13.6425H141.481C141.657 13.6425 141.746 13.7307 141.746 13.9073V14.4368C141.746 14.6133 141.657 14.7015 141.481 14.7015H141.34C141.034 14.7015 140.881 14.8957 140.881 15.284V17.1903C140.481 18.1316 139.816 18.9082 138.886 19.5201C137.957 20.132 136.821 20.438 135.48 20.438C134.491 20.438 133.603 20.2673 132.814 19.9261C132.026 19.5848 131.355 19.1083 130.802 18.4964C130.249 17.8845 129.826 17.1726 129.531 16.3607C129.237 15.5488 129.09 14.6721 129.09 13.7307C129.09 13.1424 129.155 12.5246 129.284 11.8774C129.414 11.2303 129.626 10.6066 129.92 10.0065C130.226 9.3946 130.626 8.84743 131.12 8.36499C131.626 7.87077 132.244 7.48246 132.973 7.20005C133.715 6.90587 134.591 6.75879 135.603 6.75879C136.45 6.75879 137.18 6.86469 137.792 7.0765C138.416 7.2883 138.933 7.55894 139.345 7.88842C139.757 8.2179 140.081 8.55914 140.316 8.91215C140.563 9.26516 140.74 9.59464 140.845 9.90058C140.951 10.1948 141.004 10.4183 141.004 10.5713C141.004 10.6772 140.975 10.7537 140.916 10.8008C140.869 10.8478 140.798 10.889 140.704 10.9243L138.551 11.6833C138.504 11.6951 138.451 11.7127 138.392 11.7362C138.345 11.748 138.292 11.7539 138.233 11.7539C138.186 11.7539 138.139 11.748 138.092 11.7362C138.045 11.7127 138.021 11.6598 138.021 11.5774C138.021 11.5185 138.027 11.4479 138.039 11.3656C138.051 11.2714 138.057 11.1479 138.057 10.9949C138.057 10.183 137.839 9.50639 137.404 8.9651C136.98 8.42382 136.333 8.15318 135.462 8.15318C134.791 8.15318 134.203 8.3591 133.697 8.77095C133.191 9.17103 132.797 9.72996 132.514 10.4477C132.244 11.1655 132.108 12.001 132.108 12.9541Z" fill="#002163"/>
</svg>
