<svg width="36" height="35" viewBox="0 0 36 35" fill="none" xmlns="http://www.w3.org/2000/svg">
<g id="heart">
<path id="Icon" d="M30.7075 6.87669C29.9733 6.14214 29.1016 5.55943 28.1421 5.16187C27.1826 4.76432 26.1543 4.55969 25.1157 4.55969C24.0771 4.55969 23.0487 4.76432 22.0892 5.16187C21.1298 5.55943 20.258 6.14214 19.5238 6.87669L18 8.40044L16.4763 6.87669C14.9932 5.39363 12.9818 4.56046 10.8844 4.56046C8.78706 4.56046 6.77561 5.39363 5.29255 6.87669C3.80949 8.35975 2.97632 10.3712 2.97632 12.4686C2.97632 14.5659 3.80949 16.5774 5.29255 18.0604L6.8163 19.5842L18 30.7679L29.1838 19.5842L30.7075 18.0604C31.4421 17.3262 32.0248 16.4545 32.4224 15.495C32.8199 14.5355 33.0245 13.5071 33.0245 12.4686C33.0245 11.43 32.8199 10.4016 32.4224 9.44212C32.0248 8.48265 31.4421 7.6109 30.7075 6.87669V6.87669Z" stroke="#1B2ACB" stroke-width="2.875" stroke-linecap="round" stroke-linejoin="round"/>
</g>
</svg>
