<svg width="353" height="446" viewBox="0 0 353 446" fill="none" xmlns="http://www.w3.org/2000/svg">
<g filter="url(#filter0_dd_625_35872)">
<rect x="12" y="52" width="329" height="370" rx="10" fill="white"/>
<rect x="12.5" y="52.5" width="328" height="369" rx="9.5" stroke="#D5D7DA"/>
</g>
<path d="M203.866 228.988C203.781 227.131 200.996 202.157 200.574 198.95C199.903 193.829 195.784 192.545 195.784 192.545L181.782 187.713H167.927L152.911 192.958V193.217C152.911 193.077 152.911 192.992 152.911 192.958C152.762 193.041 149.067 194.093 148.18 197.733C147.697 199.723 142.056 227.947 141.979 228.776C141.901 229.606 142.643 234.665 146.63 235.329C148.121 235.588 151.348 235.347 154.798 234.965L152.082 248.799H195.605L194.055 238.911C197.515 237.562 201.138 236.068 201.742 235.427C202.936 234.208 203.944 230.844 203.866 228.988Z" fill="#1B29CB"/>
<g opacity="0.3">
<path d="M166.006 226.061C165.941 225.17 165.724 224.296 165.366 223.477C164.973 222.679 164.293 221.978 163.43 221.756C162.567 221.534 161.534 221.893 161.151 222.699C159.58 227.092 161.009 229.588 163.993 231.968C164.469 232.348 165.055 232.642 165.637 232.469C166.218 232.296 166.324 231.877 166.353 231.28C166.44 229.51 166.216 227.808 166.006 226.061Z" fill="black"/>
</g>
<path d="M159.876 221.048C159.783 221.073 159.687 221.089 159.591 221.095L158.816 221.177C158.144 221.242 157.206 221.327 156.134 221.418H156.165C155.92 221.588 155.666 221.766 155.411 221.952C154.503 222.58 153.675 223.315 152.943 224.141C152.729 224.396 152.532 224.667 152.356 224.95C152.301 225.06 152.236 225.166 152.163 225.265C152.199 225.146 152.249 225.032 152.31 224.924C152.471 224.628 152.658 224.346 152.868 224.082C153.586 223.229 154.415 222.476 155.333 221.844C155.591 221.655 155.85 221.48 156.09 221.309H156.106H156.121C157.196 221.226 158.137 221.157 158.811 221.115L159.602 221.071C159.692 221.054 159.784 221.046 159.876 221.048Z" fill="#263238"/>
<path d="M166.647 225.885C166.658 225.909 166.665 225.936 166.668 225.962L166.717 226.195C166.756 226.399 166.81 226.712 166.854 227.091C166.977 228.2 167.038 229.315 167.035 230.43C167.035 230.781 167.035 231.151 167.035 231.536C167.055 231.953 166.915 232.362 166.645 232.68C166.346 233.012 165.934 233.219 165.49 233.259L164.149 233.492C162.314 233.815 160.301 234.202 158.175 234.546C156.048 234.89 154.012 235.133 152.154 235.295C150.296 235.458 148.614 235.587 147.201 235.487C146.864 235.464 146.53 235.418 146.201 235.347C145.904 235.278 145.621 235.162 145.361 235.003C144.954 234.746 144.577 234.445 144.237 234.104C143.953 233.828 143.746 233.603 143.604 233.45L143.446 233.277C143.427 233.257 143.41 233.236 143.395 233.213L143.457 233.267L143.624 233.432C143.769 233.58 143.986 233.797 144.273 234.065C144.616 234.396 144.994 234.689 145.4 234.939C145.653 235.091 145.93 235.2 146.219 235.264C146.545 235.33 146.876 235.372 147.208 235.391C148.611 235.481 150.288 235.352 152.141 235.171C153.994 234.99 156.032 234.758 158.154 234.412C160.275 234.065 162.288 233.686 164.125 233.378L165.469 233.148C165.888 233.117 166.28 232.925 166.562 232.613C166.818 232.317 166.949 231.932 166.929 231.541C166.942 231.159 166.947 230.789 166.947 230.438C166.959 229.326 166.913 228.214 166.81 227.107C166.774 226.714 166.727 226.412 166.699 226.205C166.683 226.11 166.673 226.032 166.663 225.973C166.653 225.944 166.648 225.915 166.647 225.885Z" fill="#263238"/>
<path d="M157.723 204.95C157.762 204.95 157.431 208.63 156.984 213.157C156.537 217.684 156.15 221.355 156.111 221.35C156.072 221.345 156.398 217.673 156.853 213.141C157.307 208.609 157.69 204.948 157.723 204.95Z" fill="#263238"/>
<path d="M193.426 201.751C193.428 201.772 193.428 201.794 193.426 201.816C193.426 201.865 193.426 201.924 193.426 201.999C193.426 202.17 193.413 202.405 193.402 202.702C193.382 203.314 193.34 204.198 193.283 205.286C193.167 207.472 192.96 210.49 192.702 213.813C192.444 217.136 192.221 220.156 192.082 222.34C192.015 223.425 191.958 224.303 191.919 224.924C191.901 225.221 191.883 225.456 191.873 225.626C191.873 225.701 191.873 225.761 191.857 225.81C191.86 225.83 191.86 225.851 191.857 225.872C191.854 225.851 191.854 225.83 191.857 225.81V225.626C191.857 225.453 191.857 225.218 191.878 224.921C191.898 224.309 191.94 223.425 191.997 222.337C192.113 220.151 192.322 217.136 192.578 213.81C192.834 210.485 193.059 207.467 193.198 205.283C193.268 204.201 193.322 203.319 193.361 202.699C193.382 202.402 193.397 202.182 193.407 201.996C193.407 201.924 193.42 201.862 193.423 201.813C193.421 201.792 193.422 201.771 193.426 201.751Z" fill="#263238"/>
<path d="M202.573 228.547C202.329 228.149 202.061 227.767 201.769 227.404C201.04 226.552 200.096 225.909 199.035 225.544C198.445 225.354 197.84 225.213 197.226 225.123C196.388 224.993 195.53 225.133 194.777 225.523C194.669 225.588 194.557 225.644 194.441 225.691C194.441 225.691 194.464 225.665 194.516 225.629C194.592 225.574 194.672 225.523 194.754 225.477C195.052 225.302 195.373 225.169 195.707 225.081C196.209 224.959 196.73 224.932 197.242 225.001C197.863 225.085 198.475 225.224 199.071 225.417C200.158 225.789 201.118 226.46 201.841 227.353C202.059 227.62 202.252 227.908 202.417 228.211C202.48 228.317 202.532 228.43 202.573 228.547Z" fill="#263238"/>
<path d="M195.277 238.445C195.23 238.477 195.18 238.503 195.127 238.523L194.683 238.722C194.298 238.892 193.74 239.14 193.042 239.432C192.232 239.796 191.394 240.091 190.535 240.316C190.017 240.442 189.478 240.457 188.954 240.36C188.394 240.229 187.881 239.942 187.476 239.533C187.077 239.124 186.766 238.638 186.561 238.104C186.357 237.62 186.194 237.12 186.073 236.608C185.862 235.747 185.704 234.874 185.598 233.993C185.507 233.241 185.455 232.634 185.419 232.213C185.404 232.014 185.393 231.851 185.383 231.727C185.377 231.67 185.377 231.613 185.383 231.557C185.399 231.611 185.41 231.668 185.414 231.725C185.43 231.849 185.45 232.009 185.474 232.208C185.525 232.626 185.592 233.241 185.696 233.98C185.809 234.855 185.973 235.722 186.187 236.577C186.309 237.081 186.473 237.575 186.675 238.053C186.874 238.569 187.176 239.039 187.561 239.435C187.949 239.827 188.439 240.102 188.975 240.231C189.481 240.327 190.001 240.314 190.502 240.195C191.355 239.977 192.189 239.692 192.998 239.345L194.654 238.673L195.109 238.497C195.163 238.473 195.219 238.456 195.277 238.445Z" fill="#263238"/>
<g opacity="0.3">
<path d="M166.676 232.56C166.288 233.1 165.469 233.208 164.815 233.319C161.36 233.906 158.239 234.467 154.738 234.846L154.293 237.131C157.828 236.565 161.466 235.818 164.802 234.523C165.264 234.369 165.695 234.135 166.076 233.833C166.267 233.681 166.42 233.487 166.524 233.266C166.628 233.045 166.68 232.804 166.676 232.56Z" fill="black"/>
</g>
<g opacity="0.3">
<path d="M186.698 232.312C186.831 234.206 187.376 236.05 188.295 237.712C188.51 238.081 188.835 238.487 189.261 238.441C189.592 238.404 189.822 238.107 189.995 237.826C190.665 236.746 191.272 235.717 191.478 234.467L188.184 233.151L186.698 232.312Z" fill="black"/>
</g>
<path d="M179.502 231.924C179.525 231.955 177.014 233.924 173.898 236.317C170.781 238.709 168.234 240.64 168.213 240.611C168.192 240.583 170.701 238.611 173.818 236.219C176.934 233.826 179.479 231.896 179.502 231.924Z" fill="#263238"/>
<path d="M193.239 227.353C193.262 227.495 193.274 227.64 193.276 227.784C193.285 227.956 193.285 228.129 193.276 228.301C193.276 228.497 193.25 228.722 193.221 228.967C193.051 230.252 192.737 231.514 192.286 232.73C191.852 233.949 191.303 235.125 190.648 236.241C190.447 236.579 190.228 236.905 189.991 237.218C189.908 237.335 189.815 237.445 189.712 237.546C189.781 237.42 189.861 237.3 189.95 237.187C190.103 236.96 190.322 236.624 190.565 236.192C191.194 235.069 191.727 233.895 192.159 232.683C192.606 231.477 192.93 230.229 193.126 228.957C193.159 228.712 193.19 228.492 193.201 228.296C193.211 228.099 193.232 227.931 193.227 227.794C193.218 227.647 193.222 227.499 193.239 227.353Z" fill="#263238"/>
<path d="M173.935 218.795C173.935 218.795 170.098 212.666 167.088 213.87C167.088 213.87 165.558 212.617 164.581 213.42C163.604 214.224 163.953 215.852 163.953 215.852C163.953 215.852 162.098 214.348 161.269 215.126C160.439 215.903 161.044 217.232 161.269 217.885C161.445 218.551 161.562 219.23 161.62 219.916C161.62 219.916 160.491 219.34 159.964 220.268C159.437 221.195 161.444 224.306 161.747 224.733C162.049 225.159 163.979 227.058 165.307 226.565C166.635 226.071 167.566 224.733 167.566 224.733L173.935 218.795Z" fill="#FFBE9D"/>
<path d="M163.947 216.087C164.069 216.149 164.185 216.221 164.294 216.304L165.213 216.934L166.562 217.885C166.698 217.98 166.822 218.09 166.932 218.213C167.052 218.35 167.123 218.521 167.136 218.702C167.134 218.892 167.078 219.077 166.975 219.236C166.871 219.396 166.725 219.522 166.552 219.601C166.218 219.754 165.843 219.794 165.485 219.715C165.161 219.641 164.849 219.524 164.557 219.366C164.004 219.079 163.524 218.797 163.118 218.549C162.712 218.301 162.402 218.087 162.188 217.932C162.072 217.856 161.964 217.77 161.865 217.673C161.988 217.734 162.106 217.804 162.219 217.883C162.441 218.022 162.761 218.224 163.167 218.462C163.573 218.699 164.061 218.978 164.614 219.237C164.897 219.386 165.198 219.497 165.511 219.565C165.839 219.639 166.183 219.603 166.49 219.464C166.641 219.397 166.769 219.289 166.861 219.151C166.952 219.014 167.003 218.854 167.007 218.689C166.98 218.538 166.919 218.395 166.83 218.27C166.74 218.146 166.624 218.042 166.49 217.968L165.157 217.017L164.265 216.353C164.152 216.274 164.045 216.185 163.947 216.087Z" fill="#EB996E"/>
<path d="M164.001 215.901C164.001 215.901 164.042 215.924 164.115 215.976L164.427 216.214C164.699 216.418 165.089 216.718 165.585 217.067C166.154 217.487 166.777 217.829 167.438 218.085C167.828 218.226 168.236 218.313 168.649 218.343C169.088 218.395 169.532 218.336 169.941 218.17C170.137 218.075 170.298 217.922 170.404 217.733C170.452 217.642 170.481 217.542 170.49 217.44C170.499 217.337 170.487 217.234 170.456 217.136C170.297 216.757 170.062 216.414 169.766 216.129C169.272 215.618 168.742 215.145 168.179 214.713C167.701 214.34 167.301 214.056 167.022 213.86L166.701 213.635C166.629 213.583 166.59 213.555 166.593 213.55C166.636 213.566 166.677 213.587 166.717 213.612C166.794 213.656 166.905 213.726 167.05 213.816C167.339 213.999 167.748 214.273 168.236 214.638C168.813 215.062 169.355 215.532 169.856 216.043C169.993 216.193 170.133 216.348 170.262 216.519C170.402 216.692 170.511 216.889 170.582 217.1C170.619 217.215 170.632 217.335 170.622 217.455C170.611 217.575 170.576 217.691 170.52 217.798C170.404 218.012 170.223 218.184 170.003 218.289C169.573 218.467 169.104 218.531 168.642 218.475C168.216 218.438 167.798 218.342 167.399 218.191C166.731 217.927 166.103 217.571 165.533 217.134C165.04 216.775 164.657 216.462 164.396 216.242L164.099 215.984C164.029 215.937 163.996 215.904 164.001 215.901Z" fill="#EB996E"/>
<path d="M161.445 219.905L164.143 221.197C164.447 221.345 164.804 221.567 164.791 221.905C164.775 222.062 164.705 222.209 164.595 222.321C164.364 222.557 164.083 222.739 163.772 222.851C163.462 222.963 163.13 223.004 162.802 222.97C162.146 222.894 161.506 222.72 160.902 222.453" fill="#FFBE9D"/>
<path d="M160.902 222.464C160.902 222.436 161.352 222.624 162.083 222.811C162.509 222.92 162.953 222.945 163.388 222.883C163.642 222.84 163.886 222.752 164.109 222.624C164.348 222.498 164.546 222.306 164.68 222.072C164.707 222.016 164.722 221.954 164.722 221.892C164.722 221.83 164.707 221.768 164.68 221.712C164.619 221.598 164.53 221.502 164.422 221.431C164.201 221.294 163.97 221.173 163.732 221.069L162.533 220.475L161.727 220.066C161.626 220.02 161.53 219.963 161.44 219.898C161.547 219.928 161.65 219.968 161.75 220.017L162.572 220.389L163.786 220.955C164.031 221.062 164.269 221.185 164.497 221.325C164.624 221.406 164.729 221.519 164.799 221.653C164.835 221.727 164.853 221.807 164.853 221.889C164.853 221.971 164.835 222.052 164.799 222.126C164.648 222.367 164.444 222.571 164.203 222.721C163.961 222.872 163.689 222.966 163.406 222.997C162.954 223.057 162.495 223.022 162.057 222.893C161.766 222.813 161.48 222.714 161.202 222.596C161.098 222.563 160.997 222.519 160.902 222.464Z" fill="#EB996E"/>
<path d="M165.651 226.409L161.586 229.476C161.586 229.476 159.615 226.729 160.925 223.401H161.904L161.682 224.492L163.532 224.879L165.651 226.409Z" fill="#FFBE9D"/>
<path d="M160.838 223.327L162.342 225.286C162.505 225.521 162.7 225.732 162.921 225.914C163.032 226.003 163.161 226.07 163.298 226.108C163.436 226.147 163.58 226.157 163.722 226.138" fill="#FFBE9D"/>
<path d="M163.711 226.125C163.611 226.162 163.504 226.177 163.398 226.167C163.292 226.158 163.19 226.125 163.098 226.071C162.893 225.971 162.71 225.83 162.561 225.657C162.39 225.469 162.227 225.247 162.044 225.022C161.693 224.565 161.383 224.146 161.163 223.841C161.032 223.682 160.92 223.509 160.83 223.324C160.982 223.461 161.119 223.613 161.238 223.779C161.478 224.071 161.801 224.479 162.15 224.937C162.328 225.164 162.486 225.386 162.646 225.572C162.781 225.738 162.946 225.878 163.132 225.983C163.311 226.074 163.509 226.123 163.711 226.125Z" fill="#EB996E"/>
<path d="M162.006 223.764L166.993 219.005C167.234 218.775 167.517 218.595 167.828 218.475C168.138 218.354 168.469 218.297 168.802 218.304L194.336 219.051C194.447 219.054 194.555 219.093 194.644 219.16C194.732 219.227 194.798 219.321 194.831 219.427C194.864 219.534 194.863 219.648 194.828 219.754C194.793 219.86 194.726 219.952 194.636 220.018L187.463 225.286C187.338 225.377 187.186 225.423 187.031 225.415L162.226 224.34C162.16 224.339 162.096 224.317 162.042 224.279C161.988 224.241 161.946 224.188 161.923 224.126C161.899 224.064 161.895 223.997 161.909 223.932C161.924 223.868 161.958 223.809 162.006 223.764Z" fill="#E0E0E0"/>
<path d="M194.844 219.691C194.814 219.695 194.783 219.695 194.753 219.691H194.495L193.484 219.676L189.766 219.601L177.511 219.273L170.764 219.084L169.25 219.037C169.012 219.022 168.772 219.022 168.534 219.037C168.308 219.066 168.089 219.136 167.888 219.244C167.698 219.357 167.524 219.495 167.371 219.655L166.891 220.097L165.986 220.931L163.247 223.443L162.498 224.123L162.302 224.296L162.232 224.353C162.232 224.353 162.25 224.327 162.291 224.285L162.48 224.102L163.211 223.404L165.922 220.862L166.821 220.022L167.299 219.575C167.46 219.408 167.642 219.264 167.842 219.146C168.054 219.03 168.286 218.954 168.526 218.924C168.771 218.907 169.016 218.907 169.26 218.924L170.774 218.965L177.524 219.151L189.776 219.518L193.49 219.645L194.5 219.686L194.758 219.701C194.786 219.695 194.815 219.692 194.844 219.691Z" fill="#263238"/>
<path d="M199.904 206.266C199.937 206.281 198.666 208.739 197.061 211.751C195.457 214.764 194.134 217.193 194.1 217.178C194.067 217.162 195.341 214.705 196.943 211.692C198.545 208.679 199.873 206.248 199.904 206.266Z" fill="white"/>
<path d="M190.55 205.759C190.586 205.759 190.077 207.963 189.411 210.668C188.744 213.374 188.176 215.549 188.14 215.539C188.103 215.529 188.615 213.335 189.282 210.63C189.948 207.924 190.506 205.748 190.55 205.759Z" fill="white"/>
<path d="M151.491 209.781C151.519 209.758 153.082 211.5 154.979 213.67C156.876 215.841 158.398 217.624 158.369 217.647C158.341 217.67 156.777 215.931 154.878 213.771C152.979 211.611 151.457 209.797 151.491 209.781Z" fill="white"/>
<path d="M157.654 201.131C157.688 201.131 158.504 203.818 159.476 207.157C160.447 210.495 161.207 213.206 161.171 213.216C161.135 213.226 160.318 210.531 159.347 207.193C158.375 203.854 157.618 201.144 157.654 201.131Z" fill="white"/>
<path d="M182.907 198.178C182.917 198.237 182.921 198.298 182.92 198.359C182.92 198.493 182.92 198.666 182.92 198.875V200.806C182.92 202.449 182.894 204.681 182.876 207.172C182.858 209.663 182.814 211.898 182.793 213.539C182.775 214.343 182.762 214.999 182.752 215.469C182.752 215.686 182.752 215.862 182.734 215.986C182.736 216.048 182.73 216.109 182.719 216.17C182.712 216.109 182.712 216.047 182.719 215.986C182.719 215.854 182.719 215.679 182.719 215.469C182.719 214.999 182.719 214.343 182.719 213.539C182.719 211.896 182.744 209.663 182.762 207.172C182.781 204.681 182.824 202.449 182.848 200.806C182.863 200.002 182.876 199.348 182.886 198.875C182.886 198.658 182.899 198.485 182.905 198.359C182.899 198.298 182.899 198.238 182.907 198.178Z" fill="white"/>
<path d="M191.628 166.615C190.664 165.582 189.496 164.608 189.16 163.235C188.85 161.972 189.295 160.527 188.628 159.414C187.807 158.042 185.757 157.928 184.77 156.672C184.29 156.062 184.124 155.256 183.652 154.644C182.845 153.61 181.347 153.352 180.034 153.546C178.721 153.74 177.479 154.241 176.158 154.375C174.349 154.561 172.476 154.032 170.76 154.608C168.869 155.241 167.755 156.969 166.564 158.646L165.014 160.6C164.694 160.936 164.341 161.241 163.962 161.509C163.293 161.974 162.523 162.303 161.954 162.884C160.74 164.129 160.921 166.439 162.314 167.478C161.63 167.739 161.048 168.212 160.653 168.829C160.259 169.445 160.073 170.172 160.122 170.902C160.195 171.703 160.551 172.452 160.818 173.199C161.084 173.946 161.254 174.806 160.957 175.55C160.66 176.295 159.737 176.842 159.027 176.463C159.172 176.977 159.431 177.453 159.783 177.855C160.135 178.257 160.572 178.576 161.063 178.788C160.694 179.191 160.184 179.438 159.639 179.478C161.218 182.865 165.257 184.54 168.993 184.434C172.729 184.328 176.256 182.793 179.672 181.282L189.641 178.328C190.517 178.098 190.848 177.01 190.806 176.106C190.765 175.202 190.502 174.266 190.806 173.408C191.21 172.233 192.538 171.574 192.964 170.406C193.447 169.08 192.595 167.646 191.628 166.615Z" fill="#263238"/>
<path d="M168.148 176.591C167.342 174.343 166.546 172.077 166.14 169.726C165.735 167.375 165.732 164.907 166.497 162.646C166.613 162.302 167.618 159.997 167.98 160.021C168.239 160.039 167.639 162.181 167.776 162.4C169.081 164.496 169.494 167.052 169.37 169.517C169.227 171.913 168.817 174.286 168.148 176.591Z" fill="#263238"/>
<path d="M176.973 156.125H176.42C170.436 156.332 167.268 161.531 167.635 167.507L167.806 188.116C167.821 189.912 168.526 191.633 169.773 192.924C171.021 194.215 172.717 194.978 174.511 195.054C175.44 195.095 176.367 194.951 177.24 194.63C178.112 194.309 178.912 193.817 179.593 193.184C180.274 192.551 180.822 191.789 181.205 190.942C181.588 190.095 181.799 189.18 181.826 188.251C181.857 187.168 181.883 186.411 181.885 186.411C181.888 186.411 187.653 185.654 187.859 179.913C187.96 177.137 187.702 171.409 187.407 166.218C187.254 163.532 186.096 161.003 184.162 159.133C182.229 157.263 179.662 156.189 176.973 156.125Z" fill="#FFBE9D"/>
<path d="M181.889 186.403C181.889 186.403 178.271 186.527 174.462 184.013C174.462 184.013 176.095 188.286 181.839 187.907L181.889 186.403Z" fill="#EB996E"/>
<path d="M184.879 171.522C184.875 171.736 184.788 171.939 184.637 172.09C184.485 172.241 184.281 172.327 184.068 172.331C183.963 172.338 183.858 172.323 183.759 172.288C183.66 172.254 183.569 172.199 183.491 172.128C183.414 172.057 183.352 171.971 183.309 171.875C183.266 171.779 183.243 171.676 183.241 171.571C183.245 171.358 183.331 171.156 183.481 171.005C183.632 170.855 183.834 170.769 184.047 170.765C184.152 170.757 184.257 170.771 184.357 170.805C184.456 170.839 184.548 170.894 184.626 170.965C184.703 171.035 184.766 171.121 184.81 171.217C184.853 171.313 184.877 171.417 184.879 171.522Z" fill="#263238"/>
<path d="M186.116 168.574C186.013 168.677 185.403 168.204 184.519 168.184C183.636 168.163 182.969 168.592 182.886 168.481C182.84 168.432 182.948 168.243 183.235 168.044C183.628 167.782 184.094 167.649 184.566 167.664C185.025 167.674 185.469 167.83 185.835 168.109C186.09 168.331 186.178 168.527 186.116 168.574Z" fill="#263238"/>
<path d="M176.89 171.522C176.886 171.736 176.799 171.939 176.648 172.09C176.497 172.241 176.293 172.327 176.079 172.331C175.974 172.338 175.869 172.323 175.77 172.289C175.671 172.254 175.58 172.199 175.503 172.128C175.425 172.057 175.363 171.971 175.32 171.875C175.277 171.78 175.254 171.676 175.252 171.571C175.255 171.357 175.341 171.153 175.492 171.001C175.643 170.85 175.847 170.763 176.061 170.76C176.166 170.752 176.271 170.766 176.371 170.801C176.471 170.836 176.562 170.891 176.64 170.962C176.717 171.034 176.779 171.12 176.823 171.216C176.866 171.313 176.889 171.417 176.89 171.522Z" fill="#263238"/>
<path d="M177.47 168.724C177.367 168.83 176.754 168.354 175.873 168.336C174.992 168.318 174.323 168.744 174.238 168.633C174.194 168.584 174.3 168.393 174.589 168.194C174.977 167.939 175.435 167.81 175.899 167.824C176.359 167.833 176.803 167.989 177.168 168.269C177.434 168.483 177.522 168.677 177.47 168.724Z" fill="#263238"/>
<path d="M180.476 175.584C180.476 175.533 181.024 175.45 181.916 175.36C182.141 175.341 182.355 175.3 182.399 175.148C182.422 174.915 182.375 174.681 182.265 174.476L181.637 172.745C180.771 170.28 180.148 168.254 180.247 168.22C180.345 168.187 181.13 170.156 181.998 172.613C182.208 173.223 182.407 173.801 182.595 174.354C182.732 174.63 182.766 174.945 182.691 175.243C182.657 175.322 182.605 175.392 182.539 175.447C182.474 175.503 182.397 175.542 182.314 175.564C182.188 175.596 182.058 175.61 181.929 175.608C181.035 175.641 180.479 175.633 180.476 175.584Z" fill="#263238"/>
<path d="M177.864 176.132C178.009 176.132 177.986 177.085 178.792 177.786C179.598 178.486 180.616 178.403 180.621 178.538C180.634 178.597 180.389 178.719 179.957 178.719C179.396 178.713 178.854 178.51 178.428 178.145C178.02 177.792 177.764 177.296 177.712 176.76C177.686 176.359 177.8 176.124 177.864 176.132Z" fill="#263238"/>
<path d="M177.508 165.142C177.415 165.38 176.536 165.246 175.497 165.344C174.459 165.442 173.616 165.708 173.482 165.489C173.425 165.385 173.575 165.163 173.919 164.938C174.377 164.665 174.891 164.5 175.422 164.455C175.954 164.41 176.489 164.487 176.986 164.68C177.36 164.835 177.549 165.029 177.508 165.142Z" fill="#263238"/>
<path d="M185.83 165.631C185.67 165.827 185.068 165.605 184.336 165.577C183.605 165.548 182.982 165.68 182.846 165.468C182.786 165.365 182.887 165.166 183.163 164.983C183.532 164.764 183.958 164.659 184.386 164.683C184.814 164.706 185.226 164.857 185.569 165.114C185.822 165.339 185.902 165.535 185.83 165.631Z" fill="#263238"/>
<path d="M168.009 171.757C167.913 171.713 164.092 170.496 164.133 174.426C164.174 178.356 168.105 177.527 168.11 177.4C168.115 177.273 168.009 171.757 168.009 171.757Z" fill="#FFBE9D"/>
<path d="M166.885 175.933C166.867 175.92 166.818 175.979 166.702 176.033C166.538 176.107 166.353 176.112 166.185 176.049C165.769 175.899 165.41 175.243 165.389 174.535C165.377 174.198 165.439 173.863 165.573 173.553C165.609 173.429 165.675 173.316 165.765 173.224C165.855 173.131 165.967 173.063 166.089 173.023C166.168 173.002 166.251 173.009 166.325 173.043C166.398 173.077 166.458 173.136 166.493 173.209C166.547 173.318 166.524 173.398 166.544 173.403C166.565 173.408 166.627 173.336 166.596 173.176C166.573 173.078 166.517 172.992 166.438 172.93C166.329 172.849 166.193 172.813 166.058 172.832C165.897 172.865 165.747 172.939 165.623 173.047C165.499 173.155 165.404 173.292 165.348 173.447C165.184 173.789 165.106 174.166 165.12 174.545C165.151 175.336 165.562 176.075 166.133 176.235C166.239 176.265 166.35 176.27 166.459 176.251C166.567 176.232 166.67 176.188 166.759 176.124C166.878 176.015 166.898 175.933 166.885 175.933Z" fill="#EB996E"/>
<path d="M184.757 159.753C185.387 159.391 183.444 157.365 181.868 156.681C179.488 155.647 175.871 155.05 173.703 155.706C171.093 156.482 168.938 157.836 167.662 160.244C166.385 162.652 165.938 165.443 166.06 168.163C166.098 168.995 166.199 169.861 166.654 170.556C167.217 171.414 168.279 171.944 168.253 173.14C168.233 173.579 168.387 174.008 168.682 174.334C169.416 175.086 170.282 174.352 170.675 173.626C171.512 172.075 171.576 170.233 171.623 168.458C171.656 167.205 171.685 165.923 171.31 164.724C171.109 164.073 170.793 163.461 170.623 162.797C170.452 162.133 170.463 161.381 170.866 160.83C170.961 160.712 171.067 160.602 171.181 160.502C171.721 160.015 172.381 159.68 173.093 159.532C173.805 159.384 174.543 159.428 175.233 159.66C177.46 160.407 181.258 161.51 182.232 160.742C183.633 159.639 183.961 158.934 183.961 158.934L184.757 159.753Z" fill="#263238"/>
<path d="M173.9 155.168C176.048 154.409 178.505 154.393 180.544 155.427C181.626 155.967 182.611 156.84 182.957 158.011C183.303 159.181 182.833 160.608 181.722 161.083L181.644 161.132C179.978 161.724 178.885 161.52 177.203 160.969C175.789 160.507 174.523 159.659 173.104 159.202C171.587 158.719 169.959 158.699 168.43 159.145C169.903 157.391 171.753 155.928 173.9 155.168Z" fill="#263238"/>
<path d="M164.732 172.057C164.66 171.988 164.596 171.911 164.538 171.83C164.366 171.598 164.226 171.343 164.122 171.073C163.924 170.575 163.852 170.035 163.912 169.503C163.972 168.97 164.162 168.461 164.466 168.019C164.663 167.723 164.908 167.461 165.189 167.244C165.494 167.009 165.834 166.825 166.197 166.696C166.931 166.412 167.783 166.264 168.481 165.737C168.838 165.476 169.095 165.1 169.207 164.673C169.305 164.218 169.331 163.75 169.282 163.288C169.217 162.334 169.179 161.308 169.497 160.316C169.83 159.359 170.474 158.54 171.326 157.991C172.099 157.464 172.973 157.101 173.892 156.926C174.722 156.763 175.576 156.763 176.406 156.926C177.129 157.072 177.814 157.363 178.421 157.781C179.307 158.381 179.99 159.234 180.383 160.228C180.487 160.497 180.566 160.774 180.618 161.058L180.649 161.28C180.652 161.306 180.652 161.332 180.649 161.357C180.578 160.979 180.472 160.607 180.331 160.249C179.985 159.431 179.444 158.71 178.754 158.15C178.065 157.59 177.249 157.208 176.377 157.037C175.563 156.877 174.725 156.877 173.91 157.037C173.009 157.213 172.153 157.571 171.396 158.089C170.569 158.625 169.944 159.422 169.621 160.352C169.31 161.313 169.344 162.321 169.409 163.275C169.458 163.751 169.43 164.233 169.326 164.701C169.206 165.155 168.932 165.554 168.551 165.83C167.817 166.378 166.951 166.52 166.225 166.797C165.54 167.027 164.947 167.472 164.533 168.065C164.194 168.558 163.999 169.135 163.97 169.732C163.946 170.182 164.015 170.632 164.171 171.055C164.308 171.415 164.497 171.752 164.732 172.057Z" fill="#455A64"/>
<path d="M164.31 172.949C164.204 172.898 164.103 172.839 164.007 172.773C163.728 172.587 163.474 172.367 163.25 172.117C162.896 171.719 162.621 171.258 162.439 170.758C162.201 170.09 162.146 169.371 162.279 168.675C162.43 167.825 162.847 167.045 163.47 166.448C164.131 165.796 165.007 165.331 165.824 164.727C166.247 164.426 166.62 164.058 166.927 163.639C167.233 163.192 167.47 162.7 167.627 162.182C167.979 161.132 168.144 159.97 168.638 158.874C169.139 157.817 169.927 156.922 170.911 156.29C171.826 155.691 172.88 155.337 173.971 155.262C174.951 155.198 175.934 155.342 176.854 155.686C177.655 155.982 178.395 156.419 179.04 156.978C179.969 157.795 180.687 158.824 181.133 159.977C181.305 160.393 181.428 160.826 181.5 161.269C181.489 161.243 181.48 161.215 181.474 161.187C181.456 161.122 181.436 161.039 181.407 160.928C181.319 160.608 181.211 160.293 181.084 159.985C180.625 158.851 179.903 157.841 178.978 157.04C178.339 156.492 177.607 156.064 176.816 155.776C175.908 155.441 174.939 155.302 173.973 155.368C172.909 155.443 171.881 155.788 170.986 156.37C170.023 156.991 169.252 157.869 168.762 158.905C168.271 159.972 168.11 161.132 167.756 162.197C167.593 162.728 167.349 163.231 167.033 163.688C166.718 164.117 166.336 164.492 165.901 164.799C165.069 165.409 164.201 165.869 163.552 166.502C162.942 167.081 162.53 167.838 162.374 168.665C162.24 169.346 162.288 170.051 162.514 170.708C162.796 171.521 163.324 172.226 164.025 172.724C164.209 172.884 164.315 172.941 164.31 172.949Z" fill="#455A64"/>
<path d="M187.539 224.113C187.539 224.113 176.865 221.63 175.235 221.508C173.705 221.394 173.307 222.353 173.307 222.353C173.307 222.353 171.018 222.066 170.514 223.402C170.514 223.402 170.111 224.177 171.049 224.575C171.987 224.973 177.077 226.092 178.123 227.066C179.17 228.04 187.942 233.022 187.942 233.022L191.48 234.466C191.48 234.466 193.069 230.314 193.141 229.123C193.21 228.487 193.083 227.846 192.779 227.283C192.779 227.283 194.981 225.045 195.234 224.144C195.487 223.242 197.077 220.136 197.077 220.136C197.077 220.136 195.586 218.617 194.11 220.394C192.635 222.172 191.808 222.978 191.407 223.301C190.25 224.226 188.219 224.327 187.539 224.113Z" fill="#FFBE9D"/>
<path d="M183.986 227.226C183.986 227.226 183.945 227.226 183.873 227.182L183.56 227.032L182.41 226.482C181.436 226.027 180.085 225.425 178.534 224.862C177.759 224.58 177.023 224.329 176.343 224.117C175.663 223.905 175.051 223.75 174.534 223.531C174.128 223.378 173.771 223.118 173.501 222.779C173.432 222.683 173.376 222.579 173.333 222.469C173.316 222.432 173.305 222.393 173.302 222.353C173.372 222.49 173.452 222.622 173.542 222.748C173.822 223.064 174.177 223.303 174.576 223.443C175.069 223.644 175.697 223.787 176.384 223.998C177.072 224.21 177.813 224.451 178.586 224.735C179.906 225.22 181.2 225.774 182.462 226.396C182.945 226.637 183.33 226.841 183.593 226.985L183.896 227.159C183.928 227.178 183.958 227.201 183.986 227.226Z" fill="#EB996E"/>
<path d="M190.921 223.655C190.672 223.997 190.34 224.27 189.957 224.448C189.595 224.665 189.183 224.785 188.761 224.797C188.761 224.758 189.298 224.65 189.895 224.329C190.492 224.009 190.892 223.624 190.921 223.655Z" fill="#EB996E"/>
<path d="M228.489 248.83C228.489 248.869 205.466 248.897 177.069 248.897C148.672 248.897 125.649 248.869 125.649 248.83C125.649 248.791 148.666 248.763 177.069 248.763C205.471 248.763 228.489 248.799 228.489 248.83Z" fill="#263238"/>
<path d="M155.069 164.292H121.06V178.284H151.645L153.731 180.369V178.284H155.069V164.292Z" fill="white"/>
<path d="M155.069 164.305C155.069 164.305 155.069 164.383 155.069 164.543C155.069 164.703 155.069 164.943 155.069 165.253C155.069 165.886 155.069 166.804 155.069 168.013C155.069 170.426 155.084 173.93 155.095 178.297V178.343H153.71L153.759 178.294C153.759 178.938 153.759 179.651 153.759 180.38V180.504L153.671 180.416L151.586 178.333L151.622 178.349L122.55 178.351H121V178.284C121 173.375 121 168.654 121 164.292V164.228H121.065L145.516 164.259L152.56 164.274H154.433H154.914H155.074H154.906H154.418H152.532L145.472 164.292L121.065 164.321L121.129 164.259C121.129 168.62 121.129 173.341 121.129 178.25L121.062 178.183H122.55H151.658H151.681L151.697 178.199L153.78 180.287L153.692 180.323C153.692 179.594 153.692 178.881 153.692 178.238V178.191H155.079L155.033 178.238C155.033 173.881 155.053 170.39 155.059 167.982C155.059 166.778 155.059 165.848 155.059 165.212C155.059 164.897 155.059 164.656 155.059 164.494C155.059 164.331 155.069 164.305 155.069 164.305Z" fill="#263238"/>
<path d="M151.426 168.294H135.835C135.528 168.294 135.279 168.543 135.279 168.849V168.909C135.279 169.216 135.528 169.464 135.835 169.464H151.426C151.733 169.464 151.982 169.216 151.982 168.909V168.849C151.982 168.543 151.733 168.294 151.426 168.294Z" fill="#E0E0E0"/>
<path d="M151.426 170.904H135.835C135.528 170.904 135.279 171.153 135.279 171.46V171.519C135.279 171.826 135.528 172.075 135.835 172.075H151.426C151.733 172.075 151.982 171.826 151.982 171.519V171.46C151.982 171.153 151.733 170.904 151.426 170.904Z" fill="#E0E0E0"/>
<path d="M151.426 173.514H135.835C135.528 173.514 135.279 173.762 135.279 174.069V174.129C135.279 174.435 135.528 174.684 135.835 174.684H151.426C151.733 174.684 151.982 174.435 151.982 174.129V174.069C151.982 173.762 151.733 173.514 151.426 173.514Z" fill="#E0E0E0"/>
<path d="M131.323 167.186H125.029C124.391 167.186 123.874 167.703 123.874 168.341V174.635C123.874 175.273 124.391 175.79 125.029 175.79H131.323C131.961 175.79 132.478 175.273 132.478 174.635V168.341C132.478 167.703 131.961 167.186 131.323 167.186Z" fill="#455A64"/>
<path d="M124.724 174.041L124.525 173.875L126.266 171.808C126.363 171.675 126.507 171.585 126.668 171.556C126.83 171.528 126.996 171.564 127.132 171.656L128.166 172.34L129.372 170.813C129.43 170.742 129.502 170.683 129.584 170.642C129.666 170.6 129.757 170.577 129.849 170.574C129.94 170.57 130.032 170.587 130.117 170.622C130.202 170.657 130.279 170.71 130.341 170.777L131.83 172.387L131.638 172.56L130.15 170.953C130.114 170.912 130.069 170.88 130.018 170.859C129.967 170.838 129.913 170.828 129.858 170.831C129.803 170.833 129.75 170.847 129.701 170.872C129.651 170.896 129.608 170.931 129.574 170.974L128.22 172.687L126.995 171.87C126.914 171.815 126.814 171.794 126.717 171.812C126.62 171.83 126.535 171.885 126.478 171.966L124.724 174.041Z" fill="white"/>
<path d="M127.405 170.191C127.831 170.191 128.175 169.847 128.175 169.421C128.175 168.996 127.831 168.651 127.405 168.651C126.98 168.651 126.635 168.996 126.635 169.421C126.635 169.847 126.98 170.191 127.405 170.191Z" fill="white"/>
<path d="M216.305 189.655H185.389V202.828H188.577L188.916 205.73L191.295 202.828H216.305V189.655Z" fill="white"/>
<path d="M216.308 189.656C216.308 189.656 216.308 189.731 216.308 189.881C216.308 190.03 216.308 190.258 216.308 190.552C216.308 191.147 216.308 192.023 216.321 193.152C216.321 195.426 216.334 198.723 216.344 202.829V202.875H216.298L191.288 202.896L191.34 202.87C190.585 203.79 189.776 204.774 188.96 205.774L188.859 205.896L188.841 205.738C188.732 204.818 188.619 203.831 188.503 202.836L188.57 202.896H185.314V202.829C185.314 198.203 185.314 193.762 185.314 189.651V189.586H185.379L207.623 189.614L214.016 189.632H215.714H216.15H216.295H216.143H215.701H213.988L207.58 189.651L185.379 189.682L185.441 189.617C185.441 193.723 185.441 198.165 185.441 202.795L185.373 202.728H188.621V202.787C188.738 203.782 188.851 204.769 188.957 205.689L188.841 205.655C189.658 204.658 190.466 203.671 191.221 202.754L191.241 202.728H191.272L216.282 202.748L216.236 202.795C216.236 198.699 216.256 195.413 216.262 193.147C216.262 192.012 216.262 191.134 216.262 190.537C216.262 190.24 216.262 190.02 216.262 189.857C216.262 189.694 216.308 189.656 216.308 189.656Z" fill="#263238"/>
<path d="M212.627 193.813H200.348C200.184 193.812 200.027 193.746 199.91 193.63C199.794 193.514 199.729 193.357 199.728 193.192C199.728 193.028 199.793 192.87 199.91 192.754C200.026 192.638 200.184 192.572 200.348 192.572H212.627C212.791 192.572 212.949 192.638 213.065 192.754C213.182 192.87 213.247 193.028 213.247 193.192C213.246 193.357 213.181 193.514 213.065 193.63C212.949 193.746 212.791 193.812 212.627 193.813Z" fill="#E0E0E0"/>
<path d="M212.627 196.578H200.348C200.184 196.578 200.026 196.513 199.91 196.397C199.793 196.28 199.728 196.123 199.728 195.958C199.729 195.794 199.794 195.636 199.91 195.52C200.027 195.404 200.184 195.339 200.348 195.338H212.627C212.791 195.339 212.949 195.404 213.065 195.52C213.181 195.636 213.246 195.794 213.247 195.958C213.247 196.123 213.182 196.28 213.065 196.397C212.949 196.513 212.791 196.578 212.627 196.578Z" fill="#E0E0E0"/>
<path d="M212.627 199.345H200.348C200.184 199.344 200.027 199.279 199.91 199.162C199.794 199.046 199.729 198.889 199.728 198.725C199.728 198.56 199.793 198.402 199.91 198.286C200.026 198.17 200.184 198.104 200.348 198.104H212.627C212.791 198.104 212.949 198.17 213.065 198.286C213.182 198.402 213.247 198.56 213.247 198.725C213.246 198.889 213.181 199.046 213.065 199.162C212.949 199.279 212.791 199.344 212.627 199.345Z" fill="#E0E0E0"/>
<path d="M195.602 191.397H188.791C188.153 191.397 187.636 191.915 187.636 192.552V199.364C187.636 200.002 188.153 200.519 188.791 200.519H195.602C196.24 200.519 196.757 200.002 196.757 199.364V192.552C196.757 191.915 196.24 191.397 195.602 191.397Z" fill="#EBEBEB"/>
<path d="M188.534 198.671L188.335 198.503L190.18 196.312C190.282 196.173 190.433 196.079 190.603 196.049C190.772 196.019 190.947 196.056 191.09 196.152L192.183 196.88L193.475 195.258C193.534 195.181 193.609 195.119 193.695 195.074C193.78 195.03 193.875 195.004 193.971 194.999C194.067 194.996 194.163 195.014 194.252 195.051C194.341 195.088 194.422 195.144 194.488 195.214L196.067 196.919L195.875 197.095L194.299 195.389C194.259 195.346 194.21 195.312 194.155 195.289C194.1 195.267 194.042 195.256 193.982 195.258C193.923 195.26 193.865 195.275 193.813 195.302C193.76 195.329 193.713 195.366 193.676 195.413L192.245 197.221L190.953 196.361C190.865 196.301 190.757 196.279 190.652 196.297C190.547 196.316 190.454 196.375 190.392 196.462L188.534 198.671Z" fill="white"/>
<path d="M192.198 193.761C192.198 193.922 192.151 194.08 192.061 194.215C191.971 194.349 191.843 194.454 191.694 194.515C191.544 194.577 191.38 194.593 191.222 194.561C191.063 194.53 190.918 194.452 190.804 194.337C190.69 194.223 190.612 194.077 190.581 193.919C190.55 193.76 190.566 193.596 190.628 193.447C190.691 193.297 190.796 193.17 190.93 193.081C191.065 192.991 191.223 192.944 191.385 192.944C191.492 192.944 191.598 192.965 191.697 193.007C191.796 193.048 191.885 193.108 191.961 193.184C192.037 193.26 192.096 193.35 192.137 193.449C192.178 193.548 192.199 193.654 192.198 193.761Z" fill="white"/>
<path d="M152.701 186.842H128.087C127.657 186.842 127.245 187.012 126.941 187.316C126.637 187.62 126.467 188.032 126.467 188.462V202.782C126.467 203.159 126.617 203.52 126.883 203.787C127.15 204.053 127.511 204.203 127.888 204.203H147.947L151.102 207.358V204.203H152.265C152.719 204.203 153.155 204.023 153.476 203.701C153.797 203.38 153.978 202.944 153.978 202.49V188.126C153.976 187.787 153.841 187.463 153.602 187.223C153.363 186.983 153.04 186.846 152.701 186.842Z" fill="white"/>
<path d="M128.193 186.842H152.74C153.072 186.842 153.391 186.974 153.626 187.209C153.861 187.444 153.993 187.763 153.993 188.095V190.069C153.993 190.107 153.978 190.144 153.951 190.171C153.924 190.199 153.887 190.214 153.849 190.214H126.611C126.573 190.214 126.536 190.199 126.509 190.171C126.482 190.144 126.467 190.107 126.467 190.069V188.568C126.467 188.111 126.648 187.672 126.972 187.349C127.295 187.026 127.733 186.844 128.19 186.844L128.193 186.842Z" fill="#E0E0E0"/>
<path d="M136.359 192.981H130.432C129.794 192.981 129.277 193.499 129.277 194.136V200.064C129.277 200.702 129.794 201.219 130.432 201.219H136.359C136.997 201.219 137.514 200.702 137.514 200.064V194.136C137.514 193.499 136.997 192.981 136.359 192.981Z" fill="#1B29CB"/>
<g opacity="0.3">
<path d="M136.798 198.042C136.699 197.965 136.607 197.879 136.524 197.784L135.813 197.048L135.328 196.531C135.286 196.488 135.236 196.455 135.181 196.433C135.127 196.411 135.068 196.4 135.008 196.402C134.949 196.403 134.891 196.417 134.837 196.443C134.784 196.468 134.736 196.504 134.697 196.549L133.55 198.004L133.459 198.117L133.421 198.166L133.369 198.13L132.48 197.536L132.273 197.396C132.211 197.362 132.141 197.342 132.069 197.34C132 197.338 131.931 197.352 131.869 197.383C131.807 197.414 131.753 197.459 131.713 197.515L130.488 198.929L130.134 199.322C130.051 199.412 130.005 199.458 130 199.453C130.028 199.397 130.064 199.345 130.105 199.298C130.193 199.185 130.302 199.04 130.434 198.885C130.739 198.513 131.142 198.017 131.62 197.435C131.671 197.363 131.738 197.304 131.817 197.263C131.896 197.223 131.983 197.202 132.072 197.203C132.163 197.206 132.251 197.23 132.33 197.275C132.41 197.324 132.475 197.368 132.547 197.417L133.439 198.009L133.348 198.024L133.439 197.911L134.599 196.456C134.651 196.398 134.714 196.351 134.786 196.319C134.857 196.288 134.934 196.272 135.012 196.272C135.086 196.273 135.159 196.288 135.227 196.318C135.294 196.348 135.355 196.391 135.405 196.446L135.878 196.962L136.557 197.738C136.648 197.831 136.728 197.933 136.798 198.042Z" fill="black"/>
</g>
<g opacity="0.3">
<path d="M133.402 195.12C133.402 195.266 133.359 195.408 133.278 195.529C133.197 195.65 133.082 195.745 132.947 195.801C132.813 195.856 132.665 195.871 132.522 195.842C132.379 195.814 132.248 195.744 132.145 195.641C132.042 195.538 131.972 195.407 131.943 195.264C131.915 195.121 131.93 194.973 131.985 194.838C132.041 194.704 132.135 194.589 132.256 194.508C132.378 194.427 132.52 194.384 132.666 194.384C132.762 194.384 132.858 194.403 132.947 194.44C133.037 194.477 133.118 194.531 133.186 194.599C133.255 194.668 133.309 194.749 133.346 194.838C133.383 194.928 133.402 195.023 133.402 195.12Z" fill="black"/>
</g>
<path d="M152.703 186.842C152.826 186.836 152.949 186.851 153.067 186.886C153.241 186.936 153.402 187.021 153.54 187.137C153.679 187.252 153.791 187.396 153.871 187.558C153.983 187.8 154.03 188.067 154.008 188.333C154.008 188.622 154.008 188.937 154.008 189.276C154.008 189.958 154.008 190.744 154.008 191.622C154.008 193.382 154.008 195.521 154.021 197.986C154.021 199.22 154.021 200.531 154.021 201.919C154.048 202.276 154.012 202.634 153.915 202.978C153.793 203.331 153.57 203.639 153.274 203.865C152.972 204.1 152.605 204.236 152.222 204.255C151.843 204.255 151.468 204.255 151.086 204.255L151.142 204.198C151.142 205.185 151.142 206.265 151.142 207.353V207.495L151.042 207.394L147.884 204.242L147.928 204.26H129.944H128.195C127.995 204.271 127.795 204.261 127.598 204.232C127.299 204.171 127.027 204.019 126.817 203.798C126.608 203.576 126.472 203.296 126.427 202.994C126.41 202.799 126.404 202.603 126.409 202.407C126.409 200.867 126.409 199.352 126.409 197.862C126.409 194.88 126.409 192.005 126.409 189.266V188.749C126.405 188.576 126.411 188.404 126.427 188.232C126.472 187.883 126.626 187.558 126.867 187.302C127.105 187.051 127.414 186.879 127.753 186.808C127.919 186.781 128.088 186.769 128.257 186.775H128.753H132.528H139.303L149.122 186.795H151.788H152.483C152.638 186.795 152.719 186.795 152.719 186.795H152.483H151.788H149.122L139.303 186.819H132.528H128.753C128.43 186.808 128.107 186.819 127.786 186.852C127.47 186.918 127.181 187.08 126.961 187.317C126.74 187.553 126.598 187.852 126.554 188.173C126.538 188.338 126.533 188.505 126.538 188.671V189.188C126.538 191.927 126.538 194.803 126.538 197.785V202.33C126.533 202.52 126.538 202.709 126.554 202.898C126.581 203.081 126.644 203.257 126.74 203.415C126.838 203.573 126.967 203.71 127.119 203.816C127.271 203.922 127.444 203.996 127.626 204.033C127.815 204.06 128.006 204.068 128.197 204.059H129.967H147.951H147.977L147.995 204.077L151.148 207.234L151.047 207.276V204.121V204.066H151.101C151.481 204.066 151.863 204.066 152.23 204.066C152.591 204.048 152.938 203.921 153.225 203.702C153.505 203.488 153.716 203.197 153.832 202.865C153.928 202.529 153.962 202.179 153.933 201.831C153.933 200.443 153.933 199.132 153.933 197.899C153.933 195.433 153.933 193.294 153.933 191.534C153.933 190.656 153.933 189.87 153.933 189.188C153.933 188.85 153.933 188.534 153.933 188.245C153.958 187.986 153.915 187.725 153.809 187.488C153.733 187.329 153.625 187.187 153.491 187.072C153.358 186.957 153.202 186.871 153.034 186.819C152.923 186.816 152.812 186.824 152.703 186.842Z" fill="#263238"/>
<path d="M128.843 188.469C128.844 188.585 128.81 188.697 128.747 188.793C128.683 188.889 128.592 188.964 128.486 189.009C128.379 189.053 128.262 189.065 128.149 189.042C128.036 189.02 127.932 188.965 127.851 188.883C127.769 188.802 127.714 188.698 127.692 188.585C127.669 188.472 127.681 188.355 127.725 188.248C127.77 188.142 127.845 188.051 127.941 187.988C128.037 187.924 128.149 187.89 128.265 187.891C128.418 187.891 128.565 187.953 128.673 188.061C128.782 188.169 128.843 188.316 128.843 188.469Z" fill="white"/>
<path d="M130.587 188.469C130.588 188.585 130.554 188.697 130.49 188.793C130.427 188.889 130.336 188.964 130.23 189.008C130.124 189.053 130.007 189.065 129.894 189.043C129.781 189.02 129.677 188.965 129.596 188.884C129.514 188.803 129.458 188.699 129.436 188.586C129.413 188.474 129.424 188.357 129.468 188.25C129.512 188.144 129.587 188.053 129.682 187.989C129.778 187.925 129.891 187.891 130.006 187.891C130.159 187.891 130.307 187.952 130.416 188.06C130.525 188.168 130.586 188.316 130.587 188.469Z" fill="white"/>
<path d="M132.328 188.469C132.329 188.585 132.295 188.697 132.231 188.793C132.168 188.889 132.077 188.964 131.971 189.009C131.864 189.053 131.747 189.065 131.634 189.042C131.521 189.02 131.417 188.965 131.336 188.883C131.254 188.802 131.199 188.698 131.177 188.585C131.154 188.472 131.166 188.355 131.21 188.248C131.255 188.142 131.33 188.051 131.426 187.988C131.522 187.924 131.634 187.89 131.749 187.891C131.825 187.891 131.901 187.906 131.971 187.935C132.041 187.964 132.105 188.006 132.159 188.06C132.213 188.114 132.255 188.178 132.284 188.248C132.313 188.318 132.328 188.393 132.328 188.469Z" fill="white"/>
<path d="M150.304 194.593C150.304 194.629 148.054 194.66 145.279 194.66C142.503 194.66 140.255 194.629 140.255 194.593C140.255 194.557 142.506 194.536 145.286 194.536C148.067 194.536 150.304 194.554 150.304 194.593Z" fill="#263238"/>
<path d="M150.304 196.495C150.304 196.534 148.054 196.562 145.279 196.562C142.503 196.562 140.255 196.534 140.255 196.495C140.255 196.456 142.506 196.428 145.279 196.428C148.051 196.428 150.304 196.459 150.304 196.495Z" fill="#263238"/>
<path d="M150.304 198.412C150.304 198.451 148.054 198.479 145.279 198.479C142.503 198.479 140.255 198.451 140.255 198.412C140.255 198.373 142.506 198.345 145.279 198.345C148.051 198.345 150.304 198.363 150.304 198.412Z" fill="#263238"/>
<path d="M195.842 170.542H222.209V183.865H200.475L198.054 186.286V183.865H195.842V170.542Z" fill="white"/>
<path d="M195.846 170.542C195.846 170.542 195.846 170.624 195.846 170.78C195.846 170.935 195.846 171.17 195.846 171.472C195.846 172.082 195.846 172.973 195.846 174.123C195.846 176.423 195.862 179.746 195.875 183.864L195.826 183.815H198.089V183.87C198.089 184.622 198.089 185.443 198.089 186.291L197.996 186.249L200.415 183.828L200.43 183.81H200.456H220.476H222.189L222.122 183.877C222.122 179.177 222.122 174.686 222.122 170.555L222.184 170.617L203.226 170.586L197.776 170.568H196.324H195.808H195.929H196.298H197.74L203.167 170.55L222.166 170.519H222.228V170.583C222.228 174.717 222.228 179.206 222.228 183.906V183.942H220.448H200.428L200.469 183.924L198.045 186.342L197.95 186.435V186.304C197.95 185.456 197.95 184.634 197.95 183.883L198.001 183.934H195.738V183.885C195.738 179.751 195.756 176.42 195.764 174.113C195.764 172.968 195.764 172.079 195.777 171.472C195.777 171.175 195.777 170.955 195.777 170.79C195.777 170.624 195.846 170.542 195.846 170.542Z" fill="#263238"/>
<path d="M217.77 174.604C217.77 174.643 213.827 174.671 208.966 174.671C204.106 174.671 200.163 174.643 200.163 174.604C200.163 174.566 204.104 174.537 208.966 174.537C213.829 174.537 217.77 174.568 217.77 174.604Z" fill="#263238"/>
<path d="M217.77 176.509C217.77 176.547 213.827 176.576 208.966 176.576C204.106 176.576 200.163 176.547 200.163 176.509C200.163 176.47 204.104 176.441 208.966 176.441C213.829 176.441 217.77 176.472 217.77 176.509Z" fill="#263238"/>
<path d="M217.77 178.413C217.77 178.449 213.827 178.48 208.966 178.48C204.106 178.48 200.163 178.449 200.163 178.413C200.163 178.377 204.104 178.346 208.966 178.346C213.829 178.346 217.77 178.377 217.77 178.413Z" fill="#263238"/>
<path d="M156.299 145.421H137.609V158.744H151.666L154.087 161.165V158.744H156.299V145.421Z" fill="white"/>
<path d="M156.298 145.422C156.298 145.422 156.298 145.499 156.298 145.654C156.298 145.809 156.298 146.047 156.298 146.349C156.298 146.964 156.298 147.863 156.311 149.016C156.311 151.341 156.327 154.672 156.34 158.744V158.799H154.074L154.131 158.744C154.131 159.501 154.131 160.321 154.131 161.163V161.308L154.027 161.207L151.606 158.788L151.65 158.806H139.307H137.537V158.737C137.537 153.938 137.537 149.414 137.537 145.414V145.354H137.599L151.131 145.385L154.944 145.401H155.947H156.288H156.198H155.939H154.924L151.102 145.442L137.609 145.473L137.668 145.411C137.668 149.411 137.668 153.938 137.668 158.734L137.601 158.669H139.314H151.658H151.684L151.702 158.687L154.12 161.111L154.019 161.153C154.019 160.31 154.019 159.491 154.019 158.734V158.677H156.288L156.234 158.729C156.234 154.67 156.257 151.347 156.262 149.031C156.262 147.876 156.262 146.964 156.275 146.354C156.275 146.05 156.275 145.814 156.275 145.652C156.275 145.489 156.298 145.422 156.298 145.422Z" fill="#263238"/>
<path d="M141.93 149.486C141.93 149.45 144.181 149.419 146.953 149.419C149.726 149.419 151.976 149.45 151.976 149.486C151.976 149.522 149.728 149.553 146.953 149.553C144.178 149.553 141.93 149.522 141.93 149.486Z" fill="#263238"/>
<path d="M141.93 151.386C141.93 151.349 144.181 151.318 146.953 151.318C149.726 151.318 151.976 151.349 151.976 151.386C151.976 151.422 149.728 151.453 146.953 151.453C144.178 151.453 141.93 151.427 141.93 151.386Z" fill="#263238"/>
<path d="M141.93 153.295C141.93 153.256 144.181 153.228 146.953 153.228C149.726 153.228 151.976 153.256 151.976 153.295C151.976 153.333 149.728 153.362 146.953 153.362C144.178 153.362 141.93 153.331 141.93 153.295Z" fill="#263238"/>
<path d="M177.426 135.062H164.514V147.974H165.749V149.899L167.672 147.974H177.426V135.062Z" fill="white"/>
<path d="M177.423 135.063C177.423 135.063 177.423 135.14 177.423 135.293C177.423 135.445 177.423 135.68 177.423 135.975C177.423 136.582 177.423 137.463 177.436 138.585C177.436 140.851 177.454 144.083 177.467 147.974V148.026H177.41H167.656L167.702 148.005L165.78 149.93L165.666 150.044V147.974L165.733 148.042H164.441V147.974C164.441 143.233 164.441 138.82 164.441 135.055V134.998H164.498L173.886 135.029L176.495 135.042H177.18H177.41H177.167H176.472L173.849 135.057L164.498 135.088L164.555 135.029C164.555 138.786 164.555 143.199 164.555 147.949L164.488 147.881H165.78V149.874L165.664 149.825L167.589 147.902L167.607 147.884H167.635H177.389L177.33 147.941C177.343 144.065 177.353 140.845 177.361 138.587C177.361 137.461 177.361 136.574 177.376 135.964C177.376 135.667 177.376 135.435 177.376 135.272C177.376 135.109 177.423 135.063 177.423 135.063Z" fill="#263238"/>
<path d="M171.659 141.52C172.009 141.365 172.306 141.112 172.513 140.79C172.72 140.469 172.828 140.093 172.825 139.711C172.839 139.462 172.803 139.213 172.718 138.979C172.633 138.745 172.501 138.531 172.33 138.349C172.16 138.168 171.954 138.023 171.726 137.923C171.497 137.824 171.251 137.772 171.002 137.771C170.753 137.769 170.506 137.819 170.277 137.916C170.048 138.013 169.84 138.156 169.668 138.336C169.496 138.516 169.362 138.729 169.275 138.962C169.187 139.196 169.149 139.444 169.161 139.693C169.153 140.078 169.26 140.457 169.468 140.782C169.676 141.107 169.975 141.363 170.328 141.517C167.509 141.941 167.639 145.005 167.639 145.005L174.3 145.034C174.3 145.034 174.452 141.941 171.659 141.52Z" fill="#455A64"/>
<path d="M205.25 152.256H218.162V165.168H216.927V167.09L215.004 165.168H205.25V152.256Z" fill="white"/>
<path d="M205.251 152.256C205.251 152.256 205.251 152.341 205.251 152.499C205.251 152.657 205.251 152.892 205.251 153.191C205.251 153.801 205.251 154.688 205.266 155.814C205.266 158.07 205.284 161.289 205.295 165.168L205.238 165.111H214.992H215.02L215.039 165.132L216.964 167.054L216.847 167.101V165.111H218.139L218.072 165.178C218.072 160.437 218.072 156.023 218.072 152.259L218.129 152.315L208.778 152.287L206.155 152.272H205.46C205.302 152.272 205.217 152.272 205.217 152.272H205.447H206.132L208.742 152.256L218.155 152.199H218.212V152.256C218.212 156.013 218.212 160.426 218.212 165.176V165.243H216.92L216.987 165.176V167.261L216.873 167.145L214.951 165.222L214.997 165.24H205.243H205.186V165.183C205.199 161.289 205.209 158.057 205.217 155.793C205.217 154.672 205.217 153.791 205.23 153.184C205.23 152.889 205.23 152.662 205.23 152.502C205.248 152.331 205.251 152.256 205.251 152.256Z" fill="#263238"/>
<path d="M214.847 157.93C214.847 157.448 214.736 156.972 214.523 156.539C214.309 156.106 213.999 155.729 213.615 155.435C213.232 155.142 212.787 154.941 212.313 154.848C211.84 154.755 211.351 154.772 210.885 154.899C210.42 155.025 209.989 155.257 209.628 155.577C209.266 155.896 208.983 156.295 208.801 156.742C208.618 157.188 208.541 157.671 208.576 158.153C208.61 158.634 208.755 159.101 208.999 159.517C209.121 159.719 209.258 159.866 209.423 160.078L211.255 162.496C211.308 162.566 211.377 162.622 211.455 162.661C211.533 162.7 211.62 162.72 211.707 162.72C211.795 162.72 211.881 162.7 211.96 162.661C212.038 162.622 212.106 162.566 212.16 162.496L213.953 160.122C214.115 159.928 214.267 159.727 214.408 159.517C214.694 159.037 214.846 158.489 214.847 157.93ZM211.707 159.3C211.434 159.3 211.167 159.219 210.939 159.067C210.712 158.915 210.535 158.699 210.43 158.447C210.326 158.194 210.298 157.916 210.351 157.648C210.405 157.38 210.536 157.133 210.73 156.94C210.923 156.747 211.169 156.615 211.438 156.562C211.706 156.508 211.984 156.536 212.236 156.64C212.489 156.745 212.705 156.922 212.857 157.15C213.009 157.377 213.09 157.644 213.09 157.918C213.09 158.284 212.944 158.636 212.685 158.895C212.426 159.154 212.074 159.3 211.707 159.3Z" fill="#1B29CB"/>
<path d="M198.706 152.571C203.321 150.439 205.333 144.97 203.201 140.356C201.069 135.741 195.599 133.729 190.985 135.861C186.371 137.993 184.358 143.462 186.49 148.077C188.623 152.691 194.092 154.703 198.706 152.571Z" fill="white"/>
<path d="M204.047 144.212C204.047 144.212 204.047 144.16 204.031 144.062C204.016 143.964 204.016 143.804 204.003 143.625C204.003 143.53 203.99 143.421 203.985 143.302C203.98 143.183 203.946 143.057 203.925 142.92C203.885 142.599 203.821 142.281 203.734 141.969C203.519 141.109 203.175 140.287 202.714 139.53C202.111 138.528 201.321 137.651 200.388 136.946C199.256 136.081 197.936 135.496 196.535 135.238C196.154 135.167 195.768 135.122 195.38 135.104C195.181 135.104 194.982 135.078 194.784 135.08L194.179 135.111C194.076 135.111 193.975 135.111 193.871 135.132L193.566 135.178C193.365 135.212 193.156 135.235 192.952 135.279C192.536 135.367 192.127 135.481 191.727 135.623C191.319 135.769 190.921 135.942 190.536 136.14C190.342 136.246 190.158 136.367 189.967 136.481C189.774 136.593 189.589 136.72 189.414 136.861C189.051 137.132 188.706 137.426 188.381 137.742C188.059 138.075 187.761 138.428 187.487 138.801C186.917 139.564 186.476 140.414 186.179 141.318C185.879 142.25 185.72 143.222 185.706 144.202C185.719 145.181 185.878 146.153 186.179 147.085L186.437 147.762L186.748 148.408C186.795 148.516 186.852 148.62 186.918 148.718L187.102 149.021L187.285 149.323L187.494 149.604C187.77 149.977 188.069 150.33 188.391 150.664C188.716 150.98 189.061 151.274 189.424 151.545C189.599 151.685 189.784 151.812 189.977 151.925C190.169 152.039 190.352 152.16 190.546 152.266C190.931 152.464 191.329 152.637 191.737 152.783C192.135 152.928 192.543 153.047 192.957 153.139C193.163 153.183 193.37 153.206 193.572 153.24L193.877 153.287C193.98 153.287 194.081 153.287 194.184 153.307L194.789 153.338C194.988 153.338 195.187 153.323 195.386 153.315C195.773 153.297 196.159 153.252 196.541 153.181C197.941 152.923 199.261 152.337 200.393 151.473C201.328 150.764 202.117 149.882 202.719 148.876C203.18 148.119 203.524 147.297 203.739 146.437C203.826 146.125 203.89 145.807 203.931 145.486C203.951 145.349 203.977 145.227 203.99 145.103C204.003 144.979 203.99 144.879 204.008 144.78C204.008 144.592 204.031 144.447 204.037 144.344C204.042 144.24 204.052 144.196 204.052 144.196C204.052 144.196 204.052 144.245 204.052 144.344C204.052 144.442 204.052 144.602 204.037 144.783C204.037 144.879 204.037 144.987 204.037 145.106C204.037 145.225 204.003 145.351 203.982 145.493C203.947 145.816 203.886 146.136 203.801 146.45C203.594 147.318 203.255 148.149 202.796 148.915C202.128 150.044 201.227 151.019 200.154 151.773C199.08 152.528 197.858 153.046 196.569 153.292C196.182 153.363 195.791 153.41 195.398 153.431C195.2 153.431 194.998 153.457 194.796 153.455L194.181 153.424C194.081 153.424 193.975 153.424 193.874 153.405L193.564 153.359C193.357 153.325 193.148 153.302 192.941 153.258C192.521 153.167 192.107 153.047 191.703 152.899C191.289 152.754 190.885 152.581 190.494 152.382C190.298 152.276 190.109 152.152 189.915 152.039C189.721 151.923 189.535 151.794 189.357 151.654C188.987 151.379 188.635 151.082 188.303 150.762C187.977 150.424 187.674 150.064 187.394 149.687L187.182 149.403L186.993 149.098L186.789 148.801C186.723 148.7 186.665 148.593 186.616 148.483C186.512 148.266 186.406 148.049 186.301 147.829C186.195 147.61 186.133 147.372 186.042 147.142C185.735 146.197 185.573 145.211 185.562 144.217C185.575 143.224 185.737 142.238 186.042 141.292C186.345 140.37 186.796 139.502 187.375 138.724C187.656 138.346 187.959 137.987 188.285 137.649C188.617 137.329 188.969 137.031 189.339 136.757C189.517 136.617 189.703 136.488 189.897 136.372C190.091 136.259 190.28 136.135 190.476 136.029C191.25 135.627 192.072 135.328 192.923 135.14C193.13 135.096 193.339 135.073 193.546 135.039L193.853 134.992C193.957 134.98 194.06 134.98 194.163 134.974L194.776 134.943C194.98 134.943 195.181 134.961 195.38 134.969C195.773 134.988 196.164 135.034 196.551 135.106C197.841 135.354 199.064 135.874 200.138 136.631C201.212 137.389 202.112 138.366 202.778 139.499C203.237 140.264 203.576 141.096 203.783 141.964C203.868 142.278 203.929 142.599 203.964 142.922C203.985 143.062 204.008 143.181 204.018 143.307C204.029 143.434 204.018 143.535 204.018 143.63C204.018 143.819 204.018 143.966 204.034 144.07C204.049 144.173 204.047 144.212 204.047 144.212Z" fill="#263238"/>
<path d="M193.16 147.768C193.453 147.771 193.741 147.694 193.992 147.543C194.106 147.435 194.163 147.14 194.163 146.659V143.724C194.172 143.538 194.154 143.352 194.108 143.171C194.083 143.09 194.031 143.02 193.961 142.973C193.89 142.926 193.805 142.905 193.721 142.913C193.677 142.912 193.632 142.916 193.589 142.926C193.545 142.926 193.421 142.964 193.214 143.024V142.833L193.473 142.745C194.191 142.512 194.692 142.34 194.974 142.228C195.044 142.193 195.119 142.169 195.196 142.156C195.205 142.186 195.209 142.217 195.209 142.249V146.662C195.209 147.13 195.266 147.437 195.38 147.543C195.606 147.702 195.879 147.782 196.155 147.771V147.944H193.16V147.768ZM194.139 139.533C194.214 139.458 194.305 139.402 194.406 139.371C194.507 139.339 194.614 139.333 194.718 139.353C194.822 139.374 194.919 139.419 195.001 139.486C195.083 139.552 195.147 139.638 195.188 139.736C195.228 139.833 195.244 139.94 195.234 140.045C195.224 140.15 195.188 140.251 195.129 140.339C195.07 140.427 194.991 140.499 194.897 140.548C194.804 140.598 194.7 140.624 194.594 140.623C194.51 140.624 194.427 140.608 194.349 140.577C194.272 140.545 194.201 140.498 194.141 140.439C194.082 140.38 194.035 140.31 194.002 140.232C193.97 140.155 193.953 140.072 193.953 139.988C193.953 139.904 193.969 139.82 194.001 139.743C194.033 139.665 194.08 139.595 194.139 139.536V139.533Z" fill="#263238"/>
<path d="M188.646 154.39C188.647 154.677 188.562 154.958 188.403 155.196C188.244 155.435 188.018 155.621 187.753 155.731C187.488 155.842 187.197 155.871 186.915 155.815C186.634 155.759 186.376 155.621 186.173 155.419C185.97 155.216 185.831 154.958 185.775 154.677C185.719 154.395 185.748 154.104 185.857 153.839C185.967 153.574 186.153 153.347 186.391 153.188C186.629 153.028 186.91 152.943 187.197 152.943C187.581 152.943 187.949 153.096 188.221 153.367C188.493 153.638 188.646 154.006 188.646 154.39Z" fill="white"/>
<path d="M188.647 154.39C188.632 154.39 188.647 154.261 188.575 154.044C188.493 153.736 188.312 153.463 188.058 153.269C187.852 153.115 187.606 153.021 187.349 152.998C187.092 152.975 186.834 153.024 186.603 153.14C186.373 153.255 186.179 153.433 186.043 153.652C185.908 153.872 185.836 154.125 185.836 154.383C185.836 154.641 185.908 154.893 186.043 155.113C186.179 155.332 186.373 155.51 186.603 155.625C186.834 155.741 187.092 155.79 187.349 155.767C187.606 155.744 187.852 155.651 188.058 155.496C188.312 155.302 188.493 155.029 188.575 154.721C188.637 154.504 188.632 154.375 188.647 154.375C188.663 154.375 188.647 154.406 188.647 154.468C188.649 154.555 188.639 154.642 188.619 154.726C188.548 155.054 188.365 155.347 188.102 155.556C187.904 155.71 187.669 155.812 187.421 155.852C187.173 155.893 186.918 155.87 186.681 155.786C186.4 155.688 186.155 155.508 185.978 155.269C185.785 155.011 185.681 154.697 185.681 154.375C185.681 154.053 185.785 153.739 185.978 153.481C186.155 153.242 186.4 153.062 186.681 152.964C186.918 152.88 187.173 152.857 187.421 152.897C187.669 152.937 187.904 153.039 188.102 153.194C188.366 153.402 188.549 153.695 188.619 154.023C188.639 154.108 188.649 154.195 188.647 154.282C188.653 154.354 188.653 154.39 188.647 154.39Z" fill="#263238"/>
<path d="M83.9742 306H81.7903L88.1066 288.798H90.2569L96.5731 306H94.3893L89.2489 291.52H89.1145L83.9742 306ZM84.7805 299.281H93.583V301.128H84.7805V299.281ZM103.855 306.269C102.78 306.269 101.831 305.997 101.008 305.454C100.185 304.905 99.5409 304.133 99.0761 303.136C98.6114 302.134 98.379 300.949 98.379 299.583C98.379 298.228 98.6114 297.052 99.0761 296.055C99.5409 295.058 100.188 294.289 101.016 293.745C101.845 293.202 102.803 292.931 103.889 292.931C104.729 292.931 105.392 293.071 105.88 293.351C106.372 293.625 106.748 293.939 107.005 294.291C107.268 294.639 107.473 294.924 107.618 295.148H107.786V288.798H109.768V306H107.853V304.018H107.618C107.473 304.253 107.265 304.55 106.997 304.908C106.728 305.261 106.344 305.577 105.846 305.857C105.348 306.132 104.684 306.269 103.855 306.269ZM104.124 304.488C104.919 304.488 105.591 304.281 106.14 303.867C106.689 303.447 107.106 302.867 107.391 302.128C107.677 301.383 107.82 300.524 107.82 299.549C107.82 298.586 107.68 297.743 107.4 297.021C107.12 296.293 106.706 295.728 106.157 295.324C105.608 294.916 104.93 294.711 104.124 294.711C103.284 294.711 102.584 294.927 102.024 295.358C101.47 295.784 101.053 296.363 100.773 297.097C100.498 297.825 100.361 298.642 100.361 299.549C100.361 300.468 100.501 301.302 100.781 302.052C101.067 302.797 101.487 303.391 102.041 303.833C102.601 304.27 103.295 304.488 104.124 304.488ZM118.546 306.269C117.471 306.269 116.522 305.997 115.698 305.454C114.875 304.905 114.231 304.133 113.767 303.136C113.302 302.134 113.069 300.949 113.069 299.583C113.069 298.228 113.302 297.052 113.767 296.055C114.231 295.058 114.878 294.289 115.707 293.745C116.536 293.202 117.493 292.931 118.579 292.931C119.419 292.931 120.083 293.071 120.57 293.351C121.063 293.625 121.438 293.939 121.696 294.291C121.959 294.639 122.163 294.924 122.309 295.148H122.477V288.798H124.459V306H122.544V304.018H122.309C122.163 304.253 121.956 304.55 121.687 304.908C121.418 305.261 121.035 305.577 120.536 305.857C120.038 306.132 119.374 306.269 118.546 306.269ZM118.815 304.488C119.61 304.488 120.282 304.281 120.83 303.867C121.379 303.447 121.796 302.867 122.082 302.128C122.367 301.383 122.51 300.524 122.51 299.549C122.51 298.586 122.37 297.743 122.09 297.021C121.81 296.293 121.396 295.728 120.847 295.324C120.298 294.916 119.621 294.711 118.815 294.711C117.975 294.711 117.275 294.927 116.715 295.358C116.16 295.784 115.743 296.363 115.463 297.097C115.189 297.825 115.052 298.642 115.052 299.549C115.052 300.468 115.192 301.302 115.472 302.052C115.757 302.797 116.177 303.391 116.732 303.833C117.291 304.27 117.986 304.488 118.815 304.488ZM136.294 310.838C135.958 310.838 135.658 310.81 135.395 310.754C135.132 310.704 134.95 310.653 134.849 310.603L135.353 308.856C135.834 308.979 136.26 309.024 136.629 308.99C136.999 308.957 137.327 308.791 137.612 308.495C137.903 308.203 138.169 307.73 138.41 307.075L138.78 306.067L134.009 293.099H136.159L139.72 303.379H139.855L143.416 293.099H145.566L140.09 307.881C139.844 308.548 139.538 309.099 139.174 309.536C138.811 309.978 138.388 310.306 137.906 310.519C137.43 310.732 136.893 310.838 136.294 310.838ZM152.962 306.269C151.797 306.269 150.775 305.992 149.896 305.437C149.023 304.883 148.34 304.107 147.847 303.111C147.36 302.114 147.116 300.949 147.116 299.617C147.116 298.273 147.36 297.1 147.847 296.097C148.34 295.095 149.023 294.317 149.896 293.762C150.775 293.208 151.797 292.931 152.962 292.931C154.127 292.931 155.146 293.208 156.019 293.762C156.898 294.317 157.582 295.095 158.069 296.097C158.562 297.1 158.808 298.273 158.808 299.617C158.808 300.949 158.562 302.114 158.069 303.111C157.582 304.107 156.898 304.883 156.019 305.437C155.146 305.992 154.127 306.269 152.962 306.269ZM152.962 304.488C153.847 304.488 154.575 304.261 155.146 303.808C155.717 303.354 156.14 302.758 156.414 302.019C156.688 301.28 156.826 300.479 156.826 299.617C156.826 298.754 156.688 297.951 156.414 297.206C156.14 296.461 155.717 295.859 155.146 295.4C154.575 294.941 153.847 294.711 152.962 294.711C152.077 294.711 151.349 294.941 150.778 295.4C150.207 295.859 149.784 296.461 149.51 297.206C149.235 297.951 149.098 298.754 149.098 299.617C149.098 300.479 149.235 301.28 149.51 302.019C149.784 302.758 150.207 303.354 150.778 303.808C151.349 304.261 152.077 304.488 152.962 304.488ZM169.964 300.725V293.099H171.947V306H169.964V303.816H169.83C169.528 304.471 169.057 305.028 168.419 305.488C167.78 305.941 166.974 306.168 166 306.168C165.193 306.168 164.477 305.992 163.85 305.639C163.222 305.28 162.73 304.743 162.371 304.026C162.013 303.304 161.834 302.394 161.834 301.296V293.099H163.816V301.162C163.816 302.103 164.079 302.853 164.606 303.413C165.137 303.973 165.815 304.253 166.638 304.253C167.131 304.253 167.632 304.127 168.142 303.875C168.657 303.623 169.088 303.237 169.435 302.716C169.788 302.195 169.964 301.532 169.964 300.725ZM175.577 306V293.099H177.492V295.047H177.627C177.862 294.409 178.287 293.891 178.903 293.493C179.519 293.096 180.214 292.897 180.986 292.897C181.132 292.897 181.314 292.9 181.532 292.905C181.751 292.911 181.916 292.919 182.028 292.931V294.946C181.961 294.93 181.807 294.905 181.566 294.871C181.331 294.832 181.081 294.812 180.818 294.812C180.191 294.812 179.631 294.944 179.138 295.207C178.651 295.464 178.265 295.823 177.979 296.282C177.699 296.736 177.559 297.254 177.559 297.836V306H175.577ZM191.03 306V293.099H192.945V295.047H193.079C193.314 294.409 193.74 293.891 194.356 293.493C194.972 293.096 195.666 292.897 196.439 292.897C196.585 292.897 196.767 292.9 196.985 292.905C197.203 292.911 197.368 292.919 197.48 292.931V294.946C197.413 294.93 197.259 294.905 197.018 294.871C196.783 294.832 196.534 294.812 196.271 294.812C195.644 294.812 195.084 294.944 194.591 295.207C194.104 295.464 193.718 295.823 193.432 296.282C193.152 296.736 193.012 297.254 193.012 297.836V306H191.03ZM204.847 306.269C203.604 306.269 202.531 305.994 201.63 305.446C200.734 304.891 200.042 304.119 199.555 303.127C199.074 302.131 198.833 300.972 198.833 299.65C198.833 298.329 199.074 297.164 199.555 296.156C200.042 295.142 200.72 294.353 201.588 293.787C202.461 293.216 203.48 292.931 204.645 292.931C205.317 292.931 205.981 293.043 206.636 293.267C207.291 293.491 207.887 293.855 208.425 294.359C208.962 294.857 209.391 295.518 209.71 296.341C210.029 297.164 210.189 298.177 210.189 299.381V300.221H200.244V298.508H208.173C208.173 297.78 208.027 297.13 207.736 296.559C207.45 295.988 207.042 295.537 206.51 295.207C205.983 294.877 205.362 294.711 204.645 294.711C203.856 294.711 203.172 294.907 202.596 295.299C202.024 295.686 201.585 296.19 201.277 296.811C200.969 297.433 200.815 298.099 200.815 298.81V299.952C200.815 300.927 200.983 301.753 201.319 302.43C201.661 303.102 202.134 303.615 202.738 303.967C203.343 304.315 204.046 304.488 204.847 304.488C205.367 304.488 205.838 304.415 206.258 304.27C206.683 304.119 207.05 303.895 207.358 303.598C207.666 303.295 207.904 302.92 208.072 302.472L209.987 303.01C209.785 303.659 209.447 304.231 208.971 304.723C208.495 305.21 207.907 305.591 207.207 305.866C206.507 306.134 205.72 306.269 204.847 306.269ZM222.342 295.988L220.562 296.492C220.45 296.195 220.285 295.907 220.066 295.627C219.853 295.341 219.562 295.106 219.193 294.921C218.823 294.737 218.35 294.644 217.773 294.644C216.984 294.644 216.326 294.826 215.799 295.19C215.279 295.548 215.018 296.005 215.018 296.559C215.018 297.052 215.197 297.441 215.556 297.727C215.914 298.012 216.474 298.25 217.236 298.441L219.151 298.911C220.304 299.191 221.164 299.619 221.729 300.196C222.295 300.767 222.578 301.504 222.578 302.405C222.578 303.144 222.365 303.805 221.939 304.387C221.519 304.97 220.931 305.429 220.175 305.765C219.419 306.101 218.54 306.269 217.538 306.269C216.222 306.269 215.133 305.983 214.271 305.412C213.408 304.841 212.862 304.007 212.633 302.909L214.514 302.439C214.693 303.133 215.032 303.654 215.531 304.001C216.035 304.348 216.692 304.522 217.504 304.522C218.428 304.522 219.162 304.326 219.705 303.934C220.254 303.536 220.528 303.06 220.528 302.506C220.528 302.058 220.371 301.683 220.058 301.38C219.744 301.072 219.263 300.843 218.613 300.692L216.463 300.188C215.281 299.908 214.413 299.474 213.859 298.886C213.31 298.292 213.036 297.55 213.036 296.66C213.036 295.932 213.24 295.288 213.649 294.728C214.064 294.168 214.626 293.729 215.337 293.409C216.054 293.09 216.866 292.931 217.773 292.931C219.05 292.931 220.052 293.211 220.78 293.771C221.514 294.331 222.034 295.07 222.342 295.988ZM233.692 300.725V293.099H235.674V306H233.692V303.816H233.558C233.255 304.471 232.785 305.028 232.147 305.488C231.508 305.941 230.702 306.168 229.728 306.168C228.921 306.168 228.204 305.992 227.577 305.639C226.95 305.28 226.457 304.743 226.099 304.026C225.741 303.304 225.561 302.394 225.561 301.296V293.099H227.544V301.162C227.544 302.103 227.807 302.853 228.333 303.413C228.865 303.973 229.543 304.253 230.366 304.253C230.859 304.253 231.36 304.127 231.869 303.875C232.385 303.623 232.816 303.237 233.163 302.716C233.516 302.195 233.692 301.532 233.692 300.725ZM239.305 306V293.099H241.22V295.114H241.388C241.657 294.426 242.091 293.891 242.69 293.51C243.289 293.124 244.008 292.931 244.848 292.931C245.7 292.931 246.408 293.124 246.973 293.51C247.545 293.891 247.99 294.426 248.309 295.114H248.443C248.774 294.448 249.269 293.919 249.93 293.527C250.591 293.129 251.383 292.931 252.307 292.931C253.461 292.931 254.404 293.292 255.138 294.014C255.871 294.731 256.238 295.848 256.238 297.366V306H254.256V297.366C254.256 296.414 253.995 295.733 253.475 295.324C252.954 294.916 252.341 294.711 251.635 294.711C250.728 294.711 250.025 294.986 249.527 295.534C249.028 296.078 248.779 296.766 248.779 297.601V306H246.763V297.164C246.763 296.43 246.525 295.84 246.05 295.392C245.574 294.938 244.96 294.711 244.21 294.711C243.695 294.711 243.213 294.849 242.765 295.123C242.323 295.397 241.965 295.778 241.69 296.265C241.421 296.747 241.287 297.304 241.287 297.937V306H239.305ZM265.271 306.269C264.028 306.269 262.956 305.994 262.054 305.446C261.158 304.891 260.467 304.119 259.98 303.127C259.498 302.131 259.257 300.972 259.257 299.65C259.257 298.329 259.498 297.164 259.98 296.156C260.467 295.142 261.144 294.353 262.012 293.787C262.886 293.216 263.905 292.931 265.07 292.931C265.742 292.931 266.405 293.043 267.06 293.267C267.716 293.491 268.312 293.855 268.849 294.359C269.387 294.857 269.815 295.518 270.135 296.341C270.454 297.164 270.613 298.177 270.613 299.381V300.221H260.669V298.508H268.597C268.597 297.78 268.452 297.13 268.161 296.559C267.875 295.988 267.466 295.537 266.934 295.207C266.408 294.877 265.786 294.711 265.07 294.711C264.28 294.711 263.597 294.907 263.02 295.299C262.449 295.686 262.01 296.19 261.702 296.811C261.394 297.433 261.24 298.099 261.24 298.81V299.952C261.24 300.927 261.408 301.753 261.744 302.43C262.085 303.102 262.558 303.615 263.163 303.967C263.768 304.315 264.471 304.488 265.271 304.488C265.792 304.488 266.262 304.415 266.682 304.27C267.108 304.119 267.475 303.895 267.783 303.598C268.091 303.295 268.329 302.92 268.497 302.472L270.412 303.01C270.21 303.659 269.871 304.231 269.395 304.723C268.919 305.21 268.331 305.591 267.632 305.866C266.932 306.134 266.145 306.269 265.271 306.269ZM93.2995 336.269C92.1348 336.269 91.1129 335.992 90.2338 335.437C89.3602 334.883 88.6771 334.107 88.1843 333.111C87.6972 332.114 87.4536 330.949 87.4536 329.617C87.4536 328.273 87.6972 327.1 88.1843 326.097C88.6771 325.095 89.3602 324.317 90.2338 323.762C91.1129 323.208 92.1348 322.931 93.2995 322.931C94.4642 322.931 95.4833 323.208 96.3569 323.762C97.236 324.317 97.9191 325.095 98.4063 326.097C98.8991 327.1 99.1454 328.273 99.1454 329.617C99.1454 330.949 98.8991 332.114 98.4063 333.111C97.9191 334.107 97.236 334.883 96.3569 335.437C95.4833 335.992 94.4642 336.269 93.2995 336.269ZM93.2995 334.488C94.1842 334.488 94.9122 334.261 95.4833 333.808C96.0545 333.354 96.4772 332.758 96.7516 332.019C97.026 331.28 97.1632 330.479 97.1632 329.617C97.1632 328.754 97.026 327.951 96.7516 327.206C96.4772 326.461 96.0545 325.859 95.4833 325.4C94.9122 324.941 94.1842 324.711 93.2995 324.711C92.4148 324.711 91.6868 324.941 91.1157 325.4C90.5445 325.859 90.1218 326.461 89.8474 327.206C89.573 327.951 89.4358 328.754 89.4358 329.617C89.4358 330.479 89.573 331.28 89.8474 332.019C90.1218 332.758 90.5445 333.354 91.1157 333.808C91.6868 334.261 92.4148 334.488 93.2995 334.488ZM102.171 336V323.099H104.086V325.047H104.221C104.456 324.409 104.881 323.891 105.497 323.493C106.113 323.096 106.808 322.897 107.58 322.897C107.726 322.897 107.908 322.9 108.126 322.905C108.345 322.911 108.51 322.919 108.622 322.931V324.946C108.555 324.93 108.401 324.905 108.16 324.871C107.925 324.832 107.676 324.812 107.412 324.812C106.785 324.812 106.225 324.944 105.733 325.207C105.245 325.464 104.859 325.823 104.573 326.282C104.294 326.736 104.154 327.254 104.154 327.836V336H102.171ZM117.624 340.838V323.099H119.539V325.148H119.774C119.92 324.924 120.121 324.639 120.379 324.291C120.642 323.939 121.017 323.625 121.504 323.351C121.997 323.071 122.664 322.931 123.503 322.931C124.59 322.931 125.547 323.202 126.376 323.745C127.205 324.289 127.851 325.058 128.316 326.055C128.781 327.052 129.013 328.228 129.013 329.583C129.013 330.949 128.781 332.134 128.316 333.136C127.851 334.133 127.208 334.905 126.384 335.454C125.561 335.997 124.612 336.269 123.537 336.269C122.708 336.269 122.045 336.132 121.546 335.857C121.048 335.577 120.664 335.261 120.396 334.908C120.127 334.55 119.92 334.253 119.774 334.018H119.606V340.838H117.624ZM119.573 329.549C119.573 330.524 119.715 331.383 120.001 332.128C120.287 332.867 120.704 333.447 121.252 333.867C121.801 334.281 122.473 334.488 123.268 334.488C124.097 334.488 124.789 334.27 125.343 333.833C125.903 333.391 126.323 332.797 126.603 332.052C126.888 331.302 127.031 330.468 127.031 329.549C127.031 328.642 126.891 327.825 126.611 327.097C126.337 326.363 125.92 325.784 125.36 325.358C124.805 324.927 124.108 324.711 123.268 324.711C122.462 324.711 121.784 324.916 121.236 325.324C120.687 325.728 120.273 326.293 119.993 327.021C119.713 327.743 119.573 328.586 119.573 329.549ZM137.446 336.269C136.203 336.269 135.131 335.994 134.229 335.446C133.333 334.891 132.642 334.119 132.155 333.127C131.673 332.131 131.432 330.972 131.432 329.65C131.432 328.329 131.673 327.164 132.155 326.156C132.642 325.142 133.319 324.353 134.187 323.787C135.061 323.216 136.08 322.931 137.245 322.931C137.917 322.931 138.58 323.043 139.235 323.267C139.891 323.491 140.487 323.855 141.024 324.359C141.562 324.857 141.99 325.518 142.31 326.341C142.629 327.164 142.788 328.177 142.788 329.381V330.221H132.843V328.508H140.772C140.772 327.78 140.627 327.13 140.336 326.559C140.05 325.988 139.641 325.537 139.109 325.207C138.583 324.877 137.961 324.711 137.245 324.711C136.455 324.711 135.772 324.907 135.195 325.299C134.624 325.686 134.185 326.19 133.877 326.811C133.569 327.433 133.415 328.099 133.415 328.81V329.952C133.415 330.927 133.583 331.753 133.919 332.43C134.26 333.102 134.733 333.615 135.338 333.967C135.943 334.315 136.646 334.488 137.446 334.488C137.967 334.488 138.437 334.415 138.857 334.27C139.283 334.119 139.65 333.895 139.958 333.598C140.266 333.295 140.504 332.92 140.672 332.472L142.587 333.01C142.385 333.659 142.046 334.231 141.57 334.723C141.094 335.21 140.506 335.591 139.807 335.866C139.107 336.134 138.32 336.269 137.446 336.269ZM145.804 336V323.099H147.719V325.047H147.853C148.088 324.409 148.514 323.891 149.13 323.493C149.746 323.096 150.44 322.897 151.213 322.897C151.358 322.897 151.54 322.9 151.759 322.905C151.977 322.911 152.142 322.919 152.254 322.931V324.946C152.187 324.93 152.033 324.905 151.792 324.871C151.557 324.832 151.308 324.812 151.045 324.812C150.418 324.812 149.858 324.944 149.365 325.207C148.878 325.464 148.491 325.823 148.206 326.282C147.926 326.736 147.786 327.254 147.786 327.836V336H145.804ZM163.742 325.988L161.962 326.492C161.85 326.195 161.685 325.907 161.466 325.627C161.253 325.341 160.962 325.106 160.593 324.921C160.223 324.737 159.75 324.644 159.173 324.644C158.384 324.644 157.726 324.826 157.199 325.19C156.679 325.548 156.418 326.005 156.418 326.559C156.418 327.052 156.597 327.441 156.956 327.727C157.314 328.012 157.874 328.25 158.636 328.441L160.551 328.911C161.704 329.191 162.564 329.619 163.129 330.196C163.695 330.767 163.978 331.504 163.978 332.405C163.978 333.144 163.765 333.805 163.339 334.387C162.919 334.97 162.331 335.429 161.575 335.765C160.82 336.101 159.94 336.269 158.938 336.269C157.622 336.269 156.533 335.983 155.671 335.412C154.808 334.841 154.262 334.007 154.033 332.909L155.914 332.439C156.094 333.133 156.432 333.654 156.931 334.001C157.435 334.348 158.093 334.522 158.904 334.522C159.828 334.522 160.562 334.326 161.105 333.934C161.654 333.536 161.928 333.06 161.928 332.506C161.928 332.058 161.771 331.683 161.458 331.38C161.144 331.072 160.663 330.843 160.013 330.692L157.863 330.188C156.681 329.908 155.814 329.474 155.259 328.886C154.71 328.292 154.436 327.55 154.436 326.66C154.436 325.932 154.64 325.288 155.049 324.728C155.464 324.168 156.026 323.729 156.737 323.409C157.454 323.09 158.266 322.931 159.173 322.931C160.45 322.931 161.452 323.211 162.18 323.771C162.914 324.331 163.435 325.07 163.742 325.988ZM172.203 336.269C171.038 336.269 170.016 335.992 169.137 335.437C168.263 334.883 167.58 334.107 167.088 333.111C166.6 332.114 166.357 330.949 166.357 329.617C166.357 328.273 166.6 327.1 167.088 326.097C167.58 325.095 168.263 324.317 169.137 323.762C170.016 323.208 171.038 322.931 172.203 322.931C173.367 322.931 174.387 323.208 175.26 323.762C176.139 324.317 176.822 325.095 177.309 326.097C177.802 327.1 178.049 328.273 178.049 329.617C178.049 330.949 177.802 332.114 177.309 333.111C176.822 334.107 176.139 334.883 175.26 335.437C174.387 335.992 173.367 336.269 172.203 336.269ZM172.203 334.488C173.087 334.488 173.815 334.261 174.387 333.808C174.958 333.354 175.38 332.758 175.655 332.019C175.929 331.28 176.066 330.479 176.066 329.617C176.066 328.754 175.929 327.951 175.655 327.206C175.38 326.461 174.958 325.859 174.387 325.4C173.815 324.941 173.087 324.711 172.203 324.711C171.318 324.711 170.59 324.941 170.019 325.4C169.448 325.859 169.025 326.461 168.751 327.206C168.476 327.951 168.339 328.754 168.339 329.617C168.339 330.479 168.476 331.28 168.751 332.019C169.025 332.758 169.448 333.354 170.019 333.808C170.59 334.261 171.318 334.488 172.203 334.488ZM183.057 328.239V336H181.074V323.099H182.99V325.114H183.158C183.46 324.459 183.919 323.933 184.535 323.535C185.151 323.132 185.946 322.931 186.92 322.931C187.794 322.931 188.558 323.11 189.213 323.468C189.869 323.821 190.378 324.359 190.742 325.081C191.106 325.798 191.288 326.705 191.288 327.802V336H189.306V327.937C189.306 326.923 189.043 326.134 188.516 325.568C187.99 324.997 187.268 324.711 186.349 324.711C185.716 324.711 185.151 324.849 184.653 325.123C184.16 325.397 183.771 325.798 183.485 326.324C183.2 326.85 183.057 327.489 183.057 328.239ZM198.707 336.302C197.889 336.302 197.147 336.148 196.481 335.84C195.815 335.527 195.285 335.076 194.893 334.488C194.501 333.895 194.306 333.178 194.306 332.338C194.306 331.599 194.451 331 194.742 330.54C195.033 330.076 195.423 329.712 195.91 329.449C196.397 329.185 196.934 328.989 197.522 328.861C198.116 328.726 198.712 328.62 199.311 328.541C200.095 328.441 200.731 328.365 201.218 328.315C201.711 328.259 202.069 328.166 202.293 328.037C202.523 327.909 202.638 327.685 202.638 327.366V327.298C202.638 326.47 202.411 325.826 201.957 325.366C201.509 324.907 200.829 324.678 199.916 324.678C198.97 324.678 198.228 324.885 197.69 325.299C197.153 325.714 196.775 326.156 196.557 326.626L194.675 325.954C195.011 325.17 195.459 324.56 196.019 324.123C196.585 323.681 197.2 323.373 197.867 323.199C198.539 323.02 199.2 322.931 199.849 322.931C200.263 322.931 200.739 322.981 201.277 323.082C201.82 323.177 202.344 323.376 202.848 323.678C203.357 323.981 203.78 324.437 204.116 325.047C204.452 325.658 204.62 326.475 204.62 327.5V336H202.638V334.253H202.537C202.402 334.533 202.178 334.832 201.865 335.152C201.551 335.471 201.134 335.742 200.613 335.966C200.093 336.19 199.457 336.302 198.707 336.302ZM199.009 334.522C199.793 334.522 200.454 334.368 200.991 334.06C201.535 333.752 201.943 333.354 202.218 332.867C202.498 332.38 202.638 331.868 202.638 331.33V329.516C202.554 329.617 202.369 329.709 202.083 329.793C201.803 329.871 201.479 329.941 201.109 330.003C200.745 330.059 200.389 330.109 200.042 330.154C199.701 330.193 199.423 330.227 199.211 330.255C198.696 330.322 198.214 330.431 197.766 330.582C197.324 330.728 196.965 330.949 196.691 331.246C196.422 331.537 196.288 331.935 196.288 332.439C196.288 333.127 196.543 333.648 197.052 334.001C197.567 334.348 198.22 334.522 199.009 334.522ZM210.22 318.798V336H208.238V318.798H210.22ZM220.503 336V323.099H222.485V336H220.503ZM221.511 320.948C221.125 320.948 220.791 320.817 220.511 320.554C220.237 320.29 220.1 319.974 220.1 319.605C220.1 319.235 220.237 318.919 220.511 318.655C220.791 318.392 221.125 318.261 221.511 318.261C221.897 318.261 222.228 318.392 222.502 318.655C222.782 318.919 222.922 319.235 222.922 319.605C222.922 319.974 222.782 320.29 222.502 320.554C222.228 320.817 221.897 320.948 221.511 320.948ZM228.098 328.239V336H226.116V323.099H228.031V325.114H228.199C228.501 324.459 228.96 323.933 229.576 323.535C230.192 323.132 230.987 322.931 231.962 322.931C232.835 322.931 233.6 323.11 234.255 323.468C234.91 323.821 235.419 324.359 235.783 325.081C236.147 325.798 236.329 326.705 236.329 327.802V336H234.347V327.937C234.347 326.923 234.084 326.134 233.558 325.568C233.031 324.997 232.309 324.711 231.391 324.711C230.758 324.711 230.192 324.849 229.694 325.123C229.201 325.397 228.812 325.798 228.526 326.324C228.241 326.85 228.098 327.489 228.098 328.239ZM245.697 323.099V324.779H238.742V323.099H245.697ZM240.825 336V321.318C240.825 320.579 240.999 319.963 241.346 319.47C241.693 318.977 242.144 318.608 242.698 318.361C243.253 318.115 243.838 317.992 244.454 317.992C244.941 317.992 245.338 318.031 245.646 318.109C245.954 318.188 246.184 318.261 246.335 318.328L245.764 320.041C245.663 320.008 245.523 319.966 245.344 319.915C245.17 319.865 244.941 319.84 244.655 319.84C244 319.84 243.527 320.005 243.236 320.335C242.95 320.666 242.807 321.15 242.807 321.788V336H240.825ZM253.185 336.269C252.02 336.269 250.998 335.992 250.119 335.437C249.245 334.883 248.562 334.107 248.07 333.111C247.582 332.114 247.339 330.949 247.339 329.617C247.339 328.273 247.582 327.1 248.07 326.097C248.562 325.095 249.245 324.317 250.119 323.762C250.998 323.208 252.02 322.931 253.185 322.931C254.349 322.931 255.369 323.208 256.242 323.762C257.121 324.317 257.804 325.095 258.292 326.097C258.784 327.1 259.031 328.273 259.031 329.617C259.031 330.949 258.784 332.114 258.292 333.111C257.804 334.107 257.121 334.883 256.242 335.437C255.369 335.992 254.349 336.269 253.185 336.269ZM253.185 334.488C254.069 334.488 254.797 334.261 255.369 333.808C255.94 333.354 256.362 332.758 256.637 332.019C256.911 331.28 257.048 330.479 257.048 329.617C257.048 328.754 256.911 327.951 256.637 327.206C256.362 326.461 255.94 325.859 255.369 325.4C254.797 324.941 254.069 324.711 253.185 324.711C252.3 324.711 251.572 324.941 251.001 325.4C250.43 325.859 250.007 326.461 249.733 327.206C249.458 327.951 249.321 328.754 249.321 329.617C249.321 330.479 249.458 331.28 249.733 332.019C250.007 332.758 250.43 333.354 251.001 333.808C251.572 334.261 252.3 334.488 253.185 334.488ZM263.501 336.134C263.087 336.134 262.731 335.986 262.434 335.689C262.138 335.392 261.989 335.037 261.989 334.623C261.989 334.208 262.138 333.853 262.434 333.556C262.731 333.259 263.087 333.111 263.501 333.111C263.916 333.111 264.271 333.259 264.568 333.556C264.865 333.853 265.013 334.208 265.013 334.623C265.013 334.897 264.943 335.149 264.803 335.378C264.669 335.608 264.487 335.793 264.257 335.933C264.033 336.067 263.781 336.134 263.501 336.134Z" fill="black"/>
<circle cx="176.5" cy="51.5" r="51.5" fill="white"/>
<circle cx="176.5" cy="51.5" r="30" fill="#1B29CB" fill-opacity="0.22" stroke="#1B29CB" stroke-width="3"/>
<path d="M179.587 39.2727V64H175.108V43.6314H174.963L169.179 47.326V43.2209L175.325 39.2727H179.587Z" fill="#1B29CB"/>
<defs>
<filter id="filter0_dd_625_35872" x="0" y="52" width="353" height="394" filterUnits="userSpaceOnUse" color-interpolation-filters="sRGB">
<feFlood flood-opacity="0" result="BackgroundImageFix"/>
<feColorMatrix in="SourceAlpha" type="matrix" values="0 0 0 0 0 0 0 0 0 0 0 0 0 0 0 0 0 0 127 0" result="hardAlpha"/>
<feMorphology radius="4" operator="erode" in="SourceAlpha" result="effect1_dropShadow_625_35872"/>
<feOffset dy="12"/>
<feGaussianBlur stdDeviation="8"/>
<feComposite in2="hardAlpha" operator="out"/>
<feColorMatrix type="matrix" values="0 0 0 0 0 0 0 0 0 0 0 0 0 0 0 0 0 0 0.08 0"/>
<feBlend mode="normal" in2="BackgroundImageFix" result="effect1_dropShadow_625_35872"/>
<feColorMatrix in="SourceAlpha" type="matrix" values="0 0 0 0 0 0 0 0 0 0 0 0 0 0 0 0 0 0 127 0" result="hardAlpha"/>
<feMorphology radius="2" operator="erode" in="SourceAlpha" result="effect2_dropShadow_625_35872"/>
<feOffset dy="4"/>
<feGaussianBlur stdDeviation="3"/>
<feComposite in2="hardAlpha" operator="out"/>
<feColorMatrix type="matrix" values="0 0 0 0 0 0 0 0 0 0 0 0 0 0 0 0 0 0 0.03 0"/>
<feBlend mode="normal" in2="effect1_dropShadow_625_35872" result="effect2_dropShadow_625_35872"/>
<feBlend mode="normal" in="SourceGraphic" in2="effect2_dropShadow_625_35872" result="shape"/>
</filter>
</defs>
</svg>
