<svg width="353" height="446" viewBox="0 0 353 446" fill="none" xmlns="http://www.w3.org/2000/svg">
<g filter="url(#filter0_dd_625_35990)">
<rect x="12" y="52" width="329" height="370" rx="10" fill="white"/>
<rect x="12.5" y="52.5" width="328" height="369" rx="9.5" stroke="#D5D7DA"/>
</g>
<path d="M108.066 311H105.882L112.198 293.798H114.348L120.664 311H118.481L113.34 296.52H113.206L108.066 311ZM108.872 304.281H117.674V306.128H108.872V304.281ZM127.947 311.269C126.872 311.269 125.922 310.997 125.099 310.454C124.276 309.905 123.632 309.133 123.167 308.136C122.703 307.134 122.47 305.949 122.47 304.583C122.47 303.228 122.703 302.052 123.167 301.055C123.632 300.058 124.279 299.289 125.108 298.745C125.936 298.202 126.894 297.931 127.98 297.931C128.82 297.931 129.484 298.071 129.971 298.351C130.464 298.625 130.839 298.939 131.096 299.291C131.36 299.639 131.564 299.924 131.71 300.148H131.878V293.798H133.86V311H131.945V309.018H131.71C131.564 309.253 131.357 309.55 131.088 309.908C130.819 310.261 130.436 310.577 129.937 310.857C129.439 311.132 128.775 311.269 127.947 311.269ZM128.215 309.488C129.011 309.488 129.683 309.281 130.231 308.867C130.78 308.447 131.197 307.867 131.483 307.128C131.768 306.383 131.911 305.524 131.911 304.549C131.911 303.586 131.771 302.743 131.491 302.021C131.211 301.293 130.797 300.728 130.248 300.324C129.699 299.916 129.022 299.711 128.215 299.711C127.376 299.711 126.676 299.927 126.116 300.358C125.561 300.784 125.144 301.363 124.864 302.097C124.59 302.825 124.453 303.642 124.453 304.549C124.453 305.468 124.593 306.302 124.873 307.052C125.158 307.797 125.578 308.391 126.132 308.833C126.692 309.27 127.387 309.488 128.215 309.488ZM142.637 311.269C141.562 311.269 140.613 310.997 139.79 310.454C138.967 309.905 138.323 309.133 137.858 308.136C137.393 307.134 137.161 305.949 137.161 304.583C137.161 303.228 137.393 302.052 137.858 301.055C138.323 300.058 138.969 299.289 139.798 298.745C140.627 298.202 141.584 297.931 142.671 297.931C143.511 297.931 144.174 298.071 144.661 298.351C145.154 298.625 145.529 298.939 145.787 299.291C146.05 299.639 146.254 299.924 146.4 300.148H146.568V293.798H148.55V311H146.635V309.018H146.4C146.254 309.253 146.047 309.55 145.778 309.908C145.51 310.261 145.126 310.577 144.628 310.857C144.129 311.132 143.466 311.269 142.637 311.269ZM142.906 309.488C143.701 309.488 144.373 309.281 144.922 308.867C145.47 308.447 145.888 307.867 146.173 307.128C146.459 306.383 146.602 305.524 146.602 304.549C146.602 303.586 146.462 302.743 146.182 302.021C145.902 301.293 145.487 300.728 144.939 300.324C144.39 299.916 143.712 299.711 142.906 299.711C142.066 299.711 141.366 299.927 140.806 300.358C140.252 300.784 139.835 301.363 139.555 302.097C139.28 302.825 139.143 303.642 139.143 304.549C139.143 305.468 139.283 306.302 139.563 307.052C139.849 307.797 140.268 308.391 140.823 308.833C141.383 309.27 142.077 309.488 142.906 309.488ZM160.385 315.838C160.049 315.838 159.749 315.81 159.486 315.754C159.223 315.704 159.041 315.653 158.94 315.603L159.444 313.856C159.926 313.979 160.351 314.024 160.721 313.99C161.09 313.957 161.418 313.791 161.704 313.495C161.995 313.203 162.261 312.73 162.501 312.075L162.871 311.067L158.1 298.099H160.25L163.812 308.379H163.946L167.507 298.099H169.658L164.181 312.881C163.935 313.548 163.63 314.099 163.266 314.536C162.902 314.978 162.479 315.306 161.998 315.519C161.522 315.732 160.984 315.838 160.385 315.838ZM177.053 311.269C175.889 311.269 174.867 310.992 173.988 310.437C173.114 309.883 172.431 309.107 171.938 308.111C171.451 307.114 171.207 305.949 171.207 304.617C171.207 303.273 171.451 302.1 171.938 301.097C172.431 300.095 173.114 299.317 173.988 298.762C174.867 298.208 175.889 297.931 177.053 297.931C178.218 297.931 179.237 298.208 180.111 298.762C180.99 299.317 181.673 300.095 182.16 301.097C182.653 302.1 182.899 303.273 182.899 304.617C182.899 305.949 182.653 307.114 182.16 308.111C181.673 309.107 180.99 309.883 180.111 310.437C179.237 310.992 178.218 311.269 177.053 311.269ZM177.053 309.488C177.938 309.488 178.666 309.261 179.237 308.808C179.808 308.354 180.231 307.758 180.505 307.019C180.78 306.28 180.917 305.479 180.917 304.617C180.917 303.754 180.78 302.951 180.505 302.206C180.231 301.461 179.808 300.859 179.237 300.4C178.666 299.941 177.938 299.711 177.053 299.711C176.169 299.711 175.441 299.941 174.869 300.4C174.298 300.859 173.876 301.461 173.601 302.206C173.327 302.951 173.19 303.754 173.19 304.617C173.19 305.479 173.327 306.28 173.601 307.019C173.876 307.758 174.298 308.354 174.869 308.808C175.441 309.261 176.169 309.488 177.053 309.488ZM194.056 305.725V298.099H196.038V311H194.056V308.816H193.921C193.619 309.471 193.148 310.028 192.51 310.488C191.872 310.941 191.065 311.168 190.091 311.168C189.285 311.168 188.568 310.992 187.941 310.639C187.314 310.28 186.821 309.743 186.463 309.026C186.104 308.304 185.925 307.394 185.925 306.296V298.099H187.907V306.162C187.907 307.103 188.171 307.853 188.697 308.413C189.229 308.973 189.906 309.253 190.729 309.253C191.222 309.253 191.723 309.127 192.233 308.875C192.748 308.623 193.179 308.237 193.526 307.716C193.879 307.195 194.056 306.532 194.056 305.725ZM199.668 311V298.099H201.584V300.047H201.718C201.953 299.409 202.379 298.891 202.995 298.493C203.611 298.096 204.305 297.897 205.078 297.897C205.223 297.897 205.405 297.9 205.624 297.905C205.842 297.911 206.007 297.919 206.119 297.931V299.946C206.052 299.93 205.898 299.905 205.657 299.871C205.422 299.832 205.173 299.812 204.91 299.812C204.282 299.812 203.723 299.944 203.23 300.207C202.743 300.464 202.356 300.823 202.071 301.282C201.791 301.736 201.651 302.254 201.651 302.836V311H199.668ZM215.121 298.099H217.103V311.941C217.103 312.736 216.966 313.425 216.692 314.007C216.423 314.589 216.014 315.04 215.465 315.359C214.922 315.678 214.236 315.838 213.408 315.838C213.34 315.838 213.273 315.838 213.206 315.838C213.139 315.838 213.072 315.838 213.004 315.838V313.99C213.072 313.99 213.133 313.99 213.189 313.99C213.245 313.99 213.307 313.99 213.374 313.99C213.979 313.99 214.421 313.811 214.701 313.453C214.981 313.1 215.121 312.596 215.121 311.941V298.099ZM216.095 295.948C215.709 295.948 215.376 295.817 215.096 295.554C214.822 295.29 214.684 294.974 214.684 294.605C214.684 294.235 214.822 293.919 215.096 293.655C215.376 293.392 215.709 293.261 216.095 293.261C216.482 293.261 216.812 293.392 217.087 293.655C217.367 293.919 217.507 294.235 217.507 294.605C217.507 294.974 217.367 295.29 217.087 295.554C216.812 295.817 216.482 295.948 216.095 295.948ZM225.975 311.269C224.81 311.269 223.789 310.992 222.909 310.437C222.036 309.883 221.353 309.107 220.86 308.111C220.373 307.114 220.129 305.949 220.129 304.617C220.129 303.273 220.373 302.1 220.86 301.097C221.353 300.095 222.036 299.317 222.909 298.762C223.789 298.208 224.81 297.931 225.975 297.931C227.14 297.931 228.159 298.208 229.032 298.762C229.912 299.317 230.595 300.095 231.082 301.097C231.575 302.1 231.821 303.273 231.821 304.617C231.821 305.949 231.575 307.114 231.082 308.111C230.595 309.107 229.912 309.883 229.032 310.437C228.159 310.992 227.14 311.269 225.975 311.269ZM225.975 309.488C226.86 309.488 227.588 309.261 228.159 308.808C228.73 308.354 229.153 307.758 229.427 307.019C229.702 306.28 229.839 305.479 229.839 304.617C229.839 303.754 229.702 302.951 229.427 302.206C229.153 301.461 228.73 300.859 228.159 300.4C227.588 299.941 226.86 299.711 225.975 299.711C225.09 299.711 224.362 299.941 223.791 300.4C223.22 300.859 222.797 301.461 222.523 302.206C222.249 302.951 222.111 303.754 222.111 304.617C222.111 305.479 222.249 306.28 222.523 307.019C222.797 307.758 223.22 308.354 223.791 308.808C224.362 309.261 225.09 309.488 225.975 309.488ZM235.116 311V293.798H237.098V300.148H237.266C237.411 299.924 237.613 299.639 237.871 299.291C238.134 298.939 238.509 298.625 238.996 298.351C239.489 298.071 240.155 297.931 240.995 297.931C242.082 297.931 243.039 298.202 243.868 298.745C244.697 299.289 245.343 300.058 245.808 301.055C246.273 302.052 246.505 303.228 246.505 304.583C246.505 305.949 246.273 307.134 245.808 308.136C245.343 309.133 244.699 309.905 243.876 310.454C243.053 310.997 242.104 311.269 241.029 311.269C240.2 311.269 239.537 311.132 239.038 310.857C238.54 310.577 238.156 310.261 237.887 309.908C237.619 309.55 237.411 309.253 237.266 309.018H237.031V311H235.116ZM237.064 304.549C237.064 305.524 237.207 306.383 237.493 307.128C237.778 307.867 238.195 308.447 238.744 308.867C239.293 309.281 239.965 309.488 240.76 309.488C241.589 309.488 242.28 309.27 242.835 308.833C243.395 308.391 243.815 307.797 244.095 307.052C244.38 306.302 244.523 305.468 244.523 304.549C244.523 303.642 244.383 302.825 244.103 302.097C243.829 301.363 243.411 300.784 242.851 300.358C242.297 299.927 241.6 299.711 240.76 299.711C239.954 299.711 239.276 299.916 238.727 300.324C238.179 300.728 237.764 301.293 237.484 302.021C237.204 302.743 237.064 303.586 237.064 304.549ZM120.682 341.269C119.607 341.269 118.658 340.997 117.835 340.454C117.012 339.905 116.368 339.133 115.903 338.136C115.438 337.134 115.206 335.949 115.206 334.583C115.206 333.228 115.438 332.052 115.903 331.055C116.368 330.058 117.015 329.289 117.843 328.745C118.672 328.202 119.63 327.931 120.716 327.931C121.556 327.931 122.219 328.071 122.707 328.351C123.199 328.625 123.574 328.939 123.832 329.291C124.095 329.639 124.3 329.924 124.445 330.148H124.613V323.798H126.595V341H124.68V339.018H124.445C124.3 339.253 124.092 339.55 123.824 339.908C123.555 340.261 123.171 340.577 122.673 340.857C122.175 341.132 121.511 341.269 120.682 341.269ZM120.951 339.488C121.746 339.488 122.418 339.281 122.967 338.867C123.516 338.447 123.933 337.867 124.218 337.128C124.504 336.383 124.647 335.524 124.647 334.549C124.647 333.586 124.507 332.743 124.227 332.021C123.947 331.293 123.533 330.728 122.984 330.324C122.435 329.916 121.757 329.711 120.951 329.711C120.111 329.711 119.411 329.927 118.851 330.358C118.297 330.784 117.88 331.363 117.6 332.097C117.325 332.825 117.188 333.642 117.188 334.549C117.188 335.468 117.328 336.302 117.608 337.052C117.894 337.797 118.314 338.391 118.868 338.833C119.428 339.27 120.122 339.488 120.951 339.488ZM135.91 341.269C134.667 341.269 133.595 340.994 132.693 340.446C131.797 339.891 131.106 339.119 130.619 338.127C130.137 337.131 129.896 335.972 129.896 334.65C129.896 333.329 130.137 332.164 130.619 331.156C131.106 330.142 131.783 329.353 132.651 328.787C133.525 328.216 134.544 327.931 135.709 327.931C136.381 327.931 137.044 328.043 137.699 328.267C138.354 328.491 138.951 328.855 139.488 329.359C140.026 329.857 140.454 330.518 140.774 331.341C141.093 332.164 141.252 333.177 141.252 334.381V335.221H131.307V333.508H139.236C139.236 332.78 139.091 332.13 138.8 331.559C138.514 330.988 138.105 330.537 137.573 330.207C137.047 329.877 136.425 329.711 135.709 329.711C134.919 329.711 134.236 329.907 133.659 330.299C133.088 330.686 132.649 331.19 132.341 331.811C132.033 332.433 131.879 333.099 131.879 333.81V334.952C131.879 335.927 132.047 336.753 132.383 337.43C132.724 338.102 133.197 338.615 133.802 338.967C134.407 339.315 135.11 339.488 135.91 339.488C136.431 339.488 136.901 339.415 137.321 339.27C137.747 339.119 138.114 338.895 138.422 338.598C138.73 338.295 138.968 337.92 139.136 337.472L141.051 338.01C140.849 338.659 140.51 339.231 140.034 339.723C139.558 340.21 138.97 340.591 138.271 340.866C137.571 341.134 136.784 341.269 135.91 341.269ZM153.406 330.988L151.625 331.492C151.513 331.195 151.348 330.907 151.13 330.627C150.917 330.341 150.626 330.106 150.256 329.921C149.887 329.737 149.414 329.644 148.837 329.644C148.047 329.644 147.389 329.826 146.863 330.19C146.342 330.548 146.082 331.005 146.082 331.559C146.082 332.052 146.261 332.441 146.619 332.727C146.978 333.012 147.538 333.25 148.299 333.441L150.214 333.911C151.368 334.191 152.227 334.619 152.793 335.196C153.358 335.767 153.641 336.504 153.641 337.405C153.641 338.144 153.428 338.805 153.003 339.387C152.583 339.97 151.995 340.429 151.239 340.765C150.483 341.101 149.604 341.269 148.602 341.269C147.286 341.269 146.197 340.983 145.334 340.412C144.472 339.841 143.926 339.007 143.696 337.909L145.578 337.439C145.757 338.133 146.096 338.654 146.594 339.001C147.098 339.348 147.756 339.522 148.568 339.522C149.492 339.522 150.226 339.326 150.769 338.934C151.317 338.536 151.592 338.06 151.592 337.506C151.592 337.058 151.435 336.683 151.121 336.38C150.808 336.072 150.326 335.843 149.677 335.692L147.527 335.188C146.345 334.908 145.477 334.474 144.923 333.886C144.374 333.292 144.1 332.55 144.1 331.66C144.1 330.932 144.304 330.288 144.713 329.728C145.127 329.168 145.69 328.729 146.401 328.409C147.118 328.09 147.93 327.931 148.837 327.931C150.114 327.931 151.116 328.211 151.844 328.771C152.577 329.331 153.098 330.07 153.406 330.988ZM161.866 341.269C160.657 341.269 159.615 340.983 158.742 340.412C157.868 339.841 157.196 339.054 156.726 338.052C156.256 337.05 156.02 335.904 156.02 334.617C156.02 333.306 156.261 332.15 156.743 331.148C157.23 330.14 157.907 329.353 158.775 328.787C159.649 328.216 160.668 327.931 161.833 327.931C162.74 327.931 163.557 328.099 164.285 328.435C165.013 328.771 165.61 329.241 166.074 329.846C166.539 330.45 166.827 331.156 166.939 331.962H164.957C164.806 331.374 164.47 330.854 163.949 330.4C163.434 329.941 162.74 329.711 161.866 329.711C161.094 329.711 160.416 329.913 159.834 330.316C159.257 330.714 158.806 331.276 158.481 332.004C158.162 332.727 158.003 333.575 158.003 334.549C158.003 335.546 158.159 336.414 158.473 337.153C158.792 337.892 159.24 338.466 159.817 338.875C160.399 339.284 161.082 339.488 161.866 339.488C162.381 339.488 162.849 339.399 163.269 339.219C163.689 339.04 164.045 338.783 164.336 338.447C164.627 338.111 164.834 337.707 164.957 337.237H166.939C166.827 337.999 166.55 338.685 166.108 339.295C165.671 339.9 165.092 340.381 164.369 340.74C163.653 341.092 162.818 341.269 161.866 341.269ZM169.837 341V328.099H171.752V330.047H171.887C172.122 329.409 172.547 328.891 173.163 328.493C173.779 328.096 174.474 327.897 175.246 327.897C175.392 327.897 175.574 327.9 175.792 327.905C176.011 327.911 176.176 327.919 176.288 327.931V329.946C176.221 329.93 176.067 329.905 175.826 329.871C175.591 329.832 175.342 329.812 175.078 329.812C174.451 329.812 173.891 329.944 173.399 330.207C172.911 330.464 172.525 330.823 172.239 331.282C171.959 331.736 171.819 332.254 171.819 332.836V341H169.837ZM178.638 341V328.099H180.62V341H178.638ZM179.646 325.948C179.259 325.948 178.926 325.817 178.646 325.554C178.372 325.29 178.234 324.974 178.234 324.605C178.234 324.235 178.372 323.919 178.646 323.655C178.926 323.392 179.259 323.261 179.646 323.261C180.032 323.261 180.362 323.392 180.637 323.655C180.917 323.919 181.057 324.235 181.057 324.605C181.057 324.974 180.917 325.29 180.637 325.554C180.362 325.817 180.032 325.948 179.646 325.948ZM184.25 345.838V328.099H186.166V330.148H186.401C186.546 329.924 186.748 329.639 187.005 329.291C187.269 328.939 187.644 328.625 188.131 328.351C188.624 328.071 189.29 327.931 190.13 327.931C191.216 327.931 192.174 328.202 193.003 328.745C193.831 329.289 194.478 330.058 194.943 331.055C195.408 332.052 195.64 333.228 195.64 334.583C195.64 335.949 195.408 337.134 194.943 338.136C194.478 339.133 193.834 339.905 193.011 340.454C192.188 340.997 191.239 341.269 190.164 341.269C189.335 341.269 188.671 341.132 188.173 340.857C187.675 340.577 187.291 340.261 187.022 339.908C186.753 339.55 186.546 339.253 186.401 339.018H186.233V345.838H184.25ZM186.199 334.549C186.199 335.524 186.342 336.383 186.627 337.128C186.913 337.867 187.33 338.447 187.879 338.867C188.428 339.281 189.1 339.488 189.895 339.488C190.724 339.488 191.415 339.27 191.969 338.833C192.529 338.391 192.949 337.797 193.229 337.052C193.515 336.302 193.658 335.468 193.658 334.549C193.658 333.642 193.518 332.825 193.238 332.097C192.963 331.363 192.546 330.784 191.986 330.358C191.432 329.927 190.735 329.711 189.895 329.711C189.088 329.711 188.411 329.916 187.862 330.324C187.313 330.728 186.899 331.293 186.619 332.021C186.339 332.743 186.199 333.586 186.199 334.549ZM204.274 328.099V329.779H197.589V328.099H204.274ZM199.537 325.008H201.519V337.304C201.519 337.864 201.601 338.284 201.763 338.564C201.931 338.839 202.144 339.023 202.401 339.119C202.665 339.208 202.942 339.253 203.233 339.253C203.451 339.253 203.63 339.242 203.77 339.219C203.91 339.191 204.022 339.169 204.106 339.152L204.51 340.933C204.375 340.983 204.188 341.034 203.947 341.084C203.706 341.14 203.401 341.168 203.031 341.168C202.471 341.168 201.923 341.048 201.385 340.807C200.853 340.566 200.411 340.199 200.058 339.707C199.711 339.214 199.537 338.592 199.537 337.842V325.008ZM207.256 341V328.099H209.238V341H207.256ZM208.264 325.948C207.878 325.948 207.545 325.817 207.265 325.554C206.99 325.29 206.853 324.974 206.853 324.605C206.853 324.235 206.99 323.919 207.265 323.655C207.545 323.392 207.878 323.261 208.264 323.261C208.65 323.261 208.981 323.392 209.255 323.655C209.535 323.919 209.675 324.235 209.675 324.605C209.675 324.974 209.535 325.29 209.255 325.554C208.981 325.817 208.65 325.948 208.264 325.948ZM218.11 341.269C216.946 341.269 215.924 340.992 215.044 340.437C214.171 339.883 213.488 339.107 212.995 338.111C212.508 337.114 212.264 335.949 212.264 334.617C212.264 333.273 212.508 332.1 212.995 331.097C213.488 330.095 214.171 329.317 215.044 328.762C215.924 328.208 216.946 327.931 218.11 327.931C219.275 327.931 220.294 328.208 221.168 328.762C222.047 329.317 222.73 330.095 223.217 331.097C223.71 332.1 223.956 333.273 223.956 334.617C223.956 335.949 223.71 337.114 223.217 338.111C222.73 339.107 222.047 339.883 221.168 340.437C220.294 340.992 219.275 341.269 218.11 341.269ZM218.11 339.488C218.995 339.488 219.723 339.261 220.294 338.808C220.865 338.354 221.288 337.758 221.562 337.019C221.837 336.28 221.974 335.479 221.974 334.617C221.974 333.754 221.837 332.951 221.562 332.206C221.288 331.461 220.865 330.859 220.294 330.4C219.723 329.941 218.995 329.711 218.11 329.711C217.225 329.711 216.498 329.941 215.926 330.4C215.355 330.859 214.932 331.461 214.658 332.206C214.384 332.951 214.247 333.754 214.247 334.617C214.247 335.479 214.384 336.28 214.658 337.019C214.932 337.758 215.355 338.354 215.926 338.808C216.498 339.261 217.225 339.488 218.11 339.488ZM228.964 333.239V341H226.982V328.099H228.897V330.114H229.065C229.367 329.459 229.827 328.933 230.443 328.535C231.058 328.132 231.854 327.931 232.828 327.931C233.701 327.931 234.466 328.11 235.121 328.468C235.776 328.821 236.286 329.359 236.65 330.081C237.014 330.798 237.196 331.705 237.196 332.802V341H235.213V332.937C235.213 331.923 234.95 331.134 234.424 330.568C233.897 329.997 233.175 329.711 232.257 329.711C231.624 329.711 231.058 329.849 230.56 330.123C230.067 330.397 229.678 330.798 229.393 331.324C229.107 331.85 228.964 332.489 228.964 333.239Z" fill="black"/>
<path d="M175.796 253.695C211.279 253.695 240.044 252.016 240.044 249.944C240.044 247.873 211.279 246.193 175.796 246.193C140.313 246.193 111.549 247.873 111.549 249.944C111.549 252.016 140.313 253.695 175.796 253.695Z" fill="#F5F5F5"/>
<path d="M173.518 199.078H153.275C152.989 199.078 152.758 199.31 152.758 199.595V208.038C152.758 208.324 152.989 208.555 153.275 208.555H173.518C173.803 208.555 174.034 208.324 174.034 208.038V199.595C174.034 199.31 173.803 199.078 173.518 199.078Z" fill="#1B29CB"/>
<path opacity="0.6" d="M173.518 199.078H153.275C152.989 199.078 152.758 199.31 152.758 199.595V208.038C152.758 208.324 152.989 208.555 153.275 208.555H173.518C173.803 208.555 174.034 208.324 174.034 208.038V199.595C174.034 199.31 173.803 199.078 173.518 199.078Z" fill="white"/>
<path opacity="0.1" d="M173.515 199.078H153.266C153.129 199.078 152.997 199.133 152.9 199.23C152.803 199.326 152.749 199.458 152.749 199.595V202.302L163.286 204.377C163.351 204.39 163.417 204.39 163.482 204.377L174.022 202.302V199.595C174.022 199.46 173.969 199.33 173.875 199.233C173.78 199.136 173.651 199.081 173.515 199.078Z" fill="black"/>
<path d="M173.96 195.611H167.777V194.574C167.776 194.145 167.605 193.735 167.302 193.432C166.999 193.129 166.588 192.958 166.16 192.957H160.636C160.207 192.958 159.796 193.129 159.493 193.432C159.19 193.735 159.02 194.145 159.019 194.574V195.611H152.839C152.704 195.611 152.574 195.665 152.478 195.761C152.382 195.856 152.329 195.986 152.329 196.122V201.228C152.329 201.346 152.37 201.46 152.445 201.551C152.52 201.642 152.624 201.705 152.74 201.728L163.3 203.806C163.365 203.816 163.431 203.816 163.495 203.806L174.056 201.728C174.172 201.705 174.276 201.642 174.351 201.551C174.427 201.46 174.469 201.346 174.47 201.228V196.122C174.47 195.986 174.416 195.856 174.321 195.761C174.225 195.665 174.095 195.611 173.96 195.611ZM160.248 194.574C160.249 194.471 160.29 194.373 160.362 194.3C160.435 194.227 160.533 194.185 160.636 194.183H166.16C166.262 194.185 166.361 194.227 166.433 194.3C166.505 194.373 166.546 194.471 166.547 194.574V195.611H160.251L160.248 194.574Z" fill="#1B29CB"/>
<path opacity="0.6" d="M173.96 195.611H167.777V194.574C167.776 194.145 167.605 193.735 167.302 193.432C166.999 193.129 166.588 192.958 166.16 192.957H160.636C160.207 192.958 159.796 193.129 159.493 193.432C159.19 193.735 159.02 194.145 159.019 194.574V195.611H152.839C152.704 195.611 152.574 195.665 152.478 195.761C152.382 195.856 152.329 195.986 152.329 196.122V201.228C152.329 201.346 152.37 201.46 152.445 201.551C152.52 201.642 152.624 201.705 152.74 201.728L163.3 203.806C163.365 203.816 163.431 203.816 163.495 203.806L174.056 201.728C174.172 201.705 174.276 201.642 174.351 201.551C174.427 201.46 174.469 201.346 174.47 201.228V196.122C174.47 195.986 174.416 195.856 174.321 195.761C174.225 195.665 174.095 195.611 173.96 195.611ZM160.248 194.574C160.249 194.471 160.29 194.373 160.362 194.3C160.435 194.227 160.533 194.185 160.636 194.183H166.16C166.262 194.185 166.361 194.227 166.433 194.3C166.505 194.373 166.546 194.471 166.547 194.574V195.611H160.251L160.248 194.574Z" fill="white"/>
<path d="M164.486 202.411H162.306C162.035 202.411 161.815 202.631 161.815 202.902V204.28C161.815 204.551 162.035 204.77 162.306 204.77H164.486C164.757 204.77 164.977 204.551 164.977 204.28V202.902C164.977 202.631 164.757 202.411 164.486 202.411Z" fill="#1B29CB"/>
<path opacity="0.3" d="M164.486 202.411H162.306C162.035 202.411 161.815 202.631 161.815 202.902V204.28C161.815 204.551 162.035 204.77 162.306 204.77H164.486C164.757 204.77 164.977 204.551 164.977 204.28V202.902C164.977 202.631 164.757 202.411 164.486 202.411Z" fill="white"/>
<path d="M173.518 138.12H153.275C152.989 138.12 152.758 138.352 152.758 138.637V147.08C152.758 147.366 152.989 147.597 153.275 147.597H173.518C173.803 147.597 174.034 147.366 174.034 147.08V138.637C174.034 138.352 173.803 138.12 173.518 138.12Z" fill="#1B29CB"/>
<path opacity="0.6" d="M173.518 138.12H153.275C152.989 138.12 152.758 138.352 152.758 138.637V147.08C152.758 147.366 152.989 147.597 153.275 147.597H173.518C173.803 147.597 174.034 147.366 174.034 147.08V138.637C174.034 138.352 173.803 138.12 173.518 138.12Z" fill="white"/>
<path opacity="0.1" d="M173.515 138.12H153.266C153.129 138.12 152.997 138.175 152.9 138.272C152.803 138.368 152.749 138.5 152.749 138.637V141.344L163.286 143.419C163.351 143.432 163.417 143.432 163.482 143.419L174.022 141.344V138.637C174.022 138.502 173.969 138.372 173.875 138.275C173.78 138.178 173.651 138.123 173.515 138.12Z" fill="black"/>
<path d="M173.96 134.654H167.777V133.617C167.776 133.188 167.605 132.778 167.302 132.475C166.999 132.172 166.588 132.001 166.16 132H160.636C160.207 132.001 159.796 132.172 159.493 132.475C159.19 132.778 159.02 133.188 159.019 133.617V134.654H152.839C152.704 134.654 152.574 134.708 152.478 134.804C152.382 134.899 152.329 135.029 152.329 135.164V140.271C152.329 140.389 152.37 140.503 152.445 140.594C152.519 140.686 152.624 140.748 152.74 140.771L163.3 142.836C163.364 142.849 163.431 142.849 163.495 142.836L174.056 140.758C174.17 140.736 174.274 140.676 174.35 140.588C174.426 140.499 174.469 140.387 174.473 140.271V135.164C174.473 135.097 174.46 135.031 174.434 134.968C174.408 134.906 174.371 134.85 174.323 134.802C174.275 134.755 174.218 134.718 174.156 134.692C174.094 134.667 174.027 134.654 173.96 134.654ZM160.248 133.617C160.248 133.514 160.289 133.415 160.361 133.342C160.434 133.268 160.533 133.227 160.636 133.226H166.16C166.262 133.227 166.36 133.268 166.433 133.341C166.505 133.413 166.546 133.511 166.547 133.614V134.651H160.251L160.248 133.617Z" fill="#1B29CB"/>
<path opacity="0.6" d="M173.96 134.654H167.777V133.617C167.776 133.188 167.605 132.778 167.302 132.475C166.999 132.172 166.588 132.001 166.16 132H160.636C160.207 132.001 159.796 132.172 159.493 132.475C159.19 132.778 159.02 133.188 159.019 133.617V134.654H152.839C152.704 134.654 152.574 134.708 152.478 134.804C152.382 134.899 152.329 135.029 152.329 135.164V140.271C152.329 140.389 152.37 140.503 152.445 140.594C152.519 140.686 152.624 140.748 152.74 140.771L163.3 142.836C163.364 142.849 163.431 142.849 163.495 142.836L174.056 140.758C174.17 140.736 174.274 140.676 174.35 140.588C174.426 140.499 174.469 140.387 174.473 140.271V135.164C174.473 135.097 174.46 135.031 174.434 134.968C174.408 134.906 174.371 134.85 174.323 134.802C174.275 134.755 174.218 134.718 174.156 134.692C174.094 134.667 174.027 134.654 173.96 134.654ZM160.248 133.617C160.248 133.514 160.289 133.415 160.361 133.342C160.434 133.268 160.533 133.227 160.636 133.226H166.16C166.262 133.227 166.36 133.268 166.433 133.341C166.505 133.413 166.546 133.511 166.547 133.614V134.651H160.251L160.248 133.617Z" fill="white"/>
<path d="M164.486 141.457H162.306C162.035 141.457 161.815 141.677 161.815 141.947V143.326C161.815 143.597 162.035 143.816 162.306 143.816H164.486C164.757 143.816 164.977 143.597 164.977 143.326V141.947C164.977 141.677 164.757 141.457 164.486 141.457Z" fill="#1B29CB"/>
<path opacity="0.3" d="M164.486 141.457H162.306C162.035 141.457 161.815 141.677 161.815 141.947V143.326C161.815 143.597 162.035 143.816 162.306 143.816H164.486C164.757 143.816 164.977 143.597 164.977 143.326V141.947C164.977 141.677 164.757 141.457 164.486 141.457Z" fill="white"/>
<path d="M141.986 199.078H121.743C121.458 199.078 121.227 199.31 121.227 199.595V208.038C121.227 208.324 121.458 208.555 121.743 208.555H141.986C142.272 208.555 142.503 208.324 142.503 208.038V199.595C142.503 199.31 142.272 199.078 141.986 199.078Z" fill="#1B29CB"/>
<path opacity="0.6" d="M141.986 199.078H121.743C121.458 199.078 121.227 199.31 121.227 199.595V208.038C121.227 208.324 121.458 208.555 121.743 208.555H141.986C142.272 208.555 142.503 208.324 142.503 208.038V199.595C142.503 199.31 142.272 199.078 141.986 199.078Z" fill="white"/>
<path opacity="0.1" d="M142 199.078H121.743C121.606 199.078 121.475 199.133 121.378 199.23C121.281 199.326 121.227 199.458 121.227 199.595V202.302L131.764 204.377C131.829 204.39 131.897 204.39 131.963 204.377L142.503 202.302V199.595C142.503 199.46 142.451 199.331 142.357 199.234C142.262 199.138 142.134 199.082 142 199.078Z" fill="black"/>
<path d="M142.423 195.611H136.24V194.574C136.239 194.145 136.068 193.735 135.765 193.432C135.462 193.129 135.051 192.958 134.623 192.957H129.102C128.673 192.958 128.263 193.129 127.96 193.432C127.657 193.735 127.486 194.145 127.485 194.574V195.611H121.302C121.166 195.611 121.037 195.665 120.941 195.761C120.845 195.856 120.792 195.986 120.792 196.122V201.228C120.792 201.346 120.833 201.46 120.908 201.551C120.983 201.642 121.087 201.705 121.202 201.728L131.763 203.806C131.829 203.816 131.896 203.816 131.962 203.806L142.522 201.728C142.638 201.705 142.742 201.642 142.816 201.551C142.891 201.46 142.932 201.346 142.933 201.228V196.122C142.933 195.986 142.879 195.856 142.784 195.761C142.688 195.665 142.558 195.611 142.423 195.611ZM128.711 194.574C128.713 194.471 128.754 194.372 128.827 194.299C128.9 194.227 128.999 194.185 129.102 194.183H134.623C134.726 194.185 134.824 194.227 134.897 194.299C134.97 194.372 135.012 194.471 135.014 194.574V195.611H128.718L128.711 194.574Z" fill="#1B29CB"/>
<path opacity="0.6" d="M142.423 195.611H136.24V194.574C136.239 194.145 136.068 193.735 135.765 193.432C135.462 193.129 135.051 192.958 134.623 192.957H129.102C128.673 192.958 128.263 193.129 127.96 193.432C127.657 193.735 127.486 194.145 127.485 194.574V195.611H121.302C121.166 195.611 121.037 195.665 120.941 195.761C120.845 195.856 120.792 195.986 120.792 196.122V201.228C120.792 201.346 120.833 201.46 120.908 201.551C120.983 201.642 121.087 201.705 121.202 201.728L131.763 203.806C131.829 203.816 131.896 203.816 131.962 203.806L142.522 201.728C142.638 201.705 142.742 201.642 142.816 201.551C142.891 201.46 142.932 201.346 142.933 201.228V196.122C142.933 195.986 142.879 195.856 142.784 195.761C142.688 195.665 142.558 195.611 142.423 195.611ZM128.711 194.574C128.713 194.471 128.754 194.372 128.827 194.299C128.9 194.227 128.999 194.185 129.102 194.183H134.623C134.726 194.185 134.824 194.227 134.897 194.299C134.97 194.372 135.012 194.471 135.014 194.574V195.611H128.718L128.711 194.574Z" fill="white"/>
<path d="M132.953 202.411H130.773C130.502 202.411 130.283 202.631 130.283 202.902V204.28C130.283 204.551 130.502 204.77 130.773 204.77H132.953C133.224 204.77 133.444 204.551 133.444 204.28V202.902C133.444 202.631 133.224 202.411 132.953 202.411Z" fill="#1B29CB"/>
<path opacity="0.3" d="M132.953 202.411H130.773C130.502 202.411 130.283 202.631 130.283 202.902V204.28C130.283 204.551 130.502 204.77 130.773 204.77H132.953C133.224 204.77 133.444 204.551 133.444 204.28V202.902C133.444 202.631 133.224 202.411 132.953 202.411Z" fill="white"/>
<path d="M141.986 138.12H121.743C121.458 138.12 121.227 138.352 121.227 138.637V147.08C121.227 147.366 121.458 147.597 121.743 147.597H141.986C142.272 147.597 142.503 147.366 142.503 147.08V138.637C142.503 138.352 142.272 138.12 141.986 138.12Z" fill="#1B29CB"/>
<path opacity="0.6" d="M141.986 138.12H121.743C121.458 138.12 121.227 138.352 121.227 138.637V147.08C121.227 147.366 121.458 147.597 121.743 147.597H141.986C142.272 147.597 142.503 147.366 142.503 147.08V138.637C142.503 138.352 142.272 138.12 141.986 138.12Z" fill="white"/>
<path opacity="0.1" d="M142 138.12H121.743C121.606 138.12 121.475 138.175 121.378 138.272C121.281 138.368 121.227 138.5 121.227 138.637V141.344L131.764 143.419C131.829 143.432 131.897 143.432 131.963 143.419L142.503 141.344V138.637C142.503 138.502 142.451 138.373 142.357 138.276C142.262 138.18 142.134 138.124 142 138.12Z" fill="black"/>
<path d="M142.423 134.654H136.24V133.617C136.239 133.188 136.068 132.778 135.765 132.475C135.462 132.172 135.051 132.001 134.623 132H129.102C128.673 132.001 128.263 132.172 127.96 132.475C127.657 132.778 127.486 133.188 127.485 133.617V134.654H121.302C121.166 134.654 121.037 134.708 120.941 134.804C120.845 134.899 120.792 135.029 120.792 135.164V140.271C120.792 140.389 120.833 140.503 120.907 140.594C120.982 140.686 121.087 140.748 121.202 140.771L131.763 142.835C131.828 142.849 131.896 142.849 131.962 142.835L142.522 140.758C142.638 140.735 142.742 140.672 142.817 140.581C142.892 140.49 142.933 140.376 142.933 140.258V135.164C142.933 135.029 142.879 134.899 142.784 134.804C142.688 134.708 142.558 134.654 142.423 134.654ZM128.711 133.617C128.712 133.514 128.753 133.415 128.827 133.342C128.9 133.268 128.999 133.227 129.102 133.226H134.623C134.725 133.227 134.824 133.268 134.897 133.34C134.97 133.413 135.012 133.511 135.014 133.614V134.651H128.718L128.711 133.617Z" fill="#1B29CB"/>
<path opacity="0.6" d="M142.423 134.654H136.24V133.617C136.239 133.188 136.068 132.778 135.765 132.475C135.462 132.172 135.051 132.001 134.623 132H129.102C128.673 132.001 128.263 132.172 127.96 132.475C127.657 132.778 127.486 133.188 127.485 133.617V134.654H121.302C121.166 134.654 121.037 134.708 120.941 134.804C120.845 134.899 120.792 135.029 120.792 135.164V140.271C120.792 140.389 120.833 140.503 120.907 140.594C120.982 140.686 121.087 140.748 121.202 140.771L131.763 142.835C131.828 142.849 131.896 142.849 131.962 142.835L142.522 140.758C142.638 140.735 142.742 140.672 142.817 140.581C142.892 140.49 142.933 140.376 142.933 140.258V135.164C142.933 135.029 142.879 134.899 142.784 134.804C142.688 134.708 142.558 134.654 142.423 134.654ZM128.711 133.617C128.712 133.514 128.753 133.415 128.827 133.342C128.9 133.268 128.999 133.227 129.102 133.226H134.623C134.725 133.227 134.824 133.268 134.897 133.34C134.97 133.413 135.012 133.511 135.014 133.614V134.651H128.718L128.711 133.617Z" fill="white"/>
<path d="M132.953 141.457H130.773C130.502 141.457 130.283 141.677 130.283 141.947V143.326C130.283 143.597 130.502 143.816 130.773 143.816H132.953C133.224 143.816 133.444 143.597 133.444 143.326V141.947C133.444 141.677 133.224 141.457 132.953 141.457Z" fill="#1B29CB"/>
<path opacity="0.3" d="M132.953 141.457H130.773C130.502 141.457 130.283 141.677 130.283 141.947V143.326C130.283 143.597 130.502 143.816 130.773 143.816H132.953C133.224 143.816 133.444 143.597 133.444 143.326V141.947C133.444 141.677 133.224 141.457 132.953 141.457Z" fill="white"/>
<path d="M139.346 178.076H121.74C121.602 178.076 121.47 178.021 121.373 177.923C121.275 177.826 121.22 177.693 121.22 177.555V169.116C121.221 169.046 121.235 168.977 121.263 168.913C121.277 168.884 121.292 168.855 121.31 168.827C121.328 168.799 121.35 168.773 121.376 168.751C121.472 168.654 121.604 168.599 121.74 168.599H138.405C138.266 169.755 138.221 170.921 138.269 172.085C138.269 172.273 138.269 172.462 138.299 172.648C138.322 172.996 138.348 173.347 138.388 173.695C138.559 175.184 138.879 176.651 139.346 178.076Z" fill="#1B29CB"/>
<path opacity="0.6" d="M139.346 178.076H121.74C121.602 178.076 121.47 178.021 121.373 177.923C121.275 177.826 121.22 177.693 121.22 177.555V169.116C121.221 169.046 121.235 168.977 121.263 168.913C121.277 168.884 121.292 168.855 121.31 168.827C121.328 168.799 121.35 168.773 121.376 168.751C121.472 168.654 121.604 168.599 121.74 168.599H138.405C138.266 169.755 138.221 170.921 138.269 172.085C138.269 172.273 138.269 172.462 138.299 172.648C138.322 172.996 138.348 173.347 138.388 173.695C138.559 175.184 138.879 176.651 139.346 178.076Z" fill="white"/>
<path opacity="0.1" d="M138.408 168.599C138.269 169.755 138.224 170.921 138.272 172.085C138.272 172.273 138.272 172.462 138.302 172.648L133.444 173.602L131.959 173.894C131.895 173.91 131.828 173.91 131.764 173.894L130.283 173.605L121.227 171.823V169.112C121.228 169.044 121.241 168.977 121.266 168.913C121.28 168.884 121.295 168.855 121.313 168.827C121.331 168.799 121.353 168.773 121.379 168.751C121.476 168.654 121.607 168.599 121.743 168.599H138.408Z" fill="black"/>
<path d="M139.099 165.133H136.243V164.096C136.241 163.667 136.07 163.256 135.766 162.953C135.463 162.65 135.051 162.479 134.623 162.479H129.102C128.673 162.479 128.262 162.649 127.959 162.952C127.655 163.255 127.485 163.667 127.485 164.096V165.133H121.302C121.235 165.133 121.168 165.146 121.107 165.172C121.045 165.197 120.988 165.235 120.941 165.282C120.894 165.33 120.856 165.386 120.83 165.448C120.805 165.51 120.792 165.576 120.792 165.643V170.746C120.792 170.865 120.833 170.98 120.908 171.072C120.984 171.164 121.089 171.227 121.206 171.25H121.226L130.282 173.036L131.763 173.324C131.827 173.337 131.894 173.337 131.958 173.324L133.443 173.032L138.271 172.081C138.223 170.918 138.268 169.752 138.407 168.595C138.544 167.424 138.776 166.267 139.099 165.133ZM128.711 164.096C128.713 163.993 128.755 163.895 128.828 163.822C128.901 163.75 128.999 163.709 129.102 163.708H134.623C134.725 163.709 134.823 163.75 134.896 163.822C134.968 163.895 135.009 163.993 135.01 164.096V165.133H128.714L128.711 164.096Z" fill="#1B29CB"/>
<path opacity="0.6" d="M139.099 165.133H136.243V164.096C136.241 163.667 136.07 163.256 135.766 162.953C135.463 162.65 135.051 162.479 134.623 162.479H129.102C128.673 162.479 128.262 162.649 127.959 162.952C127.655 163.255 127.485 163.667 127.485 164.096V165.133H121.302C121.235 165.133 121.168 165.146 121.107 165.172C121.045 165.197 120.988 165.235 120.941 165.282C120.894 165.33 120.856 165.386 120.83 165.448C120.805 165.51 120.792 165.576 120.792 165.643V170.746C120.792 170.865 120.833 170.98 120.908 171.072C120.984 171.164 121.089 171.227 121.206 171.25H121.226L130.282 173.036L131.763 173.324C131.827 173.337 131.894 173.337 131.958 173.324L133.443 173.032L138.271 172.081C138.223 170.918 138.268 169.752 138.407 168.595C138.544 167.424 138.776 166.267 139.099 165.133ZM128.711 164.096C128.713 163.993 128.755 163.895 128.828 163.822C128.901 163.75 128.999 163.709 129.102 163.708H134.623C134.725 163.709 134.823 163.75 134.896 163.822C134.968 163.895 135.009 163.993 135.01 164.096V165.133H128.714L128.711 164.096Z" fill="white"/>
<path d="M132.953 171.933H130.773C130.502 171.933 130.283 172.152 130.283 172.423V173.801C130.283 174.072 130.502 174.292 130.773 174.292H132.953C133.224 174.292 133.444 174.072 133.444 173.801V172.423C133.444 172.152 133.224 171.933 132.953 171.933Z" fill="#1B29CB"/>
<path opacity="0.3" d="M132.953 171.933H130.773C130.502 171.933 130.283 172.152 130.283 172.423V173.801C130.283 174.072 130.502 174.292 130.773 174.292H132.953C133.224 174.292 133.444 174.072 133.444 173.801V172.423C133.444 172.152 133.224 171.933 132.953 171.933Z" fill="white"/>
<path d="M184.807 208.551H205.049C205.335 208.551 205.566 208.319 205.566 208.034V199.591C205.566 199.305 205.335 199.074 205.049 199.074H184.807C184.521 199.074 184.29 199.305 184.29 199.591V208.034C184.29 208.319 184.521 208.551 184.807 208.551Z" fill="#1B29CB"/>
<path opacity="0.6" d="M184.807 208.551H205.049C205.335 208.551 205.566 208.319 205.566 208.034V199.591C205.566 199.305 205.335 199.074 205.049 199.074H184.807C184.521 199.074 184.29 199.305 184.29 199.591V208.034C184.29 208.319 184.521 208.551 184.807 208.551Z" fill="white"/>
<path opacity="0.1" d="M184.808 199.077H205.048C205.185 199.077 205.316 199.132 205.413 199.229C205.51 199.326 205.564 199.457 205.564 199.594V202.301L195.014 204.376C194.949 204.389 194.883 204.389 194.818 204.376L184.278 202.301V199.594C184.278 199.525 184.292 199.457 184.318 199.393C184.345 199.33 184.384 199.272 184.434 199.224C184.483 199.176 184.542 199.138 184.606 199.113C184.67 199.088 184.739 199.076 184.808 199.077Z" fill="black"/>
<path d="M184.37 195.611H190.553V194.574C190.554 194.145 190.725 193.735 191.028 193.432C191.331 193.129 191.742 192.958 192.17 192.957H197.694C198.123 192.958 198.534 193.129 198.837 193.432C199.14 193.735 199.31 194.145 199.311 194.574V195.611H205.491C205.558 195.611 205.625 195.624 205.686 195.65C205.748 195.676 205.805 195.713 205.852 195.761C205.899 195.808 205.937 195.864 205.963 195.926C205.988 195.988 206.001 196.055 206.001 196.122V201.228C206.001 201.346 205.96 201.46 205.885 201.551C205.81 201.642 205.706 201.705 205.591 201.728L195.017 203.806C194.951 203.816 194.884 203.816 194.818 203.806L184.258 201.728C184.142 201.705 184.038 201.642 183.963 201.551C183.889 201.46 183.847 201.346 183.847 201.228V196.122C183.847 196.053 183.86 195.986 183.887 195.923C183.913 195.86 183.952 195.803 184.001 195.756C184.05 195.708 184.107 195.671 184.171 195.646C184.234 195.621 184.302 195.609 184.37 195.611ZM198.082 194.574C198.081 194.471 198.04 194.373 197.968 194.3C197.895 194.227 197.797 194.185 197.694 194.183H192.17C192.067 194.185 191.969 194.227 191.896 194.299C191.823 194.372 191.781 194.471 191.779 194.574V195.611H198.075L198.082 194.574Z" fill="#1B29CB"/>
<path opacity="0.6" d="M184.37 195.611H190.553V194.574C190.554 194.145 190.725 193.735 191.028 193.432C191.331 193.129 191.742 192.958 192.17 192.957H197.694C198.123 192.958 198.534 193.129 198.837 193.432C199.14 193.735 199.31 194.145 199.311 194.574V195.611H205.491C205.558 195.611 205.625 195.624 205.686 195.65C205.748 195.676 205.805 195.713 205.852 195.761C205.899 195.808 205.937 195.864 205.963 195.926C205.988 195.988 206.001 196.055 206.001 196.122V201.228C206.001 201.346 205.96 201.46 205.885 201.551C205.81 201.642 205.706 201.705 205.591 201.728L195.017 203.806C194.951 203.816 194.884 203.816 194.818 203.806L184.258 201.728C184.142 201.705 184.038 201.642 183.963 201.551C183.889 201.46 183.847 201.346 183.847 201.228V196.122C183.847 196.053 183.86 195.986 183.887 195.923C183.913 195.86 183.952 195.803 184.001 195.756C184.05 195.708 184.107 195.671 184.171 195.646C184.234 195.621 184.302 195.609 184.37 195.611ZM198.082 194.574C198.081 194.471 198.04 194.373 197.968 194.3C197.895 194.227 197.797 194.185 197.694 194.183H192.17C192.067 194.185 191.969 194.227 191.896 194.299C191.823 194.372 191.781 194.471 191.779 194.574V195.611H198.075L198.082 194.574Z" fill="white"/>
<path d="M193.838 204.771H196.018C196.289 204.771 196.509 204.551 196.509 204.28V202.902C196.509 202.631 196.289 202.411 196.018 202.411H193.838C193.567 202.411 193.348 202.631 193.348 202.902V204.28C193.348 204.551 193.567 204.771 193.838 204.771Z" fill="#1B29CB"/>
<path opacity="0.3" d="M193.838 204.771H196.018C196.289 204.771 196.509 204.551 196.509 204.28V202.902C196.509 202.631 196.289 202.411 196.018 202.411H193.838C193.567 202.411 193.348 202.631 193.348 202.902V204.28C193.348 204.551 193.567 204.771 193.838 204.771Z" fill="white"/>
<path d="M184.807 147.594H205.049C205.335 147.594 205.566 147.362 205.566 147.077V138.634C205.566 138.348 205.335 138.117 205.049 138.117H184.807C184.521 138.117 184.29 138.348 184.29 138.634V147.077C184.29 147.362 184.521 147.594 184.807 147.594Z" fill="#1B29CB"/>
<path opacity="0.6" d="M184.807 147.594H205.049C205.335 147.594 205.566 147.362 205.566 147.077V138.634C205.566 138.348 205.335 138.117 205.049 138.117H184.807C184.521 138.117 184.29 138.348 184.29 138.634V147.077C184.29 147.362 184.521 147.594 184.807 147.594Z" fill="white"/>
<path opacity="0.1" d="M184.812 138.12H205.051C205.188 138.12 205.32 138.175 205.417 138.272C205.514 138.368 205.568 138.5 205.568 138.637V141.344L195.018 143.419C194.953 143.432 194.887 143.432 194.822 143.419L184.295 141.344V138.637C184.295 138.5 184.349 138.368 184.446 138.272C184.543 138.175 184.675 138.12 184.812 138.12Z" fill="black"/>
<path d="M184.37 134.654H190.553V133.617C190.554 133.188 190.725 132.778 191.028 132.475C191.331 132.172 191.742 132.001 192.17 132H197.694C197.908 131.999 198.119 132.04 198.317 132.12C198.514 132.201 198.694 132.32 198.845 132.47C198.997 132.62 199.117 132.799 199.199 132.996C199.282 133.193 199.324 133.404 199.325 133.617V134.654H205.504C205.64 134.654 205.77 134.708 205.865 134.804C205.961 134.899 206.015 135.029 206.015 135.165V140.271C206.015 140.389 205.974 140.503 205.899 140.594C205.824 140.686 205.72 140.748 205.604 140.771L195.017 142.836C194.951 142.849 194.884 142.849 194.818 142.836L184.258 140.758C184.142 140.735 184.038 140.672 183.963 140.581C183.888 140.49 183.847 140.376 183.847 140.258V135.165C183.847 135.096 183.86 135.029 183.887 134.966C183.913 134.903 183.952 134.846 184.001 134.799C184.05 134.751 184.107 134.714 184.171 134.689C184.234 134.664 184.302 134.652 184.37 134.654ZM198.082 133.617C198.082 133.514 198.041 133.415 197.969 133.342C197.896 133.269 197.797 133.227 197.694 133.226H192.17C192.068 133.227 191.969 133.268 191.896 133.34C191.823 133.413 191.781 133.511 191.779 133.614V134.651H198.075L198.082 133.617Z" fill="#1B29CB"/>
<path opacity="0.6" d="M184.37 134.654H190.553V133.617C190.554 133.188 190.725 132.778 191.028 132.475C191.331 132.172 191.742 132.001 192.17 132H197.694C197.908 131.999 198.119 132.04 198.317 132.12C198.514 132.201 198.694 132.32 198.845 132.47C198.997 132.62 199.117 132.799 199.199 132.996C199.282 133.193 199.324 133.404 199.325 133.617V134.654H205.504C205.64 134.654 205.77 134.708 205.865 134.804C205.961 134.899 206.015 135.029 206.015 135.165V140.271C206.015 140.389 205.974 140.503 205.899 140.594C205.824 140.686 205.72 140.748 205.604 140.771L195.017 142.836C194.951 142.849 194.884 142.849 194.818 142.836L184.258 140.758C184.142 140.735 184.038 140.672 183.963 140.581C183.888 140.49 183.847 140.376 183.847 140.258V135.165C183.847 135.096 183.86 135.029 183.887 134.966C183.913 134.903 183.952 134.846 184.001 134.799C184.05 134.751 184.107 134.714 184.171 134.689C184.234 134.664 184.302 134.652 184.37 134.654ZM198.082 133.617C198.082 133.514 198.041 133.415 197.969 133.342C197.896 133.269 197.797 133.227 197.694 133.226H192.17C192.068 133.227 191.969 133.268 191.896 133.34C191.823 133.413 191.781 133.511 191.779 133.614V134.651H198.075L198.082 133.617Z" fill="white"/>
<path d="M193.838 143.813H196.018C196.289 143.813 196.509 143.594 196.509 143.323V141.945C196.509 141.674 196.289 141.454 196.018 141.454H193.838C193.567 141.454 193.348 141.674 193.348 141.945V143.323C193.348 143.594 193.567 143.813 193.838 143.813Z" fill="#1B29CB"/>
<path opacity="0.3" d="M193.838 143.813H196.018C196.289 143.813 196.509 143.594 196.509 143.323V141.945C196.509 141.674 196.289 141.454 196.018 141.454H193.838C193.567 141.454 193.348 141.674 193.348 141.945V143.323C193.348 143.594 193.567 143.813 193.838 143.813Z" fill="white"/>
<path d="M187.457 178.076H205.052C205.19 178.075 205.321 178.019 205.418 177.922C205.515 177.825 205.569 177.693 205.569 177.555V169.116C205.569 169.046 205.554 168.977 205.526 168.913C205.514 168.883 205.498 168.854 205.48 168.827C205.461 168.799 205.439 168.773 205.413 168.751C205.366 168.703 205.309 168.664 205.247 168.638C205.184 168.612 205.117 168.599 205.049 168.599H188.388C188.527 169.755 188.572 170.921 188.524 172.085C188.524 172.273 188.524 172.462 188.494 172.648C188.474 172.996 188.444 173.347 188.405 173.695C188.237 175.183 187.92 176.651 187.457 178.076Z" fill="#1B29CB"/>
<path opacity="0.6" d="M187.457 178.076H205.052C205.19 178.075 205.321 178.019 205.418 177.922C205.515 177.825 205.569 177.693 205.569 177.555V169.116C205.569 169.046 205.554 168.977 205.526 168.913C205.514 168.883 205.498 168.854 205.48 168.827C205.461 168.799 205.439 168.773 205.413 168.751C205.366 168.703 205.309 168.664 205.247 168.638C205.184 168.612 205.117 168.599 205.049 168.599H188.388C188.527 169.755 188.572 170.921 188.524 172.085C188.524 172.273 188.524 172.462 188.494 172.648C188.474 172.996 188.444 173.347 188.405 173.695C188.237 175.183 187.92 176.651 187.457 178.076Z" fill="white"/>
<path opacity="0.1" d="M188.387 168.599C188.526 169.755 188.571 170.921 188.523 172.085C188.523 172.273 188.523 172.462 188.493 172.648L193.358 173.602L194.842 173.894C194.906 173.91 194.974 173.91 195.038 173.894L196.519 173.605L205.575 171.823V169.112C205.574 169.044 205.56 168.977 205.535 168.913C205.523 168.883 205.507 168.854 205.489 168.827C205.47 168.799 205.448 168.773 205.422 168.751C205.375 168.703 205.318 168.664 205.256 168.638C205.193 168.612 205.126 168.599 205.058 168.599H188.387Z" fill="black"/>
<path d="M187.692 165.133H190.552V164.096C190.553 163.667 190.724 163.256 191.027 162.953C191.33 162.65 191.741 162.479 192.169 162.479H197.69C198.119 162.479 198.53 162.649 198.834 162.952C199.138 163.255 199.309 163.666 199.31 164.096V165.133H205.49C205.625 165.133 205.755 165.186 205.851 165.282C205.946 165.378 206 165.508 206 165.643V170.746C206 170.864 205.959 170.979 205.885 171.071C205.81 171.163 205.705 171.226 205.589 171.25H205.566L196.51 173.036L195.016 173.321C194.951 173.334 194.885 173.334 194.82 173.321L193.336 173.029L188.508 172.078C188.602 169.729 188.322 167.381 187.679 165.119L187.692 165.133ZM198.081 164.096C198.079 163.993 198.037 163.895 197.964 163.822C197.891 163.75 197.792 163.709 197.69 163.708H192.169C192.067 163.709 191.968 163.75 191.896 163.822C191.823 163.895 191.782 163.993 191.781 164.096V165.133H198.077L198.081 164.096Z" fill="#1B29CB"/>
<path opacity="0.6" d="M187.692 165.133H190.552V164.096C190.553 163.667 190.724 163.256 191.027 162.953C191.33 162.65 191.741 162.479 192.169 162.479H197.69C198.119 162.479 198.53 162.649 198.834 162.952C199.138 163.255 199.309 163.666 199.31 164.096V165.133H205.49C205.625 165.133 205.755 165.186 205.851 165.282C205.946 165.378 206 165.508 206 165.643V170.746C206 170.864 205.959 170.979 205.885 171.071C205.81 171.163 205.705 171.226 205.589 171.25H205.566L196.51 173.036L195.016 173.321C194.951 173.334 194.885 173.334 194.82 173.321L193.336 173.029L188.508 172.078C188.602 169.729 188.322 167.381 187.679 165.119L187.692 165.133ZM198.081 164.096C198.079 163.993 198.037 163.895 197.964 163.822C197.891 163.75 197.792 163.709 197.69 163.708H192.169C192.067 163.709 191.968 163.75 191.896 163.822C191.823 163.895 191.782 163.993 191.781 164.096V165.133H198.077L198.081 164.096Z" fill="white"/>
<path d="M193.838 174.295H196.018C196.289 174.295 196.509 174.075 196.509 173.805V172.426C196.509 172.155 196.289 171.936 196.018 171.936H193.838C193.567 171.936 193.348 172.155 193.348 172.426V173.805C193.348 174.075 193.567 174.295 193.838 174.295Z" fill="#1B29CB"/>
<path opacity="0.3" d="M193.838 174.295H196.018C196.289 174.295 196.509 174.075 196.509 173.805V172.426C196.509 172.155 196.289 171.936 196.018 171.936H193.838C193.567 171.936 193.348 172.155 193.348 172.426V173.805C193.348 174.075 193.567 174.295 193.838 174.295Z" fill="white"/>
<path d="M179.013 166.541H149.926C149.516 166.541 149.184 166.873 149.184 167.283V179.414C149.184 179.824 149.516 180.157 149.926 180.157H179.013C179.423 180.157 179.755 179.824 179.755 179.414V167.283C179.755 166.873 179.423 166.541 179.013 166.541Z" fill="#1B29CB"/>
<path d="M168.434 164.373H160.498C159.897 164.373 159.32 164.133 158.894 163.708C158.469 163.282 158.229 162.705 158.229 162.104V160.066C158.229 159.464 158.469 158.887 158.894 158.462C159.32 158.036 159.897 157.797 160.498 157.796H168.434C169.036 157.796 169.614 158.035 170.039 158.461C170.465 158.886 170.704 159.464 170.704 160.066V162.094C170.706 162.393 170.648 162.689 170.534 162.965C170.421 163.242 170.254 163.493 170.043 163.705C169.832 163.917 169.581 164.085 169.305 164.2C169.029 164.314 168.733 164.373 168.434 164.373ZM160.498 159.463C160.339 159.464 160.186 159.528 160.073 159.641C159.959 159.754 159.895 159.906 159.892 160.066V162.094C159.892 162.256 159.957 162.412 160.071 162.527C160.186 162.642 160.342 162.707 160.505 162.707H168.441C168.604 162.707 168.76 162.642 168.875 162.527C168.989 162.412 169.054 162.256 169.054 162.094V160.066C169.054 159.903 168.989 159.747 168.875 159.632C168.76 159.517 168.604 159.453 168.441 159.453L160.498 159.463Z" fill="#1B29CB"/>
<path opacity="0.2" d="M179.009 166.541H149.929C149.831 166.541 149.735 166.559 149.644 166.597C149.554 166.634 149.471 166.688 149.402 166.757C149.333 166.826 149.278 166.908 149.24 166.998C149.203 167.089 149.184 167.186 149.184 167.283V171.177L164.327 174.159C164.42 174.179 164.516 174.179 164.608 174.159L179.755 171.177V167.283C179.755 167.186 179.736 167.089 179.698 166.998C179.661 166.908 179.606 166.826 179.536 166.757C179.467 166.688 179.385 166.634 179.294 166.597C179.204 166.559 179.107 166.541 179.009 166.541Z" fill="black"/>
<path d="M179.774 170.339L164.601 173.321C164.507 173.338 164.41 173.338 164.316 173.321L149.143 170.339C148.976 170.306 148.826 170.216 148.718 170.085C148.61 169.954 148.55 169.79 148.55 169.62V162.297C148.55 162.201 148.569 162.105 148.606 162.017C148.642 161.928 148.696 161.847 148.764 161.779C148.832 161.711 148.913 161.657 149.002 161.62C149.091 161.583 149.186 161.564 149.282 161.564H179.641C179.738 161.564 179.833 161.583 179.922 161.62C180.01 161.657 180.091 161.711 180.159 161.779C180.227 161.847 180.281 161.928 180.318 162.017C180.355 162.105 180.374 162.201 180.374 162.297V169.633C180.37 169.802 180.309 169.964 180.2 170.093C180.09 170.221 179.94 170.308 179.774 170.339Z" fill="#1B29CB"/>
<path d="M166.04 171.336H162.902C162.514 171.336 162.2 171.65 162.2 172.038V174.023C162.2 174.411 162.514 174.726 162.902 174.726H166.04C166.428 174.726 166.743 174.411 166.743 174.023V172.038C166.743 171.65 166.428 171.336 166.04 171.336Z" fill="#1B29CB"/>
<path opacity="0.4" d="M166.04 171.336H162.902C162.514 171.336 162.2 171.65 162.2 172.038V174.023C162.2 174.411 162.514 174.726 162.902 174.726H166.04C166.428 174.726 166.743 174.411 166.743 174.023V172.038C166.743 171.65 166.428 171.336 166.04 171.336Z" fill="black"/>
<path d="M219.178 174.054C219.559 174.839 219.841 175.581 220.172 176.357C220.504 177.132 220.746 177.904 221.004 178.696C221.528 180.302 221.915 181.949 222.16 183.62C222.194 183.829 222.21 184.054 222.233 184.283L222.267 184.614C222.267 184.674 222.267 184.717 222.267 184.786V185.002C222.278 185.504 222.234 186.007 222.137 186.5C221.973 187.357 221.739 188.199 221.438 189.018C220.872 190.575 220.167 192.078 219.331 193.508L217.647 192.795C218.022 191.284 218.4 189.744 218.685 188.256C218.824 187.543 218.922 186.823 218.979 186.099C218.999 185.803 218.992 185.505 218.96 185.211L218.923 185.002L218.877 184.737C218.84 184.561 218.817 184.386 218.774 184.207C218.444 182.744 218.016 181.305 217.495 179.899C217.243 179.18 216.965 178.464 216.686 177.745C216.408 177.026 216.1 176.304 215.815 175.641L219.178 174.054Z" fill="#7F3E3B"/>
<path d="M217.722 192.354L216.43 193.614L219.25 194.939C219.25 194.939 219.932 193.746 219.462 192.666L217.722 192.354Z" fill="#7F3E3B"/>
<path d="M215.386 195.492L217.765 196.466L219.247 194.925L216.427 193.613L215.386 195.492Z" fill="#7F3E3B"/>
<path opacity="0.2" d="M167.123 194.134C171.812 193.609 176.24 191.705 179.847 188.664C183.454 185.622 186.079 181.58 187.388 177.047C188.698 172.514 188.634 167.695 187.205 163.198C185.776 158.702 183.046 154.73 179.36 151.785C175.673 148.84 171.197 147.054 166.495 146.653C161.794 146.252 157.08 147.254 152.948 149.532C148.816 151.81 145.453 155.262 143.283 159.452C141.113 163.641 140.234 168.38 140.757 173.07C141.104 176.184 142.062 179.2 143.575 181.944C145.089 184.689 147.128 187.108 149.576 189.064C152.025 191.02 154.835 192.475 157.845 193.345C160.856 194.215 164.009 194.483 167.123 194.134Z" fill="#1B29CB"/>
<path opacity="0.1" d="M149.764 151.63L186.048 180.61C186.204 180.279 186.35 179.948 186.492 179.616C187.402 177.453 187.982 175.165 188.215 172.83L156.875 147.806C154.303 148.663 151.898 149.957 149.764 151.63Z" fill="white"/>
<path opacity="0.1" d="M141.393 164.331L175.503 191.585C178.744 189.895 181.554 187.483 183.714 184.534L146.463 154.765C144.062 157.523 142.328 160.796 141.393 164.331Z" fill="white"/>
<path d="M223.244 197.219C223.2 196.616 223.003 196.034 222.67 195.529C222.429 195.157 222.091 194.858 221.693 194.664L219.43 193.554C217.925 192.808 216.411 192.083 214.897 191.357C213.382 190.631 211.858 189.919 210.341 189.2C208.823 188.481 207.292 187.781 205.758 187.096C202.696 185.708 199.614 184.358 196.513 183.046C194.962 182.384 193.408 181.747 191.841 181.124C191.383 180.944 191.011 180.597 190.8 180.153C190.589 179.708 190.555 179.201 190.704 178.732C192.802 172.117 192.324 164.954 189.367 158.677C186.409 152.4 181.189 147.471 174.752 144.878C168.316 142.285 161.137 142.218 154.654 144.692C148.17 147.166 142.861 151.997 139.787 158.218C136.714 164.44 136.103 171.593 138.079 178.245C140.054 184.897 144.469 190.558 150.44 194.094C156.41 197.63 163.496 198.781 170.279 197.315C177.062 195.85 183.041 191.877 187.019 186.191C187.301 185.787 187.726 185.505 188.207 185.402C188.689 185.299 189.192 185.383 189.614 185.638C191.063 186.499 192.519 187.346 193.981 188.179C196.904 189.845 199.849 191.468 202.815 193.05C204.297 193.852 205.798 194.624 207.272 195.409C208.747 196.195 210.254 196.96 211.755 197.729C213.257 198.498 214.738 199.25 216.259 199.992L218.515 201.112C218.912 201.311 219.355 201.399 219.798 201.364C220.4 201.321 220.981 201.124 221.484 200.791C222.085 200.422 222.568 199.891 222.88 199.259C223.191 198.627 223.317 197.919 223.244 197.219ZM154.861 189.889C151.009 187.988 147.807 184.988 145.66 181.267C143.513 177.547 142.518 173.273 142.8 168.987C143.083 164.701 144.63 160.594 147.246 157.187C149.862 153.78 153.429 151.226 157.497 149.846C161.565 148.467 165.951 148.325 170.1 149.438C174.248 150.552 177.974 152.87 180.805 156.101C183.636 159.331 185.445 163.329 186.004 167.588C186.563 171.847 185.846 176.176 183.944 180.028C182.682 182.585 180.929 184.868 178.784 186.748C176.64 188.628 174.146 190.066 171.445 190.982C168.744 191.898 165.89 192.273 163.044 192.085C160.199 191.897 157.418 191.151 154.861 189.889Z" fill="#1B29CB"/>
<path d="M206.681 163.811C206.681 164.006 206.578 164.165 206.449 164.165C206.32 164.165 206.217 164.006 206.217 163.811C206.217 163.615 206.32 163.453 206.449 163.453C206.578 163.453 206.681 163.612 206.681 163.811Z" fill="#263238"/>
<path d="M206.595 164.165C206.362 164.765 206.047 165.331 205.66 165.845C205.794 165.941 205.948 166.006 206.11 166.037C206.272 166.067 206.438 166.062 206.598 166.021L206.595 164.165Z" fill="#630F0F"/>
<path d="M207.376 162.717C207.4 162.717 207.424 162.708 207.443 162.694C207.462 162.679 207.476 162.659 207.483 162.636C207.491 162.613 207.491 162.589 207.483 162.566C207.476 162.543 207.462 162.523 207.442 162.508C207.296 162.399 207.126 162.325 206.945 162.294C206.765 162.263 206.58 162.275 206.405 162.33C206.39 162.334 206.375 162.341 206.363 162.352C206.35 162.362 206.34 162.375 206.332 162.389C206.325 162.404 206.321 162.419 206.32 162.436C206.319 162.452 206.322 162.468 206.328 162.483C206.333 162.498 206.342 162.512 206.354 162.523C206.365 162.535 206.379 162.544 206.394 162.55C206.409 162.555 206.425 162.558 206.442 162.557C206.458 162.556 206.474 162.552 206.488 162.545C206.627 162.504 206.774 162.495 206.917 162.521C207.06 162.547 207.194 162.606 207.31 162.694C207.329 162.709 207.352 162.718 207.376 162.717Z" fill="#263238"/>
<path d="M213.386 165.289C213.034 167.072 212.686 170.336 213.932 171.522C213.932 171.522 213.445 173.328 210.138 173.328C206.493 173.328 208.399 171.522 208.399 171.522C210.387 171.048 210.334 169.574 209.986 168.208L213.386 165.289Z" fill="#7F3E3B"/>
<path d="M214.572 170.405C214.847 170.494 214.489 172.131 214.489 172.131C214.489 172.131 214.035 173.274 208.395 172.877C207.961 172.844 208.127 171.273 208.541 171.044C209.877 170.315 213.684 170.113 214.572 170.405Z" fill="#263238"/>
<path d="M226.026 238.868C226.331 238.838 226.775 238.278 226.901 238.072C226.906 238.063 226.909 238.053 226.909 238.043C226.909 238.032 226.906 238.022 226.901 238.013C226.895 238.003 226.887 237.995 226.877 237.99C226.867 237.986 226.856 237.984 226.845 237.986C226.811 237.986 226.009 238.139 225.814 238.45C225.793 238.483 225.78 238.519 225.774 238.558C225.768 238.596 225.771 238.635 225.781 238.672C225.824 238.818 225.907 238.858 225.973 238.868H226.026ZM226.725 238.129C226.51 238.427 226.155 238.775 225.986 238.752C225.97 238.752 225.92 238.752 225.89 238.639C225.884 238.617 225.882 238.595 225.886 238.572C225.889 238.55 225.897 238.529 225.91 238.51C226.138 238.306 226.422 238.173 226.725 238.129Z" fill="#1B29CB"/>
<path d="M226.693 238.129C226.752 238.124 226.811 238.114 226.868 238.099C226.878 238.096 226.887 238.09 226.894 238.083C226.901 238.075 226.906 238.066 226.908 238.056C226.91 238.045 226.909 238.035 226.906 238.025C226.902 238.015 226.896 238.006 226.888 237.999C226.868 237.98 226.332 237.522 225.967 237.559C225.923 237.562 225.881 237.574 225.842 237.594C225.803 237.615 225.769 237.643 225.742 237.678C225.711 237.708 225.691 237.748 225.687 237.791C225.683 237.834 225.694 237.878 225.719 237.913C225.838 238.102 226.361 238.162 226.693 238.129ZM226.719 238.013C226.388 238.052 225.904 237.986 225.811 237.85C225.811 237.85 225.785 237.807 225.831 237.748C225.85 237.726 225.873 237.708 225.898 237.695C225.924 237.682 225.952 237.674 225.98 237.671C226.255 237.709 226.512 237.828 226.719 238.013Z" fill="#1B29CB"/>
<path d="M203.247 247.582C203.498 247.581 203.749 247.559 203.996 247.516C204.007 247.513 204.017 247.507 204.025 247.499C204.033 247.491 204.039 247.481 204.042 247.469C204.044 247.458 204.043 247.445 204.037 247.435C204.032 247.424 204.023 247.415 204.012 247.41C203.976 247.387 203.128 246.903 202.72 247.012C202.644 247.032 202.578 247.08 202.538 247.148C202.512 247.185 202.498 247.229 202.498 247.274C202.498 247.319 202.512 247.363 202.538 247.4C202.644 247.546 202.936 247.582 203.247 247.582ZM203.81 247.43C203.356 247.493 202.74 247.489 202.627 247.334C202.611 247.314 202.598 247.277 202.627 247.204C202.64 247.184 202.656 247.166 202.675 247.153C202.695 247.139 202.717 247.129 202.74 247.125C203.002 247.055 203.512 247.277 203.81 247.43Z" fill="#1B29CB"/>
<path d="M203.969 247.516C203.981 247.519 203.994 247.519 204.006 247.516C204.013 247.509 204.019 247.501 204.023 247.492C204.027 247.483 204.029 247.473 204.029 247.463C204.029 247.436 203.959 246.78 203.651 246.525C203.605 246.487 203.552 246.459 203.496 246.441C203.439 246.424 203.379 246.419 203.32 246.426C203.161 246.442 203.118 246.522 203.104 246.588C203.061 246.863 203.644 247.39 203.936 247.522L203.969 247.516ZM203.376 246.522C203.45 246.524 203.521 246.551 203.578 246.598C203.762 246.808 203.878 247.069 203.91 247.347C203.608 247.168 203.214 246.754 203.247 246.588C203.247 246.588 203.247 246.535 203.359 246.525L203.376 246.522Z" fill="#1B29CB"/>
<path d="M206.656 247.459H204.224L203.979 241.819H206.415L206.656 247.459Z" fill="#7F3E3B"/>
<path d="M229.029 236.29L227.131 237.811L222.299 234.457L224.201 232.937L229.029 236.29Z" fill="#7F3E3B"/>
<path d="M226.783 237.714L228.724 235.789C228.759 235.755 228.804 235.734 228.852 235.73C228.9 235.725 228.949 235.736 228.989 235.762L230.855 236.962C230.9 236.991 230.938 237.03 230.966 237.076C230.994 237.122 231.011 237.174 231.016 237.228C231.02 237.282 231.013 237.336 230.994 237.386C230.974 237.436 230.944 237.482 230.905 237.518C230.215 238.181 229.848 238.466 228.993 239.311C228.469 239.835 227.187 241.392 226.461 242.111C225.735 242.83 224.927 242.207 225.162 241.846C226.206 240.236 226.561 238.907 226.607 238.098C226.617 237.953 226.679 237.817 226.783 237.714Z" fill="#263238"/>
<path d="M204.241 247.178H206.891C206.94 247.177 206.986 247.194 207.024 247.224C207.061 247.254 207.087 247.296 207.097 247.343L207.577 249.507C207.589 249.559 207.59 249.613 207.578 249.665C207.566 249.717 207.542 249.766 207.508 249.807C207.475 249.849 207.432 249.882 207.384 249.905C207.336 249.928 207.283 249.939 207.229 249.938C206.268 249.938 204.883 249.868 203.677 249.868C202.269 249.868 201.053 249.945 199.399 249.945C198.405 249.945 198.124 248.934 198.541 248.841C200.446 248.427 202.001 248.381 203.644 247.367C203.821 247.249 204.028 247.184 204.241 247.178Z" fill="#263238"/>
<path d="M218.731 172.25C220.842 173.245 221.714 180.057 221.714 180.057L216.859 181.963C216.106 180.118 215.495 178.218 215.033 176.28C214.354 173.205 216.561 171.217 218.731 172.25Z" fill="#1B29CB"/>
<path opacity="0.3" d="M218.731 172.25C220.842 173.245 221.714 180.057 221.714 180.057L216.859 181.963C216.106 180.118 215.495 178.218 215.033 176.28C214.354 173.205 216.561 171.217 218.731 172.25Z" fill="white"/>
<path opacity="0.2" d="M215.588 174.248C215.423 174.168 215.25 174.105 215.071 174.06C214.878 174.786 214.871 175.55 215.051 176.28C215.511 178.218 216.121 180.118 216.874 181.963L218.474 181.336C218.18 179.557 217.275 175.057 215.588 174.248Z" fill="black"/>
<path d="M204.655 172.198C204.655 172.198 202.063 175.124 204.509 193.239H217.531C217.621 191.251 216.365 181.489 218.293 172.072C216.853 171.795 215.397 171.611 213.933 171.522C212.09 171.416 210.242 171.416 208.399 171.522C207.135 171.649 205.883 171.875 204.655 172.198Z" fill="#1B29CB"/>
<path opacity="0.3" d="M204.655 172.198C204.655 172.198 202.063 175.124 204.509 193.239H217.531C217.621 191.251 216.365 181.489 218.293 172.072C216.853 171.795 215.397 171.611 213.933 171.522C212.09 171.416 210.242 171.416 208.399 171.522C207.135 171.649 205.883 171.875 204.655 172.198Z" fill="white"/>
<path opacity="0.2" d="M207.282 176.081C206.692 174.312 205.274 173.745 203.829 174.795C203.537 176.512 203.332 179.279 203.567 183.666L206.109 183.643C206.109 183.643 208.153 178.715 207.282 176.081Z" fill="black"/>
<path d="M206.804 175.355C206.698 176.243 206.552 177.049 206.39 177.887C206.227 178.725 206.039 179.544 205.823 180.369C205.398 182.055 204.819 183.699 204.093 185.28C203.905 185.687 203.686 186.088 203.454 186.489C203.335 186.691 203.215 186.893 203.079 187.092C202.903 187.368 202.695 187.623 202.46 187.851C202.003 188.275 201.46 188.597 200.869 188.795C200.389 188.963 199.893 189.08 199.388 189.143C198.488 189.255 197.577 189.266 196.674 189.176C196.232 189.141 195.802 189.085 195.382 189.007C194.951 188.931 194.544 188.852 194.1 188.736L194.315 186.92C195.827 186.856 197.329 186.634 198.795 186.257C199.093 186.169 199.383 186.053 199.66 185.912C199.842 185.829 200.001 185.703 200.124 185.545C200.097 185.568 200.339 185.167 200.482 184.882C200.624 184.597 200.783 184.219 200.919 183.888C201.197 183.205 201.436 182.483 201.655 181.744C201.873 181.005 202.066 180.253 202.244 179.491C202.423 178.729 202.576 177.96 202.741 177.171C202.907 176.382 203.026 175.6 203.146 174.868L206.804 175.355Z" fill="#7F3E3B"/>
<path d="M207.908 173.984C208.593 176.207 205.81 182.834 205.81 182.834L199.948 181.36C200.307 179.265 200.911 177.22 201.748 175.266C203.636 171.131 207.082 171.303 207.908 173.984Z" fill="#1B29CB"/>
<path opacity="0.3" d="M207.908 173.984C208.593 176.207 205.81 182.834 205.81 182.834L199.948 181.36C200.307 179.265 200.911 177.22 201.748 175.266C203.636 171.131 207.082 171.303 207.908 173.984Z" fill="white"/>
<path d="M194.4 186.93L191.644 186.86L192.969 189.727C192.969 189.727 194.089 189.876 195.01 188.361L195.981 187.205L194.864 186.98C194.711 186.95 194.556 186.933 194.4 186.93Z" fill="#7F3E3B"/>
<path d="M189.904 187.394L191.485 189.77L192.973 189.727L191.644 186.86L189.904 187.394Z" fill="#7F3E3B"/>
<path opacity="0.2" d="M203.983 241.823L204.106 244.729H206.542L206.416 241.823H203.983Z" fill="black"/>
<path opacity="0.2" d="M224.201 232.937L222.299 234.457L224.791 236.187L226.693 234.666L224.201 232.937Z" fill="black"/>
<path d="M213.247 163.38C213.101 165.792 213.141 167.211 211.921 168.45C210.092 170.312 207.113 169.212 206.537 166.793C206.016 164.626 206.345 161.047 208.704 160.083C209.224 159.868 209.791 159.79 210.35 159.856C210.909 159.922 211.442 160.13 211.897 160.461C212.353 160.792 212.716 161.234 212.953 161.745C213.189 162.256 213.29 162.819 213.247 163.38Z" fill="#7F3E3B"/>
<path d="M215.196 161.14C215.196 161.14 216.465 161.517 216.068 162.966C215.468 165.166 214.056 167.697 212.234 167.856C209.964 168.059 208.94 165.716 208.642 163.294C207.283 162.362 206.276 161.491 206.601 160.523C207.098 159.032 208.9 157.747 211.77 158.078C214.64 158.409 216.068 160.265 215.196 161.14Z" fill="#263238"/>
<path d="M210.021 163.791C209.977 164.389 209.737 164.956 209.339 165.404C208.808 165.988 208.252 165.623 208.159 164.914C208.076 164.271 208.248 163.194 208.898 162.873C209.547 162.551 210.064 163.068 210.021 163.791Z" fill="#7F3E3B"/>
<path d="M209.127 193.239C209.127 193.239 208.306 209.648 209.906 216.6C212.441 227.608 223.585 236.429 223.585 236.429L227.163 233.563C227.163 233.563 217.995 226.74 217.17 217.574C216.431 209.343 217.524 199.89 217.524 193.239H209.127Z" fill="#1B29CB"/>
<path opacity="0.2" d="M209.127 193.239C209.127 193.239 208.306 209.648 209.906 216.6C212.441 227.608 223.585 236.429 223.585 236.429L227.163 233.563C227.163 233.563 217.995 226.74 217.17 217.574C216.431 209.343 217.524 199.89 217.524 193.239H209.127Z" fill="black"/>
<path opacity="0.2" d="M210.351 198.099C210.02 197.46 209.374 199.365 208.923 201.811C208.923 205.184 208.982 209.021 209.277 212.272C211.527 208.113 211.05 199.425 210.351 198.099Z" fill="black"/>
<path d="M221.96 235.722L223.319 236.776L227.451 233.426L226.212 232.303L221.96 235.722Z" fill="#2C6BDB"/>
<path opacity="0.4" d="M221.96 235.722L223.319 236.776L227.451 233.426L226.212 232.303L221.96 235.722Z" fill="#FAFAFA"/>
<path d="M204.508 193.239C204.508 193.239 200.844 208.78 200.585 216.203C200.297 224.53 203.2 244.166 203.2 244.166H207.325C207.325 244.166 207.832 224.377 208.017 216.792C208.216 208.525 213.067 193.239 213.067 193.239H204.508Z" fill="#1B29CB"/>
<path opacity="0.2" d="M204.508 193.239C204.508 193.239 200.844 208.78 200.585 216.203C200.297 224.53 203.2 244.166 203.2 244.166H207.325C207.325 244.166 207.832 224.377 208.017 216.792C208.216 208.525 213.067 193.239 213.067 193.239H204.508Z" fill="black"/>
<path d="M202.41 242.522C202.39 242.522 202.642 244.236 202.642 244.236H207.659L207.794 242.708L202.41 242.522Z" fill="#2C6BDB"/>
<path opacity="0.4" d="M202.41 242.522C202.39 242.522 202.642 244.236 202.642 244.236H207.659L207.794 242.708L202.41 242.522Z" fill="#FAFAFA"/>
<circle cx="176.5" cy="51.5" r="51.5" fill="white"/>
<circle cx="176.5" cy="51.5" r="30" fill="#1B29CB" fill-opacity="0.22" stroke="#1B29CB" stroke-width="3"/>
<path d="M167.639 64V60.7642L176.223 52.3487C177.044 51.5196 177.729 50.7831 178.276 50.1392C178.823 49.4953 179.234 48.8714 179.507 48.2678C179.781 47.6641 179.918 47.0201 179.918 46.3359C179.918 45.5552 179.741 44.8871 179.387 44.3317C179.033 43.7682 178.546 43.3336 177.926 43.0277C177.306 42.7218 176.602 42.5689 175.813 42.5689C175 42.5689 174.288 42.7379 173.676 43.076C173.064 43.406 172.589 43.8769 172.251 44.4886C171.921 45.1004 171.756 45.8288 171.756 46.674H167.494C167.494 45.1044 167.852 43.7401 168.569 42.581C169.285 41.4219 170.271 40.5244 171.527 39.8885C172.79 39.2526 174.239 38.9347 175.873 38.9347C177.531 38.9347 178.988 39.2446 180.244 39.8643C181.5 40.4841 182.474 41.3333 183.166 42.4119C183.866 43.4905 184.216 44.7221 184.216 46.1065C184.216 47.0322 184.039 47.9418 183.685 48.8352C183.331 49.7287 182.707 50.7187 181.814 51.8054C180.928 52.892 179.685 54.2081 178.083 55.7536L173.821 60.0881V60.2571H184.591V64H167.639Z" fill="#1B29CB"/>
<defs>
<filter id="filter0_dd_625_35990" x="0" y="52" width="353" height="394" filterUnits="userSpaceOnUse" color-interpolation-filters="sRGB">
<feFlood flood-opacity="0" result="BackgroundImageFix"/>
<feColorMatrix in="SourceAlpha" type="matrix" values="0 0 0 0 0 0 0 0 0 0 0 0 0 0 0 0 0 0 127 0" result="hardAlpha"/>
<feMorphology radius="4" operator="erode" in="SourceAlpha" result="effect1_dropShadow_625_35990"/>
<feOffset dy="12"/>
<feGaussianBlur stdDeviation="8"/>
<feComposite in2="hardAlpha" operator="out"/>
<feColorMatrix type="matrix" values="0 0 0 0 0 0 0 0 0 0 0 0 0 0 0 0 0 0 0.08 0"/>
<feBlend mode="normal" in2="BackgroundImageFix" result="effect1_dropShadow_625_35990"/>
<feColorMatrix in="SourceAlpha" type="matrix" values="0 0 0 0 0 0 0 0 0 0 0 0 0 0 0 0 0 0 127 0" result="hardAlpha"/>
<feMorphology radius="2" operator="erode" in="SourceAlpha" result="effect2_dropShadow_625_35990"/>
<feOffset dy="4"/>
<feGaussianBlur stdDeviation="3"/>
<feComposite in2="hardAlpha" operator="out"/>
<feColorMatrix type="matrix" values="0 0 0 0 0 0 0 0 0 0 0 0 0 0 0 0 0 0 0.03 0"/>
<feBlend mode="normal" in2="effect1_dropShadow_625_35990" result="effect2_dropShadow_625_35990"/>
<feBlend mode="normal" in="SourceGraphic" in2="effect2_dropShadow_625_35990" result="shape"/>
</filter>
</defs>
</svg>
