<svg width="353" height="446" viewBox="0 0 353 446" fill="none" xmlns="http://www.w3.org/2000/svg">
<g filter="url(#filter0_dd_625_36110)">
<rect x="12" y="52" width="329" height="370" rx="10" fill="white"/>
<rect x="12.5" y="52.5" width="328" height="369" rx="9.5" stroke="#D5D7DA" stroke-opacity="0.12"/>
</g>
<path d="M112.461 293.292C112.004 292.33 111.341 291.589 110.474 291.069C109.607 290.533 108.598 290.265 107.447 290.265C106.295 290.265 105.255 290.533 104.324 291.069C103.41 291.589 102.685 292.346 102.148 293.339C101.628 294.317 101.368 295.452 101.368 296.745C101.368 298.038 101.628 299.174 102.148 300.151C102.685 301.129 103.41 301.886 104.324 302.422C105.255 302.942 106.295 303.202 107.447 303.202C109.055 303.202 110.379 302.721 111.42 301.76C112.461 300.798 113.068 299.497 113.241 297.857H106.666V296.107H115.536V297.762C115.41 299.118 114.984 300.364 114.259 301.499C113.533 302.619 112.579 303.51 111.397 304.172C110.214 304.819 108.897 305.142 107.447 305.142C105.917 305.142 104.522 304.787 103.26 304.078C101.999 303.352 100.997 302.351 100.256 301.074C99.5309 299.796 99.1682 298.354 99.1682 296.745C99.1682 295.137 99.5309 293.694 100.256 292.417C100.997 291.124 101.999 290.123 103.26 289.413C104.522 288.688 105.917 288.325 107.447 288.325C109.197 288.325 110.742 288.759 112.082 289.626C113.439 290.493 114.424 291.715 115.039 293.292H112.461ZM130.208 298.023C130.208 298.432 130.184 298.866 130.137 299.323H119.777C119.856 300.601 120.29 301.602 121.078 302.327C121.882 303.037 122.852 303.392 123.987 303.392C124.918 303.392 125.69 303.179 126.305 302.753C126.936 302.312 127.377 301.728 127.63 301.003H129.948C129.601 302.248 128.907 303.265 127.866 304.054C126.826 304.827 125.533 305.213 123.987 305.213C122.757 305.213 121.654 304.937 120.676 304.385C119.714 303.833 118.957 303.053 118.405 302.043C117.853 301.018 117.577 299.836 117.577 298.496C117.577 297.155 117.845 295.981 118.382 294.971C118.918 293.962 119.667 293.19 120.629 292.653C121.606 292.102 122.726 291.826 123.987 291.826C125.217 291.826 126.305 292.094 127.251 292.63C128.197 293.166 128.923 293.907 129.427 294.853C129.948 295.783 130.208 296.84 130.208 298.023ZM127.985 297.573C127.985 296.753 127.803 296.051 127.441 295.468C127.078 294.869 126.581 294.419 125.95 294.12C125.335 293.804 124.65 293.647 123.893 293.647C122.805 293.647 121.874 293.994 121.102 294.688C120.345 295.381 119.911 296.343 119.801 297.573H127.985ZM135.674 293.812V301.452C135.674 302.083 135.808 302.532 136.076 302.8C136.344 303.053 136.81 303.179 137.472 303.179H139.057V305H137.117C135.919 305 135.02 304.724 134.421 304.172C133.822 303.62 133.522 302.714 133.522 301.452V293.812H131.843V292.038H133.522V288.774H135.674V292.038H139.057V293.812H135.674ZM159.134 292.038L151.329 311.102H149.106L151.66 304.858L146.433 292.038H148.822L152.89 302.54L156.911 292.038H159.134ZM166.951 305.213C165.737 305.213 164.633 304.937 163.64 304.385C162.662 303.833 161.889 303.053 161.322 302.043C160.77 301.018 160.494 299.836 160.494 298.496C160.494 297.171 160.778 296.004 161.345 294.995C161.929 293.97 162.717 293.19 163.71 292.653C164.704 292.102 165.816 291.826 167.045 291.826C168.275 291.826 169.387 292.102 170.38 292.653C171.374 293.19 172.154 293.962 172.722 294.971C173.306 295.981 173.597 297.155 173.597 298.496C173.597 299.836 173.298 301.018 172.698 302.043C172.115 303.053 171.319 303.833 170.31 304.385C169.3 304.937 168.181 305.213 166.951 305.213ZM166.951 303.321C167.724 303.321 168.449 303.139 169.127 302.777C169.805 302.414 170.349 301.87 170.759 301.145C171.185 300.419 171.398 299.536 171.398 298.496C171.398 297.455 171.193 296.572 170.783 295.846C170.373 295.121 169.836 294.585 169.174 294.238C168.512 293.875 167.794 293.694 167.022 293.694C166.233 293.694 165.508 293.875 164.846 294.238C164.199 294.585 163.679 295.121 163.285 295.846C162.891 296.572 162.693 297.455 162.693 298.496C162.693 299.552 162.883 300.443 163.261 301.168C163.655 301.894 164.176 302.438 164.822 302.8C165.469 303.147 166.178 303.321 166.951 303.321ZM187.922 292.038V305H185.77V303.084C185.36 303.746 184.784 304.267 184.043 304.645C183.318 305.008 182.514 305.189 181.631 305.189C180.622 305.189 179.715 304.984 178.911 304.574C178.107 304.149 177.468 303.518 176.995 302.682C176.538 301.846 176.309 300.829 176.309 299.631V292.038H178.438V299.347C178.438 300.624 178.761 301.61 179.407 302.304C180.054 302.982 180.937 303.321 182.056 303.321C183.208 303.321 184.114 302.966 184.777 302.256C185.439 301.547 185.77 300.514 185.77 299.158V292.038H187.922ZM193.709 294.144C194.087 293.402 194.623 292.827 195.317 292.417C196.027 292.007 196.886 291.802 197.895 291.802V294.025H197.328C194.915 294.025 193.709 295.334 193.709 297.952V305H191.556V292.038H193.709V294.144ZM205.882 298.472C205.882 297.147 206.15 295.988 206.686 294.995C207.222 293.986 207.955 293.205 208.885 292.653C209.832 292.102 210.88 291.826 212.031 291.826C213.167 291.826 214.152 292.07 214.988 292.559C215.823 293.048 216.446 293.663 216.856 294.404V292.038H219.032V305H216.856V302.587C216.431 303.344 215.792 303.975 214.94 304.48C214.105 304.968 213.127 305.213 212.008 305.213C210.856 305.213 209.816 304.929 208.885 304.361C207.955 303.794 207.222 302.997 206.686 301.972C206.15 300.948 205.882 299.781 205.882 298.472ZM216.856 298.496C216.856 297.518 216.659 296.666 216.265 295.941C215.871 295.216 215.335 294.664 214.657 294.285C213.994 293.891 213.261 293.694 212.457 293.694C211.653 293.694 210.92 293.883 210.257 294.262C209.595 294.64 209.067 295.192 208.673 295.917C208.278 296.643 208.081 297.494 208.081 298.472C208.081 299.465 208.278 300.333 208.673 301.074C209.067 301.799 209.595 302.359 210.257 302.753C210.92 303.131 211.653 303.321 212.457 303.321C213.261 303.321 213.994 303.131 214.657 302.753C215.335 302.359 215.871 301.799 216.265 301.074C216.659 300.333 216.856 299.473 216.856 298.496ZM225.295 293.812V301.452C225.295 302.083 225.429 302.532 225.697 302.8C225.965 303.053 226.43 303.179 227.093 303.179H228.677V305H226.738C225.539 305 224.641 304.724 224.041 304.172C223.442 303.62 223.143 302.714 223.143 301.452V293.812H221.463V292.038H223.143V288.774H225.295V292.038H228.677V293.812H225.295ZM235.874 305.213C234.88 305.213 233.989 305.047 233.201 304.716C232.413 304.369 231.79 303.896 231.333 303.297C230.875 302.682 230.623 301.98 230.576 301.192H232.799C232.862 301.838 233.162 302.367 233.698 302.777C234.25 303.187 234.967 303.392 235.85 303.392C236.67 303.392 237.317 303.21 237.79 302.848C238.263 302.485 238.499 302.028 238.499 301.476C238.499 300.908 238.247 300.49 237.742 300.222C237.238 299.938 236.457 299.662 235.401 299.394C234.439 299.142 233.65 298.89 233.036 298.637C232.436 298.369 231.916 297.983 231.474 297.479C231.049 296.958 230.836 296.28 230.836 295.444C230.836 294.782 231.033 294.175 231.427 293.623C231.821 293.071 232.381 292.638 233.106 292.322C233.832 291.991 234.66 291.826 235.59 291.826C237.025 291.826 238.184 292.188 239.067 292.914C239.95 293.639 240.423 294.632 240.486 295.894H238.334C238.286 295.216 238.01 294.672 237.506 294.262C237.017 293.852 236.355 293.647 235.519 293.647C234.746 293.647 234.131 293.812 233.674 294.144C233.217 294.475 232.988 294.908 232.988 295.444C232.988 295.87 233.122 296.225 233.39 296.509C233.674 296.777 234.021 296.998 234.431 297.171C234.857 297.329 235.44 297.51 236.181 297.715C237.112 297.967 237.869 298.22 238.452 298.472C239.035 298.708 239.532 299.071 239.942 299.56C240.368 300.049 240.589 300.687 240.604 301.476C240.604 302.185 240.407 302.824 240.013 303.392C239.619 303.959 239.059 304.409 238.334 304.74C237.624 305.055 236.804 305.213 235.874 305.213ZM252.631 295.421V297.242H243.193V295.421H252.631ZM77.2377 335.213C76.0236 335.213 74.9198 334.937 73.9264 334.385C72.9488 333.833 72.1761 333.053 71.6085 332.043C71.0566 331.018 70.7806 329.836 70.7806 328.496C70.7806 327.171 71.0645 326.004 71.6321 324.995C72.2155 323.97 73.004 323.19 73.9974 322.653C74.9908 322.102 76.1024 321.826 77.3324 321.826C78.5623 321.826 79.674 322.102 80.6674 322.653C81.6608 323.19 82.4413 323.962 83.009 324.971C83.5924 325.981 83.8841 327.155 83.8841 328.496C83.8841 329.836 83.5845 331.018 82.9853 332.043C82.4019 333.053 81.6056 333.833 80.5964 334.385C79.5872 334.937 78.4677 335.213 77.2377 335.213ZM77.2377 333.321C78.0104 333.321 78.7357 333.139 79.4138 332.777C80.0918 332.414 80.6358 331.87 81.0458 331.145C81.4715 330.419 81.6844 329.536 81.6844 328.496C81.6844 327.455 81.4794 326.572 81.0695 325.846C80.6595 325.121 80.1234 324.585 79.4611 324.238C78.7988 323.875 78.0814 323.694 77.3087 323.694C76.5203 323.694 75.7949 323.875 75.1327 324.238C74.4862 324.585 73.9658 325.121 73.5716 325.846C73.1774 326.572 72.9803 327.455 72.9803 328.496C72.9803 329.552 73.1695 330.443 73.548 331.168C73.9422 331.894 74.4625 332.438 75.109 332.8C75.7555 333.147 76.4651 333.321 77.2377 333.321ZM88.8665 324.427C89.2922 323.686 89.9229 323.071 90.7587 322.582C91.6101 322.078 92.5957 321.826 93.7152 321.826C94.8663 321.826 95.907 322.102 96.8373 322.653C97.7834 323.205 98.5245 323.986 99.0607 324.995C99.5968 325.988 99.8649 327.147 99.8649 328.472C99.8649 329.781 99.5968 330.948 99.0607 331.972C98.5245 332.997 97.7834 333.794 96.8373 334.361C95.907 334.929 94.8663 335.213 93.7152 335.213C92.6114 335.213 91.6338 334.968 90.7823 334.48C89.9466 333.975 89.308 333.352 88.8665 332.611V341.15H86.7141V322.038H88.8665V324.427ZM97.6652 328.472C97.6652 327.494 97.4681 326.643 97.0739 325.917C96.6797 325.192 96.1435 324.64 95.4655 324.262C94.8032 323.883 94.07 323.694 93.2658 323.694C92.4774 323.694 91.7442 323.891 91.0661 324.285C90.4039 324.664 89.8677 325.224 89.4578 325.965C89.0636 326.69 88.8665 327.534 88.8665 328.496C88.8665 329.473 89.0636 330.333 89.4578 331.074C89.8677 331.799 90.4039 332.359 91.0661 332.753C91.7442 333.131 92.4774 333.321 93.2658 333.321C94.07 333.321 94.8032 333.131 95.4655 332.753C96.1435 332.359 96.6797 331.799 97.0739 331.074C97.4681 330.333 97.6652 329.465 97.6652 328.472ZM105.323 323.812V331.452C105.323 332.083 105.457 332.532 105.725 332.8C105.994 333.053 106.459 333.179 107.121 333.179H108.706V335H106.766C105.568 335 104.669 334.724 104.07 334.172C103.471 333.62 103.171 332.714 103.171 331.452V323.812H101.492V322.038H103.171V318.774H105.323V322.038H108.706V323.812H105.323ZM112.425 319.933C112.015 319.933 111.668 319.791 111.385 319.508C111.101 319.224 110.959 318.877 110.959 318.467C110.959 318.057 111.101 317.71 111.385 317.426C111.668 317.142 112.015 317 112.425 317C112.819 317 113.151 317.142 113.419 317.426C113.702 317.71 113.844 318.057 113.844 318.467C113.844 318.877 113.702 319.224 113.419 319.508C113.151 319.791 112.819 319.933 112.425 319.933ZM113.466 322.038V335H111.314V322.038H113.466ZM132.721 321.802C133.73 321.802 134.629 322.015 135.418 322.441C136.206 322.851 136.829 323.473 137.286 324.309C137.744 325.145 137.972 326.162 137.972 327.36V335H135.843V327.668C135.843 326.375 135.52 325.389 134.874 324.711C134.243 324.017 133.384 323.67 132.296 323.67C131.176 323.67 130.285 324.033 129.623 324.758C128.961 325.468 128.629 326.501 128.629 327.857V335H126.501V327.668C126.501 326.375 126.177 325.389 125.531 324.711C124.9 324.017 124.041 323.67 122.953 323.67C121.833 323.67 120.942 324.033 120.28 324.758C119.618 325.468 119.287 326.501 119.287 327.857V335H117.134V322.038H119.287V323.907C119.712 323.229 120.28 322.709 120.99 322.346C121.715 321.983 122.511 321.802 123.379 321.802C124.467 321.802 125.428 322.046 126.264 322.535C127.1 323.024 127.723 323.741 128.133 324.688C128.495 323.773 129.095 323.063 129.93 322.559C130.766 322.054 131.696 321.802 132.721 321.802ZM142.614 319.933C142.205 319.933 141.858 319.791 141.574 319.508C141.29 319.224 141.148 318.877 141.148 318.467C141.148 318.057 141.29 317.71 141.574 317.426C141.858 317.142 142.205 317 142.614 317C143.009 317 143.34 317.142 143.608 317.426C143.892 317.71 144.034 318.057 144.034 318.467C144.034 318.877 143.892 319.224 143.608 319.508C143.34 319.791 143.009 319.933 142.614 319.933ZM143.655 322.038V335H141.503V322.038H143.655ZM148.932 333.226H155.294V335H146.472V333.226L152.764 323.789H146.519V322.038H155.247V323.789L148.932 333.226ZM169.914 328.023C169.914 328.432 169.89 328.866 169.843 329.323H159.483C159.562 330.601 159.995 331.602 160.784 332.327C161.588 333.037 162.558 333.392 163.693 333.392C164.623 333.392 165.396 333.179 166.011 332.753C166.642 332.312 167.083 331.728 167.335 331.003H169.653C169.306 332.248 168.613 333.265 167.572 334.054C166.531 334.827 165.238 335.213 163.693 335.213C162.463 335.213 161.359 334.937 160.382 334.385C159.42 333.833 158.663 333.053 158.111 332.043C157.559 331.018 157.283 329.836 157.283 328.496C157.283 327.155 157.551 325.981 158.087 324.971C158.623 323.962 159.372 323.19 160.334 322.653C161.312 322.102 162.431 321.826 163.693 321.826C164.923 321.826 166.011 322.094 166.957 322.63C167.903 323.166 168.628 323.907 169.133 324.853C169.653 325.783 169.914 326.84 169.914 328.023ZM167.69 327.573C167.69 326.753 167.509 326.051 167.146 325.468C166.784 324.869 166.287 324.419 165.656 324.12C165.041 323.804 164.355 323.647 163.598 323.647C162.51 323.647 161.58 323.994 160.807 324.688C160.05 325.381 159.617 326.343 159.506 327.573H167.69ZM171.95 328.472C171.95 327.147 172.218 325.988 172.755 324.995C173.291 323.986 174.024 323.205 174.954 322.653C175.9 322.102 176.957 321.826 178.124 321.826C179.133 321.826 180.071 322.062 180.938 322.535C181.806 322.992 182.468 323.6 182.925 324.356V317.497H185.101V335H182.925V332.564C182.499 333.336 181.869 333.975 181.033 334.48C180.197 334.968 179.22 335.213 178.1 335.213C176.949 335.213 175.9 334.929 174.954 334.361C174.024 333.794 173.291 332.997 172.755 331.972C172.218 330.948 171.95 329.781 171.95 328.472ZM182.925 328.496C182.925 327.518 182.728 326.666 182.334 325.941C181.94 325.216 181.404 324.664 180.725 324.285C180.063 323.891 179.33 323.694 178.526 323.694C177.722 323.694 176.988 323.883 176.326 324.262C175.664 324.64 175.136 325.192 174.741 325.917C174.347 326.643 174.15 327.494 174.15 328.472C174.15 329.465 174.347 330.333 174.741 331.074C175.136 331.799 175.664 332.359 176.326 332.753C176.988 333.131 177.722 333.321 178.526 333.321C179.33 333.321 180.063 333.131 180.725 332.753C181.404 332.359 181.94 331.799 182.334 331.074C182.728 330.333 182.925 329.473 182.925 328.496ZM197.197 324.144C197.575 323.402 198.111 322.827 198.805 322.417C199.515 322.007 200.374 321.802 201.383 321.802V324.025H200.815C198.403 324.025 197.197 325.334 197.197 327.952V335H195.044V322.038H197.197V324.144ZM215.694 328.023C215.694 328.432 215.67 328.866 215.623 329.323H205.263C205.342 330.601 205.776 331.602 206.564 332.327C207.368 333.037 208.338 333.392 209.473 333.392C210.404 333.392 211.176 333.179 211.791 332.753C212.422 332.312 212.864 331.728 213.116 331.003H215.434C215.087 332.248 214.393 333.265 213.352 334.054C212.312 334.827 211.019 335.213 209.473 335.213C208.243 335.213 207.14 334.937 206.162 334.385C205.2 333.833 204.443 333.053 203.891 332.043C203.34 331.018 203.064 329.836 203.064 328.496C203.064 327.155 203.332 325.981 203.868 324.971C204.404 323.962 205.153 323.19 206.115 322.653C207.092 322.102 208.212 321.826 209.473 321.826C210.703 321.826 211.791 322.094 212.737 322.63C213.684 323.166 214.409 323.907 214.913 324.853C215.434 325.783 215.694 326.84 215.694 328.023ZM213.471 327.573C213.471 326.753 213.289 326.051 212.927 325.468C212.564 324.869 212.067 324.419 211.437 324.12C210.822 323.804 210.136 323.647 209.379 323.647C208.291 323.647 207.36 323.994 206.588 324.688C205.831 325.381 205.397 326.343 205.287 327.573H213.471ZM223.124 335.213C222.13 335.213 221.239 335.047 220.451 334.716C219.663 334.369 219.04 333.896 218.582 333.297C218.125 332.682 217.873 331.98 217.826 331.192H220.049C220.112 331.838 220.412 332.367 220.948 332.777C221.5 333.187 222.217 333.392 223.1 333.392C223.92 333.392 224.566 333.21 225.04 332.848C225.513 332.485 225.749 332.028 225.749 331.476C225.749 330.908 225.497 330.49 224.992 330.222C224.488 329.938 223.707 329.662 222.651 329.394C221.689 329.142 220.9 328.89 220.285 328.637C219.686 328.369 219.166 327.983 218.724 327.479C218.299 326.958 218.086 326.28 218.086 325.444C218.086 324.782 218.283 324.175 218.677 323.623C219.071 323.071 219.631 322.638 220.356 322.322C221.082 321.991 221.909 321.826 222.84 321.826C224.275 321.826 225.434 322.188 226.317 322.914C227.2 323.639 227.673 324.632 227.736 325.894H225.584C225.536 325.216 225.26 324.672 224.756 324.262C224.267 323.852 223.605 323.647 222.769 323.647C221.996 323.647 221.381 323.812 220.924 324.144C220.467 324.475 220.238 324.908 220.238 325.444C220.238 325.87 220.372 326.225 220.64 326.509C220.924 326.777 221.271 326.998 221.681 327.171C222.107 327.329 222.69 327.51 223.431 327.715C224.361 327.967 225.118 328.22 225.702 328.472C226.285 328.708 226.782 329.071 227.192 329.56C227.618 330.049 227.838 330.687 227.854 331.476C227.854 332.185 227.657 332.824 227.263 333.392C226.869 333.959 226.309 334.409 225.584 334.74C224.874 335.055 224.054 335.213 223.124 335.213ZM242.388 322.038V335H240.235V333.084C239.825 333.746 239.25 334.267 238.509 334.645C237.783 335.008 236.979 335.189 236.096 335.189C235.087 335.189 234.18 334.984 233.376 334.574C232.572 334.149 231.933 333.518 231.46 332.682C231.003 331.846 230.774 330.829 230.774 329.631V322.038H232.903V329.347C232.903 330.624 233.226 331.61 233.873 332.304C234.519 332.982 235.402 333.321 236.522 333.321C237.673 333.321 238.58 332.966 239.242 332.256C239.904 331.547 240.235 330.514 240.235 329.158V322.038H242.388ZM261.609 321.802C262.618 321.802 263.517 322.015 264.305 322.441C265.094 322.851 265.716 323.473 266.174 324.309C266.631 325.145 266.86 326.162 266.86 327.36V335H264.731V327.668C264.731 326.375 264.408 325.389 263.761 324.711C263.13 324.017 262.271 323.67 261.183 323.67C260.064 323.67 259.173 324.033 258.51 324.758C257.848 325.468 257.517 326.501 257.517 327.857V335H255.388V327.668C255.388 326.375 255.065 325.389 254.418 324.711C253.788 324.017 252.928 323.67 251.84 323.67C250.721 323.67 249.83 324.033 249.168 324.758C248.505 325.468 248.174 326.501 248.174 327.857V335H246.022V322.038H248.174V323.907C248.6 323.229 249.168 322.709 249.877 322.346C250.603 321.983 251.399 321.802 252.266 321.802C253.354 321.802 254.316 322.046 255.152 322.535C255.987 323.024 256.61 323.741 257.02 324.688C257.383 323.773 257.982 323.063 258.818 322.559C259.654 322.054 260.584 321.802 261.609 321.802ZM282.217 328.023C282.217 328.432 282.193 328.866 282.146 329.323H271.786C271.865 330.601 272.298 331.602 273.087 332.327C273.891 333.037 274.861 333.392 275.996 333.392C276.926 333.392 277.699 333.179 278.314 332.753C278.945 332.312 279.386 331.728 279.638 331.003H281.956C281.61 332.248 280.916 333.265 279.875 334.054C278.834 334.827 277.541 335.213 275.996 335.213C274.766 335.213 273.662 334.937 272.685 334.385C271.723 333.833 270.966 333.053 270.414 332.043C269.862 331.018 269.586 329.836 269.586 328.496C269.586 327.155 269.854 325.981 270.39 324.971C270.926 323.962 271.675 323.19 272.637 322.653C273.615 322.102 274.735 321.826 275.996 321.826C277.226 321.826 278.314 322.094 279.26 322.63C280.206 323.166 280.931 323.907 281.436 324.853C281.956 325.783 282.217 326.84 282.217 328.023ZM279.993 327.573C279.993 326.753 279.812 326.051 279.449 325.468C279.087 324.869 278.59 324.419 277.959 324.12C277.344 323.804 276.658 323.647 275.901 323.647C274.813 323.647 273.883 323.994 273.11 324.688C272.354 325.381 271.92 326.343 271.81 327.573H279.993Z" fill="black"/>
<path d="M175.961 248.853C209.629 248.853 236.922 247.259 236.922 245.293C236.922 243.328 209.629 241.734 175.961 241.734C142.293 241.734 115 243.328 115 245.293C115 247.259 142.293 248.853 175.961 248.853Z" fill="#F5F5F5"/>
<path d="M162.221 164.93C162.261 165.068 162.334 165.279 162.397 165.455L162.598 166.018C162.736 166.392 162.887 166.763 163.047 167.131C163.361 167.859 163.714 168.569 164.104 169.259C164.877 170.611 165.817 171.834 166.934 172.617L167.129 172.752C167.129 172.752 167.129 172.774 167.176 172.78C167.388 172.775 167.597 172.718 167.783 172.614C168.427 172.273 169.02 171.842 169.543 171.334C170.148 170.78 170.724 170.196 171.269 169.583C171.829 168.954 172.379 168.303 172.898 167.665L174.398 168.571C173.619 170.222 172.64 171.773 171.483 173.186C170.848 173.972 170.095 174.655 169.251 175.211C168.696 175.568 168.069 175.797 167.415 175.881C166.998 175.923 166.578 175.884 166.176 175.767C165.969 175.707 165.769 175.624 165.578 175.522L165.217 175.321C164.338 174.791 163.542 174.134 162.856 173.372C162.199 172.654 161.614 171.875 161.108 171.045C160.611 170.239 160.173 169.398 159.797 168.53C159.611 168.102 159.435 167.668 159.275 167.231C159.193 167.011 159.114 166.791 159.042 166.565C158.97 166.338 158.904 166.131 158.828 165.851L162.221 164.93Z" fill="#B97964"/>
<path d="M165.468 170.486L161.447 172.712C161.447 172.712 161.327 172.539 161.133 172.24C160.991 172.02 160.818 171.731 160.598 171.391C159.416 169.47 157.454 165.961 157.966 164.474C158.749 162.185 161.636 162.223 163.054 164.877C163.739 166.199 164.353 167.557 164.893 168.945C165.041 169.316 165.163 169.64 165.258 169.888C165.393 170.269 165.468 170.486 165.468 170.486Z" fill="#1B29CB"/>
<path opacity="0.2" d="M165.468 170.486L161.447 172.712C161.447 172.712 161.327 172.539 161.133 172.24C160.991 172.02 160.818 171.731 160.598 171.391C159.416 169.47 157.454 165.961 157.966 164.474C158.749 162.185 161.636 162.223 163.054 164.877C163.739 166.199 164.353 167.557 164.893 168.945C165.041 169.316 165.163 169.64 165.258 169.888C165.393 170.269 165.468 170.486 165.468 170.486Z" fill="black"/>
<path opacity="0.2" d="M165.269 169.903L161.144 172.239C161.003 172.019 160.83 171.73 160.61 171.391L164.905 168.957C165.04 169.328 165.163 169.652 165.269 169.903Z" fill="black"/>
<path opacity="0.2" d="M157.907 164.75C158.806 164.317 159.844 164.678 160.932 166.401C162.02 168.124 162.953 171.017 163.07 171.825L161.463 172.711C161.463 172.711 157.577 167.042 157.907 164.75Z" fill="black"/>
<path d="M161.634 183.156H149.168C149.08 182.043 149.338 178.421 149.146 173.808C149.028 170.39 148.613 166.988 147.907 163.64C147.851 163.389 147.794 163.14 147.734 162.889C147.734 162.889 148.363 162.76 149.272 162.628C150.023 162.518 150.967 162.405 151.891 162.361C153.655 162.26 155.424 162.26 157.189 162.361C158.003 162.436 158.798 162.571 159.434 162.694C160.245 162.857 160.798 163.008 160.798 163.008C160.798 163.008 163.794 170.048 161.634 183.156Z" fill="#1B29CB"/>
<path opacity="0.2" d="M161.634 183.156H149.168C149.08 182.043 149.338 178.421 149.146 173.808C149.028 170.39 148.613 166.988 147.907 163.64C147.851 163.389 147.794 163.14 147.734 162.889C147.734 162.889 148.363 162.76 149.272 162.628C150.023 162.518 150.967 162.405 151.891 162.361C153.655 162.26 155.424 162.26 157.189 162.361C158.003 162.436 158.798 162.571 159.434 162.694C160.245 162.857 160.798 163.008 160.798 163.008C160.798 163.008 163.794 170.048 161.634 183.156Z" fill="black"/>
<path d="M144.636 238.886L146.485 240.539L150 236.876L148.154 235.223L144.636 238.886Z" fill="#B97964"/>
<path d="M150.965 242.328H153.295L153.6 236.93H151.267L150.965 242.328Z" fill="#B97964"/>
<path d="M150 236.88L148.186 238.766L146.337 237.112L148.151 235.223L150 236.88Z" fill="#A76755"/>
<path d="M151.268 236.933H153.6L153.443 239.715H151.11L151.268 236.933Z" fill="#A76755"/>
<path d="M161.515 183.037C161.515 183.037 163.971 200.034 164.81 209.287C165.483 216.707 149.433 238.841 149.433 238.841L146.326 235.92C146.326 235.92 158.05 216.078 157.148 207.815C156.274 199.811 153.312 183.027 153.312 183.027L161.515 183.037Z" fill="#1B29CB"/>
<path opacity="0.7" d="M161.515 183.037C161.515 183.037 163.971 200.034 164.81 209.287C165.483 216.707 149.433 238.841 149.433 238.841L146.326 235.92C146.326 235.92 158.05 216.078 157.148 207.815C156.274 199.811 153.312 183.027 153.312 183.027L161.515 183.037Z" fill="black"/>
<path d="M153.417 242.073H150.807C150.785 242.073 150.763 242.076 150.743 242.084C150.722 242.091 150.703 242.103 150.687 242.118C150.671 242.133 150.658 242.151 150.649 242.171C150.64 242.19 150.635 242.212 150.634 242.234L150.508 244.306C150.508 244.415 150.551 244.519 150.628 244.597C150.704 244.675 150.808 244.719 150.917 244.721C151.829 244.705 152.263 244.649 153.432 244.649C154.14 244.649 157.152 244.724 158.13 244.724C159.107 244.724 159.073 243.756 158.667 243.668C156.806 243.275 154.501 242.724 153.844 242.218C153.723 242.12 153.572 242.069 153.417 242.073Z" fill="#263238"/>
<path d="M146.993 239.872L144.745 238.36C144.709 238.332 144.664 238.316 144.618 238.316C144.572 238.316 144.527 238.332 144.491 238.36L142.774 240.092C142.74 240.131 142.715 240.176 142.7 240.225C142.686 240.274 142.682 240.325 142.69 240.376C142.698 240.426 142.717 240.475 142.745 240.517C142.774 240.559 142.812 240.595 142.856 240.621C144.29 241.724 145.324 242.554 146.138 243.472C147.081 244.548 147.594 244.699 149.795 244.699C150.814 244.699 151.389 243.84 150.974 243.708C147.305 242.548 148.286 242.042 147.396 240.341C147.301 240.155 147.163 239.994 146.993 239.872Z" fill="#263238"/>
<path d="M172.621 168.062L173.422 165.496L175.504 167.021C175.504 167.021 174.366 169.307 173.595 169.099L172.621 168.062Z" fill="#B97964"/>
<path d="M175.614 164.515L176.787 165.951L175.504 167.02L173.423 165.496L175.614 164.515Z" fill="#B97964"/>
<path opacity="0.2" d="M149.146 173.809C149.027 170.39 148.613 166.988 147.907 163.641C148.74 163.569 150.165 163.641 150.4 164.996C150.655 166.442 150.334 169.844 149.146 173.809Z" fill="black"/>
<path opacity="0.5" d="M157.15 207.821C156.7 203.7 155.694 197.242 154.829 191.953C155.282 191.067 156.549 189.274 156.549 189.274C157.687 193.208 160.162 208.032 156.634 228.057C152.956 233.987 149.434 238.847 149.434 238.847L148.953 231.201C152.352 224.806 157.775 213.541 157.15 207.821Z" fill="black"/>
<path d="M149.995 166.276L149.445 167.219C149.256 167.546 149.074 167.876 148.898 168.209C148.539 168.876 148.194 169.547 147.863 170.222C147.549 170.898 147.234 171.577 146.955 172.256C146.684 172.926 146.448 173.609 146.247 174.303L146.209 174.428L146.191 174.494C146.18 174.512 146.174 174.531 146.172 174.551C146.162 174.648 146.162 174.746 146.172 174.843C146.204 175.14 146.266 175.433 146.357 175.717C146.575 176.4 146.841 177.066 147.153 177.711C147.781 179.063 148.545 180.437 149.309 181.764L147.929 182.842C146.783 181.676 145.746 180.407 144.832 179.05C144.348 178.333 143.927 177.574 143.575 176.783C143.376 176.332 143.222 175.862 143.116 175.381C143.054 175.091 143.023 174.795 143.021 174.498C143.019 174.319 143.032 174.14 143.059 173.963L143.081 173.834V173.752L143.116 173.592C143.454 171.932 143.976 170.314 144.672 168.769C145.002 168.008 145.364 167.266 145.75 166.54C145.945 166.175 146.143 165.817 146.351 165.458C146.558 165.1 146.763 164.76 147.008 164.38L149.995 166.276Z" fill="#B97964"/>
<path d="M150.83 167.134C150.249 168.744 149.574 170.319 148.809 171.85C148.642 172.196 148.494 172.504 148.362 172.753C148.142 173.19 148.004 173.454 148.004 173.454L143.288 170.838C143.288 170.838 143.347 170.64 143.454 170.307C143.536 170.055 143.643 169.725 143.769 169.344C144.555 167.103 146.161 163.103 147.736 162.874C150.091 162.547 151.786 164.308 150.83 167.134Z" fill="#1B29CB"/>
<path opacity="0.2" d="M148.808 171.865C148.642 172.211 148.494 172.519 148.362 172.768L143.448 170.321C143.53 170.07 143.636 169.74 143.762 169.359L148.808 171.865Z" fill="black"/>
<path d="M154.243 242.463C154.032 242.458 153.821 242.43 153.615 242.381C153.604 242.378 153.595 242.372 153.587 242.365C153.579 242.357 153.574 242.347 153.571 242.337C153.57 242.326 153.571 242.316 153.576 242.307C153.58 242.297 153.587 242.289 153.596 242.283C153.668 242.23 154.332 241.78 154.614 241.89C154.647 241.903 154.675 241.924 154.697 241.951C154.719 241.978 154.734 242.01 154.74 242.044C154.755 242.095 154.756 242.149 154.744 242.201C154.732 242.253 154.707 242.301 154.671 242.34C154.548 242.432 154.396 242.475 154.243 242.463ZM153.772 242.302C154.19 242.384 154.495 242.371 154.605 242.264C154.628 242.238 154.643 242.206 154.65 242.172C154.656 242.138 154.654 242.103 154.643 242.07C154.641 242.053 154.634 242.037 154.623 242.024C154.613 242.01 154.599 242 154.583 241.994C154.429 241.934 154.042 242.129 153.772 242.302Z" fill="#1B29CB"/>
<path d="M153.638 242.388C153.63 242.39 153.621 242.39 153.613 242.388C153.605 242.383 153.598 242.377 153.593 242.369C153.588 242.362 153.585 242.353 153.584 242.344C153.584 242.315 153.531 241.646 153.767 241.419C153.796 241.39 153.833 241.367 153.872 241.354C153.912 241.341 153.955 241.338 153.996 241.344C154.042 241.346 154.087 241.363 154.123 241.393C154.158 241.422 154.183 241.462 154.194 241.507C154.248 241.762 153.899 242.249 153.666 242.388H153.638ZM153.952 241.444C153.931 241.444 153.909 241.448 153.889 241.456C153.869 241.464 153.851 241.476 153.836 241.492C153.706 241.715 153.652 241.974 153.682 242.231C153.883 242.061 154.116 241.69 154.081 241.523C154.081 241.492 154.056 241.454 153.977 241.444H153.952Z" fill="#1B29CB"/>
<path d="M148.503 241.13C148.088 241.066 147.691 240.913 147.34 240.681C147.331 240.675 147.323 240.667 147.319 240.656C147.314 240.646 147.313 240.635 147.315 240.624C147.317 240.613 147.323 240.603 147.332 240.595C147.34 240.587 147.351 240.582 147.362 240.58C147.488 240.58 148.592 240.498 148.805 240.75C148.823 240.772 148.835 240.797 148.84 240.825C148.845 240.852 148.844 240.88 148.837 240.907C148.828 240.95 148.808 240.991 148.779 241.025C148.751 241.059 148.714 241.085 148.673 241.102C148.619 241.122 148.561 241.131 148.503 241.13ZM147.56 240.678C148.063 240.954 148.459 241.074 148.636 240.992C148.661 240.981 148.684 240.965 148.703 240.943C148.721 240.922 148.733 240.897 148.739 240.869C148.745 240.86 148.747 240.85 148.747 240.839C148.747 240.829 148.745 240.819 148.739 240.81C148.607 240.69 148.004 240.668 147.554 240.687L147.56 240.678Z" fill="#1B29CB"/>
<path d="M147.367 240.699C147.358 240.699 147.349 240.697 147.34 240.693C147.332 240.688 147.325 240.682 147.32 240.674C147.316 240.666 147.314 240.657 147.314 240.647C147.314 240.638 147.316 240.629 147.32 240.621C147.339 240.583 147.76 239.728 148.298 239.992C148.446 240.064 148.461 240.152 148.449 240.212C148.392 240.464 147.691 240.696 147.37 240.706L147.367 240.699ZM148.093 240.049C147.807 240.049 147.562 240.413 147.465 240.583C147.801 240.539 148.31 240.332 148.342 240.184C148.342 240.149 148.317 240.118 148.251 240.083C148.202 240.06 148.148 240.048 148.093 240.049Z" fill="#1B29CB"/>
<path d="M148.684 181.27L151.005 180.867L149.813 183.552C149.813 183.552 147.694 183.552 147.791 182.449L148.684 181.27Z" fill="#B97964"/>
<path d="M152.734 182.216L151.646 184.385L149.813 183.552L151.005 180.867L152.734 182.216Z" fill="#B97964"/>
<path d="M146.139 235.751L149.622 239.027L150.742 237.823L146.761 234.194L146.139 235.751Z" fill="#1B29CB"/>
<path opacity="0.7" d="M146.139 235.751L149.622 239.027L150.742 237.823L146.761 234.194L146.139 235.751Z" fill="white"/>
<path d="M157.096 183.036C157.096 183.036 157.319 200.851 156.942 207.523C156.527 214.833 154.455 239.042 154.455 239.042H150.179C150.179 239.042 150.305 215.421 150.05 208.186C149.77 200.326 149.047 183.033 149.047 183.033L157.096 183.036Z" fill="#1B29CB"/>
<path opacity="0.7" d="M157.096 183.036C157.096 183.036 157.319 200.851 156.942 207.523C156.527 214.833 154.455 239.042 154.455 239.042H150.179C150.179 239.042 150.305 215.421 150.05 208.186C149.77 200.326 149.047 183.033 149.047 183.033L157.096 183.036Z" fill="black"/>
<path d="M150 239.042H154.612L154.87 237.423L149.776 237.674L150 239.042Z" fill="#1B29CB"/>
<path opacity="0.7" d="M150 239.042H154.612L154.87 237.423L149.776 237.674L150 239.042Z" fill="white"/>
<path opacity="0.2" d="M150.83 167.134C150.249 168.744 149.574 170.319 148.809 171.85C148.642 172.196 148.494 172.504 148.362 172.753C148.142 173.19 148.004 173.454 148.004 173.454L143.288 170.838C143.288 170.838 143.347 170.64 143.454 170.307C143.536 170.055 143.643 169.725 143.769 169.344C144.555 167.103 146.161 163.103 147.736 162.874C150.091 162.547 151.786 164.308 150.83 167.134Z" fill="black"/>
<path d="M159.18 164.175C158.929 165.008 158.237 166.121 156.303 166.69L155.8 166.841L155.288 166.75C151.342 166.042 149.889 163.92 149.628 163.508L149.1 162.628C149.852 162.518 150.795 162.405 151.719 162.361C153.484 162.26 155.252 162.26 157.017 162.361C157.831 162.436 158.627 162.571 159.262 162.694C159.349 163.187 159.321 163.694 159.18 164.175Z" fill="#1B29CB"/>
<path opacity="0.4" d="M159.18 164.175C158.929 165.008 158.237 166.121 156.303 166.69L155.8 166.841L155.288 166.75C151.342 166.042 149.889 163.92 149.628 163.508L149.1 162.628C149.852 162.518 150.795 162.405 151.719 162.361C153.484 162.26 155.252 162.26 157.017 162.361C157.831 162.436 158.627 162.571 159.262 162.694C159.349 163.187 159.321 163.694 159.18 164.175Z" fill="black"/>
<path d="M155.837 164.584C152.674 164.014 151.684 162.383 151.684 162.383C152.838 161.244 152.395 158.135 151.998 156.428L153.416 157.604L155.347 159.207C155.29 159.464 155.249 159.725 155.224 159.987C155.121 161.034 155.391 161.986 156.932 162.351C156.938 162.342 158.214 163.876 155.837 164.584Z" fill="#B97964"/>
<path d="M155.353 159.198C155.295 159.455 155.255 159.716 155.23 159.978C154.51 159.833 153.548 159.066 153.447 158.33C153.412 158.087 153.404 157.84 153.422 157.595L155.353 159.198Z" fill="#A76755"/>
<path d="M156.665 150.464C157.816 150.982 158.454 154.218 156.979 154.916C155.505 155.614 154.489 149.48 156.665 150.464Z" fill="#263238"/>
<path d="M151.436 153.963C151.929 156.23 152.102 157.579 153.441 158.613C153.873 158.953 154.39 159.169 154.935 159.237C155.481 159.305 156.035 159.223 156.537 159C157.039 158.776 157.471 158.42 157.785 157.969C158.1 157.518 158.285 156.989 158.321 156.441C158.497 154.331 157.661 150.979 155.274 150.338C154.762 150.185 154.218 150.17 153.698 150.294C153.177 150.418 152.698 150.676 152.309 151.043C151.92 151.411 151.635 151.874 151.482 152.386C151.328 152.899 151.312 153.443 151.436 153.963Z" fill="#B97964"/>
<path d="M148.793 151.715C147.689 152.202 148.315 153.712 149.066 154.67C150.107 156.004 151.207 156.626 151.956 156.013C152.628 155.677 153.072 153.693 152.487 152.47C153.521 151.787 155.669 152.63 156.338 151.526C157.008 150.423 157.486 150.514 158.665 151.243C159.844 151.973 160.787 149.09 157.722 148.552C159.42 149.316 159.03 150.803 157.788 149.278C156.911 148.203 154.807 147.015 153.345 148.618C152.267 149.788 148.478 147.98 148.793 151.715Z" fill="#263238"/>
<path d="M150.898 156.328C151.266 156.77 151.774 157.073 152.338 157.186C153.052 157.306 153.212 156.645 152.85 156.004C152.536 155.429 151.756 154.671 151.118 154.841C150.48 155.01 150.436 155.771 150.898 156.328Z" fill="#B97964"/>
<path d="M154.998 154.189C155.026 154.375 155.148 154.503 155.271 154.503C155.393 154.503 155.469 154.327 155.437 154.142C155.406 153.957 155.29 153.828 155.167 153.828C155.045 153.828 154.969 154.001 154.998 154.189Z" fill="#263238"/>
<path d="M157.095 153.938C157.123 154.123 157.246 154.252 157.368 154.252C157.491 154.252 157.566 154.073 157.538 153.887C157.51 153.702 157.387 153.573 157.265 153.573C157.142 153.573 157.095 153.752 157.095 153.938Z" fill="#263238"/>
<path d="M156.466 154.11C156.778 154.653 157.16 155.152 157.604 155.594C157.488 155.7 157.35 155.78 157.2 155.826C157.05 155.873 156.892 155.886 156.736 155.865L156.466 154.11Z" fill="#A24E3F"/>
<path d="M156.035 156.456C155.817 156.459 155.601 156.418 155.4 156.335C155.198 156.252 155.015 156.13 154.862 155.975C154.852 155.965 154.846 155.951 154.846 155.936C154.846 155.921 154.852 155.907 154.862 155.897C154.873 155.887 154.887 155.881 154.901 155.881C154.916 155.881 154.93 155.887 154.941 155.897C155.11 156.061 155.315 156.185 155.539 156.26C155.763 156.335 156.002 156.358 156.236 156.327C156.243 156.327 156.251 156.327 156.258 156.329C156.265 156.331 156.271 156.335 156.277 156.34C156.282 156.344 156.287 156.35 156.29 156.357C156.294 156.363 156.295 156.37 156.296 156.378C156.297 156.385 156.297 156.392 156.295 156.399C156.294 156.406 156.29 156.413 156.286 156.418C156.281 156.424 156.276 156.429 156.269 156.432C156.263 156.435 156.256 156.437 156.249 156.438C156.178 156.448 156.106 156.454 156.035 156.456Z" fill="#263238"/>
<path d="M154.24 153.586C154.222 153.59 154.204 153.59 154.186 153.586C154.161 153.571 154.142 153.547 154.134 153.519C154.126 153.491 154.129 153.461 154.142 153.435C154.225 153.282 154.343 153.151 154.487 153.054C154.631 152.956 154.797 152.895 154.969 152.875C154.996 152.879 155.02 152.893 155.037 152.914C155.054 152.934 155.064 152.96 155.064 152.987C155.064 153.013 155.054 153.039 155.037 153.06C155.02 153.08 154.996 153.094 154.969 153.098C154.834 153.114 154.704 153.162 154.592 153.24C154.479 153.317 154.388 153.421 154.325 153.542C154.315 153.555 154.302 153.565 154.287 153.573C154.273 153.581 154.256 153.585 154.24 153.586Z" fill="#263238"/>
<path d="M157.903 153.095C157.885 153.095 157.867 153.09 157.851 153.081C157.836 153.072 157.822 153.06 157.812 153.045C157.736 152.925 157.633 152.825 157.512 152.752C157.391 152.679 157.255 152.635 157.114 152.623C157.085 152.623 157.057 152.612 157.036 152.591C157.015 152.571 157.004 152.543 157.004 152.513C157.004 152.484 157.015 152.456 157.036 152.436C157.057 152.415 157.085 152.403 157.114 152.403C157.291 152.413 157.464 152.466 157.617 152.556C157.77 152.646 157.899 152.772 157.994 152.922C158.003 152.934 158.009 152.948 158.012 152.962C158.015 152.976 158.015 152.991 158.012 153.005C158.01 153.019 158.004 153.033 157.996 153.045C157.988 153.057 157.978 153.068 157.966 153.076C157.947 153.089 157.925 153.095 157.903 153.095Z" fill="#263238"/>
<g opacity="0.9">
<path opacity="0.9" d="M190.72 189.482C190.987 188.813 191.444 188.235 192.034 187.821C192.624 187.407 193.323 187.173 194.043 187.149H221.762C223.422 187.149 224.544 188.495 224.277 190.158L215.508 242.511C215.353 243.338 214.921 244.089 214.283 244.638C213.644 245.187 212.838 245.503 211.996 245.532H142.493C142.114 245.547 141.738 245.474 141.391 245.321C141.045 245.167 140.739 244.936 140.496 244.645C140.253 244.355 140.08 244.012 139.99 243.645C139.9 243.277 139.896 242.893 139.977 242.523L147.432 197.956C147.59 197.13 148.023 196.383 148.661 195.836C149.299 195.29 150.104 194.976 150.944 194.947H182.957C186.233 194.934 189.45 192.674 190.72 189.482Z" fill="#1B29CB"/>
</g>
<path opacity="0.5" d="M190.719 189.482C190.986 188.813 191.443 188.235 192.033 187.821C192.623 187.407 193.322 187.173 194.042 187.149H221.761C223.421 187.149 224.543 188.495 224.276 190.158L215.507 242.511C215.352 243.338 214.92 244.089 214.282 244.638C213.643 245.187 212.837 245.503 211.995 245.532H142.492C142.113 245.547 141.737 245.474 141.39 245.321C141.044 245.167 140.738 244.936 140.495 244.645C140.252 244.355 140.079 244.012 139.989 243.645C139.899 243.277 139.895 242.893 139.977 242.523L147.431 197.956C147.589 197.13 148.022 196.383 148.66 195.836C149.298 195.29 150.103 194.976 150.943 194.947H182.956C186.232 194.934 189.449 192.674 190.719 189.482Z" fill="white"/>
<path opacity="0.9" d="M179.685 143L158.711 215.88L206.69 229.686L227.661 156.806L179.685 143Z" fill="#1B29CB"/>
<path opacity="0.7" d="M179.685 143L158.711 215.88L206.69 229.686L227.661 156.806L179.685 143Z" fill="white"/>
<g style="mix-blend-mode:multiply" opacity="0.9">
<path d="M178.755 146.229L158.711 215.88L205.058 229.217L223.844 157.129L178.755 146.229Z" fill="#1B29CB"/>
</g>
<path opacity="0.6" d="M178.755 146.229L158.711 215.88L205.058 229.217L223.844 157.129L178.755 146.229Z" fill="#1B29CB"/>
<g opacity="0.9">
<g style="mix-blend-mode:multiply" opacity="0.9">
<path d="M178.755 146.229L158.711 215.88L205.058 229.217L223.844 157.129L178.755 146.229Z" fill="white"/>
</g>
<path opacity="0.6" d="M178.755 146.229L158.711 215.88L205.058 229.217L223.844 157.129L178.755 146.229Z" fill="white"/>
</g>
<path d="M195.745 165.961C198.89 162.365 198.524 156.901 194.928 153.756C191.332 150.611 185.868 150.977 182.723 154.573C179.579 158.169 179.944 163.633 183.54 166.778C187.136 169.922 192.6 169.557 195.745 165.961Z" fill="#1B29CB"/>
<path d="M187.336 166.845C186.034 166.469 184.873 165.715 183.999 164.679C183.125 163.643 182.578 162.371 182.427 161.024C182.276 159.677 182.528 158.316 183.151 157.112C183.773 155.908 184.739 154.916 185.926 154.26C187.112 153.605 188.466 153.316 189.817 153.431C191.167 153.545 192.454 154.057 193.513 154.902C194.573 155.747 195.358 156.888 195.769 158.179C196.181 159.47 196.2 160.855 195.825 162.157C195.576 163.023 195.159 163.831 194.598 164.535C194.036 165.24 193.341 165.826 192.553 166.262C191.764 166.697 190.898 166.973 190.003 167.073C189.108 167.173 188.201 167.096 187.336 166.845Z" fill="white"/>
<path d="M192.569 174.062L177.298 169.669L176.31 173.101L191.581 177.495L192.569 174.062Z" fill="#1B29CB"/>
<path d="M177.407 200.975L168.989 198.553L165.151 211.896L173.569 214.318L177.407 200.975Z" fill="#1B29CB"/>
<path d="M207.195 209.545L198.777 207.123L194.938 220.466L203.356 222.888L207.195 209.545Z" fill="#1B29CB"/>
<path d="M192.301 205.262L183.883 202.84L180.044 216.183L188.462 218.605L192.301 205.262Z" fill="#1B29CB"/>
<path d="M204.908 177.61L194.577 174.638L193.59 178.07L203.92 181.042L204.908 177.61Z" fill="#1B29CB"/>
<path d="M212.954 188L175.151 177.125L174.745 178.539L212.547 189.414L212.954 188Z" fill="white"/>
<path d="M193.084 185.538L174.287 180.13L173.88 181.544L192.677 186.952L193.084 185.538Z" fill="white"/>
<path d="M208.874 190.08L196.301 186.463L195.894 187.877L208.467 191.494L208.874 190.08Z" fill="white"/>
<path d="M203.642 191.825L173.423 183.132L173.017 184.546L203.235 193.239L203.642 191.825Z" fill="white"/>
<path d="M206.912 196.444L172.213 186.323L171.801 187.736L206.5 197.856L206.912 196.444Z" fill="white"/>
<path d="M175.705 190.297L171.692 189.143L171.286 190.557L175.298 191.711L175.705 190.297Z" fill="white"/>
<path d="M196.657 196.325L178.926 191.225L178.519 192.639L196.25 197.74L196.657 196.325Z" fill="white"/>
<path d="M208.633 203.025L170.831 192.149L170.424 193.563L208.226 204.439L208.633 203.025Z" fill="white"/>
<path d="M174.102 145.55L155.662 219.122L204.081 231.261L222.518 157.689L174.102 145.55Z" fill="#1B29CB"/>
<path opacity="0.8" d="M174.102 145.55L155.662 219.122L204.081 231.261L222.518 157.689L174.102 145.55Z" fill="white"/>
<path d="M188.001 170.239C192.303 168.162 194.105 162.99 192.028 158.689C189.95 154.387 184.779 152.584 180.477 154.662C176.176 156.74 174.373 161.911 176.451 166.212C178.528 170.514 183.7 172.317 188.001 170.239Z" fill="#1B29CB"/>
<path d="M190.977 163.691C191.658 159.968 189.192 156.397 185.468 155.715C181.745 155.034 178.174 157.5 177.493 161.224C176.811 164.947 179.277 168.518 183.001 169.2C186.725 169.881 190.295 167.415 190.977 163.691Z" fill="white"/>
<path d="M188.051 176.14L172.638 172.277L171.769 175.742L187.183 179.605L188.051 176.14Z" fill="#1B29CB"/>
<path d="M173.831 203.561L165.334 201.432L161.959 214.899L170.455 217.029L173.831 203.561Z" fill="#1B29CB"/>
<path d="M203.891 211.096L195.395 208.967L192.019 222.435L200.516 224.564L203.891 211.096Z" fill="#1B29CB"/>
<path d="M188.861 207.329L180.364 205.199L176.989 218.667L185.486 220.796L188.861 207.329Z" fill="#1B29CB"/>
<path d="M200.502 179.259L190.075 176.646L189.207 180.11L199.634 182.723L200.502 179.259Z" fill="#1B29CB"/>
<path d="M208.905 189.365L170.75 179.802L170.392 181.229L208.547 190.792L208.905 189.365Z" fill="white"/>
<path d="M188.965 187.588L169.992 182.833L169.634 184.26L188.607 189.015L188.965 187.588Z" fill="white"/>
<path d="M204.899 191.581L192.209 188.4L191.851 189.828L204.541 193.008L204.899 191.581Z" fill="white"/>
<path d="M199.731 193.51L169.23 185.866L168.873 187.294L199.373 194.938L199.731 193.51Z" fill="white"/>
<path d="M203.533 197.688L168.473 188.901L168.115 190.329L203.175 199.116L203.533 197.688Z" fill="white"/>
<path d="M171.761 192.953L167.711 191.938L167.353 193.365L171.403 194.38L171.761 192.953Z" fill="white"/>
<path d="M192.907 198.248L175.011 193.763L174.653 195.19L192.549 199.675L192.907 198.248Z" fill="white"/>
<path d="M205.107 204.53L166.951 194.967L166.593 196.394L204.749 205.957L205.107 204.53Z" fill="white"/>
<path opacity="0.5" d="M172.206 200.411C172.266 199.232 173.297 198.398 174.7 198.398H202.421C204.081 198.398 205.681 199.559 205.996 200.992L214.318 242.922C214.633 244.356 213.539 245.519 211.878 245.519H142.366C140.702 245.519 139.102 244.356 138.788 242.922L131.943 207.711C131.629 206.278 132.723 205.114 134.386 205.114H166.387C169.672 205.114 172.074 203.165 172.206 200.411Z" fill="#1B29CB"/>
<circle cx="176.5" cy="51.5" r="51.5" fill="white"/>
<circle cx="176.5" cy="51.5" r="30" fill="#1B29CB" fill-opacity="0.22" stroke="#1B29CB" stroke-width="3"/>
<path d="M176.498 63.3381C174.76 63.3381 173.214 63.0402 171.862 62.4446C170.518 61.849 169.455 61.0199 168.675 59.9574C167.894 58.8949 167.479 57.6674 167.431 56.2749H171.971C172.011 56.9429 172.232 57.5265 172.635 58.0256C173.037 58.5166 173.573 58.8989 174.241 59.1726C174.909 59.4463 175.657 59.5831 176.486 59.5831C177.372 59.5831 178.157 59.4302 178.841 59.1243C179.525 58.8104 180.06 58.3757 180.447 57.8203C180.833 57.2649 181.022 56.625 181.014 55.9006C181.022 55.152 180.829 54.492 180.435 53.9205C180.04 53.349 179.469 52.9022 178.72 52.5803C177.98 52.2583 177.086 52.0973 176.04 52.0973H173.854V48.6442H176.04C176.901 48.6442 177.654 48.4953 178.297 48.1974C178.949 47.8996 179.461 47.4811 179.831 46.9418C180.201 46.3944 180.382 45.7625 180.374 45.0462C180.382 44.3459 180.225 43.7382 179.903 43.223C179.589 42.6998 179.143 42.2933 178.563 42.0036C177.992 41.7138 177.32 41.5689 176.547 41.5689C175.79 41.5689 175.09 41.7057 174.446 41.9794C173.802 42.2531 173.283 42.6435 172.888 43.1506C172.494 43.6496 172.285 44.2453 172.261 44.9375H167.95C167.982 43.553 168.381 42.3376 169.146 41.2912C169.918 40.2367 170.949 39.4157 172.236 38.8281C173.524 38.2325 174.969 37.9347 176.571 37.9347C178.221 37.9347 179.654 38.2446 180.869 38.8643C182.093 39.4761 183.039 40.3011 183.707 41.3395C184.375 42.3778 184.709 43.5249 184.709 44.7805C184.717 46.1731 184.306 47.3402 183.477 48.282C182.656 49.2237 181.578 49.8395 180.241 50.1293V50.3224C181.98 50.5639 183.312 51.2079 184.238 52.2543C185.172 53.2926 185.634 54.5845 185.626 56.13C185.626 57.5144 185.232 58.754 184.443 59.8487C183.662 60.9354 182.584 61.7886 181.207 62.4084C179.839 63.0282 178.269 63.3381 176.498 63.3381Z" fill="#1B29CB"/>
<defs>
<filter id="filter0_dd_625_36110" x="0" y="52" width="353" height="394" filterUnits="userSpaceOnUse" color-interpolation-filters="sRGB">
<feFlood flood-opacity="0" result="BackgroundImageFix"/>
<feColorMatrix in="SourceAlpha" type="matrix" values="0 0 0 0 0 0 0 0 0 0 0 0 0 0 0 0 0 0 127 0" result="hardAlpha"/>
<feMorphology radius="4" operator="erode" in="SourceAlpha" result="effect1_dropShadow_625_36110"/>
<feOffset dy="12"/>
<feGaussianBlur stdDeviation="8"/>
<feComposite in2="hardAlpha" operator="out"/>
<feColorMatrix type="matrix" values="0 0 0 0 0 0 0 0 0 0 0 0 0 0 0 0 0 0 0.08 0"/>
<feBlend mode="normal" in2="BackgroundImageFix" result="effect1_dropShadow_625_36110"/>
<feColorMatrix in="SourceAlpha" type="matrix" values="0 0 0 0 0 0 0 0 0 0 0 0 0 0 0 0 0 0 127 0" result="hardAlpha"/>
<feMorphology radius="2" operator="erode" in="SourceAlpha" result="effect2_dropShadow_625_36110"/>
<feOffset dy="4"/>
<feGaussianBlur stdDeviation="3"/>
<feComposite in2="hardAlpha" operator="out"/>
<feColorMatrix type="matrix" values="0 0 0 0 0 0 0 0 0 0 0 0 0 0 0 0 0 0 0.03 0"/>
<feBlend mode="normal" in2="effect1_dropShadow_625_36110" result="effect2_dropShadow_625_36110"/>
<feBlend mode="normal" in="SourceGraphic" in2="effect2_dropShadow_625_36110" result="shape"/>
</filter>
</defs>
</svg>
