<svg width="37" height="42" viewBox="0 0 37 42" fill="none" xmlns="http://www.w3.org/2000/svg">
<path fill-rule="evenodd" clip-rule="evenodd" d="M17.2735 17.9444C17.5047 17.8883 17.7463 17.8585 17.9948 17.8585C18.3604 17.8585 18.711 17.923 19.0358 18.0411V12.5016C19.0358 12.3043 19.116 12.1156 19.2579 11.9786L24.1811 7.22942C24.492 6.92949 24.4741 6.42615 24.1427 6.14905L23.9392 5.97896C23.6557 5.74192 23.2394 5.75547 22.9719 6.01044L20.2637 8.5916C19.8012 9.03243 19.0358 8.70458 19.0358 8.06564V5.88027C19.0358 5.67789 19.1202 5.48468 19.2687 5.34717L21.3464 3.42299C21.6485 3.14322 21.658 2.66857 21.3674 2.37695L21.2444 2.25357C20.9885 1.99685 20.5825 1.96798 20.2929 2.18592L20.1992 2.25639C19.7204 2.6167 19.0358 2.27506 19.0358 1.6758V0.98538C19.0358 0.584095 18.7105 0.258789 18.3092 0.258789H18.0001C17.5988 0.258789 17.2735 0.584095 17.2735 0.98538V1.53152C17.2735 2.15463 16.5391 2.48715 16.0709 2.07607C15.7643 1.80695 15.2961 1.84383 15.0354 2.15764L14.8497 2.38124C14.603 2.67822 14.6317 3.11627 14.9149 3.3786L17.0406 5.34717C17.1891 5.48468 17.2735 5.67789 17.2735 5.88027V8.0627C17.2735 8.70208 16.5073 9.02974 16.045 8.58804L13.1619 5.8333C12.8761 5.56021 12.4244 5.56572 12.1453 5.84569L11.8571 6.13481C11.5668 6.42612 11.5759 6.90016 11.8772 7.18009L17.0414 11.9773C17.1894 12.1148 17.2735 12.3077 17.2735 12.5097V17.9444ZM14.9976 20.3586L10.8954 17.7867C10.7283 17.682 10.5258 17.6496 10.3343 17.6972L3.69547 19.3457C3.27619 19.4498 2.85924 19.1673 2.80052 18.7393L2.76447 18.4766C2.71424 18.1104 2.94684 17.7649 3.30497 17.6737L6.93042 16.7502C7.54959 16.5925 7.67836 15.7699 7.13701 15.4305L5.28543 14.2697C5.11397 14.1622 4.90543 14.1311 4.71005 14.1838L1.97612 14.9221C1.57861 15.0295 1.17141 14.7854 1.07873 14.3842L1.03952 14.2145C0.957934 13.8613 1.14911 13.502 1.48761 13.3724L1.59706 13.3305C2.15669 13.1162 2.23089 12.3547 1.72315 12.0363L1.13819 11.6696C0.798194 11.4565 0.69537 11.008 0.908524 10.6681L1.07271 10.4062C1.28586 10.0662 1.73428 9.96335 2.07427 10.1765L2.53699 10.4666C3.06493 10.7976 3.73674 10.352 3.63719 9.7369C3.57202 9.3342 3.85197 8.95709 4.2563 8.90293L4.5444 8.86434C4.92706 8.81309 5.28298 9.07004 5.35478 9.44938L5.89355 12.2961C5.93118 12.4949 6.05005 12.6691 6.22152 12.7766L8.07061 13.9358C8.61233 14.2754 9.29696 13.8003 9.16828 13.174L8.36572 9.26798C8.28617 8.88077 8.53076 8.50099 8.9162 8.41327L9.31423 8.32268C9.71528 8.2314 10.1121 8.49092 10.1892 8.89494L11.5106 15.8185C11.5485 16.017 11.6672 16.1906 11.8384 16.2979L15.8065 18.7857C15.3957 19.2099 15.1072 19.7531 14.9976 20.3586ZM15.0604 21.724L10.7144 23.8924C10.5336 23.9826 10.3235 23.9934 10.1344 23.9224L3.53624 21.4432C3.15122 21.2985 2.72298 21.502 2.59194 21.8919L2.4619 22.2788C2.33597 22.6535 2.5327 23.0602 2.90466 23.194L6.65678 24.5439C7.25841 24.7604 7.30732 25.5923 6.7352 25.8778L4.78234 26.8521C4.60125 26.9425 4.39068 26.9532 4.20134 26.8817L1.49083 25.8585C1.12963 25.7222 0.724871 25.8921 0.569259 26.2454L0.4521 26.5114C0.287676 26.8848 0.46371 27.3202 0.841395 27.4744C1.41829 27.7099 1.44861 28.5154 0.89105 28.7936L0.402361 29.0375C0.0432887 29.2166 -0.102563 29.6529 0.0765922 30.012L0.21459 30.2886C0.393745 30.6477 0.830065 30.7935 1.18914 30.6144L1.80693 30.3061C2.34316 30.0386 2.95449 30.4986 2.84587 31.088L2.82463 31.2032C2.75893 31.5597 2.96599 31.9101 3.30995 32.0244L3.47526 32.0794C3.86598 32.2093 4.28646 31.9889 4.40193 31.5937L5.19607 28.8754C5.25282 28.6812 5.38803 28.5194 5.56912 28.429L7.5246 27.4534C8.09633 27.1681 8.73139 27.7066 8.54343 28.3173L7.44287 31.8929C7.33415 32.2461 7.50789 32.6247 7.84658 32.7726L8.0896 32.8787C8.48552 33.0515 8.9439 32.8428 9.07348 32.4307L11.1251 25.9051C11.1843 25.717 11.3174 25.561 11.4939 25.4729L16.0134 23.218C15.5616 22.8307 15.2246 22.3134 15.0604 21.724ZM17.2735 23.8645V29.4905C17.2735 29.6925 17.1894 29.8854 17.0414 30.0229L11.8772 34.8201C11.5759 35.1001 11.5668 35.5741 11.8571 35.8654L12.1453 36.1545C12.4244 36.4345 12.8761 36.44 13.1619 36.1669L16.045 33.4122C16.5073 32.9705 17.2735 33.2981 17.2735 33.9375V36.1199C17.2735 36.3223 17.1891 36.5155 17.0406 36.6531L14.9149 38.6216C14.6317 38.8839 14.603 39.322 14.8497 39.619L15.0354 39.8426C15.2961 40.1564 15.7643 40.1933 16.0709 39.9241C16.5391 39.5131 17.2735 39.8456 17.2735 40.4687V41.0148C17.2735 41.4161 17.5988 41.7414 18.0001 41.7414H18.3092C18.7105 41.7414 19.0358 41.4161 19.0358 41.0148V40.3244C19.0358 39.7252 19.7204 39.3835 20.1992 39.7438L20.2929 39.8143C20.5825 40.0322 20.9885 40.0034 21.2444 39.7467L21.3674 39.6233C21.658 39.3316 21.6485 38.857 21.3464 38.5772L19.2687 36.6531C19.1202 36.5155 19.0358 36.3223 19.0358 36.1199V33.9346C19.0358 33.2956 19.8012 32.9678 20.2637 33.4086L22.9719 35.9898C23.2394 36.2448 23.6557 36.2583 23.9392 36.0213L24.1427 35.8512C24.4741 35.5741 24.492 35.0707 24.1811 34.7708L19.2579 30.0216C19.116 29.8847 19.0358 29.6959 19.0358 29.4987V23.7679C18.711 23.886 18.3604 23.9504 17.9948 23.9504C17.7463 23.9504 17.5047 23.9207 17.2735 23.8645ZM19.7916 23.3643L24.1377 26.089C24.3048 26.1938 24.4222 26.362 24.4628 26.555L25.8715 33.2488C25.9605 33.6716 26.3965 33.9238 26.8073 33.7902L27.0595 33.7081C27.4109 33.5938 27.6206 33.2339 27.5466 32.8718L26.7982 29.2062C26.6704 28.5802 27.3547 28.1059 27.8961 28.4453L29.7477 29.6061C29.9191 29.7136 30.038 29.8877 30.0756 30.0866L30.6023 32.8691C30.6788 33.2736 31.0759 33.5338 31.4774 33.4424L31.6473 33.4038C32.0007 33.3233 32.2408 32.9947 32.21 32.6335L32.2 32.5168C32.1491 31.9197 32.8022 31.5211 33.31 31.8394L33.8949 32.2061C34.2349 32.4193 34.6833 32.3165 34.8965 31.9765L35.0607 31.7146C35.2738 31.3746 35.171 30.9262 34.831 30.713L34.3683 30.4229C33.8403 30.092 33.9487 29.2931 34.5457 29.1147C34.9366 28.9979 35.154 28.5816 35.0266 28.1941L34.9358 27.918C34.8152 27.5512 34.4289 27.3428 34.0562 27.4435L31.2591 28.1988C31.0638 28.2516 30.8552 28.2205 30.6838 28.113L28.8347 26.9537C28.2929 26.6141 28.4224 25.7908 29.0421 25.6338L32.9076 24.6543C33.2907 24.5572 33.526 24.1716 33.437 23.7864L33.3451 23.3887C33.2526 22.9879 32.8461 22.7439 32.4488 22.8505L25.6412 24.6777C25.4461 24.7301 25.2381 24.6989 25.0669 24.5916L20.856 21.9516C20.6473 22.5217 20.2731 23.0119 19.7916 23.3643ZM21.0349 20.7142C20.9965 20.0918 20.7713 19.52 20.4145 19.0542L24.6885 16.9218C24.8692 16.8316 25.0043 16.6703 25.0612 16.4765L27.0482 9.71376C27.1642 9.31914 27.5843 9.09935 27.9746 9.22911L28.3619 9.3579C28.737 9.48261 28.9436 9.88433 28.8269 10.262L27.6491 14.0717C27.4602 14.6825 28.0955 15.2219 28.6676 14.9364L30.6205 13.9621C30.8016 13.8717 30.9368 13.7099 30.9935 13.5157L31.806 10.7347C31.9143 10.3641 32.2935 10.1429 32.6693 10.2311L32.9523 10.2974C33.3495 10.3906 33.5915 10.7931 33.4876 11.1875C33.3288 11.7901 33.9542 12.2987 34.5118 12.0206L35.0005 11.7767C35.3596 11.5976 35.7959 11.7434 35.975 12.1025L36.113 12.3791C36.2922 12.7382 36.1463 13.1745 35.7873 13.3536L35.1695 13.6619C34.6332 13.9294 34.6332 14.6945 35.1694 14.9621L35.2743 15.0145C35.5986 15.1764 35.754 15.5525 35.6385 15.8961L35.583 16.0612C35.4518 16.4515 35.0229 16.6549 34.6377 16.5095L31.9883 15.5094C31.7989 15.4379 31.5884 15.4486 31.4073 15.539L29.4518 16.5146C28.8801 16.7999 28.9284 17.6311 29.5294 17.8482L33.0481 19.1191C33.3957 19.2447 33.5936 19.6111 33.5081 19.9706L33.4467 20.2286C33.3468 20.6489 32.9044 20.8896 32.4972 20.7453L26.0496 18.4604C25.8637 18.3945 25.659 18.407 25.4825 18.4951L21.0349 20.7142Z" fill="#1B29CB"/>
</svg>
