<svg width="61" height="60" viewBox="0 0 61 60" fill="none" xmlns="http://www.w3.org/2000/svg">
<path opacity="0.1" fill-rule="evenodd" clip-rule="evenodd" d="M2 30.1479C2 14.4078 14.7599 1.64795 30.5 1.64795C46.2401 1.64795 59 14.4078 59 30.1479C59 45.8881 46.2401 58.6479 30.5 58.6479C14.7599 58.6479 2 45.8881 2 30.1479Z" fill="white" stroke="#002163" stroke-width="2.36"/>
<path fill-rule="evenodd" clip-rule="evenodd" d="M30.5012 14.9478C26.3731 14.9478 25.855 14.9658 24.2337 15.0396C22.6155 15.1137 21.511 15.3699 20.5445 15.7458C19.5448 16.134 18.6967 16.6533 17.8518 17.4985C17.0063 18.3434 16.487 19.1914 16.0975 20.1909C15.7207 21.1577 15.4642 22.2625 15.3913 23.8801C15.3188 25.5014 15.2998 26.0198 15.2998 30.1479C15.2998 34.276 15.3182 34.7925 15.3916 36.4139C15.4661 38.032 15.7222 39.1366 16.0978 40.1031C16.4864 41.1028 17.0057 41.9508 17.8509 42.7957C18.6955 43.6412 19.5435 44.1618 20.5426 44.5501C21.5097 44.9259 22.6146 45.1821 24.2324 45.2562C25.8538 45.33 26.3715 45.3481 30.4993 45.3481C34.6278 45.3481 35.1442 45.33 36.7656 45.2562C38.3838 45.1821 39.4896 44.9259 40.4567 44.5501C41.4561 44.1618 42.3029 43.6412 43.1474 42.7957C43.993 41.9508 44.5123 41.1028 44.9018 40.1034C45.2755 39.1366 45.532 38.0317 45.608 36.4142C45.6808 34.7928 45.6998 34.276 45.6998 30.1479C45.6998 26.0198 45.6808 25.5017 45.608 23.8804C45.532 22.2622 45.2755 21.1577 44.9018 20.1912C44.5123 19.1914 43.993 18.3434 43.1474 17.4985C42.3019 16.653 41.4564 16.1337 40.4557 15.7458C39.4867 15.3699 38.3816 15.1137 36.7634 15.0396C35.142 14.9658 34.6259 14.9478 30.4965 14.9478H30.5012ZM29.1376 17.6869C29.5423 17.6863 29.9939 17.6869 30.5012 17.6869C34.5596 17.6869 35.0406 17.7015 36.6433 17.7743C38.1253 17.8421 38.9296 18.0897 39.4655 18.2978C40.1748 18.5733 40.6805 18.9026 41.2122 19.4346C41.7442 19.9666 42.0735 20.4733 42.3497 21.1826C42.5577 21.7178 42.8057 22.5221 42.8731 24.0042C42.946 25.6065 42.9618 26.0878 42.9618 30.1444C42.9618 34.2009 42.946 34.6823 42.8731 36.2846C42.8054 37.7666 42.5577 38.571 42.3497 39.1061C42.0742 39.8155 41.7442 40.3206 41.2122 40.8523C40.6802 41.3843 40.1751 41.7136 39.4655 41.9891C38.9303 42.1981 38.1253 42.4451 36.6433 42.5129C35.0409 42.5857 34.5596 42.6015 30.5012 42.6015C26.4424 42.6015 25.9614 42.5857 24.359 42.5129C22.877 42.4445 22.0727 42.1968 21.5366 41.9888C20.8272 41.7133 20.3205 41.384 19.7885 40.8519C19.2565 40.3199 18.9272 39.8145 18.6511 39.1049C18.443 38.5697 18.1951 37.7654 18.1276 36.2833C18.0548 34.681 18.0402 34.1997 18.0402 30.1406C18.0402 26.0815 18.0548 25.6027 18.1276 24.0004C18.1954 22.5183 18.443 21.714 18.6511 21.1782C18.9266 20.4689 19.2565 19.9622 19.7885 19.4302C20.3205 18.8982 20.8272 18.5688 21.5366 18.2927C22.0724 18.0837 22.877 17.8367 24.359 17.7686C25.7612 17.7053 26.3047 17.6863 29.1376 17.6831V17.6869ZM38.6149 20.2108C37.6079 20.2108 36.7909 21.0268 36.7909 22.0342C36.7909 23.0412 37.6079 23.8582 38.6149 23.8582C39.6219 23.8582 40.4389 23.0412 40.4389 22.0342C40.4389 21.0271 39.6219 20.2108 38.6149 20.2108ZM30.5013 22.342C26.1904 22.342 22.6953 25.837 22.6953 30.1479C22.6953 34.4587 26.1904 37.9522 30.5013 37.9522C34.8121 37.9522 38.3059 34.4587 38.3059 30.1479C38.3059 25.837 34.8121 22.342 30.5013 22.342ZM30.5012 25.0812C33.2993 25.0812 35.5679 27.3495 35.5679 30.1479C35.5679 32.946 33.2993 35.2146 30.5012 35.2146C27.7028 35.2146 25.4345 32.946 25.4345 30.1479C25.4345 27.3495 27.7028 25.0812 30.5012 25.0812Z" fill="#002163"/>
</svg>
