<svg width="68" height="69" viewBox="0 0 68 69" fill="none" xmlns="http://www.w3.org/2000/svg">
<path d="M34 34.5C29.325 34.5 25.3229 32.8109 21.9937 29.4328C18.6646 26.0547 17 21.9937 17 17.25C17 12.5062 18.6646 8.44531 21.9937 5.06719C25.3229 1.68906 29.325 0 34 0C38.675 0 42.6771 1.68906 46.0062 5.06719C49.3354 8.44531 51 12.5062 51 17.25C51 21.9937 49.3354 26.0547 46.0062 29.4328C42.6771 32.8109 38.675 34.5 34 34.5ZM0 60.375V56.925C0 54.4812 0.620501 52.2359 1.8615 50.1889C3.1025 48.1419 4.74867 46.5779 6.8 45.4969C11.1917 43.2687 15.6542 41.5984 20.1875 40.4857C24.7208 39.3731 29.325 38.8154 34 38.8125C38.675 38.8096 43.2792 39.3674 47.8125 40.4857C52.3458 41.6041 56.8083 43.2745 61.2 45.4969C63.2542 46.575 64.9017 48.139 66.1427 50.1889C67.3837 52.2387 68.0028 54.4841 68 56.925V60.375C68 62.7469 67.1684 64.7781 65.5052 66.4686C63.8421 68.1591 61.8403 69.0029 59.5 69H8.5C6.1625 69 4.16217 68.1562 2.499 66.4686C0.835832 64.7809 0.00283333 62.7497 0 60.375Z" fill="#1B2ACB"/>
</svg>
