<svg width="211" height="198" viewBox="0 0 211 198" fill="none" xmlns="http://www.w3.org/2000/svg">
<rect x="1.12806" y="0.598517" width="208.369" height="196.394" rx="17.3641" fill="#F8F9FF"/>
<rect x="1.12806" y="0.598517" width="208.369" height="196.394" rx="17.3641" stroke="#E3E3E3" stroke-width="1.19752"/>
<path d="M70.7342 161.665C67.5645 161.665 64.852 160.494 62.5967 158.15C60.3414 155.807 59.2118 152.987 59.208 149.69V89.8138C59.208 86.5206 60.3376 83.7025 62.5967 81.3593C64.8558 79.0162 67.5683 77.8426 70.7342 77.8386H76.4972V65.8634C76.4972 57.5805 79.3077 50.5211 84.9286 44.6852C90.5496 38.8492 97.3442 35.9293 105.313 35.9253C113.281 35.9213 120.078 38.8413 125.702 44.6852C131.327 50.5291 134.136 57.5885 134.128 65.8634V77.8386H139.891C143.061 77.8386 145.775 79.0122 148.034 81.3593C150.293 83.7065 151.421 86.5246 151.417 89.8138V149.69C151.417 152.983 150.29 155.803 148.034 158.15C145.779 160.498 143.065 161.669 139.891 161.665H70.7342ZM105.313 131.727C108.482 131.727 111.197 130.556 113.456 128.212C115.715 125.869 116.843 123.049 116.839 119.752C116.835 116.455 115.707 113.637 113.456 111.297C111.204 108.958 108.49 107.785 105.313 107.777C102.135 107.769 99.4228 108.942 97.1752 111.297C94.9276 113.653 93.798 116.471 93.7865 119.752C93.775 123.033 94.9045 125.853 97.1752 128.212C99.4458 130.572 102.158 131.743 105.313 131.727ZM88.0234 77.8386H122.602V65.8634C122.602 60.8737 120.921 56.6325 117.559 53.1397C114.197 49.6469 110.115 47.9005 105.313 47.9005C100.51 47.9005 96.4279 49.6469 93.0661 53.1397C89.7043 56.6325 88.0234 60.8737 88.0234 65.8634V77.8386Z" fill="#E3E7FF" fill-opacity="0.5"/>
<path d="M193.929 16.7638C131.059 13.1714 91.5407 174.239 17.893 166.454" stroke="#EEF0FF" stroke-width="1.19752"/>
<circle cx="1.19752" cy="1.19752" r="1.19752" transform="matrix(-1 0 0 1 19.6899 165.258)" fill="#EEF0FF"/>
<circle cx="1.19752" cy="1.19752" r="1.19752" transform="matrix(-1 0 0 1 194.528 15.5671)" fill="#EEF0FF"/>
<path fill-rule="evenodd" clip-rule="evenodd" d="M84.3564 48.6926C84.3564 46.271 86.3196 44.3079 88.7412 44.3079H120.687C123.109 44.3079 125.072 46.271 125.072 48.6926V93.1668C125.072 95.5885 123.109 97.5516 120.687 97.5516H88.7412C86.3196 97.5516 84.3564 95.5885 84.3564 93.1668V48.6926ZM121.679 47.6356H87.7494V94.2239H121.679V47.6356Z" fill="url(#paint0_angular_441_16655)"/>
<path fill-rule="evenodd" clip-rule="evenodd" d="M121.679 94.2239V47.6356H87.7494V94.2239H121.679ZM117.503 60.9465C117.936 60.9465 118.286 60.596 118.286 60.1635V58.4018C118.286 57.9694 117.936 57.6188 117.503 57.6188H105.497C105.065 57.6188 104.714 57.9694 104.714 58.4018V60.1635C104.714 60.596 105.065 60.9465 105.497 60.9465H117.503ZM117.503 74.2575C117.936 74.2575 118.286 73.9069 118.286 73.4745V71.7127C118.286 71.2803 117.936 70.9297 117.503 70.9297H105.497C105.065 70.9297 104.714 71.2803 104.714 71.7127V73.4745C104.714 73.9069 105.065 74.2575 105.497 74.2575H117.503ZM117.503 87.5684C117.936 87.5684 118.286 87.2178 118.286 86.7854V85.0237C118.286 84.5912 117.936 84.2407 117.503 84.2407H105.497C105.065 84.2407 104.714 84.5912 104.714 85.0237V86.7854C104.714 87.2178 105.065 87.5684 105.497 87.5684H117.503ZM95.6836 61.0848C95.9881 61.3834 96.4756 61.3834 96.7801 61.0848L101.944 56.02C102.257 55.713 102.257 55.2089 101.944 54.902L100.677 53.6589C100.372 53.3602 99.8848 53.3602 99.5803 53.6589L96.7801 56.4051C96.4756 56.7038 95.9881 56.7038 95.6836 56.4051L94.58 55.3227C94.2755 55.0241 93.788 55.0241 93.4835 55.3227L92.216 56.5658C91.903 56.8728 91.903 57.3769 92.216 57.6838L95.6836 61.0848ZM95.6836 74.3957C95.9881 74.6943 96.4756 74.6943 96.7801 74.3957L102.514 68.7719L100.677 66.9698C100.372 66.6712 99.8848 66.6712 99.5803 66.9698L96.7801 69.7161C96.4756 70.0147 95.9881 70.0147 95.6836 69.7161L94.58 68.6337C94.2755 68.335 93.788 68.335 93.4835 68.6337L92.216 69.8768C91.903 70.1837 91.903 70.6878 92.216 70.9948L95.6836 74.3957ZM95.6836 87.7066C95.9881 88.0053 96.4756 88.0053 96.7801 87.7066L101.944 82.6418C102.257 82.3349 102.257 81.8308 101.944 81.5238L100.677 80.2807C100.372 79.9821 99.8848 79.9821 99.5803 80.2807L96.7801 83.027C96.4756 83.3256 95.9881 83.3256 95.6836 83.027L94.58 81.9446C94.2755 81.646 93.788 81.646 93.4835 81.9446L92.216 83.1877C91.903 83.4946 91.903 83.9987 92.216 84.3057L95.6836 87.7066Z" fill="url(#paint1_angular_441_16655)"/>
<path d="M35.8474 122.156H38.729V135.741C38.729 136.969 38.4857 138.02 37.9992 138.894C37.519 139.767 36.8423 140.434 35.9691 140.896C35.0959 141.351 34.073 141.579 32.9004 141.579C31.8214 141.579 30.8515 141.382 29.9908 140.989C29.1363 140.596 28.4596 140.026 27.9606 139.277C27.4679 138.522 27.2215 137.606 27.2215 136.527H30.0937C30.0937 137.057 30.2153 137.515 30.4586 137.902C30.7081 138.289 31.048 138.591 31.4783 138.809C31.9149 139.021 32.4139 139.127 32.9753 139.127C33.5865 139.127 34.1042 139 34.5283 138.744C34.9587 138.482 35.2861 138.098 35.5106 137.593C35.7352 137.088 35.8474 136.47 35.8474 135.741V122.156ZM48.7653 141.607C47.418 141.607 46.2423 141.298 45.2382 140.68C44.234 140.063 43.4544 139.199 42.8993 138.089C42.3442 136.979 42.0666 135.681 42.0666 134.197C42.0666 132.706 42.3442 131.403 42.8993 130.286C43.4544 129.17 44.234 128.303 45.2382 127.685C46.2423 127.068 47.418 126.759 48.7653 126.759C50.1125 126.759 51.2882 127.068 52.2923 127.685C53.2965 128.303 54.0761 129.17 54.6312 130.286C55.1863 131.403 55.4639 132.706 55.4639 134.197C55.4639 135.681 55.1863 136.979 54.6312 138.089C54.0761 139.199 53.2965 140.063 52.2923 140.68C51.2882 141.298 50.1125 141.607 48.7653 141.607ZM48.7746 139.258C49.6478 139.258 50.3713 139.028 50.9451 138.566C51.5189 138.105 51.9431 137.49 52.2175 136.723C52.4982 135.956 52.6385 135.111 52.6385 134.188C52.6385 133.271 52.4982 132.429 52.2175 131.662C51.9431 130.888 51.5189 130.268 50.9451 129.8C50.3713 129.332 49.6478 129.098 48.7746 129.098C47.8952 129.098 47.1654 129.332 46.5854 129.8C46.0116 130.268 45.5843 130.888 45.3037 131.662C45.0292 132.429 44.892 133.271 44.892 134.188C44.892 135.111 45.0292 135.956 45.3037 136.723C45.5843 137.49 46.0116 138.105 46.5854 138.566C47.1654 139.028 47.8952 139.258 48.7746 139.258ZM58.8109 141.317V122.156H61.6082V129.276H61.7766C61.9388 128.977 62.1727 128.63 62.4783 128.237C62.7839 127.845 63.208 127.501 63.7507 127.208C64.2933 126.909 65.0106 126.759 65.9025 126.759C67.0626 126.759 68.0979 127.052 69.0085 127.639C69.9192 128.225 70.6333 129.07 71.151 130.174C71.6749 131.278 71.9369 132.607 71.9369 134.16C71.9369 135.713 71.678 137.044 71.1603 138.154C70.6427 139.258 69.9316 140.11 69.0273 140.709C68.1229 141.301 67.0906 141.597 65.9305 141.597C65.0573 141.597 64.3432 141.451 63.7881 141.158C63.2392 140.864 62.8089 140.521 62.497 140.128C62.1852 139.736 61.945 139.386 61.7766 139.081H61.5427V141.317H58.8109ZM61.5521 134.132C61.5521 135.142 61.6987 136.028 61.9918 136.789C62.2849 137.549 62.7091 138.145 63.2642 138.575C63.8193 139 64.4991 139.212 65.3037 139.212C66.1395 139.212 66.838 138.99 67.3994 138.547C67.9607 138.098 68.3848 137.49 68.6717 136.723C68.9649 135.956 69.1115 135.092 69.1115 134.132C69.1115 133.183 68.968 132.332 68.6811 131.577C68.4004 130.823 67.9763 130.227 67.4087 129.79C66.8474 129.354 66.1457 129.136 65.3037 129.136C64.4929 129.136 63.8068 129.345 63.2455 129.762C62.6904 130.18 62.2694 130.763 61.9824 131.512C61.6955 132.26 61.5521 133.134 61.5521 134.132ZM88.7583 126.946V129.192H80.9089V126.946H88.7583ZM83.0139 123.503H85.8113V137.097C85.8113 137.64 85.8924 138.048 86.0545 138.323C86.2167 138.591 86.4256 138.775 86.6814 138.875C86.9433 138.968 87.2271 139.015 87.5327 139.015C87.7573 139.015 87.9537 139 88.1221 138.968C88.2905 138.937 88.4215 138.912 88.5151 138.894L89.0203 141.204C88.8581 141.267 88.6273 141.329 88.328 141.391C88.0286 141.46 87.6544 141.498 87.2053 141.504C86.4693 141.516 85.7832 141.385 85.147 141.111C84.5109 140.836 83.9963 140.412 83.6034 139.838C83.2104 139.265 83.0139 138.544 83.0139 137.677V123.503ZM91.8527 141.317V126.946H94.5565V129.229H94.7062C94.9681 128.456 95.4297 127.848 96.0908 127.405C96.7582 126.956 97.5129 126.731 98.3549 126.731C98.5295 126.731 98.7353 126.737 98.9724 126.75C99.2156 126.762 99.4058 126.778 99.543 126.797V129.472C99.4308 129.441 99.2312 129.407 98.9443 129.369C98.6574 129.326 98.3705 129.304 98.0836 129.304C97.4224 129.304 96.833 129.444 96.3153 129.725C95.8039 129.999 95.3985 130.383 95.0991 130.876C94.7997 131.362 94.65 131.917 94.65 132.541V141.317H91.8527ZM106.017 141.635C105.107 141.635 104.283 141.466 103.547 141.13C102.811 140.786 102.228 140.291 101.798 139.642C101.374 138.993 101.162 138.198 101.162 137.256C101.162 136.445 101.318 135.778 101.629 135.254C101.941 134.73 102.362 134.316 102.892 134.01C103.423 133.704 104.015 133.473 104.67 133.318C105.325 133.162 105.992 133.043 106.672 132.962C107.533 132.862 108.231 132.781 108.768 132.719C109.304 132.65 109.694 132.541 109.937 132.391C110.18 132.242 110.302 131.998 110.302 131.662V131.596C110.302 130.779 110.071 130.146 109.61 129.697C109.154 129.248 108.475 129.023 107.57 129.023C106.628 129.023 105.886 129.232 105.344 129.65C104.807 130.062 104.436 130.52 104.23 131.025L101.601 130.427C101.913 129.553 102.368 128.849 102.967 128.312C103.572 127.77 104.268 127.377 105.054 127.133C105.839 126.884 106.666 126.759 107.533 126.759C108.107 126.759 108.715 126.828 109.357 126.965C110.006 127.096 110.611 127.339 111.172 127.695C111.74 128.05 112.204 128.559 112.566 129.22C112.928 129.875 113.109 130.726 113.109 131.774V141.317H110.377V139.352H110.265C110.084 139.714 109.812 140.069 109.451 140.419C109.089 140.768 108.624 141.058 108.057 141.289C107.489 141.519 106.809 141.635 106.017 141.635ZM106.625 139.389C107.399 139.389 108.06 139.237 108.609 138.931C109.164 138.625 109.585 138.226 109.872 137.733C110.165 137.234 110.311 136.701 110.311 136.134V134.281C110.212 134.381 110.018 134.475 109.731 134.562C109.451 134.643 109.129 134.715 108.768 134.777C108.406 134.833 108.054 134.886 107.711 134.936C107.367 134.98 107.081 135.017 106.85 135.048C106.307 135.117 105.811 135.232 105.362 135.395C104.919 135.557 104.564 135.791 104.296 136.096C104.034 136.396 103.903 136.795 103.903 137.294C103.903 137.986 104.159 138.51 104.67 138.865C105.181 139.215 105.833 139.389 106.625 139.389ZM122.888 141.607C121.497 141.607 120.299 141.292 119.295 140.662C118.297 140.026 117.53 139.149 116.994 138.033C116.457 136.916 116.189 135.638 116.189 134.197C116.189 132.738 116.464 131.45 117.012 130.333C117.561 129.21 118.335 128.334 119.333 127.704C120.331 127.074 121.506 126.759 122.86 126.759C123.951 126.759 124.924 126.962 125.779 127.367C126.633 127.767 127.322 128.328 127.846 129.051C128.376 129.775 128.691 130.62 128.791 131.587H126.069C125.919 130.913 125.576 130.333 125.04 129.847C124.509 129.36 123.798 129.117 122.906 129.117C122.127 129.117 121.444 129.323 120.858 129.734C120.278 130.14 119.825 130.72 119.501 131.475C119.177 132.223 119.014 133.109 119.014 134.132C119.014 135.179 119.174 136.084 119.492 136.845C119.81 137.606 120.259 138.195 120.839 138.613C121.425 139.031 122.114 139.24 122.906 139.24C123.437 139.24 123.917 139.143 124.347 138.95C124.784 138.75 125.149 138.466 125.442 138.098C125.741 137.73 125.95 137.287 126.069 136.77H128.791C128.691 137.699 128.389 138.529 127.884 139.258C127.378 139.988 126.702 140.562 125.853 140.98C125.011 141.398 124.023 141.607 122.888 141.607ZM134.355 136.442L134.337 133.028H134.823L140.549 126.946H143.898L137.368 133.87H136.928L134.355 136.442ZM131.783 141.317V122.156H134.58V141.317H131.783ZM140.858 141.317L135.712 134.487L137.639 132.532L144.291 141.317H140.858ZM146.448 141.317V126.946H149.245V141.317H146.448ZM147.86 124.729C147.374 124.729 146.956 124.567 146.607 124.243C146.264 123.912 146.092 123.519 146.092 123.064C146.092 122.602 146.264 122.209 146.607 121.885C146.956 121.554 147.374 121.389 147.86 121.389C148.347 121.389 148.762 121.554 149.105 121.885C149.454 122.209 149.629 122.602 149.629 123.064C149.629 123.519 149.454 123.912 149.105 124.243C148.762 124.567 148.347 124.729 147.86 124.729ZM155.806 132.784V141.317H153.008V126.946H155.693V129.285H155.871C156.202 128.524 156.719 127.913 157.424 127.452C158.135 126.99 159.03 126.759 160.109 126.759C161.088 126.759 161.946 126.965 162.682 127.377C163.418 127.782 163.989 128.387 164.394 129.192C164.799 129.996 165.002 130.991 165.002 132.176V141.317H162.205V132.513C162.205 131.471 161.934 130.657 161.391 130.071C160.848 129.479 160.103 129.182 159.155 129.182C158.506 129.182 157.929 129.323 157.424 129.603C156.925 129.884 156.529 130.296 156.236 130.838C155.949 131.375 155.806 132.023 155.806 132.784ZM174.779 147.005C173.637 147.005 172.655 146.855 171.832 146.556C171.015 146.256 170.347 145.86 169.83 145.368C169.312 144.875 168.925 144.335 168.67 143.749L171.074 142.757C171.242 143.032 171.467 143.322 171.748 143.627C172.035 143.939 172.421 144.204 172.908 144.423C173.4 144.641 174.034 144.75 174.807 144.75C175.867 144.75 176.744 144.491 177.436 143.974C178.128 143.462 178.474 142.645 178.474 141.522V138.697H178.297C178.128 139.003 177.885 139.343 177.567 139.717C177.255 140.091 176.825 140.415 176.276 140.69C175.727 140.964 175.013 141.101 174.133 141.101C172.998 141.101 171.975 140.836 171.065 140.306C170.16 139.77 169.443 138.981 168.913 137.939C168.389 136.891 168.127 135.603 168.127 134.075C168.127 132.547 168.386 131.237 168.903 130.146C169.427 129.055 170.145 128.219 171.055 127.639C171.966 127.052 172.998 126.759 174.152 126.759C175.044 126.759 175.764 126.909 176.313 127.208C176.862 127.501 177.289 127.845 177.595 128.237C177.907 128.63 178.147 128.977 178.315 129.276H178.521V126.946H181.262V141.635C181.262 142.87 180.975 143.883 180.402 144.675C179.828 145.467 179.051 146.054 178.072 146.434C177.099 146.815 176.001 147.005 174.779 147.005ZM174.751 138.781C175.555 138.781 176.235 138.594 176.79 138.22C177.352 137.839 177.776 137.297 178.063 136.592C178.356 135.881 178.502 135.03 178.502 134.038C178.502 133.071 178.359 132.22 178.072 131.484C177.785 130.748 177.364 130.174 176.809 129.762C176.254 129.345 175.568 129.136 174.751 129.136C173.909 129.136 173.207 129.354 172.646 129.79C172.084 130.221 171.66 130.807 171.373 131.549C171.093 132.292 170.952 133.121 170.952 134.038C170.952 134.98 171.096 135.806 171.383 136.517C171.67 137.228 172.094 137.783 172.655 138.183C173.223 138.582 173.921 138.781 174.751 138.781Z" fill="#1B2ACB"/>
<defs>
<radialGradient id="paint0_angular_441_16655" cx="0" cy="0" r="1" gradientUnits="userSpaceOnUse" gradientTransform="translate(79.8269 41.5674) rotate(57.3526) scale(106.476 42.1173)">
<stop offset="0.0331602" stop-color="#0012DB"/>
<stop offset="0.779789" stop-color="white"/>
<stop offset="0.867979" stop-color="#1B2DCB"/>
</radialGradient>
<radialGradient id="paint1_angular_441_16655" cx="0" cy="0" r="1" gradientUnits="userSpaceOnUse" gradientTransform="translate(79.8269 41.5674) rotate(57.3526) scale(106.476 42.1173)">
<stop offset="0.0331602" stop-color="#0012DB"/>
<stop offset="0.779789" stop-color="white"/>
<stop offset="0.867979" stop-color="#1B2DCB"/>
</radialGradient>
</defs>
</svg>
