<svg width="61" height="61" viewBox="0 0 61 61" fill="none" xmlns="http://www.w3.org/2000/svg">
<path d="M40.2222 18C40.9589 18 41.6655 18.2927 42.1864 18.8136C42.7073 19.3345 43 20.0411 43 20.7778V40.2222C43 40.9589 42.7073 41.6655 42.1864 42.1864C41.6655 42.7073 40.9589 43 40.2222 43H20.7778C20.0411 43 19.3345 42.7073 18.8136 42.1864C18.2927 41.6655 18 40.9589 18 40.2222V20.7778C18 20.0411 18.2927 19.3345 18.8136 18.8136C19.3345 18.2927 20.0411 18 20.7778 18H40.2222ZM39.5278 39.5278V32.1667C39.5278 30.9658 39.0507 29.8142 38.2016 28.965C37.3525 28.1159 36.2008 27.6389 35 27.6389C33.8194 27.6389 32.4444 28.3611 31.7778 29.4444V27.9028H27.9028V39.5278H31.7778V32.6806C31.7778 31.6111 32.6389 30.7361 33.7083 30.7361C34.224 30.7361 34.7186 30.941 35.0833 31.3056C35.4479 31.6703 35.6528 32.1649 35.6528 32.6806V39.5278H39.5278ZM23.3889 25.7222C24.0077 25.7222 24.6012 25.4764 25.0388 25.0388C25.4764 24.6012 25.7222 24.0077 25.7222 23.3889C25.7222 22.0972 24.6806 21.0417 23.3889 21.0417C22.7664 21.0417 22.1693 21.289 21.7292 21.7292C21.289 22.1693 21.0417 22.7664 21.0417 23.3889C21.0417 24.6806 22.0972 25.7222 23.3889 25.7222ZM25.3194 39.5278V27.9028H21.4722V39.5278H25.3194Z" fill="#002163"/>
<path opacity="0.1" fill-rule="evenodd" clip-rule="evenodd" d="M2 30.5C2 14.7599 14.7599 2 30.5 2C46.2401 2 59 14.7599 59 30.5C59 46.2401 46.2401 59 30.5 59C14.7599 59 2 46.2401 2 30.5Z" fill="white" stroke="#002163" stroke-width="2.36"/>
</svg>
