<svg width="19" height="25" viewBox="0 0 19 25" fill="none" xmlns="http://www.w3.org/2000/svg">
<path d="M3.01879 24.3699C2.40132 24.3699 1.87291 24.1467 1.43357 23.7004C0.994231 23.2541 0.774186 22.7169 0.773438 22.0889V10.6839C0.773438 10.0566 0.993482 9.51985 1.43357 9.07353C1.87366 8.62722 2.40207 8.40368 3.01879 8.40292H4.14147V6.12192C4.14147 4.54424 4.68896 3.19959 5.78395 2.08798C6.87893 0.976378 8.20257 0.420195 9.75486 0.419434C11.3072 0.418674 12.6312 0.974857 13.7269 2.08798C14.8226 3.20111 15.3697 4.54576 15.3683 6.12192V8.40292H16.4909C17.1084 8.40292 17.6372 8.62646 18.0773 9.07353C18.5174 9.52061 18.737 10.0574 18.7363 10.6839V22.0889C18.7363 22.7162 18.5166 23.2533 18.0773 23.7004C17.6379 24.1475 17.1091 24.3707 16.4909 24.3699H3.01879ZM9.75486 18.6674C10.3723 18.6674 10.9011 18.4442 11.3412 17.9979C11.7813 17.5516 12.001 17.0144 12.0002 16.3864C11.9995 15.7584 11.7798 15.2216 11.3412 14.776C10.9026 14.3305 10.3738 14.1069 9.75486 14.1054C9.13589 14.1039 8.60748 14.3274 8.16964 14.776C7.7318 15.2246 7.51175 15.7614 7.50951 16.3864C7.50726 17.0114 7.7273 17.5486 8.16964 17.9979C8.61198 18.4473 9.14038 18.6704 9.75486 18.6674ZM6.38683 8.40292H13.1229V6.12192C13.1229 5.17151 12.7954 4.36366 12.1406 3.69837C11.4857 3.03308 10.6904 2.70043 9.75486 2.70043C8.8193 2.70043 8.02407 3.03308 7.36917 3.69837C6.71427 4.36366 6.38683 5.17151 6.38683 6.12192V8.40292Z" fill="white"/>
</svg>
