<svg width="244" height="44" viewBox="0 0 244 44" fill="none" xmlns="http://www.w3.org/2000/svg">
<path fill-rule="evenodd" clip-rule="evenodd" d="M17.2735 18.9444C17.5047 18.8883 17.7463 18.8585 17.9948 18.8585C18.3604 18.8585 18.711 18.923 19.0358 19.0411V13.5016C19.0358 13.3043 19.116 13.1156 19.2579 12.9786L24.1811 8.22942C24.492 7.92949 24.4741 7.42615 24.1427 7.14905L23.9392 6.97896C23.6557 6.74192 23.2394 6.75547 22.9719 7.01044L20.2637 9.5916C19.8012 10.0324 19.0358 9.70458 19.0358 9.06564V6.88027C19.0358 6.67789 19.1202 6.48468 19.2687 6.34717L21.3464 4.42299C21.6485 4.14322 21.658 3.66857 21.3674 3.37695L21.2444 3.25357C20.9885 2.99685 20.5825 2.96798 20.2929 3.18592L20.1992 3.25639C19.7204 3.6167 19.0358 3.27506 19.0358 2.6758V1.98538C19.0358 1.5841 18.7105 1.25879 18.3092 1.25879H18.0001C17.5988 1.25879 17.2735 1.5841 17.2735 1.98538V2.53152C17.2735 3.15463 16.5391 3.48715 16.0709 3.07607C15.7643 2.80695 15.2961 2.84383 15.0354 3.15764L14.8497 3.38124C14.603 3.67822 14.6317 4.11627 14.9149 4.3786L17.0406 6.34717C17.1891 6.48468 17.2735 6.67789 17.2735 6.88027V9.0627C17.2735 9.70208 16.5073 10.0297 16.045 9.58804L13.1619 6.8333C12.8761 6.56021 12.4244 6.56572 12.1453 6.84569L11.8571 7.13481C11.5668 7.42612 11.5759 7.90016 11.8772 8.18009L17.0414 12.9773C17.1894 13.1148 17.2735 13.3077 17.2735 13.5097V18.9444ZM14.9976 21.3586L10.8954 18.7867C10.7283 18.682 10.5258 18.6496 10.3343 18.6972L3.69547 20.3457C3.27619 20.4498 2.85924 20.1673 2.80052 19.7393L2.76447 19.4766C2.71424 19.1104 2.94684 18.7649 3.30497 18.6737L6.93042 17.7502C7.54959 17.5925 7.67836 16.7699 7.13701 16.4305L5.28543 15.2697C5.11397 15.1622 4.90543 15.1311 4.71005 15.1838L1.97612 15.9221C1.57861 16.0295 1.17141 15.7854 1.07873 15.3842L1.03952 15.2145C0.957934 14.8613 1.14911 14.502 1.48761 14.3724L1.59706 14.3305C2.15669 14.1162 2.23089 13.3547 1.72315 13.0363L1.13819 12.6696C0.798194 12.4565 0.69537 12.008 0.908524 11.6681L1.07271 11.4062C1.28586 11.0662 1.73428 10.9633 2.07427 11.1765L2.53699 11.4666C3.06493 11.7976 3.73674 11.352 3.63719 10.7369C3.57202 10.3342 3.85197 9.95709 4.2563 9.90293L4.5444 9.86434C4.92706 9.81309 5.28298 10.07 5.35478 10.4494L5.89355 13.2961C5.93118 13.4949 6.05005 13.6691 6.22152 13.7766L8.07061 14.9358C8.61233 15.2754 9.29696 14.8003 9.16828 14.174L8.36572 10.268C8.28617 9.88077 8.53076 9.50099 8.9162 9.41327L9.31423 9.32268C9.71528 9.2314 10.1121 9.49092 10.1892 9.89494L11.5106 16.8185C11.5485 17.017 11.6672 17.1906 11.8384 17.2979L15.8065 19.7857C15.3957 20.2099 15.1072 20.7531 14.9976 21.3586ZM15.0604 22.724L10.7144 24.8924C10.5336 24.9826 10.3235 24.9934 10.1344 24.9224L3.53624 22.4432C3.15122 22.2985 2.72298 22.502 2.59194 22.8919L2.4619 23.2788C2.33597 23.6535 2.5327 24.0602 2.90466 24.194L6.65678 25.5439C7.25841 25.7604 7.30732 26.5923 6.7352 26.8778L4.78234 27.8521C4.60125 27.9425 4.39068 27.9532 4.20134 27.8817L1.49083 26.8585C1.12963 26.7222 0.724871 26.8921 0.569259 27.2454L0.4521 27.5114C0.287676 27.8848 0.46371 28.3202 0.841395 28.4744C1.41829 28.7099 1.44861 29.5154 0.89105 29.7936L0.402361 30.0375C0.0432887 30.2166 -0.102563 30.6529 0.0765922 31.012L0.21459 31.2886C0.393745 31.6477 0.830065 31.7935 1.18914 31.6144L1.80693 31.3061C2.34316 31.0386 2.95449 31.4986 2.84587 32.088L2.82463 32.2032C2.75893 32.5597 2.96599 32.9101 3.30995 33.0244L3.47526 33.0794C3.86598 33.2093 4.28646 32.9889 4.40193 32.5937L5.19607 29.8754C5.25282 29.6812 5.38803 29.5194 5.56912 29.429L7.5246 28.4534C8.09633 28.1681 8.73139 28.7066 8.54343 29.3173L7.44287 32.8929C7.33415 33.2461 7.50789 33.6247 7.84658 33.7726L8.0896 33.8787C8.48552 34.0515 8.9439 33.8428 9.07348 33.4307L11.1251 26.9051C11.1843 26.717 11.3174 26.561 11.4939 26.4729L16.0134 24.218C15.5616 23.8307 15.2246 23.3134 15.0604 22.724ZM17.2735 24.8645V30.4905C17.2735 30.6925 17.1894 30.8854 17.0414 31.0229L11.8772 35.8201C11.5759 36.1001 11.5668 36.5741 11.8571 36.8654L12.1453 37.1545C12.4244 37.4345 12.8761 37.44 13.1619 37.1669L16.045 34.4122C16.5073 33.9705 17.2735 34.2981 17.2735 34.9375V37.1199C17.2735 37.3223 17.1891 37.5155 17.0406 37.6531L14.9149 39.6216C14.6317 39.8839 14.603 40.322 14.8497 40.619L15.0354 40.8426C15.2961 41.1564 15.7643 41.1933 16.0709 40.9241C16.5391 40.5131 17.2735 40.8456 17.2735 41.4687V42.0148C17.2735 42.4161 17.5988 42.7414 18.0001 42.7414H18.3092C18.7105 42.7414 19.0358 42.4161 19.0358 42.0148V41.3244C19.0358 40.7252 19.7204 40.3835 20.1992 40.7438L20.2929 40.8143C20.5825 41.0322 20.9885 41.0034 21.2444 40.7467L21.3674 40.6233C21.658 40.3316 21.6485 39.857 21.3464 39.5772L19.2687 37.6531C19.1202 37.5155 19.0358 37.3223 19.0358 37.1199V34.9346C19.0358 34.2956 19.8012 33.9678 20.2637 34.4086L22.9719 36.9898C23.2394 37.2448 23.6557 37.2583 23.9392 37.0213L24.1427 36.8512C24.4741 36.5741 24.492 36.0707 24.1811 35.7708L19.2579 31.0216C19.116 30.8847 19.0358 30.6959 19.0358 30.4987V24.7679C18.711 24.886 18.3604 24.9504 17.9948 24.9504C17.7463 24.9504 17.5047 24.9207 17.2735 24.8645ZM19.7916 24.3643L24.1377 27.089C24.3048 27.1938 24.4222 27.362 24.4628 27.555L25.8715 34.2488C25.9605 34.6716 26.3965 34.9238 26.8073 34.7902L27.0595 34.7081C27.4109 34.5938 27.6206 34.2339 27.5466 33.8718L26.7982 30.2062C26.6704 29.5802 27.3547 29.1059 27.8961 29.4453L29.7477 30.6061C29.9191 30.7136 30.038 30.8877 30.0756 31.0866L30.6023 33.8691C30.6788 34.2736 31.0759 34.5338 31.4774 34.4424L31.6473 34.4038C32.0007 34.3233 32.2408 33.9947 32.21 33.6335L32.2 33.5168C32.1491 32.9197 32.8022 32.5211 33.31 32.8394L33.8949 33.2061C34.2349 33.4193 34.6833 33.3165 34.8965 32.9765L35.0607 32.7146C35.2738 32.3746 35.171 31.9262 34.831 31.713L34.3683 31.4229C33.8403 31.092 33.9487 30.2931 34.5457 30.1147C34.9366 29.9979 35.154 29.5816 35.0266 29.1941L34.9358 28.918C34.8152 28.5512 34.4289 28.3428 34.0562 28.4435L31.2591 29.1988C31.0638 29.2516 30.8552 29.2205 30.6838 29.113L28.8347 27.9537C28.2929 27.6141 28.4224 26.7908 29.0421 26.6338L32.9076 25.6543C33.2907 25.5572 33.526 25.1716 33.437 24.7864L33.3451 24.3887C33.2526 23.9879 32.8461 23.7439 32.4488 23.8505L25.6412 25.6777C25.4461 25.7301 25.2381 25.6989 25.0669 25.5916L20.856 22.9516C20.6473 23.5217 20.2731 24.0119 19.7916 24.3643ZM21.0349 21.7142C20.9965 21.0918 20.7713 20.52 20.4145 20.0542L24.6885 17.9218C24.8692 17.8316 25.0043 17.6703 25.0612 17.4765L27.0482 10.7138C27.1642 10.3191 27.5843 10.0993 27.9746 10.2291L28.3619 10.3579C28.737 10.4826 28.9436 10.8843 28.8269 11.262L27.6491 15.0717C27.4602 15.6825 28.0955 16.2219 28.6676 15.9364L30.6205 14.9621C30.8016 14.8717 30.9368 14.7099 30.9935 14.5157L31.806 11.7347C31.9143 11.3641 32.2935 11.1429 32.6693 11.2311L32.9523 11.2974C33.3495 11.3906 33.5915 11.7931 33.4876 12.1875C33.3288 12.7901 33.9542 13.2987 34.5118 13.0206L35.0005 12.7767C35.3596 12.5976 35.7959 12.7434 35.975 13.1025L36.113 13.3791C36.2922 13.7382 36.1463 14.1745 35.7873 14.3536L35.1695 14.6619C34.6332 14.9294 34.6332 15.6945 35.1694 15.9621L35.2743 16.0145C35.5986 16.1764 35.754 16.5525 35.6385 16.8961L35.583 17.0612C35.4518 17.4515 35.0229 17.6549 34.6377 17.5095L31.9883 16.5094C31.7989 16.4379 31.5884 16.4486 31.4073 16.539L29.4518 17.5146C28.8801 17.7999 28.9284 18.6311 29.5294 18.8482L33.0481 20.1191C33.3957 20.2447 33.5936 20.6111 33.5081 20.9706L33.4467 21.2286C33.3468 21.6489 32.9044 21.8896 32.4972 21.7453L26.0496 19.4604C25.8637 19.3945 25.659 19.407 25.4825 19.4951L21.0349 21.7142Z" fill="#1B29CB"/>
<path d="M60.9998 9.59771C61.3052 9.59771 61.4579 9.75039 61.4579 10.0558V10.9719C61.4579 11.2772 61.3052 11.4299 60.9998 11.4299H60.8166C60.043 11.4299 59.5036 11.7149 59.1982 12.2849C58.8928 12.8549 58.7402 13.5369 58.7402 14.3309V25.8431C58.7402 26.7184 58.6282 27.5735 58.4042 28.4081C58.2007 29.2428 57.8444 30.0062 57.3355 30.6984C56.8469 31.3702 56.1649 31.9096 55.2895 32.3168C54.4345 32.7036 53.3454 32.897 52.0221 32.897C50.9636 32.897 50.0678 32.7341 49.3349 32.4084C48.6224 32.0623 48.0422 31.645 47.5944 31.1564C47.1669 30.6678 46.8513 30.1996 46.6477 29.7517C46.4442 29.3039 46.3424 28.968 46.3424 28.744C46.3424 28.4387 46.5052 28.1944 46.831 28.0112L49.6708 26.4843C49.8541 26.3825 49.9966 26.3317 50.0984 26.3317C50.3019 26.3317 50.4037 26.464 50.4037 26.7286C50.4037 26.8915 50.3834 27.0645 50.3426 27.2477C50.3223 27.431 50.3121 27.6956 50.3121 28.0417C50.3121 28.4081 50.3528 28.8153 50.4343 29.2631C50.5157 29.6907 50.6785 30.0673 50.9228 30.393C51.1671 30.6984 51.5336 30.851 52.0221 30.851C52.6329 30.851 53.0909 30.6373 53.3963 30.2098C53.722 29.7619 53.8849 29.2224 53.8849 28.5913V14.3309C53.8849 13.5165 53.7322 12.8346 53.4268 12.2849C53.1215 11.7149 52.582 11.4299 51.8084 11.4299H51.5946C51.2893 11.4299 51.1366 11.2772 51.1366 10.9719V10.0558C51.1366 9.75039 51.2893 9.59771 51.5946 9.59771H60.9998ZM73.3778 9.23128C74.9861 9.23128 76.4925 9.54682 77.8972 10.1779C79.3222 10.809 80.564 11.6844 81.6226 12.804C82.7016 13.9033 83.5362 15.1757 84.1266 16.6211C84.7373 18.0665 85.0427 19.6035 85.0427 21.2321C85.0427 22.8607 84.7475 24.3875 84.1572 25.8125C83.5668 27.2172 82.7423 28.4488 81.6837 29.5074C80.6455 30.566 79.4444 31.4007 78.0804 32.0114C76.7165 32.6018 75.2609 32.897 73.7137 32.897C72.1055 32.897 70.5888 32.5814 69.1638 31.9503C67.7591 31.3193 66.5275 30.4541 65.4689 29.3548C64.4103 28.2351 63.5756 26.9526 62.9649 25.5072C62.3745 24.0618 62.0794 22.535 62.0794 20.9267C62.0794 19.3388 62.3644 17.8425 62.9344 16.4379C63.5044 15.0332 64.2983 13.7914 65.3162 12.7124C66.3544 11.6131 67.5555 10.7581 68.9195 10.1474C70.2835 9.53664 71.7696 9.23128 73.3778 9.23128ZM73.0419 11.9185C71.0062 11.9185 69.4284 12.6005 68.3088 13.9644C67.1891 15.308 66.6293 17.0893 66.6293 19.3083C66.6293 20.1837 66.7209 21.1201 66.9041 22.1176C67.0873 23.1152 67.3621 24.0923 67.7286 25.0491C68.1154 25.9856 68.604 26.8406 69.1943 27.6142C69.7847 28.3878 70.4769 29.0087 71.2708 29.4769C72.0647 29.9451 72.9808 30.1792 74.0191 30.1792C75.4034 30.1792 76.574 29.8739 77.5308 29.2631C78.5079 28.6321 79.2408 27.7669 79.7294 26.6676C80.2383 25.5479 80.4928 24.2654 80.4928 22.82C80.4928 22.026 80.4012 21.1405 80.218 20.1633C80.0551 19.1861 79.7803 18.2192 79.3935 17.2623C79.027 16.2852 78.5486 15.3996 77.9583 14.6057C77.3883 13.7914 76.6961 13.1399 75.8818 12.6514C75.0675 12.1628 74.1209 11.9185 73.0419 11.9185ZM96.2529 9.59771C97.6779 9.59771 98.9503 9.842 100.07 10.3306C101.21 10.8192 102.116 11.4808 102.788 12.3155C103.459 13.1501 103.795 14.0866 103.795 15.1248C103.795 16.0002 103.531 16.8043 103.001 17.5372C102.472 18.27 101.709 18.891 100.711 19.3999C102.299 19.8478 103.541 20.6417 104.437 21.7817C105.332 22.9014 105.78 24.2246 105.78 25.7515C105.78 27.0747 105.434 28.2453 104.742 29.2631C104.05 30.281 103.093 31.075 101.872 31.645C100.65 32.215 99.2353 32.5 97.627 32.5H86.4202C86.1148 32.5 85.9621 32.3473 85.9621 32.042V31.1259C85.9621 30.8205 86.1148 30.6678 86.4202 30.6678C87.9266 30.6678 88.6799 29.7008 88.6799 27.7669V14.3309C88.6799 12.3969 87.9266 11.4299 86.4202 11.4299C86.1148 11.4299 85.9621 11.2772 85.9621 10.9719V10.0558C85.9621 9.75039 86.1148 9.59771 86.4202 9.59771H96.2529ZM95.2757 18.8197C96.5379 18.8197 97.5049 18.494 98.1767 17.8425C98.8688 17.1911 99.2149 16.2852 99.2149 15.1248C99.2149 13.9644 98.879 13.0585 98.2072 12.4071C97.5354 11.7556 96.599 11.4299 95.3979 11.4299H93.5352V18.8197H95.2757ZM96.314 30.6678C97.8611 30.6678 99.0622 30.2403 99.9173 29.3853C100.772 28.5099 101.2 27.2986 101.2 25.7515C101.2 22.5757 99.2353 20.9878 95.3063 20.9878H93.5352V27.7669C93.5352 28.7033 93.7082 29.426 94.0543 29.9349C94.4004 30.4235 94.8991 30.6678 95.5506 30.6678H96.314ZM133.53 16.5295C133.469 16.5498 133.408 16.5804 133.347 16.6211C133.286 16.6414 133.225 16.6516 133.164 16.6516C133.001 16.6516 132.828 16.5295 132.645 16.2852C131.342 14.6566 130.059 13.486 128.797 12.7735C127.535 12.061 126.232 11.7047 124.888 11.7047C124.074 11.7047 123.372 11.9185 122.781 12.346C122.211 12.7735 121.926 13.4453 121.926 14.3614C121.926 15.1146 122.16 15.7355 122.629 16.2241C123.097 16.7127 123.697 17.1198 124.43 17.4456C125.184 17.7509 125.947 18.0156 126.721 18.2395C127.881 18.5652 129.021 18.9317 130.141 19.3388C131.281 19.746 132.309 20.2346 133.225 20.8046C134.141 21.3542 134.874 22.0362 135.423 22.8505C135.973 23.6444 136.248 24.6114 136.248 25.7515C136.248 27.1358 135.892 28.3674 135.179 29.4464C134.487 30.5253 133.479 31.3702 132.156 31.9809C130.833 32.5916 129.235 32.897 127.362 32.897C126.446 32.897 125.581 32.7748 124.766 32.5305C123.972 32.3066 123.199 32.0114 122.445 31.645C122.283 31.5636 122.13 31.5228 121.987 31.5228C121.804 31.5228 121.713 31.6246 121.713 31.8282C121.713 31.8893 121.733 32.0012 121.774 32.1641C121.835 32.3066 121.865 32.4287 121.865 32.5305C121.865 32.7545 121.692 32.8664 121.346 32.8664H119.819C119.453 32.8664 119.198 32.7239 119.056 32.4389L115.361 25.5072C115.28 25.3443 115.239 25.2222 115.239 25.1407C115.239 24.9168 115.351 24.7438 115.575 24.6216L116.918 23.8582C116.979 23.8175 117.041 23.787 117.102 23.7666C117.163 23.7462 117.224 23.7361 117.285 23.7361C117.488 23.7361 117.661 23.8582 117.804 24.1025C119.188 26.1993 120.715 27.7567 122.384 28.7746C124.074 29.7924 125.794 30.3014 127.545 30.3014C128.868 30.3014 129.886 30.0062 130.599 29.4158C131.311 28.8051 131.667 28.0417 131.667 27.1256C131.667 26.2299 131.444 25.5275 130.996 25.0186C130.548 24.5096 129.856 24.0821 128.919 23.7361C127.983 23.39 126.782 23.0032 125.316 22.5757C124.318 22.2907 123.331 21.9446 122.354 21.5374C121.377 21.1303 120.491 20.6417 119.697 20.0717C118.903 19.4813 118.262 18.7892 117.773 17.9952C117.305 17.1809 117.071 16.2241 117.071 15.1248C117.071 13.7812 117.407 12.6717 118.079 11.7963C118.771 10.921 119.697 10.2797 120.858 9.87254C122.018 9.44503 123.331 9.23128 124.797 9.23128C125.937 9.23128 126.904 9.37378 127.698 9.65879C128.492 9.94379 129.102 10.2084 129.53 10.4527C129.876 10.6563 130.11 10.7581 130.232 10.7581C130.334 10.7581 130.385 10.697 130.385 10.5749C130.385 10.4731 130.354 10.3306 130.293 10.1474C130.253 9.96415 130.232 9.77075 130.232 9.56718C130.232 9.26181 130.415 9.10913 130.782 9.10913H131.881C132.248 9.10913 132.502 9.28217 132.645 9.62825L134.782 15.0943C134.823 15.1757 134.853 15.2571 134.874 15.3386C134.894 15.3996 134.904 15.4607 134.904 15.5218C134.904 15.705 134.792 15.8577 134.568 15.9798L133.53 16.5295ZM144.619 27.7669C144.619 28.5812 144.771 29.2733 145.077 29.8433C145.382 30.393 145.911 30.6678 146.665 30.6678H146.848C147.153 30.6678 147.306 30.8205 147.306 31.1259V32.042C147.306 32.3473 147.153 32.5 146.848 32.5H137.473C137.168 32.5 137.015 32.3473 137.015 32.042V31.1259C137.015 30.8205 137.168 30.6678 137.473 30.6678H137.687C138.461 30.6678 138.99 30.393 139.275 29.8433C139.58 29.2733 139.733 28.5812 139.733 27.7669V14.3309C139.733 13.4962 139.57 12.804 139.244 12.2544C138.939 11.7047 138.369 11.4299 137.534 11.4299H137.504C137.198 11.4299 137.046 11.2772 137.046 10.9719V10.0558C137.046 9.75039 137.198 9.59771 137.504 9.59771H148.711C150.36 9.59771 151.795 9.92343 153.016 10.5749C154.238 11.206 155.184 12.0406 155.856 13.0789C156.528 14.0967 156.864 15.1859 156.864 16.3463C156.864 17.6491 156.548 18.8299 155.917 19.8885C155.286 20.9267 154.248 21.7512 152.802 22.3619C151.357 22.9726 149.393 23.278 146.909 23.278H144.619V27.7669ZM146.39 21.1099C148.426 21.1099 149.912 20.7435 150.848 20.0106C151.805 19.2574 152.283 18.0359 152.283 16.3463C152.283 14.9416 151.846 13.771 150.97 12.8346C150.095 11.8981 148.894 11.4299 147.367 11.4299H144.435V21.1099H146.39ZM180.371 30.6678C180.676 30.6678 180.829 30.8205 180.829 31.1259V32.042C180.829 32.3473 180.676 32.5 180.371 32.5H170.996C170.691 32.5 170.538 32.3473 170.538 32.042V31.1259C170.538 30.8205 170.691 30.6678 170.996 30.6678H171.179C171.688 30.6678 172.065 30.5253 172.309 30.2403C172.554 29.9349 172.676 29.5787 172.676 29.1715C172.676 28.7033 172.543 28.2351 172.279 27.7669L169.5 22.5757C168.889 22.6367 168.228 22.6673 167.515 22.6673H165.225V27.7669C165.225 28.5812 165.377 29.2733 165.683 29.8433C165.988 30.393 166.518 30.6678 167.271 30.6678H167.454C167.759 30.6678 167.912 30.8205 167.912 31.1259V32.042C167.912 32.3473 167.759 32.5 167.454 32.5H158.079C157.774 32.5 157.621 32.3473 157.621 32.042V31.1259C157.621 30.8205 157.774 30.6678 158.079 30.6678H158.293C159.067 30.6678 159.596 30.393 159.881 29.8433C160.186 29.2733 160.339 28.5812 160.339 27.7669V14.3309C160.339 13.4962 160.176 12.804 159.85 12.2544C159.545 11.7047 158.965 11.4299 158.11 11.4299C157.804 11.4299 157.652 11.2772 157.652 10.9719V10.0558C157.652 9.75039 157.804 9.59771 158.11 9.59771H169.317C170.966 9.59771 172.401 9.8929 173.622 10.4833C174.844 11.0736 175.79 11.8574 176.462 12.8346C177.134 13.8117 177.47 14.8805 177.47 16.0409C177.47 17.0791 177.195 18.0868 176.645 19.064C176.096 20.0412 175.159 20.8453 173.836 21.4764L177.165 27.7669C177.572 28.5201 177.989 29.1919 178.417 29.7823C178.864 30.3726 179.465 30.6678 180.218 30.6678H180.371ZM166.996 20.4992C169.032 20.4992 170.518 20.1022 171.454 19.3083C172.411 18.5143 172.889 17.4252 172.889 16.0409C172.889 14.6362 172.452 13.5165 171.576 12.6819C170.701 11.8472 169.5 11.4299 167.973 11.4299H165.225V20.4992H166.996ZM189.741 27.7669C189.741 28.5812 189.894 29.2733 190.199 29.8433C190.504 30.393 191.034 30.6678 191.787 30.6678H191.97C192.276 30.6678 192.428 30.8205 192.428 31.1259V32.042C192.428 32.3473 192.276 32.5 191.97 32.5H182.595C182.29 32.5 182.137 32.3473 182.137 32.042V31.1259C182.137 30.8205 182.29 30.6678 182.595 30.6678H182.809C183.583 30.6678 184.112 30.393 184.397 29.8433C184.702 29.2733 184.855 28.5812 184.855 27.7669V14.3309C184.855 13.5165 184.702 12.8346 184.397 12.2849C184.112 11.7149 183.583 11.4299 182.809 11.4299H182.595C182.29 11.4299 182.137 11.2772 182.137 10.9719V10.0558C182.137 9.75039 182.29 9.59771 182.595 9.59771H191.97C192.276 9.59771 192.428 9.75039 192.428 10.0558V10.9719C192.428 11.2772 192.276 11.4299 191.97 11.4299H191.787C191.034 11.4299 190.504 11.7149 190.199 12.2849C189.894 12.8346 189.741 13.5165 189.741 14.3309V27.7669ZM219.65 9.59771C219.956 9.59771 220.108 9.75039 220.108 10.0558V10.9719C220.108 11.2772 219.956 11.4299 219.65 11.4299C218.897 11.4299 218.337 11.7047 217.971 12.2544C217.604 12.804 217.421 13.4962 217.421 14.3309V32.042C217.421 32.3473 217.268 32.5 216.963 32.5H214.856C214.652 32.5 214.469 32.4084 214.306 32.2252L199.863 15.6134V27.7669C199.863 28.5812 200.046 29.2733 200.412 29.8433C200.799 30.393 201.369 30.6678 202.122 30.6678C202.428 30.6678 202.58 30.8205 202.58 31.1259V32.042C202.58 32.3473 202.428 32.5 202.122 32.5H194.58C194.274 32.5 194.122 32.3473 194.122 32.042V31.1259C194.122 30.8205 194.274 30.6678 194.58 30.6678C195.333 30.6678 195.893 30.393 196.259 29.8433C196.626 29.2733 196.809 28.5812 196.809 27.7669V12.1933C196.504 11.9287 196.198 11.7353 195.893 11.6131C195.608 11.491 195.272 11.4299 194.885 11.4299C194.58 11.4299 194.427 11.2772 194.427 10.9719V10.0558C194.427 9.75039 194.58 9.59771 194.885 9.59771H200.168C200.392 9.59771 200.575 9.68932 200.718 9.87254L214.367 25.4461V14.3309C214.367 13.4962 214.174 12.804 213.787 12.2544C213.421 11.7047 212.861 11.4299 212.108 11.4299C211.802 11.4299 211.65 11.2772 211.65 10.9719V10.0558C211.65 9.75039 211.802 9.59771 212.108 9.59771H219.65ZM225.709 19.9495C225.709 21.0692 225.831 22.2194 226.075 23.4002C226.319 24.5605 226.706 25.6395 227.235 26.637C227.765 27.6345 228.447 28.4387 229.281 29.0494C230.116 29.6398 231.124 29.9349 232.304 29.9349C232.752 29.9349 233.241 29.884 233.77 29.7823C234.32 29.6601 234.788 29.4667 235.175 29.2021C235.582 28.9171 235.786 28.5404 235.786 28.0722V26.4843C235.786 25.324 235.623 24.4995 235.297 24.0109C234.971 23.5223 234.554 23.2271 234.045 23.1253C233.556 23.0235 233.047 22.9726 232.518 22.9726H232.304C231.999 22.9726 231.846 22.82 231.846 22.5146V21.5985C231.846 21.2931 231.999 21.1405 232.304 21.1405H241.923C242.229 21.1405 242.381 21.2931 242.381 21.5985V22.5146C242.381 22.82 242.229 22.9726 241.923 22.9726H241.679C241.15 22.9726 240.885 23.3085 240.885 23.9803V27.2783C240.193 28.9069 239.043 30.2505 237.435 31.3091C235.826 32.3677 233.862 32.897 231.541 32.897C229.831 32.897 228.294 32.6018 226.93 32.0114C225.566 31.421 224.406 30.5966 223.449 29.538C222.492 28.4794 221.759 27.2477 221.25 25.8431C220.741 24.4384 220.487 22.9218 220.487 21.2931C220.487 20.2753 220.599 19.2065 220.823 18.0868C221.047 16.9672 221.413 15.8882 221.922 14.85C222.451 13.7914 223.143 12.8447 223.999 12.0101C224.874 11.1551 225.943 10.4833 227.205 9.99469C228.487 9.48575 230.004 9.23128 231.755 9.23128C233.22 9.23128 234.483 9.4145 235.541 9.78093C236.62 10.1474 237.516 10.6156 238.228 11.1856C238.941 11.7556 239.501 12.346 239.908 12.9567C240.335 13.5674 240.641 14.1375 240.824 14.6668C241.007 15.1757 241.099 15.5625 241.099 15.8271C241.099 16.0104 241.048 16.1427 240.946 16.2241C240.865 16.3055 240.743 16.3768 240.58 16.4379L236.854 17.7509C236.773 17.7713 236.681 17.8018 236.579 17.8425C236.498 17.8629 236.406 17.8731 236.305 17.8731C236.223 17.8731 236.142 17.8629 236.06 17.8425C235.979 17.8018 235.938 17.7102 235.938 17.5677C235.938 17.4659 235.948 17.3438 235.969 17.2013C235.989 17.0384 235.999 16.8247 235.999 16.56C235.999 15.1553 235.623 13.9848 234.869 13.0483C234.137 12.1119 233.017 11.6437 231.51 11.6437C230.35 11.6437 229.332 11.9999 228.457 12.7124C227.581 13.4046 226.899 14.3716 226.411 15.6134C225.943 16.8552 225.709 18.3006 225.709 19.9495Z" fill="#1B29CB"/>
</svg>
