<svg width="77" height="80" viewBox="0 0 77 80" fill="none" xmlns="http://www.w3.org/2000/svg">
<path id="Vector" fill-rule="evenodd" clip-rule="evenodd" d="M38.147 0C28.1084 0 18.9632 3.31583 13.5516 6.02495C13.0627 6.26941 12.6063 6.50795 12.1826 6.74056C11.3425 7.19838 10.6269 7.62508 10.058 8.00067L16.2141 17.0636L19.1121 18.2171C30.4375 23.9309 45.6254 23.9309 56.953 18.2171L60.2422 16.5103L66.0627 8.00067C64.8556 7.2164 63.6021 6.50614 62.309 5.87382C56.9241 3.1936 47.9967 0 38.1492 0M23.8325 10.2586C21.653 9.84848 19.5001 9.30821 17.3853 8.64072C22.4546 6.38942 30.0085 4.00033 38.1492 4.00033C43.7875 4.00033 49.119 5.1471 53.5283 6.60055C48.3612 7.32728 42.8474 8.56071 37.5936 10.0786C33.4599 11.2743 28.6284 11.1454 23.8325 10.2586ZM59.3021 21.5129L58.7554 21.7885C46.2966 28.0735 29.7707 28.0735 17.3119 21.7885L16.7941 21.5262C-1.92524 42.0635 -16.2153 80 38.147 80C92.5093 80 77.8725 41.359 59.3021 21.5129ZM35.8379 40.0033C34.6591 40.0033 33.5285 40.4716 32.695 41.3052C31.8614 42.1388 31.3931 43.2693 31.3931 44.4481C31.3931 45.627 31.8614 46.7575 32.695 47.5911C33.5285 48.4247 34.6591 48.893 35.8379 48.893V40.0033ZM40.2827 35.5585V33.3361H35.8379V35.5585C33.4802 35.5585 31.2191 36.4951 29.552 38.1622C27.8849 39.8294 26.9483 42.0905 26.9483 44.4481C26.9483 46.8058 27.8849 49.0669 29.552 50.7341C31.2191 52.4012 33.4802 53.3378 35.8379 53.3378V62.2274C33.9044 62.2274 32.2576 60.994 31.6442 59.2649C31.5532 58.9821 31.4064 58.7203 31.2125 58.4952C31.0185 58.27 30.7814 58.086 30.5152 57.9541C30.2489 57.8222 29.9589 57.745 29.6622 57.7272C29.3656 57.7093 29.0684 57.7511 28.7882 57.8501C28.5081 57.9491 28.2506 58.1033 28.031 58.3035C27.8115 58.5037 27.6343 58.746 27.51 59.0159C27.3857 59.2858 27.3168 59.5779 27.3073 59.8749C27.2979 60.1719 27.3481 60.4678 27.455 60.7451C28.0677 62.4787 29.203 63.9796 30.7043 65.0411C32.2057 66.1027 33.9992 66.6725 35.8379 66.6722V68.8946H40.2827V66.6722C42.6404 66.6722 44.9015 65.7356 46.5686 64.0685C48.2358 62.4014 49.1724 60.1403 49.1724 57.7826C49.1724 55.4249 48.2358 53.1638 46.5686 51.4967C44.9015 49.8295 42.6404 48.893 40.2827 48.893V40.0033C42.2162 40.0033 43.863 41.2368 44.4764 42.9658C44.5674 43.2487 44.7142 43.5104 44.9082 43.7356C45.1021 43.9607 45.3392 44.1447 45.6055 44.2766C45.8718 44.4085 46.1618 44.4857 46.4584 44.5036C46.755 44.5214 47.0522 44.4796 47.3324 44.3806C47.6126 44.2817 47.8701 44.1275 48.0896 43.9272C48.3092 43.727 48.4863 43.4848 48.6107 43.2148C48.735 42.9449 48.8039 42.6528 48.8133 42.3558C48.8228 42.0588 48.7725 41.7629 48.6656 41.4857C48.0529 39.7521 46.9177 38.2511 45.4163 37.1896C43.915 36.1281 42.1214 35.5582 40.2827 35.5585ZM40.2827 53.3378V62.2274C41.4616 62.2274 42.5921 61.7591 43.4257 60.9256C44.2593 60.092 44.7275 58.9614 44.7275 57.7826C44.7275 56.6038 44.2593 55.4732 43.4257 54.6396C42.5921 53.8061 41.4616 53.3378 40.2827 53.3378Z" fill="#1B29CB"/>
</svg>
