<svg width="210" height="199" viewBox="0 0 210 199" fill="none" xmlns="http://www.w3.org/2000/svg">
<rect x="0.598762" y="1.15296" width="208.369" height="196.394" rx="17.3641" fill="#F8F9FF"/>
<rect x="0.598762" y="1.15296" width="208.369" height="196.394" rx="17.3641" stroke="#E3E3E3" stroke-width="1.19752"/>
<path d="M70.2049 162.219C67.0352 162.219 64.3227 161.048 62.0674 158.705C59.8121 156.362 58.6826 153.541 58.6787 150.244V90.368C58.6787 87.0748 59.8083 84.2567 62.0674 81.9135C64.3265 79.5704 67.039 78.3968 70.2049 78.3928H75.968V66.4176C75.968 58.1347 78.7784 51.0753 84.3993 45.2394C90.0203 39.4034 96.8149 36.4835 104.783 36.4795C112.752 36.4755 119.548 39.3955 125.173 45.2394C130.798 51.0833 133.606 58.1427 133.599 66.4176V78.3928H139.362C142.532 78.3928 145.246 79.5664 147.505 81.9135C149.764 84.2607 150.892 87.0788 150.888 90.368V150.244C150.888 153.537 149.76 156.358 147.505 158.705C145.25 161.052 142.535 162.223 139.362 162.219H70.2049ZM104.783 132.281C107.953 132.281 110.667 131.11 112.927 128.767C115.186 126.423 116.313 123.603 116.31 120.306C116.306 117.009 115.178 114.191 112.927 111.852C110.675 109.512 107.961 108.339 104.783 108.331C101.606 108.323 98.8935 109.496 96.6459 111.852C94.3983 114.207 93.2687 117.025 93.2572 120.306C93.2457 123.587 94.3752 126.407 96.6459 128.767C98.9165 131.126 101.629 132.297 104.783 132.281ZM87.4941 78.3928H122.073V66.4176C122.073 61.4279 120.392 57.1867 117.03 53.6939C113.668 50.2011 109.586 48.4547 104.783 48.4547C99.9808 48.4547 95.8986 50.2011 92.5368 53.6939C89.175 57.1867 87.4941 61.4279 87.4941 66.4176V78.3928Z" fill="#E3E7FF" fill-opacity="0.5"/>
<path d="M17.3638 17.3185C80.2337 13.726 119.752 174.794 193.4 167.009" stroke="#EEF0FF" stroke-width="1.19752"/>
<circle cx="192.802" cy="167.01" r="1.19752" fill="#EEF0FF"/>
<circle cx="17.9631" cy="17.3191" r="1.19752" fill="#EEF0FF"/>
<path d="M105.72 43.6646C107.48 46.3188 109.084 49.0829 110.522 51.9414C110.734 51.91 110.948 51.8942 111.162 51.8939C112.024 51.8941 112.87 52.1486 113.601 52.6282C114.332 53.1078 114.92 53.7932 115.296 54.6059C117.342 54.4145 119.393 54.3011 121.447 54.2661C122.63 54.2473 123.818 54.2541 125.011 54.2866C120.489 48.1864 113.574 44.1345 105.72 43.6646ZM101.996 43.7158C101.906 43.7235 101.816 43.7287 101.726 43.737C99.6577 48.1646 98.0402 52.5395 96.8841 56.8575C97.3799 57.1785 97.8128 57.5954 98.1597 58.0858C100.947 57.2039 103.775 56.4699 106.633 55.8868C106.786 54.9599 107.195 54.1002 107.81 53.414C106.157 50.1353 104.225 46.9016 101.996 43.7158ZM98.0506 44.3711C91.6625 45.9632 86.0741 49.997 82.383 55.6804C85.2109 56.3594 88.0107 57.1611 90.775 58.0833C91.1474 57.5581 91.6182 57.1178 92.1588 56.7896C92.6993 56.4613 93.2982 56.2518 93.9187 56.174C94.9449 52.2613 96.3223 48.3235 98.0506 44.3711ZM123.246 57.4614C120.684 57.4441 118.149 57.5537 115.638 57.782C115.415 58.7957 114.883 59.7063 114.123 60.3772C114.968 62.7547 115.687 65.179 116.278 67.6391C116.878 67.7058 117.46 67.8956 117.99 68.1977C118.52 68.4998 118.989 68.9082 119.368 69.3996C122.92 68.2869 126.537 67.4164 130.196 66.7935C129.703 63.5545 128.658 60.4346 127.11 57.5826C125.816 57.5112 124.527 57.4712 123.246 57.4614ZM80.7386 58.591C79.4126 61.2923 78.5254 64.2055 78.1132 67.2115C81.9682 64.8958 85.8888 62.875 89.8768 61.1606L89.8756 61.1414C86.9151 60.1528 83.8651 59.311 80.7386 58.591ZM107.142 59.0296C104.415 59.5859 101.718 60.2856 99.0585 61.126C99.0565 61.1806 99.0536 61.2351 99.0499 61.2895C103.799 63.395 108.36 65.936 112.681 68.8829C112.882 68.69 113.098 68.5163 113.329 68.3636C112.768 66.0408 112.085 63.7519 111.285 61.5075L111.162 61.51C110.341 61.5097 109.535 61.2794 108.829 60.8431C108.122 60.4068 107.539 59.7804 107.142 59.0289M91.0164 64.12C86.5487 66.0472 82.1588 68.379 77.8418 71.0935L77.8394 71.1826C77.8394 78.4695 80.5309 85.0807 84.9257 90.0039C87.4321 87.6575 90.0476 85.4419 92.7626 83.3651C91.6107 77.4033 91.4434 71.3089 92.1983 65.1285C91.7533 64.8642 91.3536 64.524 91.0158 64.122M97.8295 64.2239C97.1236 65.0173 96.1823 65.5378 95.1582 65.701C94.5136 71.0191 94.6055 76.2448 95.4694 81.3725C100.468 77.8239 105.709 74.8402 111.198 72.452V72.4219C111.199 72.188 111.216 71.9544 111.249 71.723C107.002 68.8035 102.51 66.2934 97.8295 64.2239ZM130.502 69.9901C127.085 70.5816 123.707 71.397 120.389 72.4315C120.387 73.1285 120.241 73.817 119.96 74.4491C122.877 76.9433 125.634 79.6358 128.213 82.5092C129.745 78.9486 130.535 75.0875 130.53 71.1826C130.53 70.7825 130.518 70.3857 130.502 69.9901ZM112.232 75.4576C106.61 77.9137 101.259 81.0244 96.1562 84.7576C97.2713 89.4621 99.0463 94.0814 101.504 98.6102C102.386 98.7038 103.279 98.7506 104.185 98.7506C107.758 98.7506 111.162 98.0069 114.265 96.6644C115.303 89.9878 115.507 83.476 114.836 77.1232C113.812 76.8946 112.894 76.307 112.232 75.4576ZM117.858 76.7783C118.489 82.7086 118.394 88.7607 117.606 94.9167C121.328 92.6117 124.452 89.3853 126.704 85.5212C123.962 82.3856 121.006 79.4639 117.858 76.7795M93.5278 86.7521C91.3313 88.484 89.2037 90.3095 87.1503 92.224C90.196 94.9306 93.7926 96.8731 97.6653 97.9031C95.8768 94.2513 94.5026 90.5302 93.5278 86.7521Z" fill="url(#paint0_angular_441_16665)"/>
<path d="M49.0215 125.751V144.911H46.3645L36.6253 130.859H36.4475V144.911H33.5567V125.751H36.2324L45.981 139.821H46.1587V125.751H49.0215ZM59.2075 145.201C57.7917 145.201 56.5723 144.898 55.5494 144.293C54.5328 143.682 53.7469 142.825 53.1918 141.721C52.643 140.61 52.3685 139.31 52.3685 137.819C52.3685 136.347 52.643 135.05 53.1918 133.927C53.7469 132.805 54.5203 131.928 55.512 131.298C56.51 130.668 57.6763 130.353 59.011 130.353C59.8219 130.353 60.6077 130.488 61.3687 130.756C62.1296 131.024 62.8126 131.445 63.4175 132.019C64.0225 132.593 64.4997 133.338 64.849 134.255C65.1982 135.165 65.3729 136.273 65.3729 137.576V138.568H53.9496V136.472H62.6317C62.6317 135.736 62.482 135.084 62.1826 134.517C61.8832 133.943 61.4622 133.491 60.9196 133.16C60.3832 132.83 59.7533 132.664 59.0297 132.664C58.2439 132.664 57.5578 132.858 56.9715 133.244C56.3915 133.625 55.9424 134.124 55.6243 134.741C55.3124 135.353 55.1565 136.017 55.1565 136.734V138.371C55.1565 139.332 55.3249 140.149 55.6617 140.822C56.0048 141.496 56.4819 142.011 57.0931 142.366C57.7044 142.715 58.4185 142.89 59.2356 142.89C59.7657 142.89 60.2491 142.815 60.6857 142.666C61.1223 142.51 61.4996 142.279 61.8177 141.973C62.1358 141.668 62.3791 141.29 62.5475 140.841L65.1951 141.318C64.9831 142.098 64.6026 142.781 64.0537 143.367C63.5111 143.947 62.8281 144.399 62.0048 144.724C61.1878 145.042 60.2553 145.201 59.2075 145.201ZM75.1846 130.541V132.786H67.3352V130.541H75.1846ZM69.4402 127.098H72.2376V140.691C72.2376 141.234 72.3187 141.643 72.4808 141.917C72.643 142.185 72.8519 142.369 73.1077 142.469C73.3696 142.563 73.6534 142.609 73.959 142.609C74.1836 142.609 74.38 142.594 74.5484 142.563C74.7168 142.531 74.8478 142.506 74.9414 142.488L75.4466 144.799C75.2844 144.861 75.0536 144.923 74.7543 144.986C74.4549 145.054 74.0807 145.092 73.6316 145.098C72.8956 145.11 72.2095 144.979 71.5733 144.705C70.9372 144.431 70.4226 144.007 70.0297 143.433C69.6367 142.859 69.4402 142.138 69.4402 141.272V127.098ZM81.3944 144.911L77.1657 130.541H80.0566L82.8726 141.094H83.013L85.8384 130.541H88.7293L91.536 141.047H91.6763L94.4736 130.541H97.3645L93.1451 144.911H90.2917L87.3727 134.535H87.1575L84.2385 144.911H81.3944ZM105.635 145.201C104.288 145.201 103.112 144.892 102.108 144.275C101.104 143.657 100.324 142.793 99.7689 141.683C99.2138 140.573 98.9363 139.276 98.9363 137.791C98.9363 136.301 99.2138 134.997 99.7689 133.881C100.324 132.764 101.104 131.897 102.108 131.28C103.112 130.662 104.288 130.353 105.635 130.353C106.982 130.353 108.158 130.662 109.162 131.28C110.166 131.897 110.946 132.764 111.501 133.881C112.056 134.997 112.334 136.301 112.334 137.791C112.334 139.276 112.056 140.573 111.501 141.683C110.946 142.793 110.166 143.657 109.162 144.275C108.158 144.892 106.982 145.201 105.635 145.201ZM105.644 142.853C106.517 142.853 107.241 142.622 107.815 142.16C108.389 141.699 108.813 141.084 109.087 140.317C109.368 139.55 109.508 138.705 109.508 137.782C109.508 136.865 109.368 136.023 109.087 135.256C108.813 134.482 108.389 133.862 107.815 133.394C107.241 132.926 106.517 132.692 105.644 132.692C104.765 132.692 104.035 132.926 103.455 133.394C102.881 133.862 102.454 134.482 102.173 135.256C101.899 136.023 101.762 136.865 101.762 137.782C101.762 138.705 101.899 139.55 102.173 140.317C102.454 141.084 102.881 141.699 103.455 142.16C104.035 142.622 104.765 142.853 105.644 142.853ZM115.456 144.911V130.541H118.16V132.823H118.309C118.571 132.05 119.033 131.442 119.694 130.999C120.361 130.55 121.116 130.325 121.958 130.325C122.133 130.325 122.339 130.332 122.576 130.344C122.819 130.357 123.009 130.372 123.146 130.391V133.067C123.034 133.035 122.835 133.001 122.548 132.964C122.261 132.92 121.974 132.898 121.687 132.898C121.026 132.898 120.436 133.039 119.919 133.319C119.407 133.594 119.002 133.977 118.702 134.47C118.403 134.956 118.253 135.512 118.253 136.135V144.911H115.456ZM128.14 140.037L128.121 136.622H128.608L134.333 130.541H137.683L131.152 137.464H130.713L128.14 140.037ZM125.567 144.911V125.751H128.364V144.911H125.567ZM134.642 144.911L129.497 138.081L131.424 136.126L138.076 144.911H134.642ZM140.232 144.911V130.541H143.029V144.911H140.232ZM141.645 128.323C141.158 128.323 140.74 128.161 140.391 127.837C140.048 127.506 139.877 127.113 139.877 126.658C139.877 126.196 140.048 125.804 140.391 125.479C140.74 125.149 141.158 124.983 141.645 124.983C142.131 124.983 142.546 125.149 142.889 125.479C143.238 125.804 143.413 126.196 143.413 126.658C143.413 127.113 143.238 127.506 142.889 127.837C142.546 128.161 142.131 128.323 141.645 128.323ZM149.59 136.379V144.911H146.793V130.541H149.478V132.88H149.656C149.986 132.119 150.504 131.507 151.209 131.046C151.92 130.584 152.815 130.353 153.894 130.353C154.873 130.353 155.731 130.559 156.467 130.971C157.202 131.376 157.773 131.981 158.179 132.786C158.584 133.591 158.787 134.585 158.787 135.77V144.911H155.989V136.107C155.989 135.066 155.718 134.252 155.175 133.665C154.633 133.073 153.887 132.777 152.939 132.777C152.291 132.777 151.714 132.917 151.209 133.198C150.71 133.478 150.314 133.89 150.02 134.433C149.734 134.969 149.59 135.618 149.59 136.379ZM168.563 150.599C167.422 150.599 166.44 150.449 165.616 150.15C164.799 149.851 164.132 149.455 163.614 148.962C163.097 148.469 162.71 147.93 162.454 147.343L164.859 146.352C165.027 146.626 165.251 146.916 165.532 147.222C165.819 147.534 166.206 147.799 166.692 148.017C167.185 148.235 167.818 148.344 168.591 148.344C169.652 148.344 170.528 148.086 171.22 147.568C171.913 147.056 172.259 146.239 172.259 145.117V142.291H172.081C171.913 142.597 171.669 142.937 171.351 143.311C171.039 143.685 170.609 144.01 170.06 144.284C169.511 144.558 168.797 144.696 167.918 144.696C166.783 144.696 165.76 144.431 164.849 143.9C163.945 143.364 163.228 142.575 162.697 141.533C162.173 140.486 161.911 139.198 161.911 137.67C161.911 136.142 162.17 134.832 162.688 133.74C163.212 132.649 163.929 131.813 164.84 131.233C165.75 130.647 166.783 130.353 167.937 130.353C168.828 130.353 169.549 130.503 170.098 130.803C170.647 131.096 171.074 131.439 171.379 131.832C171.691 132.225 171.931 132.571 172.1 132.87H172.306V130.541H175.047V145.229C175.047 146.464 174.76 147.477 174.186 148.27C173.612 149.062 172.836 149.648 171.857 150.028C170.884 150.409 169.786 150.599 168.563 150.599ZM168.535 142.376C169.34 142.376 170.02 142.188 170.575 141.814C171.136 141.434 171.56 140.891 171.847 140.186C172.14 139.475 172.287 138.624 172.287 137.632C172.287 136.665 172.143 135.814 171.857 135.078C171.57 134.342 171.149 133.768 170.594 133.357C170.038 132.939 169.352 132.73 168.535 132.73C167.693 132.73 166.992 132.948 166.43 133.385C165.869 133.815 165.445 134.401 165.158 135.144C164.877 135.886 164.737 136.715 164.737 137.632C164.737 138.574 164.88 139.4 165.167 140.111C165.454 140.822 165.878 141.378 166.44 141.777C167.007 142.176 167.706 142.376 168.535 142.376Z" fill="#1B2ACB"/>
<defs>
<radialGradient id="paint0_angular_441_16665" cx="0" cy="0" r="1" gradientUnits="userSpaceOnUse" gradientTransform="translate(71.9776 40.8292) rotate(51.2912) scale(118.866 50.5126)">
<stop offset="0.0331602" stop-color="#0012DB"/>
<stop offset="0.779789" stop-color="white"/>
<stop offset="0.867979" stop-color="#1B2DCB"/>
</radialGradient>
</defs>
</svg>
