<svg width="31" height="40" viewBox="0 0 31 40" fill="none" xmlns="http://www.w3.org/2000/svg">
<path d="M16.6987 10.1714C16.3599 10.4903 15.9083 10.6615 15.4433 10.6474C14.9782 10.6333 14.5378 10.435 14.219 10.0962C13.9001 9.7574 13.7289 9.30579 13.743 8.84074C13.7571 8.37569 13.9553 7.93529 14.2941 7.61642C14.633 7.29755 15.0846 7.12634 15.5496 7.14044C16.0147 7.15454 16.4551 7.3528 16.7739 7.69161C17.0928 8.03042 17.264 8.48203 17.2499 8.94708C17.2358 9.41213 17.0376 9.85253 16.6987 10.1714Z" fill="black" stroke="#FB7E7C" stroke-width="2.33904"/>
<path d="M15.3715 12.9833C16.1739 13.0081 16.8848 13.4917 17.209 14.209L13.4693 14.0956C13.629 13.792 13.8619 13.5311 14.1487 13.3378C14.5093 13.0948 14.9369 12.9708 15.3715 12.9833ZM12.8404 14.1531L12.8405 14.1531L12.8404 14.1531Z" fill="black" stroke="#FB7E7C" stroke-width="2.33904"/>
<mask id="path-3-inside-1_387_8266" fill="white">
<path fill-rule="evenodd" clip-rule="evenodd" d="M1.89817 5.12372C1.1333 6.62538 1.1333 8.5855 1.1333 12.5151L1.1333 27.4849C1.1333 31.4145 1.1333 33.3793 1.89817 34.8763C2.5733 36.1935 3.64513 37.2653 4.96231 37.9404C6.46397 38.7053 8.42409 38.7053 12.3537 38.7053L17.9674 38.7053C21.897 38.7053 23.8618 38.7053 25.3587 37.9404C26.6778 37.2679 27.7503 36.1954 28.4229 34.8763C29.1877 33.3746 29.1877 31.4145 29.1877 27.4849L29.1877 12.5151C29.1877 8.5855 29.1877 6.6207 28.4229 5.12372C27.7503 3.80465 26.6778 2.73211 25.3587 2.05957C23.8571 1.29471 21.897 1.29471 17.9674 1.29471L12.3537 1.29471C8.42409 1.29471 6.4593 1.29471 4.96231 2.05957C3.64513 2.73471 2.5733 3.80654 1.89817 5.12372ZM17.9674 3.63141L12.3537 3.63141C10.3491 3.63141 8.98546 3.63141 7.93289 3.72029C6.90839 3.80216 6.38211 3.9542 6.01722 4.14132C5.13702 4.58982 4.42139 5.30544 3.9729 6.18564C3.78577 6.55053 3.63373 7.07448 3.55187 8.10132C3.46532 9.15388 3.46298 10.5105 3.46298 12.5221L3.46298 27.492C3.46298 29.4965 3.46532 30.8602 3.55187 31.9127C3.63607 32.9372 3.78811 33.4635 3.9729 33.8284C4.42199 34.7079 5.13774 35.4236 6.01722 35.8727C6.38211 36.0599 6.90839 36.2119 7.93289 36.2938C8.98546 36.378 10.3421 36.3803 12.3537 36.3803L17.9674 36.3803C19.9719 36.3803 21.3356 36.3803 22.3882 36.2938C23.4127 36.2096 23.9389 36.0575 24.3038 35.8727C25.1833 35.4236 25.8991 34.7079 26.3482 33.8284C26.5353 33.4635 26.6873 32.9372 26.7692 31.9104C26.8557 30.8578 26.8581 29.5012 26.8581 27.4896L26.8581 12.5198C26.8581 10.5175 26.8557 9.15154 26.7692 8.09898C26.685 7.07682 26.5329 6.55053 26.3482 6.18564C25.8997 5.30544 25.184 4.58982 24.3038 4.14132C23.9389 3.9542 23.4127 3.80216 22.3882 3.72029C21.3356 3.63375 19.9789 3.63141 17.9674 3.63141Z"/>
</mask>
<path fill-rule="evenodd" clip-rule="evenodd" d="M1.89817 5.12372C1.1333 6.62538 1.1333 8.5855 1.1333 12.5151L1.1333 27.4849C1.1333 31.4145 1.1333 33.3793 1.89817 34.8763C2.5733 36.1935 3.64513 37.2653 4.96231 37.9404C6.46397 38.7053 8.42409 38.7053 12.3537 38.7053L17.9674 38.7053C21.897 38.7053 23.8618 38.7053 25.3587 37.9404C26.6778 37.2679 27.7503 36.1954 28.4229 34.8763C29.1877 33.3746 29.1877 31.4145 29.1877 27.4849L29.1877 12.5151C29.1877 8.5855 29.1877 6.6207 28.4229 5.12372C27.7503 3.80465 26.6778 2.73211 25.3587 2.05957C23.8571 1.29471 21.897 1.29471 17.9674 1.29471L12.3537 1.29471C8.42409 1.29471 6.4593 1.29471 4.96231 2.05957C3.64513 2.73471 2.5733 3.80654 1.89817 5.12372ZM17.9674 3.63141L12.3537 3.63141C10.3491 3.63141 8.98546 3.63141 7.93289 3.72029C6.90839 3.80216 6.38211 3.9542 6.01722 4.14132C5.13702 4.58982 4.42139 5.30544 3.9729 6.18564C3.78577 6.55053 3.63373 7.07448 3.55187 8.10132C3.46532 9.15388 3.46298 10.5105 3.46298 12.5221L3.46298 27.492C3.46298 29.4965 3.46532 30.8602 3.55187 31.9127C3.63607 32.9372 3.78811 33.4635 3.9729 33.8284C4.42199 34.7079 5.13774 35.4236 6.01722 35.8727C6.38211 36.0599 6.90839 36.2119 7.93289 36.2938C8.98546 36.378 10.3421 36.3803 12.3537 36.3803L17.9674 36.3803C19.9719 36.3803 21.3356 36.3803 22.3882 36.2938C23.4127 36.2096 23.9389 36.0575 24.3038 35.8727C25.1833 35.4236 25.8991 34.7079 26.3482 33.8284C26.5353 33.4635 26.6873 32.9372 26.7692 31.9104C26.8557 30.8578 26.8581 29.5012 26.8581 27.4896L26.8581 12.5198C26.8581 10.5175 26.8557 9.15154 26.7692 8.09898C26.685 7.07682 26.5329 6.55053 26.3482 6.18564C25.8997 5.30544 25.184 4.58982 24.3038 4.14132C23.9389 3.9542 23.4127 3.80216 22.3882 3.72029C21.3356 3.63375 19.9789 3.63141 17.9674 3.63141Z" fill="black"/>
<path d="M1.89817 5.12372L-0.183376 4.05679L-0.186085 4.06211L1.89817 5.12372ZM1.89817 34.8763L-0.184744 35.9405L-0.18337 35.9432L1.89817 34.8763ZM4.96231 37.9404L3.89539 40.022L3.9007 40.0247L4.96231 37.9404ZM25.3587 37.9404L24.2963 35.8566L24.2945 35.8575L25.3587 37.9404ZM28.4229 34.8763L30.5067 35.9387L30.5071 35.9379L28.4229 34.8763ZM28.4229 5.12372L26.3391 6.18616L26.34 6.18795L28.4229 5.12372ZM25.3587 2.05957L26.4212 -0.02425L26.4203 -0.0246773L25.3587 2.05957ZM4.96231 2.05957L3.89807 -0.0233364L3.89539 -0.0219617L4.96231 2.05957ZM7.93289 3.72029L8.11921 6.05192L8.12971 6.05104L7.93289 3.72029ZM6.01722 4.14132L7.07915 6.22541L7.08456 6.22264L6.01722 4.14132ZM3.9729 6.18564L6.05422 7.25299L6.05698 7.24757L3.9729 6.18564ZM3.55187 8.10132L5.88305 8.29299L5.88351 8.28721L3.55187 8.10132ZM3.55187 31.9127L5.88305 31.7211L5.88304 31.7211L3.55187 31.9127ZM3.9729 33.8284L1.88616 34.8852L1.88973 34.8922L3.9729 33.8284ZM6.01722 35.8727L7.08456 33.7914L7.08096 33.7896L6.01722 35.8727ZM7.93289 36.2938L8.11942 33.9622L8.11921 33.9622L7.93289 36.2938ZM22.3882 36.2938L22.1966 33.9626L22.1965 33.9626L22.3882 36.2938ZM24.3038 35.8727L25.3606 37.9595L25.3676 37.9559L24.3038 35.8727ZM26.3482 33.8284L24.2668 32.7611L24.265 32.7647L26.3482 33.8284ZM26.7692 31.9104L24.438 31.7187L24.4375 31.7245L26.7692 31.9104ZM26.7692 8.09898L29.1004 7.9073L29.1003 7.90694L26.7692 8.09898ZM26.3482 6.18564L28.4349 5.1289L28.4322 5.12371L26.3482 6.18564ZM24.3038 4.14132L23.2365 6.22265L23.2419 6.22541L24.3038 4.14132ZM22.3882 3.72029L22.1965 6.05147L22.2018 6.0519L22.3882 3.72029ZM-0.186085 4.06211C-0.764139 5.19701 -0.994852 6.40399 -1.10235 7.71825C-1.20756 9.00466 -1.20574 10.589 -1.20574 12.5151L3.47234 12.5151C3.47234 10.5116 3.47416 9.15107 3.56016 8.0996C3.64389 7.076 3.79561 6.55209 3.98242 6.18532L-0.186085 4.06211ZM-1.20574 12.5151L-1.20574 27.4849L3.47234 27.4849L3.47234 12.5151L-1.20574 12.5151ZM-1.20574 27.4849C-1.20574 29.4111 -1.20756 30.9965 -1.10235 32.2834C-0.994939 33.5974 -0.764343 34.8062 -0.184742 35.9405L3.98108 33.8121C3.79581 33.4495 3.64397 32.9274 3.56017 31.9023C3.47416 30.8502 3.47234 29.4884 3.47234 27.4849L-1.20574 27.4849ZM-0.18337 35.9432C0.715322 37.6966 2.14206 39.1233 3.89539 40.022L6.02923 35.8589C5.1482 35.4073 4.43128 34.6904 3.9797 33.8094L-0.18337 35.9432ZM3.9007 40.0247C5.0356 40.6028 6.24258 40.8335 7.55685 40.941C8.84326 41.0462 10.4275 41.0444 12.3537 41.0444L12.3537 36.3663C10.3502 36.3663 8.98966 36.3644 7.9382 36.2785C6.91459 36.1947 6.39068 36.043 6.02391 35.8562L3.9007 40.0247ZM12.3537 41.0444L17.9674 41.0444L17.9674 36.3663L12.3537 36.3663L12.3537 41.0444ZM17.9674 41.0444C19.8935 41.0444 21.4789 41.0462 22.7659 40.941C24.0798 40.8336 25.2886 40.603 26.423 40.0234L24.2945 35.8575C23.9319 36.0428 23.4098 36.1946 22.3847 36.2784C21.3326 36.3645 19.9708 36.3663 17.9674 36.3663L17.9674 41.0444ZM26.4212 40.0243C28.1799 39.1276 29.61 37.6975 30.5067 35.9387L26.3391 33.8139C25.8907 34.6932 25.1757 35.4083 24.2963 35.8566L26.4212 40.0243ZM30.5071 35.9379C31.0852 34.803 31.3159 33.596 31.4234 32.2818C31.5286 30.9954 31.5268 29.4111 31.5268 27.4849L26.8487 27.4849C26.8487 29.4884 26.8469 30.849 26.7609 31.9004C26.6772 32.924 26.5254 33.4479 26.3386 33.8147L30.5071 35.9379ZM31.5268 27.4849L31.5268 12.5151L26.8487 12.5151L26.8487 27.4849L31.5268 27.4849ZM31.5268 12.5151C31.5268 10.5889 31.5286 9.00353 31.4234 7.71659C31.316 6.40264 31.0854 5.19387 30.5058 4.05948L26.34 6.18795C26.5252 6.55055 26.6771 7.07267 26.7609 8.09776C26.8469 9.14986 26.8487 10.5116 26.8487 12.5151L31.5268 12.5151ZM30.5067 4.06127C29.61 2.30251 28.1799 0.872459 26.4212 -0.0242499L24.2963 4.1434C25.1757 4.59175 25.8907 5.30678 26.3391 6.18616L30.5067 4.06127ZM26.4203 -0.0246773C25.2854 -0.602731 24.0785 -0.833444 22.7642 -0.940939C21.4778 -1.04616 19.8935 -1.04433 17.9674 -1.04433L17.9674 3.63375C19.9708 3.63375 21.3314 3.63557 22.3829 3.72157C23.4065 3.80529 23.9304 3.95701 24.2971 4.14383L26.4203 -0.0246773ZM17.9674 -1.04433L12.3537 -1.04433L12.3537 3.63375L17.9674 3.63375L17.9674 -1.04433ZM12.3537 -1.04433C10.4275 -1.04433 8.84212 -1.04615 7.55519 -0.940947C6.24123 -0.833531 5.03246 -0.602935 3.89807 -0.0233347L6.02655 4.14248C6.38915 3.95722 6.91126 3.80538 7.93635 3.72158C8.98845 3.63557 10.3502 3.63375 12.3537 3.63375L12.3537 -1.04433ZM3.89539 -0.0219617C2.14206 0.87673 0.715323 2.30347 -0.18337 4.0568L3.9797 6.19064C4.43128 5.30961 5.1482 4.59269 6.02923 4.14111L3.89539 -0.0219617ZM17.9674 1.29237L12.3537 1.29237L12.3537 5.97045L17.9674 5.97045L17.9674 1.29237ZM12.3537 1.29237C10.3934 1.29237 8.9109 1.29034 7.73607 1.38955L8.12971 6.05104C9.06002 5.97248 10.3048 5.97045 12.3537 5.97045L12.3537 1.29237ZM7.74657 1.38868C6.57849 1.48203 5.70484 1.67284 4.94987 2.06L7.08456 6.22264C7.08487 6.22248 7.09339 6.21795 7.11617 6.20978C7.14036 6.20111 7.18629 6.1863 7.26209 6.16851C7.41917 6.13165 7.68374 6.0867 8.11921 6.0519L7.74657 1.38868ZM4.95529 2.05723C3.63499 2.72998 2.56155 3.80342 1.88881 5.12371L6.05698 7.24757C6.28123 6.80747 6.63904 6.44966 7.07914 6.22541L4.95529 2.05723ZM1.89158 5.1183C1.50468 5.87275 1.31365 6.74366 1.22023 7.91542L5.88351 8.28721C5.91832 7.85055 5.96327 7.58637 5.99997 7.43013C6.01767 7.35479 6.03238 7.30926 6.04096 7.28536C6.04904 7.2629 6.05363 7.25412 6.05421 7.25298L1.89158 5.1183ZM1.22069 7.90964C1.12444 9.08032 1.12394 10.5495 1.12394 12.5221L5.80202 12.5221C5.80202 10.4715 5.80621 9.22744 5.88304 8.29299L1.22069 7.90964ZM1.12394 12.5221L1.12394 27.492L5.80202 27.492L5.80202 12.5221L1.12394 12.5221ZM1.12394 27.492C1.12394 29.4574 1.12444 30.9337 1.22069 32.1044L5.88304 31.7211C5.80621 30.7866 5.80202 29.5356 5.80202 27.492L1.12394 27.492ZM1.22069 32.1043C1.31665 33.2719 1.5077 34.1378 1.88617 34.8852L6.05962 32.7717C6.0585 32.7695 6.05321 32.759 6.04442 32.7344C6.03515 32.7083 6.01995 32.6607 6.00184 32.5835C5.96438 32.4239 5.9189 32.1573 5.88305 31.7211L1.22069 32.1043ZM1.88973 34.8922C2.56283 36.2103 3.63533 37.2828 4.95347 37.9559L7.08096 33.7896C6.64014 33.5645 6.28116 33.2055 6.05606 32.7647L1.88973 34.8922ZM4.94987 37.9541C5.70485 38.3412 6.57849 38.532 7.74657 38.6254L8.11921 33.9622C7.68374 33.9274 7.41917 33.8824 7.26209 33.8455C7.18629 33.8278 7.14035 33.813 7.11617 33.8043C7.09339 33.7961 7.08487 33.7916 7.08456 33.7914L4.94987 37.9541ZM7.74636 38.6254C8.91386 38.7188 10.3799 38.7193 12.3537 38.7193L12.3537 34.0413C10.3043 34.0413 9.05706 34.0372 8.11942 33.9622L7.74636 38.6254ZM12.3537 38.7193L17.9674 38.7193L17.9674 34.0413L12.3537 34.0413L12.3537 38.7193ZM17.9674 38.7193C19.9288 38.7193 21.4082 38.7213 22.5798 38.6249L22.1965 33.9626C21.263 34.0393 20.0151 34.0413 17.9674 34.0413L17.9674 38.7193ZM22.5798 38.6249C23.7473 38.529 24.6132 38.3379 25.3606 37.9595L23.2471 33.786C23.2449 33.7871 23.2344 33.7924 23.2098 33.8012C23.1837 33.8105 23.1361 33.8257 23.059 33.8438C22.8993 33.8812 22.6327 33.9267 22.1966 33.9626L22.5798 38.6249ZM25.3676 37.9559C26.6857 37.2828 27.7582 36.2103 28.4313 34.8922L24.265 32.7647C24.0399 33.2055 23.6809 33.5645 23.2401 33.7896L25.3676 37.9559ZM28.4295 34.8958C28.8168 34.1404 29.0075 33.2664 29.1008 32.0963L24.4375 31.7245C24.4027 32.1613 24.3577 32.4264 24.3208 32.5837C24.3031 32.6596 24.2883 32.7055 24.2796 32.7296C24.2715 32.7523 24.267 32.7608 24.2668 32.7611L28.4295 34.8958ZM29.1004 32.1021C29.1966 30.9314 29.1971 29.4622 29.1971 27.4896L24.519 27.4896C24.519 29.5402 24.5148 30.7843 24.438 31.7187L29.1004 32.1021ZM29.1971 27.4896L29.1971 12.5198L24.519 12.5198L24.519 27.4896L29.1971 27.4896ZM29.1971 12.5198C29.1971 10.5567 29.1966 9.07801 29.1004 7.9073L24.438 8.29065C24.5148 9.22507 24.519 10.4784 24.519 12.5198L29.1971 12.5198ZM29.1003 7.90694C29.0043 6.74138 28.8131 5.87587 28.4349 5.1289L24.2614 7.24238C24.2626 7.24462 24.2679 7.25513 24.2767 7.27988C24.286 7.30599 24.3012 7.35363 24.3193 7.43071C24.3568 7.59012 24.4022 7.85615 24.438 8.29101L29.1003 7.90694ZM28.4322 5.12371C27.7595 3.80342 26.6861 2.72998 25.3658 2.05723L23.2419 6.22541C23.682 6.44966 24.0398 6.80747 24.2641 7.24757L28.4322 5.12371ZM25.3712 2.06C24.6162 1.67284 23.7426 1.48203 22.5745 1.38868L22.2018 6.0519C22.6373 6.0867 22.9019 6.13165 23.059 6.16851C23.1348 6.1863 23.1807 6.20111 23.2049 6.20978C23.2277 6.21795 23.2362 6.22248 23.2365 6.22264L25.3712 2.06ZM22.5798 1.38912C21.4092 1.29286 19.94 1.29237 17.9674 1.29237L17.9674 5.97045C20.0179 5.97045 21.262 5.97463 22.1965 6.05147L22.5798 1.38912Z" fill="#FB7E7C" mask="url(#path-3-inside-1_387_8266)"/>
</svg>
