<svg width="32" height="31" viewBox="0 0 32 31" fill="none" xmlns="http://www.w3.org/2000/svg">
<g id="Group">
<path id="Vector" d="M16 29.5C8.2678 29.5 2 23.2322 2 15.5C2 7.7678 8.2678 1.5 16 1.5C22.2692 1.5 27.5164 5.6202 29.3 11.3H25.8" stroke="#1B2ACB" stroke-width="2.5" stroke-linecap="round" stroke-linejoin="round"/>
<path id="Vector_2" d="M16 9.90002V15.5L18.8 18.3M29.937 16.9C29.979 16.438 30 15.9714 30 15.5M20.2 29.5C20.6762 29.3423 21.1435 29.1591 21.6 28.9512M28.306 22.5C28.5776 21.9792 28.8179 21.4407 29.027 20.8844M24.6688 27.0206C25.1523 26.6212 25.6082 26.1909 26.0366 25.7298" stroke="#1B2ACB" stroke-width="2.5" stroke-linecap="round" stroke-linejoin="round"/>
</g>
</svg>
