<svg width="82" height="20" viewBox="0 0 82 20" fill="none" xmlns="http://www.w3.org/2000/svg">
<path d="M8.46397 3.90367C8.7996 2.87069 10.261 2.87069 10.5966 3.90367L11.4183 6.43236C11.5684 6.89433 11.9989 7.2071 12.4846 7.2071H15.1434C16.2296 7.2071 16.6812 8.59698 15.8025 9.2354L13.6514 10.7982C13.2584 11.0837 13.094 11.5898 13.2441 12.0518L14.0657 14.5805C14.4014 15.6134 13.2191 16.4724 12.3404 15.834L10.1893 14.2712C9.79636 13.9857 9.26424 13.9857 8.87127 14.2712L6.72024 15.834C5.84153 16.4724 4.65923 15.6134 4.99487 14.5805L5.81649 12.0518C5.96659 11.5898 5.80216 11.0837 5.40919 10.7982L3.25815 9.2354C2.37944 8.59698 2.83104 7.2071 3.91718 7.2071H6.57601C7.06175 7.2071 7.49224 6.89433 7.64234 6.43237L8.46397 3.90367Z" fill="#1B29CB"/>
<path d="M24.1607 3.90367C24.4964 2.87069 25.9578 2.87069 26.2934 3.90367L27.115 6.43236C27.2651 6.89433 27.6956 7.2071 28.1814 7.2071H30.8402C31.9263 7.2071 32.3779 8.59698 31.4992 9.2354L29.3482 10.7982C28.9552 11.0837 28.7908 11.5898 28.9409 12.0518L29.7625 14.5805C30.0982 15.6134 28.9159 16.4724 28.0371 15.834L25.8861 14.2712C25.4931 13.9857 24.961 13.9857 24.568 14.2712L22.417 15.834C21.5383 16.4724 20.356 15.6134 20.6916 14.5805L21.5133 12.0518C21.6634 11.5898 21.4989 11.0837 21.106 10.7982L18.9549 9.2354C18.0762 8.59698 18.5278 7.2071 19.614 7.2071H22.2728C22.7585 7.2071 23.189 6.89433 23.3391 6.43237L24.1607 3.90367Z" fill="#1B29CB"/>
<path d="M39.858 3.90367C40.1936 2.87069 41.655 2.87069 41.9907 3.90367L42.8123 6.43236C42.9624 6.89433 43.3929 7.2071 43.8786 7.2071H46.5375C47.6236 7.2071 48.0752 8.59698 47.1965 9.2354L45.0455 10.7982C44.6525 11.0837 44.4881 11.5898 44.6382 12.0518L45.4598 14.5805C45.7954 15.6134 44.6131 16.4724 43.7344 15.834L41.5834 14.2712C41.1904 13.9857 40.6583 13.9857 40.2653 14.2712L38.1143 15.834C37.2356 16.4724 36.0533 15.6134 36.3889 14.5805L37.2105 12.0518C37.3606 11.5898 37.1962 11.0837 36.8032 10.7982L34.6522 9.2354C33.7735 8.59698 34.2251 7.2071 35.3112 7.2071H37.9701C38.4558 7.2071 38.8863 6.89433 39.0364 6.43237L39.858 3.90367Z" fill="#1B29CB"/>
<path d="M55.5548 3.90367C55.8904 2.87069 57.3518 2.87069 57.6875 3.90367L58.5091 6.43236C58.6592 6.89433 59.0897 7.2071 59.5754 7.2071H62.2342C63.3204 7.2071 63.772 8.59698 62.8933 9.2354L60.7422 10.7982C60.3493 11.0837 60.1848 11.5898 60.3349 12.0518L61.1566 14.5805C61.4922 15.6134 60.3099 16.4724 59.4312 15.834L57.2802 14.2712C56.8872 13.9857 56.3551 13.9857 55.9621 14.2712L53.8111 15.834C52.9323 16.4724 51.7501 15.6134 52.0857 14.5805L52.9073 12.0518C53.0574 11.5898 52.893 11.0837 52.5 10.7982L50.349 9.2354C49.4703 8.59698 49.9219 7.2071 51.008 7.2071H53.6668C54.1526 7.2071 54.5831 6.89433 54.7332 6.43237L55.5548 3.90367Z" fill="#1B29CB"/>
<path d="M71.2521 3.90367C71.5877 2.87069 73.0491 2.87069 73.3847 3.90367L74.2063 6.43236C74.3564 6.89433 74.7869 7.2071 75.2727 7.2071H77.9315C79.0177 7.2071 79.4693 8.59698 78.5905 9.2354L76.4395 10.7982C76.0465 11.0837 75.8821 11.5898 76.0322 12.0518L76.8538 14.5805C77.1895 15.6134 76.0072 16.4724 75.1285 15.834L72.9774 14.2712C72.5845 13.9857 72.0523 13.9857 71.6594 14.2712L69.5083 15.834C68.6296 16.4724 67.4473 15.6134 67.783 14.5805L68.6046 12.0518C68.7547 11.5898 68.5902 11.0837 68.1973 10.7982L66.0462 9.2354C65.1675 8.59698 65.6191 7.2071 66.7053 7.2071H69.3641C69.8498 7.2071 70.2803 6.89433 70.4304 6.43237L71.2521 3.90367Z" fill="#1B29CB"/>
</svg>
