<svg width="211" height="199" viewBox="0 0 211 199" fill="none" xmlns="http://www.w3.org/2000/svg">
<rect x="1.12806" y="1.15296" width="208.369" height="196.394" rx="17.3641" fill="#F8F9FF"/>
<rect x="1.12806" y="1.15296" width="208.369" height="196.394" rx="17.3641" stroke="#E3E3E3" stroke-width="1.19752"/>
<path d="M70.7342 162.219C67.5645 162.219 64.852 161.048 62.5967 158.705C60.3414 156.362 59.2118 153.541 59.208 150.244V90.368C59.208 87.0748 60.3376 84.2567 62.5967 81.9135C64.8558 79.5704 67.5683 78.3968 70.7342 78.3928H76.4972V66.4176C76.4972 58.1347 79.3077 51.0753 84.9286 45.2394C90.5496 39.4034 97.3442 36.4835 105.313 36.4795C113.281 36.4755 120.078 39.3955 125.702 45.2394C131.327 51.0833 134.136 58.1427 134.128 66.4176V78.3928H139.891C143.061 78.3928 145.775 79.5664 148.034 81.9135C150.293 84.2607 151.421 87.0788 151.417 90.368V150.244C151.417 153.537 150.29 156.358 148.034 158.705C145.779 161.052 143.065 162.223 139.891 162.219H70.7342ZM105.313 132.281C108.482 132.281 111.197 131.11 113.456 128.767C115.715 126.423 116.843 123.603 116.839 120.306C116.835 117.009 115.707 114.191 113.456 111.852C111.204 109.512 108.49 108.339 105.313 108.331C102.135 108.323 99.4228 109.496 97.1752 111.852C94.9276 114.207 93.798 117.025 93.7865 120.306C93.775 123.587 94.9045 126.407 97.1752 128.767C99.4458 131.126 102.158 132.297 105.313 132.281ZM88.0234 78.3928H122.602V66.4176C122.602 61.4279 120.921 57.1867 117.559 53.6939C114.197 50.2011 110.115 48.4547 105.313 48.4547C100.51 48.4547 96.4279 50.2011 93.0661 53.6939C89.7043 57.1867 88.0234 61.4279 88.0234 66.4176V78.3928Z" fill="#E3E7FF" fill-opacity="0.5"/>
<path d="M193.929 17.318C131.059 13.7256 91.5407 174.793 17.893 167.008" stroke="#EEF0FF" stroke-width="1.19752"/>
<circle cx="1.19752" cy="1.19752" r="1.19752" transform="matrix(-1 0 0 1 19.689 165.812)" fill="#EEF0FF"/>
<circle cx="1.19752" cy="1.19752" r="1.19752" transform="matrix(-1 0 0 1 194.527 16.1216)" fill="#EEF0FF"/>
<path d="M104.998 65.3388C100.964 65.3388 97.5104 63.9024 94.6376 61.0296C91.7648 58.1568 90.3283 54.7033 90.3283 50.6692C90.3283 46.635 91.7648 43.1815 94.6376 40.3087C97.5104 37.4359 100.964 35.9995 104.998 35.9995C109.032 35.9995 112.486 37.4359 115.358 40.3087C118.231 43.1815 119.668 46.635 119.668 50.6692C119.668 54.7033 118.231 58.1568 115.358 61.0296C112.486 63.9024 109.032 65.3388 104.998 65.3388ZM75.6587 87.3433V84.4094C75.6587 82.3312 76.1941 80.4217 77.265 78.6809C78.3359 76.9401 79.7564 75.61 81.5266 74.6907C85.3162 72.7959 89.167 71.3754 93.0789 70.4292C96.9908 69.483 100.964 69.0087 104.998 69.0062C109.032 69.0038 113.005 69.4781 116.917 70.4292C120.829 71.3803 124.68 72.8008 128.469 74.6907C130.242 75.6076 131.664 76.9376 132.735 78.6809C133.806 80.4241 134.34 82.3336 134.337 84.4094V87.3433C134.337 89.3604 133.62 91.0877 132.185 92.5254C130.749 93.963 129.022 94.6806 127.002 94.6781H82.9935C80.9764 94.6781 79.2503 93.9606 77.8151 92.5254C76.3799 91.0902 75.6611 89.3628 75.6587 87.3433Z" fill="url(#paint0_angular_441_16674)"/>
<path d="M68.6958 120.599V118.205H82.9642V120.599H77.2118V136.641H74.4391V120.599H68.6958ZM88.0436 136.947C87.1674 136.947 86.3752 136.785 85.6671 136.461C84.9589 136.131 84.3978 135.654 83.9837 135.03C83.5756 134.406 83.3715 133.64 83.3715 132.734C83.3715 131.954 83.5215 131.312 83.8216 130.808C84.1217 130.304 84.5268 129.905 85.0369 129.61C85.547 129.316 86.1172 129.094 86.7473 128.944C87.3775 128.794 88.0196 128.68 88.6738 128.602C89.502 128.506 90.1741 128.428 90.6902 128.368C91.2064 128.302 91.5815 128.197 91.8155 128.053C92.0496 127.909 92.1666 127.675 92.1666 127.351V127.288C92.1666 126.502 91.9445 125.893 91.5004 125.46C91.0623 125.028 90.4082 124.812 89.538 124.812C88.6318 124.812 87.9176 125.013 87.3955 125.415C86.8793 125.812 86.5223 126.253 86.3242 126.739L83.7946 126.163C84.0947 125.322 84.5328 124.644 85.1089 124.128C85.6911 123.606 86.3602 123.228 87.1164 122.994C87.8726 122.754 88.6678 122.634 89.502 122.634C90.0541 122.634 90.6392 122.7 91.2574 122.832C91.8815 122.958 92.4637 123.192 93.0038 123.534C93.5499 123.876 93.997 124.365 94.3451 125.001C94.6932 125.632 94.8672 126.451 94.8672 127.459V136.641H92.2386V134.751H92.1306C91.9565 135.099 91.6955 135.441 91.3474 135.777C90.9993 136.113 90.5522 136.392 90.0061 136.614C89.46 136.836 88.8058 136.947 88.0436 136.947ZM88.6288 134.787C89.3729 134.787 90.0091 134.64 90.5372 134.346C91.0713 134.052 91.4764 133.667 91.7525 133.193C92.0346 132.713 92.1756 132.2 92.1756 131.654V129.872C92.0796 129.968 91.8935 130.058 91.6175 130.142C91.3474 130.22 91.0383 130.289 90.6902 130.349C90.3422 130.403 90.0031 130.454 89.673 130.502C89.3429 130.544 89.0669 130.58 88.8448 130.61C88.3227 130.676 87.8456 130.787 87.4135 130.943C86.9874 131.099 86.6453 131.324 86.3872 131.618C86.1352 131.906 86.0091 132.29 86.0091 132.77C86.0091 133.436 86.2552 133.94 86.7473 134.283C87.2394 134.619 87.8666 134.787 88.6288 134.787ZM101.144 118.205V136.641H98.4523V118.205H101.144ZM110.724 136.92C109.362 136.92 108.189 136.629 107.205 136.047C106.226 135.459 105.47 134.634 104.936 133.571C104.408 132.503 104.144 131.252 104.144 129.817C104.144 128.401 104.408 127.153 104.936 126.073C105.47 124.992 106.214 124.149 107.169 123.543C108.129 122.937 109.251 122.634 110.535 122.634C111.316 122.634 112.072 122.763 112.804 123.021C113.536 123.279 114.193 123.684 114.775 124.236C115.358 124.788 115.817 125.505 116.153 126.388C116.489 127.264 116.657 128.329 116.657 129.583V130.538H105.665V128.521H114.019C114.019 127.813 113.875 127.186 113.587 126.64C113.299 126.088 112.894 125.653 112.372 125.334C111.856 125.016 111.25 124.857 110.553 124.857C109.797 124.857 109.137 125.043 108.573 125.415C108.015 125.782 107.583 126.262 107.277 126.856C106.977 127.444 106.827 128.083 106.827 128.773V130.349C106.827 131.273 106.989 132.059 107.313 132.707C107.643 133.355 108.102 133.85 108.69 134.193C109.278 134.529 109.965 134.697 110.751 134.697C111.262 134.697 111.727 134.625 112.147 134.481C112.567 134.331 112.93 134.109 113.236 133.814C113.542 133.52 113.776 133.157 113.938 132.725L116.486 133.184C116.282 133.934 115.916 134.592 115.388 135.156C114.865 135.714 114.208 136.149 113.416 136.461C112.63 136.767 111.733 136.92 110.724 136.92ZM122.335 128.431V136.641H119.643V122.814H122.227V125.064H122.398C122.716 124.332 123.214 123.744 123.892 123.3C124.577 122.856 125.438 122.634 126.476 122.634C127.418 122.634 128.243 122.832 128.952 123.228C129.66 123.618 130.209 124.2 130.599 124.974C130.989 125.749 131.184 126.706 131.184 127.846V136.641H128.492V128.17C128.492 127.168 128.231 126.385 127.709 125.821C127.187 125.25 126.47 124.965 125.558 124.965C124.934 124.965 124.378 125.1 123.892 125.37C123.412 125.641 123.031 126.037 122.749 126.559C122.473 127.075 122.335 127.699 122.335 128.431ZM141.248 122.814V124.974H133.696V122.814H141.248ZM135.721 119.501H138.413V132.581C138.413 133.103 138.491 133.496 138.647 133.76C138.803 134.018 139.004 134.196 139.25 134.292C139.502 134.382 139.775 134.427 140.069 134.427C140.285 134.427 140.474 134.412 140.636 134.382C140.798 134.352 140.924 134.328 141.014 134.31L141.501 136.533C141.344 136.593 141.122 136.653 140.834 136.713C140.546 136.779 140.186 136.815 139.754 136.821C139.046 136.833 138.386 136.707 137.774 136.443C137.162 136.179 136.666 135.771 136.288 135.219C135.91 134.667 135.721 133.973 135.721 133.139V119.501ZM44.8694 166.947C43.9932 166.947 43.201 166.785 42.4928 166.461C41.7847 166.131 41.2235 165.654 40.8094 165.03C40.4013 164.406 40.1973 163.64 40.1973 162.734C40.1973 161.954 40.3473 161.312 40.6474 160.808C40.9475 160.304 41.3526 159.905 41.8627 159.61C42.3728 159.316 42.9429 159.094 43.5731 158.944C44.2032 158.794 44.8454 158.68 45.4995 158.602C46.3277 158.506 46.9999 158.428 47.516 158.368C48.0321 158.302 48.4072 158.197 48.6413 158.053C48.8753 157.909 48.9924 157.675 48.9924 157.351V157.288C48.9924 156.502 48.7703 155.893 48.3262 155.46C47.8881 155.028 47.234 154.812 46.3638 154.812C45.4575 154.812 44.7434 155.013 44.2212 155.415C43.7051 155.812 43.348 156.253 43.15 156.739L40.6204 156.163C40.9205 155.322 41.3586 154.644 41.9347 154.128C42.5168 153.606 43.186 153.228 43.9422 152.994C44.6984 152.754 45.4935 152.634 46.3277 152.634C46.8799 152.634 47.465 152.7 48.0832 152.832C48.7073 152.958 49.2894 153.192 49.8296 153.534C50.3757 153.876 50.8228 154.365 51.1709 155.001C51.519 155.632 51.693 156.451 51.693 157.459V166.641H49.0644V164.751H48.9564C48.7823 165.099 48.5213 165.441 48.1732 165.777C47.8251 166.113 47.378 166.392 46.8319 166.614C46.2857 166.836 45.6316 166.947 44.8694 166.947ZM45.4545 164.787C46.1987 164.787 46.8349 164.64 47.363 164.346C47.8971 164.052 48.3022 163.667 48.5783 163.193C48.8603 162.713 49.0014 162.2 49.0014 161.654V159.872C48.9054 159.968 48.7193 160.058 48.4432 160.142C48.1732 160.22 47.8641 160.289 47.516 160.349C47.1679 160.403 46.8289 160.454 46.4988 160.502C46.1687 160.544 45.8926 160.58 45.6706 160.61C45.1485 160.676 44.6714 160.787 44.2393 160.943C43.8131 161.099 43.4711 161.324 43.213 161.618C42.9609 161.906 42.8349 162.29 42.8349 162.77C42.8349 163.436 43.081 163.94 43.5731 164.283C44.0652 164.619 44.6924 164.787 45.4545 164.787ZM61.1025 166.92C59.7642 166.92 58.6119 166.617 57.6457 166.011C56.6854 165.399 55.9473 164.556 55.4311 163.481C54.915 162.407 54.657 161.177 54.657 159.79C54.657 158.386 54.921 157.147 55.4492 156.073C55.9773 154.992 56.7215 154.149 57.6817 153.543C58.6419 152.937 59.7732 152.634 61.0755 152.634C62.1257 152.634 63.062 152.829 63.8842 153.219C64.7063 153.603 65.3695 154.143 65.8736 154.839C66.3837 155.535 66.6868 156.349 66.7828 157.279H64.1632C64.0192 156.631 63.6891 156.073 63.173 155.605C62.6629 155.136 61.9787 154.902 61.1205 154.902C60.3703 154.902 59.7132 155.1 59.149 155.496C58.5909 155.887 58.1558 156.445 57.8437 157.171C57.5316 157.891 57.3756 158.743 57.3756 159.727C57.3756 160.736 57.5286 161.606 57.8347 162.338C58.1408 163.07 58.5729 163.637 59.131 164.039C59.6952 164.442 60.3583 164.643 61.1205 164.643C61.6306 164.643 62.0927 164.55 62.5068 164.364C62.9269 164.172 63.278 163.898 63.5601 163.544C63.8481 163.19 64.0492 162.764 64.1632 162.266H66.7828C66.6868 163.16 66.3957 163.958 65.9096 164.661C65.4235 165.363 64.7724 165.915 63.9562 166.317C63.146 166.719 62.1948 166.92 61.1025 166.92ZM78.9965 171.826V164.49H78.8344C78.6724 164.784 78.4383 165.12 78.1323 165.498C77.8322 165.876 77.4181 166.206 76.89 166.488C76.3619 166.77 75.6777 166.911 74.8375 166.911C73.7212 166.911 72.725 166.626 71.8488 166.056C70.9786 165.48 70.2944 164.661 69.7963 163.598C69.3042 162.53 69.0581 161.249 69.0581 159.754C69.0581 158.26 69.3072 156.982 69.8053 155.92C70.3094 154.857 70.9996 154.044 71.8758 153.48C72.752 152.916 73.7452 152.634 74.8555 152.634C75.7137 152.634 76.4039 152.778 76.926 153.066C77.4541 153.348 77.8622 153.678 78.1503 154.056C78.4443 154.434 78.6724 154.767 78.8344 155.055H79.0595V152.814H81.6881V171.826H78.9965ZM75.4316 164.616C76.2058 164.616 76.86 164.412 77.3941 164.003C77.9342 163.589 78.3423 163.016 78.6184 162.284C78.9005 161.552 79.0415 160.7 79.0415 159.727C79.0415 158.767 78.9035 157.927 78.6274 157.207C78.3513 156.487 77.9462 155.926 77.4121 155.523C76.878 155.121 76.2178 154.92 75.4316 154.92C74.6214 154.92 73.9463 155.13 73.4062 155.55C72.866 155.971 72.4579 156.544 72.1819 157.27C71.9118 157.996 71.7768 158.815 71.7768 159.727C71.7768 160.652 71.9148 161.483 72.1909 162.221C72.4669 162.959 72.875 163.544 73.4152 163.976C73.9613 164.403 74.6334 164.616 75.4316 164.616ZM94.066 160.907V152.814H96.7667V166.641H94.1201V164.247H93.976C93.6579 164.985 93.1478 165.6 92.4457 166.092C91.7495 166.578 90.8823 166.821 89.844 166.821C88.9558 166.821 88.1696 166.626 87.4855 166.236C86.8073 165.84 86.2732 165.255 85.8831 164.481C85.499 163.706 85.307 162.749 85.307 161.609V152.814H87.9986V161.285C87.9986 162.227 88.2597 162.977 88.7818 163.535C89.3039 164.094 89.9821 164.373 90.8163 164.373C91.3204 164.373 91.8215 164.247 92.3196 163.994C92.8238 163.742 93.2408 163.361 93.5709 162.851C93.907 162.341 94.072 161.693 94.066 160.907ZM100.383 166.641V152.814H103.075V166.641H100.383ZM101.743 150.68C101.274 150.68 100.872 150.524 100.536 150.212C100.206 149.894 100.041 149.516 100.041 149.078C100.041 148.634 100.206 148.256 100.536 147.944C100.872 147.626 101.274 147.467 101.743 147.467C102.211 147.467 102.61 147.626 102.94 147.944C103.276 148.256 103.444 148.634 103.444 149.078C103.444 149.516 103.276 149.894 102.94 150.212C102.61 150.524 102.211 150.68 101.743 150.68ZM117.057 156.19L114.618 156.622C114.516 156.31 114.354 156.013 114.132 155.731C113.916 155.448 113.622 155.217 113.25 155.037C112.877 154.857 112.412 154.767 111.854 154.767C111.092 154.767 110.456 154.938 109.946 155.28C109.436 155.617 109.181 156.052 109.181 156.586C109.181 157.048 109.352 157.42 109.694 157.702C110.036 157.984 110.588 158.215 111.35 158.395L113.547 158.899C114.819 159.193 115.767 159.646 116.391 160.259C117.015 160.871 117.328 161.666 117.328 162.644C117.328 163.472 117.087 164.211 116.607 164.859C116.133 165.501 115.47 166.005 114.618 166.371C113.772 166.737 112.79 166.92 111.674 166.92C110.126 166.92 108.863 166.59 107.884 165.93C106.906 165.264 106.306 164.319 106.084 163.094L108.686 162.698C108.848 163.376 109.181 163.889 109.685 164.238C110.189 164.58 110.846 164.751 111.656 164.751C112.538 164.751 113.244 164.568 113.772 164.202C114.3 163.829 114.564 163.376 114.564 162.842C114.564 162.41 114.402 162.047 114.078 161.753C113.76 161.459 113.271 161.237 112.61 161.087L110.27 160.574C108.98 160.28 108.025 159.811 107.407 159.169C106.795 158.527 106.489 157.714 106.489 156.73C106.489 155.914 106.717 155.199 107.173 154.587C107.629 153.975 108.259 153.498 109.064 153.156C109.868 152.808 110.789 152.634 111.827 152.634C113.322 152.634 114.498 152.958 115.356 153.606C116.214 154.248 116.781 155.109 117.057 156.19ZM120.287 166.641V152.814H122.979V166.641H120.287ZM121.646 150.68C121.178 150.68 120.776 150.524 120.44 150.212C120.11 149.894 119.945 149.516 119.945 149.078C119.945 148.634 120.11 148.256 120.44 147.944C120.776 147.626 121.178 147.467 121.646 147.467C122.114 147.467 122.514 147.626 122.844 147.944C123.18 148.256 123.348 148.634 123.348 149.078C123.348 149.516 123.18 149.894 122.844 150.212C122.514 150.524 122.114 150.68 121.646 150.68ZM133.054 152.814V154.974H125.501V152.814H133.054ZM127.527 149.501H130.219V162.581C130.219 163.103 130.297 163.496 130.453 163.76C130.609 164.018 130.81 164.196 131.056 164.292C131.308 164.382 131.581 164.427 131.875 164.427C132.091 164.427 132.28 164.412 132.442 164.382C132.604 164.352 132.73 164.328 132.82 164.31L133.306 166.533C133.15 166.593 132.928 166.653 132.64 166.713C132.352 166.779 131.992 166.815 131.56 166.821C130.852 166.833 130.192 166.707 129.579 166.443C128.967 166.179 128.472 165.771 128.094 165.219C127.716 164.667 127.527 163.973 127.527 163.139V149.501ZM136.032 166.641V152.814H138.723V166.641H136.032ZM137.391 150.68C136.923 150.68 136.521 150.524 136.185 150.212C135.855 149.894 135.69 149.516 135.69 149.078C135.69 148.634 135.855 148.256 136.185 147.944C136.521 147.626 136.923 147.467 137.391 147.467C137.859 147.467 138.258 147.626 138.588 147.944C138.924 148.256 139.092 148.634 139.092 149.078C139.092 149.516 138.924 149.894 138.588 150.212C138.258 150.524 137.859 150.68 137.391 150.68ZM148.169 166.92C146.873 166.92 145.741 166.623 144.775 166.029C143.809 165.435 143.059 164.604 142.525 163.535C141.99 162.467 141.723 161.219 141.723 159.79C141.723 158.356 141.99 157.102 142.525 156.028C143.059 154.953 143.809 154.119 144.775 153.525C145.741 152.931 146.873 152.634 148.169 152.634C149.465 152.634 150.596 152.931 151.563 153.525C152.529 154.119 153.279 154.953 153.813 156.028C154.347 157.102 154.614 158.356 154.614 159.79C154.614 161.219 154.347 162.467 153.813 163.535C153.279 164.604 152.529 165.435 151.563 166.029C150.596 166.623 149.465 166.92 148.169 166.92ZM148.178 164.661C149.018 164.661 149.714 164.439 150.266 163.994C150.818 163.55 151.227 162.959 151.491 162.221C151.761 161.483 151.896 160.67 151.896 159.781C151.896 158.899 151.761 158.089 151.491 157.351C151.227 156.607 150.818 156.01 150.266 155.559C149.714 155.109 149.018 154.884 148.178 154.884C147.332 154.884 146.629 155.109 146.071 155.559C145.519 156.01 145.108 156.607 144.838 157.351C144.574 158.089 144.442 158.899 144.442 159.781C144.442 160.67 144.574 161.483 144.838 162.221C145.108 162.959 145.519 163.55 146.071 163.994C146.629 164.439 147.332 164.661 148.178 164.661ZM160.31 158.431V166.641H157.619V152.814H160.202V155.064H160.373C160.692 154.332 161.19 153.744 161.868 153.3C162.552 152.856 163.413 152.634 164.451 152.634C165.394 152.634 166.219 152.832 166.927 153.228C167.635 153.618 168.184 154.2 168.574 154.974C168.965 155.749 169.16 156.706 169.16 157.846V166.641H166.468V158.17C166.468 157.168 166.207 156.385 165.685 155.821C165.163 155.25 164.445 154.965 163.533 154.965C162.909 154.965 162.354 155.1 161.868 155.37C161.388 155.641 161.007 156.037 160.725 156.559C160.449 157.075 160.31 157.699 160.31 158.431Z" fill="#1B2ACB"/>
<defs>
<radialGradient id="paint0_angular_441_16674" cx="0" cy="0" r="1" gradientUnits="userSpaceOnUse" gradientTransform="translate(69.1309 32.9793) rotate(50.0427) scale(128.899 55.257)">
<stop offset="0.0331602" stop-color="#0012DB"/>
<stop offset="0.779789" stop-color="white"/>
<stop offset="0.867979" stop-color="#1B2DCB"/>
</radialGradient>
</defs>
</svg>
