<svg width="29" height="33" viewBox="0 0 29 33" fill="none" xmlns="http://www.w3.org/2000/svg">
<path id="Vector" d="M1.11541 13.7891L2.22636 13.6909C2.20075 13.3961 2.06609 13.1228 1.85033 12.9277C1.63458 12.7327 1.35431 12.6309 1.06776 12.6435C0.781202 12.6562 0.510378 12.7823 0.311539 12.9956C0.112699 13.2089 0.00112823 13.4931 0 13.7891H1.11541ZM26.749 16.5873L25.699 22.8497L27.8986 23.2426L28.9471 16.9802L26.749 16.5873ZM16.3519 30.6976H9.43785V33H16.3519V30.6976ZM8.083 29.4129L6.87539 14.9956L4.652 15.1936L5.86111 29.6109L8.083 29.4129ZM25.699 22.8497C24.945 27.3469 21.0158 30.6976 16.3519 30.6976V33C22.042 33 26.9498 28.9033 27.8986 23.2426L25.699 22.8497ZM16.3668 5.90895L15.3808 12.1176L17.5818 12.4891L18.5679 6.28193L16.3668 5.90895ZM7.34386 13.8076L9.48396 11.9043L8.02649 10.1606L5.88936 12.0639L7.34386 13.8076ZM13.376 5.71248L14.0839 2.89747L11.9245 2.32035L11.2166 5.13382L13.376 5.71248ZM15.1517 2.3449L15.3674 2.41705L16.05 0.225203L15.8344 0.153062L15.1517 2.3449ZM12.3037 8.54285C12.768 7.64632 13.1279 6.69627 13.376 5.71248L11.2166 5.13382C11.0116 5.94163 10.7162 6.72202 10.3361 7.4592L12.3037 8.54285ZM15.3674 2.41705C15.5792 2.48406 15.7714 2.6049 15.9263 2.76848C16.0812 2.93207 16.1938 3.13317 16.2537 3.35334L18.4132 2.77621C18.2601 2.17959 17.9631 1.63272 17.5499 1.18663C17.1366 0.740533 16.6206 0.409768 16.05 0.225203L15.3674 2.41705ZM14.0839 2.89747C14.114 2.78713 14.1668 2.68478 14.2386 2.59738C14.3105 2.50997 14.3997 2.43957 14.5003 2.39095L13.5322 0.317297C12.741 0.710232 12.1461 1.43778 11.9245 2.32035L14.0839 2.89747ZM14.5003 2.39095C14.704 2.29122 14.9368 2.27477 15.1517 2.3449L15.8344 0.153062C15.0748 -0.09754 14.2511 -0.0387799 13.5322 0.317297L14.5003 2.39095ZM17.7038 14.9403H25.4075V12.638H17.7038V14.9403ZM3.67193 30.9371L2.22636 13.6909L0.00446167 13.8889L1.44706 31.1351L3.67193 30.9371ZM2.23082 31.1013V13.7891H0V31.1013H2.23082ZM1.44706 31.1351C1.44252 31.0793 1.45076 31.0232 1.46838 30.9702C1.48599 30.9173 1.51408 30.8687 1.55086 30.8276C1.58765 30.7864 1.63232 30.7536 1.68204 30.7313C1.73176 30.7089 1.78544 30.6974 1.83968 30.6976V33C2.9194 33 3.76414 32.0453 3.67193 30.9371L1.44706 31.1351ZM18.5679 6.28193C18.7548 5.11508 18.7021 3.9207 18.4132 2.77621L16.2537 3.35487C16.4647 4.18861 16.5032 5.05884 16.3668 5.90895L18.5679 6.28193ZM9.43785 30.6976C9.0973 30.697 8.76932 30.5648 8.51854 30.327C8.26776 30.0892 8.11237 29.7631 8.083 29.4129L5.86111 29.6109C5.93849 30.5352 6.34873 31.3959 7.01088 32.0233C7.67302 32.6507 8.53897 32.9992 9.43785 33V30.6976ZM9.48396 11.9043C10.4953 11.0048 11.5839 9.935 12.3052 8.54285L10.3361 7.4592C9.82155 8.45536 9.0021 9.29495 8.02649 10.1606L9.48396 11.9043ZM28.9471 16.9802C29.0367 16.4476 29.0123 15.9012 28.8757 15.3793C28.7391 14.8574 28.4936 14.3727 28.1564 13.959C27.8192 13.5453 27.3985 13.2127 26.9236 12.9845C26.4488 12.7564 25.9313 12.6381 25.4075 12.638V14.9403C26.2508 14.9403 26.8948 15.7262 26.749 16.5873L28.9471 16.9802ZM1.83968 30.6976C2.05682 30.6976 2.23082 30.8788 2.23082 31.1013H0C0 32.1481 0.822429 33 1.83968 33V30.6976ZM15.3808 12.1176C15.3253 12.4654 15.3438 12.8215 15.4351 13.1611C15.5263 13.5008 15.688 13.8159 15.909 14.0846C16.13 14.3533 16.405 14.5691 16.7149 14.7171C17.0249 14.8652 17.3623 14.9403 17.7038 14.9403V12.638C17.6856 12.6381 17.6677 12.6355 17.6512 12.6276C17.6348 12.6198 17.6202 12.6082 17.6086 12.5939C17.5969 12.5795 17.5885 12.5627 17.5839 12.5446C17.5792 12.5264 17.5786 12.5075 17.5818 12.4891L15.3808 12.1176ZM6.87539 14.9956C6.85724 14.7733 6.88889 14.5498 6.97057 14.3433C7.05226 14.1368 7.18018 13.9532 7.34386 13.8076L5.88639 12.0624C5.45531 12.4463 5.11865 12.9303 4.90406 13.4747C4.68948 14.019 4.60309 14.6081 4.652 15.1936L6.87539 14.9956Z" fill="#1B2ACB"/>
</svg>
