<svg width="32" height="32" viewBox="0 0 32 32" fill="none" xmlns="http://www.w3.org/2000/svg">
<g id="Group">
<path id="Vector" d="M16 30C8.2678 30 2 23.7322 2 16C2 8.2678 8.2678 2 16 2C22.2692 2 27.5164 6.1202 29.3 11.8H25.8" stroke="#FB7E7C" stroke-width="2.5" stroke-linecap="round" stroke-linejoin="round"/>
<path id="Vector_2" d="M16 10.4V16L18.8 18.8M29.937 17.4C29.979 16.938 30 16.4714 30 16M20.2 30C20.6762 29.8423 21.1435 29.6591 21.6 29.4512M28.306 23C28.5776 22.4792 28.8179 21.9407 29.027 21.3844M24.6688 27.5206C25.1523 27.1212 25.6082 26.6909 26.0366 26.2298" stroke="#FB7E7C" stroke-width="2.5" stroke-linecap="round" stroke-linejoin="round"/>
</g>
</svg>
