<svg width="61" height="60" viewBox="0 0 61 60" fill="none" xmlns="http://www.w3.org/2000/svg">
<g id="Social Icons">
<path id="BG" opacity="0.1" fill-rule="evenodd" clip-rule="evenodd" d="M2 30.1479C2 14.4078 14.7599 1.64795 30.5 1.64795C46.2401 1.64795 59 14.4078 59 30.1479C59 45.8881 46.2401 58.6479 30.5 58.6479C14.7599 58.6479 2 45.8881 2 30.1479Z" fill="white" stroke="#002163" stroke-width="2.36"/>
<path id="Path" fill-rule="evenodd" clip-rule="evenodd" d="M29.6464 24.8132L29.7062 25.7994L28.7095 25.6786C25.0813 25.2157 21.9116 23.6459 19.2203 21.0094L17.9046 19.7013L17.5657 20.6673C16.8481 22.8207 17.3066 25.095 18.8017 26.6245C19.5991 27.4698 19.4197 27.5906 18.0442 27.0874C17.5657 26.9264 17.1471 26.8057 17.1072 26.866C16.9677 27.0069 17.4461 28.8384 17.8249 29.5629C18.3432 30.5692 19.3998 31.5553 20.556 32.139L21.5328 32.6019L20.3766 32.622C19.2602 32.622 19.2203 32.6421 19.3399 33.0648C19.7387 34.373 21.3135 35.7616 23.0678 36.3654L24.3038 36.7881L23.2273 37.4321C21.6325 38.3579 19.7586 38.8811 17.8847 38.9214C16.9876 38.9415 16.25 39.022 16.25 39.0824C16.25 39.2837 18.6821 40.4107 20.0975 40.8535C24.3437 42.1616 29.3873 41.5981 33.1749 39.3642C35.8662 37.7742 38.5574 34.6145 39.8134 31.5553C40.4912 29.9252 41.1689 26.9465 41.1689 25.5176C41.1689 24.5918 41.2288 24.4711 42.3451 23.3641C43.003 22.7201 43.621 22.0157 43.7406 21.8145C43.9399 21.4321 43.92 21.4321 42.9033 21.7742C41.2088 22.378 40.9696 22.2975 41.8069 21.3918C42.4249 20.7478 43.1625 19.5805 43.1625 19.2384C43.1625 19.178 42.8634 19.2786 42.5245 19.4597C42.1657 19.661 41.3683 19.9629 40.7702 20.144L39.6937 20.4862L38.7169 19.822C38.1787 19.4597 37.4211 19.0572 37.0224 18.9365C36.0057 18.6547 34.4508 18.695 33.5338 19.017C31.0419 19.9226 29.467 22.2572 29.6464 24.8132Z" fill="#002163"/>
</g>
</svg>
