<svg width="36" height="35" viewBox="0 0 36 35" fill="none" xmlns="http://www.w3.org/2000/svg">
<g id="users" clip-path="url(#clip0_929_17235)">
<path id="Icon" d="M25.1875 30.4375V27.5625C25.1875 26.0375 24.5817 24.575 23.5034 23.4966C22.425 22.4183 20.9625 21.8125 19.4375 21.8125H7.9375C6.41251 21.8125 4.94997 22.4183 3.87164 23.4966C2.7933 24.575 2.1875 26.0375 2.1875 27.5625V30.4375M33.8125 30.4375V27.5625C33.8115 26.2885 33.3875 25.0509 32.607 24.044C31.8264 23.037 30.7336 22.3179 29.5 21.9994M23.75 4.74938C24.9868 5.06606 26.0831 5.78538 26.866 6.79395C27.6488 7.80251 28.0738 9.04294 28.0738 10.3197C28.0738 11.5964 27.6488 12.8369 26.866 13.8454C26.0831 14.854 24.9868 15.5733 23.75 15.89M19.4375 10.3125C19.4375 13.4881 16.8631 16.0625 13.6875 16.0625C10.5119 16.0625 7.9375 13.4881 7.9375 10.3125C7.9375 7.13686 10.5119 4.5625 13.6875 4.5625C16.8631 4.5625 19.4375 7.13686 19.4375 10.3125Z" stroke="#1B2ACB" stroke-width="2.875" stroke-linecap="round" stroke-linejoin="round"/>
</g>
<defs>
<clipPath id="clip0_929_17235">
<rect width="34.5" height="34.5" fill="white" transform="translate(0.75 0.25)"/>
</clipPath>
</defs>
</svg>
