<svg width="61" height="60" viewBox="0 0 61 60" fill="none" xmlns="http://www.w3.org/2000/svg">
<g id="Social Icons">
<path id="BG" opacity="0.1" fill-rule="evenodd" clip-rule="evenodd" d="M2 30.1479C2 14.4078 14.7599 1.64795 30.5 1.64795C46.2401 1.64795 59 14.4078 59 30.1479C59 45.8881 46.2401 58.6479 30.5 58.6479C14.7599 58.6479 2 45.8881 2 30.1479Z" fill="white" stroke="#002163" stroke-width="2.36"/>
<path id="Path" fill-rule="evenodd" clip-rule="evenodd" d="M42.3772 20.3501C43.6853 20.709 44.7154 21.7666 45.065 23.1097C45.7003 25.5439 45.7003 30.6228 45.7003 30.6228C45.7003 30.6228 45.7003 35.7015 45.065 38.1358C44.7154 39.4789 43.6853 40.5365 42.3772 40.8956C40.0067 41.5478 30.5003 41.5478 30.5003 41.5478C30.5003 41.5478 20.9939 41.5478 18.6232 40.8956C17.3152 40.5365 16.285 39.4789 15.9354 38.1358C15.3003 35.7015 15.3003 30.6228 15.3003 30.6228C15.3003 30.6228 15.3003 25.5439 15.9354 23.1097C16.285 21.7666 17.3152 20.709 18.6232 20.3501C20.9939 19.6978 30.5003 19.6978 30.5003 19.6978C30.5003 19.6978 40.0067 19.6978 42.3772 20.3501ZM27.6503 26.3477V35.8477L35.2503 31.0978L27.6503 26.3477Z" fill="#002163"/>
</g>
</svg>
